<svg width="144" height="37" viewBox="0 0 144 37" fill="none" xmlns="http://www.w3.org/2000/svg">
<g clip-path="url(#clip0_7897_39593)">
<path d="M49.3385 0H48.9013V36.7867H49.3385V0Z" fill="#FDB913"/>
<path d="M57.2671 26.5867C57.2671 25.2533 57.1734 24.8489 56.3659 24.7378L55.942 24.68C55.7903 24.5822 55.768 24.28 55.9598 24.2045C57.5884 24.1111 59.1366 24.0533 60.7652 24.0533C62.3938 24.0533 63.7323 24.1689 64.9771 24.6267C67.5605 25.56 68.8634 27.7378 68.8634 30.2533C68.8634 32.7689 67.6944 34.7556 65.5125 35.9378C64.2677 36.6045 62.6972 36.8533 61.2248 36.8533C59.9978 36.8533 58.7752 36.6978 58.1015 36.6978C57.2984 36.6978 56.6068 36.72 55.71 36.7556C55.594 36.6978 55.5583 36.3956 55.6698 36.28L56.1115 36.2222C57.2225 36.0711 57.2627 35.84 57.2627 33.8356V26.5867H57.2671ZM58.8377 33.3956C58.8377 34.4089 58.8957 35.0178 59.2214 35.4756C59.6408 36.0667 60.3681 36.2578 61.5772 36.2578C65.2895 36.2578 66.9537 33.8356 66.9537 30.2889C66.9537 28.1911 65.9409 24.6445 60.9258 24.6445C59.797 24.6445 59.1857 24.8 59.0296 24.9111C58.8734 25.0267 58.8377 25.5022 58.8377 26.36V33.3956Z" fill="#004B8D"/>
<path d="M71.0407 31.2223C71.0407 30.48 71.0407 30.3823 70.5231 30.04L70.3491 29.9289C70.2733 29.8534 70.2733 29.64 70.367 29.5823C70.8087 29.4311 71.8215 28.9334 72.3034 28.6489C72.3971 28.6667 72.4551 28.7067 72.4551 28.7823V29.8889C72.4551 29.9867 72.473 30.04 72.5131 30.0578C73.1824 29.5067 73.9096 28.9111 74.6191 28.9111C75.0965 28.9111 75.4802 29.2178 75.4802 29.6756C75.4802 30.3023 74.9626 30.5511 74.6548 30.5511C74.4674 30.5511 74.3692 30.4934 74.2354 30.4178C73.9498 30.2267 73.6598 30.1111 73.3965 30.1111C73.0887 30.1111 72.8611 30.2845 72.7094 30.4934C72.5176 30.76 72.4596 31.3156 72.4596 31.9645V34.5556C72.4596 35.9289 72.4997 36.16 73.227 36.2178L73.9141 36.2756C74.048 36.3689 74.0078 36.6934 73.8784 36.7511C72.9771 36.7156 72.4239 36.6934 71.7501 36.6934C71.0764 36.6934 70.4875 36.7156 69.9877 36.7511C69.8539 36.6934 69.8182 36.3689 69.9476 36.2756L70.3134 36.2178C71.0229 36.1023 71.0407 35.9289 71.0407 34.5556V31.2178V31.2223Z" fill="#004B8D"/>
<path d="M77.3988 31.2223C77.3988 30.4801 77.3988 30.3823 76.8812 30.0401L76.7072 29.929C76.6313 29.8534 76.6313 29.6401 76.725 29.5823C77.1667 29.4312 78.2554 28.9334 78.6971 28.649C78.7908 28.649 78.8667 28.6845 78.889 28.7645C78.8533 29.4312 78.8131 30.3468 78.8131 31.129V34.5601C78.8131 35.9334 78.8533 36.1245 79.5404 36.2223L79.942 36.2801C80.0758 36.3734 80.0357 36.6979 79.9018 36.7557C79.3262 36.7201 78.773 36.6979 78.1037 36.6979C77.4344 36.6979 76.841 36.7201 76.3011 36.7557C76.1673 36.6979 76.1316 36.3734 76.261 36.2801L76.6626 36.2223C77.372 36.1245 77.3898 35.9334 77.3898 34.5601V31.2223H77.3988ZM78.9872 25.7868C78.9872 26.4757 78.5097 26.7779 77.9743 26.7779C77.3809 26.7779 76.9972 26.3379 76.9972 25.8268C76.9972 25.1957 77.4568 24.7957 78.0323 24.7957C78.6079 24.7957 78.9872 25.2534 78.9872 25.7868Z" fill="#004B8D"/>
<path d="M82.0122 31.0711C81.7222 30.3645 81.5527 29.7556 80.8611 29.6622L80.4774 29.6045C80.3614 29.4534 80.3792 29.1867 80.5354 29.1289C81.0128 29.1645 81.6821 29.1867 82.3335 29.1867C82.8511 29.1867 83.2348 29.1645 83.8862 29.1289C84.0201 29.2045 84.0379 29.5111 83.904 29.6045L83.6765 29.6445C83.0831 29.7378 83.0652 29.8356 83.2571 30.4089C83.6988 31.7245 84.2521 33.0622 84.6938 34.0534C84.8678 34.4356 84.9436 34.6089 85.0016 34.6622C85.0775 34.6045 85.2114 34.3378 85.3675 33.9378C85.6174 33.2889 86.2688 31.6311 86.4607 31.1334C86.7284 30.4667 86.8042 30.0622 86.8042 29.9511C86.8042 29.7778 86.6927 29.7022 86.4607 29.6667L86.0189 29.6089C85.9029 29.4756 85.9252 29.2089 86.0546 29.1334C86.6481 29.1689 87.1255 29.1911 87.4913 29.1911C87.9687 29.1911 88.2945 29.1689 88.8299 29.1334C88.9637 29.2089 88.9816 29.4978 88.87 29.6089L88.5845 29.6489C87.9152 29.7422 87.7412 30.24 87.1879 31.3067C86.9202 31.8222 85.7334 34.5867 85.4255 35.3689C85.2337 35.8445 85.0418 36.2845 84.7919 36.9334C84.7518 36.9911 84.6759 37.0089 84.6001 37.0089C84.5019 37.0089 84.4082 36.9911 84.3502 36.9334C84.1985 36.4 83.9085 35.6534 83.623 34.9467L82.0122 31.0756V31.0711Z" fill="#004B8D"/>
<path d="M90.7351 31.8134C90.2354 31.8134 90.2175 31.8534 90.2175 32.3289C90.2175 34.2578 91.3463 35.8934 93.3943 35.8934C94.0279 35.8934 94.5633 35.7022 95.1567 34.96C95.3486 34.9022 95.4824 35.0178 95.5003 35.1867C94.8712 36.4845 93.4925 36.96 92.493 36.96C91.2482 36.96 90.271 36.4267 89.7178 35.7022C89.1422 34.96 88.9147 34.0622 88.9147 33.2222C88.9147 30.8756 90.4629 28.9111 92.7607 28.9111C94.4071 28.9111 95.478 30.0356 95.478 31.1822C95.478 31.4489 95.4423 31.6 95.4021 31.6756C95.3441 31.7911 95.0764 31.8089 94.2733 31.8089H90.7306L90.7351 31.8134ZM91.9219 31.24C93.3363 31.24 93.7602 31.1645 93.9119 31.0489C93.9699 31.0134 94.0279 30.9378 94.0279 30.6845C94.0279 30.1511 93.662 29.4845 92.5555 29.4845C91.449 29.4845 90.4495 30.5156 90.4317 31.1467C90.4317 31.1822 90.4317 31.24 90.5655 31.24H91.9264H91.9219Z" fill="#004B8D"/>
<path d="M98.2755 26.5867C98.2755 25.1733 98.1997 24.8133 97.3385 24.7378L96.7228 24.68C96.5711 24.5645 96.5889 24.28 96.7406 24.2045C97.7758 24.1111 99.0786 24.0533 100.854 24.0533C102.059 24.0533 103.21 24.1511 104.071 24.5867C104.897 24.9867 105.526 25.7511 105.526 26.9733C105.526 28.3467 104.723 29.0533 103.572 29.5867C103.572 29.7778 103.723 29.8356 103.933 29.8711C104.968 30.0622 106.499 31.0178 106.499 33.0578C106.499 35.2711 104.852 36.7556 101.403 36.7556C100.845 36.7556 99.9085 36.6978 99.1054 36.6978C98.3023 36.6978 97.6107 36.7378 96.9057 36.7556C96.7897 36.6978 96.754 36.3956 96.8656 36.28L97.2091 36.2222C98.222 36.0489 98.2621 35.84 98.2621 33.8356V26.5867H98.2755ZM99.8461 29.1245C99.8461 29.6578 99.8684 29.6978 100.841 29.6578C102.795 29.5822 103.848 29.0089 103.848 27.2133C103.848 25.4178 102.452 24.64 100.997 24.64C100.573 24.64 100.288 24.68 100.118 24.7556C99.9264 24.8133 99.8505 24.9067 99.8505 25.2533V29.1245H99.8461ZM99.8461 33.5467C99.8461 34.2356 99.8862 35.2045 100.248 35.6267C100.613 36.0667 101.185 36.16 101.76 36.16C103.465 36.16 104.763 35.4 104.763 33.4889C104.763 31.9822 103.996 30.2267 100.953 30.2267C99.9174 30.2267 99.8416 30.3422 99.8416 30.7245V33.5467H99.8461Z" fill="#FDB913"/>
<path d="M110.309 25.4223C111.706 24.3334 113.486 23.8 115.476 23.8C116.511 23.8 117.965 24.0089 118.867 24.2578C119.094 24.3156 119.233 24.3556 119.402 24.3334C119.42 24.7734 119.518 25.9734 119.67 27.1378C119.576 27.2712 119.286 27.2934 119.152 27.1734C118.867 25.8756 118.001 24.3867 115.226 24.3867C112.294 24.3867 109.809 26.24 109.809 30.1867C109.809 34.1334 112.357 36.4045 115.494 36.4045C117.965 36.4045 119.054 34.8 119.496 33.6756C119.63 33.5778 119.92 33.6178 119.996 33.7512C119.862 34.7423 119.362 36.0045 119.076 36.3645C118.844 36.4045 118.617 36.4801 118.407 36.5556C117.988 36.7112 116.609 36.9956 115.382 36.9956C113.655 36.9956 112.009 36.6534 110.612 35.7156C109.082 34.6667 107.895 32.9289 107.895 30.4712C107.895 28.3556 108.854 26.5423 110.309 25.4178V25.4223Z" fill="#FDB913"/>
<path d="M37.8762 12.7645C35.8416 4.95558 28.7518 0.106689 21.6218 0.106689C14.4919 0.106689 7.14332 5.07558 5.20244 13.2311C4.93027 14.3689 4.79642 15.64 4.79642 16.8534C4.79642 17.9289 4.90796 18.84 5.10428 19.8622C5.25152 19.8311 5.31399 19.8178 5.47907 19.7822C7.00501 19.52 9.41884 19.2089 11.4802 19.4667C14.7596 19.88 16.8076 20.4311 20.2655 21.2089C23.7234 21.9867 26.2755 22.72 30.0056 22.3111C33.2761 21.9511 35.5114 21.4445 37.6888 20.0134L37.8628 19.8978C37.8985 19.8711 38.0457 19.7645 38.0948 19.7289C38.2554 18.8 38.3759 17.8711 38.3759 16.8978C38.3759 15.5289 38.184 14.0445 37.8762 12.7734" fill="white"/>
<path d="M5.19352 13.2755C5.0552 13.9378 4.79642 15.1867 4.79642 16.8533C4.79642 17.9289 4.90796 18.84 5.10428 19.8622C5.25152 19.8311 5.31399 19.8178 5.47907 19.7822C7.00501 19.52 9.41884 19.2089 11.4802 19.4667C14.7551 19.88 16.8076 20.4267 20.2655 21.2089C23.7234 21.9867 26.2755 22.72 30.0056 22.3111C33.2716 21.9511 35.5114 21.4444 37.6888 20.0133L37.8628 19.8978C37.8985 19.8755 38.0502 19.7644 38.0948 19.7289C38.2554 18.8 38.3759 17.8711 38.3759 16.8978C38.3759 15.5867 38.1974 14.1733 37.9119 12.9378L35.6007 11.6533L32.928 13.52L31.1299 12.8222C30.5187 13.1289 26.7618 15.6355 26.7618 15.6355L25.3207 14.5955L23.7724 14.2889L21.7111 12.7911L19.3419 14.4089C19.3419 14.4089 16.7005 15.9378 16.6113 15.9378C16.522 15.9378 13.4255 13.4933 13.4255 13.4933L11.9978 11.9955C11.7568 12.1467 10.7841 12.5911 10.7841 12.5911L10.7351 12.6044L9.79809 12.3111L8.66033 11.7111L5.19798 13.2755H5.19352Z" fill="#004B8D"/>
<path d="M5.95203 24.6889C5.95203 24.0178 5.91187 23.8489 5.45677 23.8133L5.13552 23.7867C5.05521 23.7333 5.06413 23.5956 5.14444 23.56C5.68878 23.5156 6.37143 23.4889 7.30841 23.4889C7.94199 23.4889 8.54879 23.5333 8.99943 23.7422C9.43223 23.9289 9.76686 24.2933 9.76686 24.8711C9.76686 25.5244 9.34299 25.8533 8.74065 26.1067C8.74065 26.2 8.82096 26.2222 8.93251 26.24C9.47684 26.3289 10.28 26.7822 10.28 27.7467C10.28 28.7956 9.41438 29.5022 7.60289 29.5022C7.31287 29.5022 6.81761 29.4756 6.39374 29.4756C5.96987 29.4756 5.60847 29.4933 5.23814 29.5022C5.18014 29.4756 5.15783 29.3289 5.22029 29.2756L5.40322 29.2489C5.93864 29.1689 5.95649 29.0667 5.95649 28.12V24.6889H5.95203ZM6.77746 25.8889C6.77746 26.1422 6.78638 26.16 7.29949 26.1422C8.3257 26.1067 8.87896 25.8356 8.87896 24.9867C8.87896 24.1378 8.14277 23.7644 7.3798 23.7644C7.15671 23.7644 7.00947 23.7822 6.91577 23.8178C6.81315 23.8444 6.773 23.8933 6.773 24.0533V25.8844L6.77746 25.8889ZM6.77746 27.9867C6.77746 28.3111 6.79531 28.7733 6.98716 28.9733C7.17902 29.1822 7.48242 29.2267 7.78136 29.2267C8.67818 29.2267 9.36084 28.8667 9.36084 27.9644C9.36084 27.2489 8.95928 26.4222 7.35749 26.4222C6.81315 26.4222 6.773 26.4756 6.773 26.6578V27.9956L6.77746 27.9867Z" fill="#004B8D"/>
<path d="M17.2761 25.5778C17.2761 24.7601 17.2582 24.6267 16.754 24.5912L16.5399 24.5778C16.4863 24.5467 16.5042 24.4089 16.5577 24.3867C16.986 24.4001 17.2805 24.4089 17.6419 24.4089C18.0033 24.4089 18.2755 24.4001 18.7083 24.3867C18.7618 24.4089 18.7752 24.5467 18.7261 24.5778L18.512 24.5912C18.0033 24.6312 17.9855 24.7601 17.9855 25.5778V28.3245C17.9855 29.1423 18.0033 29.2534 18.512 29.3067L18.7261 29.3289C18.7797 29.3601 18.7618 29.4978 18.7083 29.5201C18.28 29.5023 17.9855 29.4978 17.6419 29.4978C17.2805 29.4978 16.9905 29.5067 16.5577 29.5201C16.5042 29.4978 16.4863 29.3734 16.5399 29.3289L16.754 29.3067C17.2627 29.2534 17.2761 29.1467 17.2761 28.3245V25.5778Z" fill="#004B8D"/>
<path d="M22.0457 28.3377C22.0457 29.1511 22.0636 29.2622 22.5276 29.3022L22.7864 29.3244C22.8355 29.3555 22.8176 29.4933 22.7685 29.5155C22.309 29.4977 22.0368 29.4933 21.7111 29.4933C21.3854 29.4933 21.1087 29.5022 20.5912 29.5155C20.5421 29.4933 20.5287 29.3599 20.5912 29.3244L20.8812 29.3022C21.3408 29.2622 21.3809 29.1511 21.3809 28.3377V24.8888C21.3809 24.6488 21.3809 24.6399 21.14 24.6399H20.6983C20.3502 24.6399 19.9085 24.6533 19.7077 24.8311C19.5159 24.9999 19.4356 25.1688 19.3463 25.3644C19.2839 25.4088 19.1679 25.3688 19.1366 25.3111C19.266 24.9644 19.3865 24.4711 19.4445 24.1599C19.4668 24.1422 19.5739 24.1377 19.5962 24.1599C19.6453 24.4088 19.913 24.3955 20.2833 24.3955H23.5449C23.9821 24.3955 24.0535 24.3822 24.174 24.1777C24.2142 24.1644 24.3034 24.1688 24.3212 24.1999C24.232 24.5155 24.174 25.1422 24.2008 25.3733C24.1695 25.4355 24.0312 25.4355 23.9911 25.3866C23.9688 25.1955 23.9107 24.9066 23.7903 24.8266C23.6073 24.6977 23.2995 24.6355 22.8578 24.6355H22.2867C22.0457 24.6355 22.0546 24.6444 22.0546 24.8977V28.3333L22.0457 28.3377Z" fill="#004B8D"/>
<path d="M25.4947 25.5778C25.4947 24.7601 25.4768 24.6267 24.9682 24.5912L24.754 24.5778C24.7005 24.5467 24.7183 24.4089 24.7719 24.3867C25.2002 24.4001 25.4947 24.4089 25.8561 24.4089C26.2175 24.4089 26.4941 24.4001 26.9225 24.3867C26.976 24.4089 26.9894 24.5467 26.9403 24.5778L26.7262 24.5912C26.2175 24.6312 26.1997 24.7601 26.1997 25.5778V28.3245C26.1997 29.1423 26.2175 29.2534 26.7262 29.3067L26.9403 29.3289C26.9939 29.3601 26.976 29.4978 26.9225 29.5201C26.4941 29.5023 26.1997 29.4978 25.8561 29.4978C25.5125 29.4978 25.2047 29.5067 24.7719 29.5201C24.7183 29.4978 24.705 29.3734 24.754 29.3289L24.9682 29.3067C25.4768 29.2534 25.4947 29.1467 25.4947 28.3245V25.5778Z" fill="#004B8D"/>
<path d="M29.3497 29.6001C28.5823 29.6001 28.1004 29.4001 27.9264 29.3156C27.8148 29.1467 27.6988 28.5956 27.681 28.2356C27.7256 28.1823 27.8639 28.1645 27.8996 28.2134C28.0379 28.6089 28.4127 29.3601 29.4702 29.3601C30.2376 29.3601 30.6124 28.9378 30.6124 28.4756C30.6124 28.1334 30.5276 27.7556 29.8628 27.3956L28.9972 26.9201C28.5421 26.6667 28.0111 26.2267 28.0111 25.5956C28.0111 24.8623 28.6849 24.2667 29.8762 24.2667C30.1573 24.2667 30.4874 24.3112 30.7239 24.3645C30.8444 24.3956 30.9693 24.4089 31.0452 24.4089C31.1255 24.5956 31.2102 25.0267 31.2102 25.3512C31.1746 25.4001 31.0273 25.4223 30.9827 25.3734C30.8622 25.0045 30.6168 24.5023 29.7379 24.5023C28.8589 24.5023 28.6492 25.0045 28.6492 25.3601C28.6492 25.8089 29.0864 26.1334 29.4255 26.3067L30.1573 26.6934C30.7328 26.9956 31.2995 27.4401 31.2995 28.1734C31.2995 29.0223 30.541 29.6001 29.3497 29.6001Z" fill="#004B8D"/>
<path d="M33.9498 27.0044C33.5482 27.0044 33.5349 27.0178 33.5349 27.2489V28.3378C33.5349 29.1511 33.575 29.2578 34.0435 29.3022L34.2844 29.3244C34.3335 29.3555 34.3201 29.4933 34.2666 29.5155C33.816 29.4978 33.5349 29.4933 33.2092 29.4933C32.8522 29.4933 32.5667 29.5111 32.2409 29.5155C32.1919 29.4933 32.174 29.3689 32.2231 29.3244L32.3659 29.3022C32.8344 29.2222 32.8477 29.1511 32.8477 28.3378V25.56C32.8477 24.7511 32.7897 24.6178 32.3569 24.5866L32.1383 24.5733C32.0892 24.5422 32.1026 24.4044 32.1562 24.3822C32.5667 24.3866 32.8477 24.4044 33.2047 24.4044C33.5304 24.4044 33.8115 24.3955 34.1729 24.3822C34.222 24.4044 34.2398 24.5422 34.1907 24.5733L34.0301 24.5866C33.5482 24.6311 33.5304 24.7511 33.5304 25.56V26.4489C33.5304 26.6889 33.5482 26.6978 33.9453 26.6978H36.3279C36.7295 26.6978 36.7429 26.6889 36.7429 26.4489V25.56C36.7429 24.7511 36.725 24.6355 36.2342 24.5866L36.0781 24.5733C36.029 24.5422 36.0424 24.4044 36.0959 24.3822C36.4796 24.3955 36.7607 24.4044 37.1043 24.4044C37.4479 24.4044 37.7111 24.3955 38.0859 24.3822C38.135 24.4044 38.1528 24.5422 38.1037 24.5733L37.9297 24.5866C37.4479 24.6311 37.43 24.7511 37.43 25.56V28.3378C37.43 29.1511 37.4479 29.2489 37.9297 29.3022L38.1305 29.3244C38.1796 29.3555 38.1662 29.4933 38.1127 29.5155C37.7111 29.4978 37.43 29.4933 37.1043 29.4933C36.7607 29.4933 36.4618 29.5022 36.0959 29.5155C36.0469 29.4933 36.029 29.3689 36.0781 29.3244L36.2342 29.3022C36.7429 29.2222 36.7429 29.1511 36.7429 28.3378V27.2489C36.7429 27.0178 36.725 27.0044 36.3279 27.0044H33.9453H33.9498Z" fill="#004B8D"/>
<path d="M1.18238 31.2134C1.8695 30.6845 2.73955 30.4222 3.71668 30.4222C4.22533 30.4222 4.93475 30.5245 5.37647 30.6445C5.48801 30.6711 5.55494 30.6934 5.63972 30.68C5.64864 30.8934 5.69772 31.48 5.76911 32.0489C5.72003 32.1111 5.58171 32.1245 5.51479 32.0667C5.37201 31.4311 4.9526 30.7067 3.59175 30.7067C2.15505 30.7067 0.936983 31.6089 0.936983 33.5378C0.936983 35.4667 2.18629 36.5734 3.72561 36.5734C4.93475 36.5734 5.47017 35.7911 5.68433 35.24C5.75126 35.1956 5.88958 35.2134 5.92973 35.2756C5.86281 35.76 5.62187 36.3734 5.47909 36.5511C5.36755 36.5689 5.256 36.6089 5.14892 36.6445C4.94368 36.72 4.26548 36.8578 3.6676 36.8578C2.82432 36.8578 2.01674 36.6889 1.32962 36.2311C0.58004 35.72 -0.00445557 34.8711 -0.00445557 33.6711C-0.00445557 32.6356 0.464033 31.7556 1.17792 31.2L1.18238 31.2134Z" fill="#004B8D"/>
<path d="M6.31345 34.2266C6.31345 32.6844 7.53598 31.5022 9.20915 31.5022C11.0876 31.5022 12.029 32.7911 12.029 34.1466C12.029 35.7066 10.7752 36.84 9.20915 36.84C7.40212 36.84 6.31345 35.6133 6.31345 34.2266ZM11.217 34.3911C11.217 33.12 10.6235 31.7422 9.07084 31.7422C8.22309 31.7422 7.12549 32.2889 7.12549 33.9822C7.12549 35.1244 7.70999 36.6044 9.31177 36.6044C10.2889 36.6044 11.2125 35.9066 11.2125 34.3911H11.217Z" fill="#004B8D"/>
<path d="M21.2069 33.5645C21.2069 33.0889 21.1891 32.2 21.0508 31.9689C20.9928 31.8756 20.8455 31.8223 20.6403 31.8089L20.435 31.7956C20.386 31.7423 20.4038 31.64 20.4529 31.6089C20.7652 31.6267 21.0686 31.6312 21.3899 31.6312C21.7334 31.6312 21.9565 31.6267 22.251 31.6089C22.3179 31.6489 22.309 31.7467 22.2688 31.7956L22.0725 31.8089C21.8673 31.8223 21.7111 31.8934 21.662 31.9912C21.546 32.2489 21.546 33.1334 21.546 33.5645V34.4356C21.546 35.1067 21.43 35.8178 20.9705 36.28C20.618 36.6445 20.0112 36.8445 19.4044 36.8445C18.8377 36.8445 18.2711 36.7467 17.8695 36.4178C17.4367 36.08 17.2315 35.5156 17.2315 34.6V32.7778C17.2315 31.9734 17.2136 31.8445 16.7407 31.8045L16.5354 31.7912C16.4863 31.7556 16.5042 31.6267 16.5533 31.6045C16.9638 31.6223 17.2404 31.6267 17.5706 31.6267C17.9007 31.6267 18.1774 31.6223 18.5789 31.6045C18.628 31.6267 18.6459 31.7556 18.5968 31.7912L18.4005 31.8045C17.923 31.8445 17.9097 31.9734 17.9097 32.7778V34.4445C17.9097 35.6845 18.3201 36.5023 19.5784 36.5023C20.7697 36.5023 21.2203 35.6223 21.2203 34.4489V33.56L21.2069 33.5645Z" fill="#004B8D"/>
<path d="M30.7418 32.6311C30.7418 32.0622 30.7061 31.9156 30.3001 31.8844L30.01 31.8622C29.9387 31.8178 29.9476 31.7022 30.019 31.6711C30.5053 31.6311 31.1166 31.6089 31.9509 31.6089C32.5176 31.6089 33.0574 31.6489 33.459 31.8267C33.8472 31.9911 34.1417 32.2978 34.1417 32.7911C34.1417 33.3467 33.7669 33.6311 33.227 33.8489C33.227 33.9244 33.2984 33.9511 33.3965 33.9644C33.8829 34.04 34.6012 34.4267 34.6012 35.2533C34.6012 36.1467 33.8293 36.7511 32.2097 36.7511C31.9509 36.7511 31.5092 36.7289 31.13 36.7289C30.7507 36.7289 30.4295 36.7467 30.0993 36.7511C30.0457 36.7289 30.0279 36.6044 30.0814 36.56L30.2421 36.5378C30.7195 36.4667 30.7373 36.3822 30.7373 35.5733V32.64L30.7418 32.6311ZM31.478 33.6578C31.478 33.8756 31.4869 33.8889 31.9465 33.8756C32.8611 33.8444 33.3564 33.6133 33.3564 32.8889C33.3564 32.1644 32.7005 31.8489 32.0179 31.8489C31.8215 31.8489 31.6877 31.8622 31.6074 31.8933C31.5181 31.9156 31.4824 31.9556 31.4824 32.0933V33.6622L31.478 33.6578ZM31.478 35.4489C31.478 35.7244 31.4958 36.12 31.6654 36.2889C31.8349 36.4667 32.1071 36.5067 32.3748 36.5067C33.1735 36.5067 33.7847 36.2 33.7847 35.4267C33.7847 34.8178 33.4233 34.1067 31.9955 34.1067C31.5092 34.1067 31.4735 34.1556 31.4735 34.3067V35.4489H31.478Z" fill="#004B8D"/>
<path d="M15.9598 29.3289L15.7457 29.3067C15.7011 29.3067 15.6654 29.2978 15.6252 29.2934C15.3084 29.2356 15.1835 28.9556 15.0362 28.6978L14.2911 27.4089C14.1617 27.1911 14.0234 26.9067 13.7334 26.8622C14.4964 26.7734 15.1835 26.3334 15.1835 25.5822C15.1835 24.7156 14.3224 24.3245 13.4478 24.3245C12.9258 24.3245 12.4082 24.36 11.8773 24.36C11.5828 24.36 11.2705 24.3245 10.976 24.3245C10.8109 24.3245 10.8109 24.36 10.8109 24.4489C10.8109 24.5822 10.8689 24.5467 11.0385 24.5467C11.681 24.5467 11.6364 24.7067 11.6364 25.2356V28.6178C11.6364 29.1022 11.6765 29.2445 11.1679 29.2889C11.1679 29.2889 11.0876 29.2978 11.0474 29.3022L10.8332 29.3245C10.7797 29.3689 10.7975 29.4934 10.8511 29.5156C10.9671 29.5156 11.1679 29.5067 11.1679 29.5067C11.449 29.4978 11.7345 29.4756 12.0156 29.4756C12.2967 29.4756 12.5733 29.4978 12.85 29.5067C12.9481 29.5067 13.0507 29.5111 13.1668 29.5156C13.2203 29.4934 13.2337 29.3689 13.1846 29.3245L12.966 29.3022C12.9214 29.2978 12.8455 29.2889 12.8455 29.2889C12.3324 29.2534 12.3636 29.1067 12.3636 28.6134V27.3378C12.3636 27.2622 12.3547 27.0622 12.4082 27.0089C12.4529 26.96 12.5376 26.9689 12.609 26.9689C13.3051 26.9689 13.2961 27.0356 13.6263 27.6134L14.5231 29.2267C14.5945 29.3511 14.6525 29.5067 14.8355 29.5067H15.6163C15.7144 29.5067 15.8171 29.5111 15.9331 29.5156C15.9866 29.4934 16 29.3689 15.9509 29.3245L15.9598 29.3289ZM12.8277 26.7911C12.6715 26.7911 12.3592 26.8489 12.3592 26.6445V25.1645C12.3592 24.5867 12.377 24.5022 13.0775 24.5022C13.894 24.5022 14.3982 24.9156 14.3982 25.6756C14.3982 26.0089 14.2777 26.3111 13.9743 26.52C13.6263 26.76 13.2515 26.7911 12.8277 26.7911Z" fill="#004B8D"/>
<path d="M12.9972 32.8044C12.9972 31.9955 12.9794 31.871 12.4439 31.831L12.2298 31.8177C12.1762 31.7866 12.1941 31.6488 12.2476 31.6266C12.725 31.6399 13.0151 31.6488 13.3541 31.6488C13.6932 31.6488 13.9788 31.6399 14.4027 31.6266C14.4562 31.6488 14.4696 31.791 14.4205 31.8177L14.2153 31.831C13.7111 31.8666 13.6932 31.9955 13.6932 32.8044V35.4888C13.6932 35.9777 13.72 36.1777 13.8717 36.3244C13.9654 36.4088 14.126 36.5021 14.7998 36.5021C15.5226 36.5021 15.7055 36.471 15.8394 36.4044C16.0089 36.311 16.232 36.031 16.4016 35.6399C16.4506 35.5999 16.6157 35.631 16.6157 35.6888C16.6157 35.7733 16.3748 36.5599 16.2588 36.7688C15.826 36.7555 15.0139 36.7466 14.1394 36.7466H13.3541C12.9972 36.7466 12.725 36.7555 12.2476 36.7688C12.1985 36.7466 12.1807 36.6221 12.2298 36.5777L12.4841 36.5555C12.9794 36.511 12.9972 36.4044 12.9972 35.591V32.8133V32.8044Z" fill="#004B8D"/>
<path d="M35.8193 32.8177C35.8193 31.9999 35.8014 31.8666 35.3107 31.831L35.1009 31.8177C35.0519 31.7866 35.0697 31.6488 35.1188 31.6266C35.5382 31.6399 35.8193 31.6488 36.1718 31.6488C36.5064 31.6488 36.792 31.6399 37.2069 31.6266C37.256 31.6488 37.2738 31.791 37.2248 31.8177L37.0151 31.831C36.5243 31.8666 36.5064 31.9999 36.5064 32.8177V35.5644C36.5064 36.3821 36.5243 36.4888 37.0151 36.5421L37.2248 36.5644C37.2738 36.5955 37.256 36.7332 37.2069 36.7555C36.7875 36.7421 36.5019 36.7333 36.1718 36.7333C35.8193 36.7333 35.5382 36.7421 35.1188 36.7555C35.0697 36.7332 35.0519 36.6088 35.1009 36.5644L35.3107 36.5421C35.8014 36.4888 35.8193 36.3777 35.8193 35.5644V32.8177Z" fill="#004B8D"/>
<path d="M29.1355 36.5422C29.0954 36.5422 29.0106 36.5333 29.0106 36.5333C28.9214 36.5244 28.8455 36.5111 28.783 36.4444C28.676 36.3333 28.6849 36.0044 28.6849 35.8711V32.4888C28.6849 32.3422 28.6492 32.0222 28.7563 31.9111C28.8098 31.8488 28.9214 31.8399 29.024 31.8355C29.0864 31.8311 29.0864 31.8311 29.14 31.8311L29.3541 31.8133C29.4077 31.7822 29.3898 31.6444 29.3363 31.6177C29.2203 31.6222 29.1177 31.6177 29.0195 31.6222H28.1048C28.0067 31.6222 27.9174 31.6222 27.8594 31.7288L25.9989 35.5911L24.3525 31.8577C24.2989 31.7288 24.29 31.6222 24.116 31.6222H23.1656C23.0675 31.6222 22.9559 31.6222 22.8399 31.6133C22.7908 31.6355 22.773 31.7777 22.8221 31.8088L23.0362 31.8266C23.0809 31.8266 23.1612 31.8355 23.1612 31.8355C23.5181 31.8577 23.5404 31.9377 23.5092 32.3111L23.2281 35.9377C23.2058 36.3022 23.1835 36.4933 22.7998 36.5288C22.7998 36.5288 22.7195 36.5377 22.6748 36.5422L22.4607 36.5644C22.4071 36.6133 22.425 36.7333 22.4785 36.7555C22.5901 36.7511 22.7908 36.7466 22.7908 36.7466C22.9872 36.7377 23.1835 36.72 23.3798 36.72C23.594 36.72 23.8081 36.7377 24.0223 36.7466C24.1205 36.7466 24.2275 36.7511 24.3391 36.7599C24.3926 36.7377 24.406 36.6133 24.3569 36.5688L24.1428 36.5466C24.0848 36.5422 24.0223 36.5333 24.0223 36.5333C23.469 36.4977 23.4824 36.1066 23.5181 35.6311L23.7814 32.2622H23.8438L25.6241 36.4133C25.6419 36.4711 25.6687 36.5688 25.7579 36.5688C25.8383 36.5688 25.865 36.4799 25.8918 36.4222L27.8996 32.1688H27.9621V35.8755C27.9621 36.0222 27.9799 36.3244 27.8282 36.4399C27.7479 36.4977 27.4891 36.5377 27.4891 36.5377C27.4534 36.5422 27.4177 36.5466 27.3731 36.5511L27.1589 36.5733C27.1054 36.6177 27.1232 36.7422 27.1768 36.7644C27.2883 36.76 27.4936 36.7555 27.4936 36.7555C27.7836 36.7466 28.0825 36.7244 28.377 36.7244C28.5912 36.7244 29.0061 36.7422 29.0061 36.7422C29.1043 36.7422 29.2203 36.7555 29.3318 36.7599C29.3854 36.7377 29.3988 36.6133 29.3497 36.5688L29.1355 36.5466V36.5422Z" fill="#004B8D"/>
<path d="M43.1009 36.5644L43.0742 36.5422C43.0296 36.5377 42.9939 36.5333 42.9582 36.5244C42.6235 36.4489 42.4941 36.0489 42.3692 35.7644L40.647 31.7022C40.6291 31.6533 40.5934 31.5466 40.5265 31.5466C40.4328 31.5466 40.406 31.6577 40.3837 31.7244L38.7373 35.7777C38.6793 35.9333 38.5231 36.3022 38.4116 36.4133C38.3268 36.5022 38.2153 36.52 38.0993 36.5289C38.0993 36.5289 38.0056 36.5377 37.961 36.5422L37.7602 36.5644C37.7066 36.6088 37.7245 36.7333 37.778 36.7555C37.894 36.7511 38.0948 36.7422 38.0948 36.7422C38.3224 36.7422 38.5455 36.7111 38.773 36.7111C38.9649 36.7111 39.1523 36.7333 39.3441 36.7377C39.3441 36.7377 39.5494 36.7422 39.6609 36.7511C39.7144 36.7289 39.7278 36.6044 39.6787 36.56L39.4646 36.5377C39.42 36.5377 39.3486 36.5244 39.3486 36.5244C39.1523 36.5022 38.9024 36.4666 38.9024 36.2488C38.9024 36.1022 38.9693 35.9333 39.0229 35.8044L39.2772 35.2C39.4066 34.9066 39.353 34.8755 39.6966 34.8755H40.8567C41.2671 34.8755 41.2047 34.8755 41.3876 35.2889L41.6598 35.9066C41.7044 36.0089 41.7803 36.1911 41.7803 36.3022C41.7803 36.5066 41.5572 36.52 41.3475 36.5377C41.3475 36.5377 41.2761 36.5422 41.2181 36.5466L41.0128 36.56C40.9593 36.6089 40.9771 36.7289 41.0307 36.7511C41.1467 36.7466 41.3475 36.7377 41.3475 36.7377C41.5884 36.7289 41.8338 36.7111 42.0703 36.7111C42.3692 36.7111 42.6682 36.7333 42.9671 36.7377C43.0653 36.7377 42.9849 36.7422 43.0965 36.7466C43.15 36.7244 43.1679 36.6 43.1143 36.5555L43.1009 36.5644ZM40.8433 34.6533H39.8394C39.8037 34.6533 39.5226 34.6844 39.5226 34.6044C39.5226 34.5822 39.5404 34.5333 39.5494 34.5066L40.1517 33.0177C40.1695 32.9777 40.2275 32.7733 40.2989 32.7733C40.3525 32.7733 40.4194 32.9866 40.4373 33.0177L41.0307 34.4089C41.0307 34.4089 41.0931 34.5555 41.0931 34.5911C41.0931 34.68 40.8924 34.6533 40.8388 34.6533H40.8433Z" fill="#004B8D"/>
<path d="M35.2437 11.6133L31.8483 12.8666L32.9191 13.2311L35.2437 11.6133Z" fill="#FDB913"/>
<path d="M8.14725 11.6578L6.24206 10.96C6.26437 10.9022 6.28668 10.8444 6.30899 10.7866L8.40604 11.5155L8.60682 11.3911L9.61072 11.9333L10.8556 12.3866L10.9314 12.3511L6.48746 10.36C6.51423 10.3022 6.53654 10.2444 6.56331 10.1866L11.4579 12.1333L11.5293 12.0978L6.75963 9.76442C6.7864 9.70664 6.81317 9.65331 6.83994 9.59553L12.0201 11.8489L7.04965 9.1822C7.07642 9.12887 7.10319 9.07998 7.12996 9.03109L14.1082 12.7111C14.2064 12.5244 14.3135 12.3422 14.425 12.1689L8.73621 7.7422L14.8043 11.6222C14.9515 11.4222 15.1121 11.2311 15.2772 11.0489L9.43671 5.77776C9.47687 5.73331 9.52148 5.68887 9.5661 5.63998L13.8093 9.37331L9.88735 5.30664C9.93197 5.2622 9.97659 5.21776 10.0212 5.16887L14.4473 9.39998L10.3558 4.84442C10.4005 4.80442 10.4451 4.75998 10.4942 4.71998L14.4562 8.74664L10.8422 4.40887C10.8868 4.37331 10.9314 4.33331 10.976 4.29776L16.0491 10.2933C16.2454 10.1244 16.4462 9.96442 16.6604 9.81331L13.0418 3.57331L17.2181 9.44887C17.4456 9.31109 17.6776 9.18664 17.9186 9.07109L14.4964 2.02664C14.5544 1.99553 14.6169 1.96887 14.6749 1.9422L17.2092 6.99553L15.0987 1.75109C15.1567 1.72442 15.2147 1.7022 15.2727 1.67553L17.7892 7.25776L15.71 1.5022C15.768 1.47998 15.826 1.45776 15.884 1.43553L18.048 6.65331L16.3302 1.27998C16.3793 1.2622 16.4328 1.24887 16.4819 1.22664L18.9225 8.65776C19.15 8.5822 19.3776 8.51553 19.6141 8.45776L18.6057 1.32442L20.27 8.32887C20.5466 8.28442 20.8277 8.25776 21.1132 8.23998L20.5912 0.457756C20.6492 0.457756 20.7072 0.448867 20.7697 0.448867L21.3095 6.04442L21.2292 0.435534C21.2962 0.435534 21.3586 0.435534 21.4211 0.435534L21.6531 6.32442L21.8851 0.435534C21.9476 0.435534 22.0101 0.435534 22.0725 0.435534L22.0234 6.04442L22.541 0.457756C22.599 0.457756 22.657 0.466645 22.715 0.466645L22.1841 8.24442C22.4562 8.2622 22.7239 8.29331 22.9872 8.32887L24.647 1.34664L23.6431 8.45776C23.8885 8.51553 24.1339 8.59109 24.3703 8.67109L26.802 1.27109C26.86 1.29331 26.918 1.31109 26.9716 1.33331L25.2672 6.65331L27.4088 1.48887C27.4668 1.51109 27.5248 1.53331 27.5873 1.55553L25.5259 7.25331L28.0156 1.72887C28.0736 1.75553 28.1361 1.7822 28.1941 1.80887L26.1104 6.98664L28.6135 1.99553C28.667 2.0222 28.7206 2.04887 28.7741 2.07553L25.3742 9.07553C25.6063 9.18664 25.8338 9.31109 26.0524 9.44442L30.2198 3.58664L26.6102 9.80887C26.8243 9.96442 27.034 10.1289 27.2348 10.3022L32.2633 4.35553C32.3079 4.39553 32.357 4.43553 32.4016 4.47553L28.8277 8.76887L32.7496 4.78664C32.7987 4.82664 32.8433 4.87109 32.8879 4.91553L28.8366 9.4222L33.2136 5.23553C33.2582 5.27998 33.3029 5.32887 33.3475 5.37331L29.4702 9.39109L33.6598 5.7022C33.7 5.74664 33.7401 5.78664 33.7758 5.83109L27.9933 11.0489C28.1584 11.2311 28.3146 11.4178 28.4618 11.6133L34.5209 7.7422L28.8455 12.16C28.9571 12.3378 29.0642 12.52 29.1668 12.7066L36.0647 9.07109C36.0915 9.12442 36.1227 9.17776 36.1495 9.23109L31.2638 11.8533L36.3547 9.63998C36.3815 9.69776 36.4083 9.75553 36.435 9.81331L31.0273 12.4622L36.6269 10.2311C36.6537 10.2889 36.6804 10.3466 36.7027 10.4089L31.6297 12.6755L36.8723 10.8311C36.8946 10.8844 36.9124 10.9378 36.9348 10.9911L35.8148 11.4044L37.4791 12.6666L37.9387 12.9244C37.7647 12.2222 37.4925 11.3689 37.2337 10.7066C34.7083 4.39998 28.4038 0.0888672 21.5683 0.0888672C13.5549 0.0888672 6.85779 5.69776 5.21139 13.1866C5.21139 13.1866 5.20247 13.24 5.19354 13.28L5.51925 13.1289L8.14725 11.6578Z" fill="#FDB913"/>
</g>
<rect x="56" y="3" width="38" height="14" rx="2" fill="#F8BB47"/>
<path d="M66.496 7.288C66.8747 7.288 67.208 7.31467 67.496 7.368C67.784 7.416 68.024 7.496 68.216 7.608C68.4133 7.72 68.56 7.86933 68.656 8.056C68.7573 8.23733 68.808 8.464 68.808 8.736C68.808 9.06133 68.7333 9.336 68.584 9.56C68.4347 9.784 68.216 9.92 67.928 9.968V10.008C68.072 10.04 68.2053 10.0853 68.328 10.144C68.4507 10.2027 68.5573 10.2827 68.648 10.384C68.744 10.4853 68.8187 10.616 68.872 10.776C68.9253 10.9307 68.952 11.12 68.952 11.344C68.952 11.6 68.9013 11.832 68.8 12.04C68.704 12.2427 68.5653 12.416 68.384 12.56C68.2027 12.704 67.9813 12.8133 67.72 12.888C67.464 12.9627 67.176 13 66.856 13H64.72V7.288H66.496ZM66.632 9.552C66.984 9.552 67.2267 9.49867 67.36 9.392C67.4987 9.28533 67.568 9.12 67.568 8.896C67.568 8.672 67.488 8.51467 67.328 8.424C67.1733 8.328 66.92 8.28 66.568 8.28H65.928V9.552H66.632ZM65.928 10.512V12H66.72C67.0827 12 67.336 11.9307 67.48 11.792C67.624 11.648 67.696 11.4587 67.696 11.224C67.696 11.0107 67.6213 10.84 67.472 10.712C67.328 10.5787 67.064 10.512 66.68 10.512H65.928ZM70.735 7.288H74.023V8.28H71.943V9.536H73.879V10.528H71.943V12H74.023V13H70.735V7.288ZM75.2916 8.296V7.288H79.6036V8.296H78.0516V13H76.8436V8.296H75.2916ZM79.8419 13L81.8579 7.264H83.3379L85.3619 13H84.0579L83.6419 11.64H81.5619L81.1459 13H79.8419ZM81.8659 10.624H83.3539L82.9379 9.296C82.9165 9.232 82.8899 9.152 82.8579 9.056C82.8312 8.95467 82.8019 8.85067 82.7699 8.744C82.7379 8.63733 82.7059 8.53333 82.6739 8.432C82.6472 8.32533 82.6232 8.232 82.6019 8.152C82.5859 8.22667 82.5619 8.32 82.5299 8.432C82.5245 8.45333 82.5192 8.47467 82.5139 8.496V8.504C82.5085 8.52533 82.5032 8.544 82.4979 8.56L82.4899 8.576C82.4845 8.592 82.4792 8.61067 82.4739 8.632V8.64C82.4685 8.66133 82.4632 8.68267 82.4579 8.704L82.4499 8.712C82.4445 8.73333 82.4392 8.752 82.4339 8.768V8.776C82.4019 8.89333 82.3699 9 82.3379 9.096C82.3112 9.18667 82.2899 9.25333 82.2739 9.296L81.8659 10.624Z" fill="#053662"/>
<defs>
<clipPath id="clip0_7897_39593">
<rect width="120" height="37" fill="white"/>
</clipPath>
</defs>
</svg>
