<svg width="165" height="51" viewBox="0 0 165 51" fill="none" xmlns="http://www.w3.org/2000/svg">
<g clip-path="url(#clip0_2003_1291)">
<path d="M67.8405 0H67.2393V50.7059H67.8405V0Z" fill="#FDB913"/>
<path d="M78.7423 36.6465C78.7423 34.8086 78.6135 34.2512 77.5031 34.098L76.9202 34.0184C76.7116 33.8836 76.681 33.467 76.9448 33.3629C79.184 33.2342 81.3129 33.1546 83.5521 33.1546C85.7914 33.1546 87.6319 33.3139 89.3435 33.9449C92.8957 35.2314 94.6871 38.2332 94.6871 41.7005C94.6871 45.1679 93.0797 47.9063 90.0797 49.5359C88.3681 50.4548 86.2086 50.7978 84.184 50.7978C82.4969 50.7978 80.8159 50.5834 79.8896 50.5834C78.7853 50.5834 77.8343 50.6141 76.6012 50.6631C76.4417 50.5834 76.3926 50.1668 76.546 50.0076L77.1534 49.9279C78.681 49.7196 78.7362 49.4011 78.7362 46.6382V36.6465H78.7423ZM80.9018 46.0317C80.9018 47.4285 80.9816 48.2677 81.4294 48.8987C82.0061 49.7135 83.0061 49.9769 84.6687 49.9769C89.773 49.9769 92.0613 46.6382 92.0613 41.7496C92.0613 38.858 90.6687 33.9694 83.773 33.9694C82.2208 33.9694 81.3804 34.1838 81.1656 34.3369C80.9509 34.4962 80.9018 35.1517 80.9018 36.3341V46.0317Z" fill="#004B8D"/>
<path d="M97.681 43.036C97.681 42.013 97.681 41.8782 96.9693 41.4065L96.7301 41.2533C96.6258 41.1492 96.6258 40.8551 96.7546 40.7755C97.362 40.5672 98.7546 39.8811 99.4172 39.489C99.546 39.5135 99.6258 39.5686 99.6258 39.6728V41.1982C99.6258 41.333 99.6503 41.4065 99.7055 41.431C100.626 40.6713 101.626 39.8504 102.601 39.8504C103.258 39.8504 103.785 40.2731 103.785 40.9041C103.785 41.7679 103.074 42.111 102.65 42.111C102.393 42.111 102.258 42.0314 102.074 41.9272C101.681 41.6638 101.282 41.5045 100.92 41.5045C100.497 41.5045 100.184 41.7434 99.9755 42.0313C99.7117 42.3989 99.6319 43.1647 99.6319 44.0591V47.6306C99.6319 49.5236 99.6871 49.8422 100.687 49.9218L101.632 50.0014C101.816 50.1301 101.761 50.5773 101.583 50.6569C100.344 50.6079 99.5828 50.5773 98.6565 50.5773C97.7301 50.5773 96.9203 50.6079 96.2331 50.6569C96.0491 50.5773 96 50.1301 96.1779 50.0014L96.681 49.9218C97.6565 49.7625 97.681 49.5236 97.681 47.6306V43.0299V43.036Z" fill="#004B8D"/>
<path d="M106.423 43.036C106.423 42.013 106.423 41.8782 105.712 41.4065L105.472 41.2533C105.368 41.1492 105.368 40.8551 105.497 40.7755C106.104 40.5672 107.601 39.8811 108.209 39.489C108.337 39.489 108.442 39.538 108.472 39.6483C108.423 40.5672 108.368 41.8292 108.368 42.9074V47.6368C108.368 49.5297 108.423 49.7932 109.368 49.9279L109.92 50.0076C110.104 50.1362 110.049 50.5834 109.865 50.6631C109.074 50.6141 108.313 50.5834 107.393 50.5834C106.472 50.5834 105.656 50.6141 104.914 50.6631C104.73 50.5834 104.681 50.1362 104.859 50.0076L105.411 49.9279C106.387 49.7932 106.411 49.5297 106.411 47.6368V43.036H106.423ZM108.607 35.5438C108.607 36.4933 107.951 36.9099 107.215 36.9099C106.399 36.9099 105.871 36.3034 105.871 35.5989C105.871 34.729 106.503 34.1777 107.294 34.1777C108.086 34.1777 108.607 34.8086 108.607 35.5438Z" fill="#004B8D"/>
<path d="M112.767 42.8278C112.368 41.8537 112.135 41.0144 111.184 40.8858L110.656 40.8061C110.497 40.5978 110.521 40.2303 110.736 40.1506C111.393 40.1996 112.313 40.2303 113.209 40.2303C113.92 40.2303 114.448 40.1996 115.344 40.1506C115.528 40.2548 115.552 40.6775 115.368 40.8061L115.055 40.8613C114.239 40.9899 114.215 41.1247 114.479 41.915C115.086 43.7283 115.847 45.5723 116.454 46.9384C116.693 47.4652 116.798 47.7041 116.877 47.7777C116.982 47.698 117.166 47.3305 117.38 46.7791C117.724 45.8847 118.62 43.5996 118.883 42.9135C119.252 41.9946 119.356 41.4371 119.356 41.284C119.356 41.045 119.202 40.9409 118.883 40.8919L118.276 40.8123C118.117 40.6285 118.147 40.2609 118.325 40.1568C119.141 40.2058 119.798 40.2364 120.301 40.2364C120.957 40.2364 121.405 40.2058 122.141 40.1568C122.325 40.2609 122.35 40.6591 122.196 40.8123L121.804 40.8674C120.883 40.996 120.644 41.6822 119.883 43.1524C119.515 43.8631 117.883 47.6735 117.46 48.7517C117.196 49.4072 116.932 50.0137 116.589 50.9081C116.534 50.9878 116.429 51.0123 116.325 51.0123C116.19 51.0123 116.061 50.9878 115.982 50.9081C115.773 50.173 115.374 49.1438 114.982 48.1697L112.767 42.8339V42.8278Z" fill="#004B8D"/>
<path d="M124.761 43.8508C124.074 43.8508 124.049 43.9059 124.049 44.5614C124.049 47.2202 125.601 49.4746 128.417 49.4746C129.288 49.4746 130.025 49.2112 130.84 48.1881C131.104 48.1085 131.288 48.2677 131.313 48.5005C130.448 50.2894 128.552 50.9449 127.178 50.9449C125.466 50.9449 124.123 50.2097 123.362 49.2112C122.571 48.1881 122.258 46.9506 122.258 45.7928C122.258 42.5582 124.386 39.8504 127.546 39.8504C129.81 39.8504 131.282 41.4004 131.282 42.9809C131.282 43.3485 131.233 43.5568 131.178 43.6609C131.098 43.8202 130.73 43.8447 129.626 43.8447H124.755L124.761 43.8508ZM126.393 43.0605C128.337 43.0605 128.92 42.9564 129.129 42.7971C129.209 42.7481 129.288 42.644 129.288 42.2948C129.288 41.5596 128.785 40.6407 127.264 40.6407C125.742 40.6407 124.368 42.062 124.344 42.9319C124.344 42.9809 124.344 43.0605 124.528 43.0605H126.399H126.393Z" fill="#004B8D"/>
<path d="M135.129 36.6465C135.129 34.6984 135.025 34.2022 133.84 34.098L132.994 34.0184C132.785 33.8591 132.81 33.467 133.018 33.3629C134.442 33.2342 136.233 33.1546 138.675 33.1546C140.331 33.1546 141.914 33.2894 143.098 33.8897C144.233 34.4411 145.098 35.4948 145.098 37.1795C145.098 39.0724 143.994 40.0465 142.411 40.7816C142.411 41.045 142.62 41.1247 142.908 41.1737C144.331 41.4371 146.436 42.7542 146.436 45.5661C146.436 48.6169 144.172 50.6631 139.429 50.6631C138.663 50.6631 137.374 50.5834 136.27 50.5834C135.166 50.5834 134.215 50.6386 133.245 50.6631C133.086 50.5834 133.037 50.1668 133.19 50.0076L133.663 49.9279C135.055 49.689 135.11 49.4011 135.11 46.6382V36.6465H135.129ZM137.288 40.1445C137.288 40.8796 137.319 40.9348 138.656 40.8796C141.344 40.7755 142.791 39.9852 142.791 37.5103C142.791 35.0353 140.871 33.9632 138.871 33.9632C138.288 33.9632 137.896 34.0184 137.663 34.1225C137.399 34.2022 137.294 34.3308 137.294 34.8086V40.1445H137.288ZM137.288 46.24C137.288 47.1896 137.344 48.525 137.84 49.107C138.344 49.7135 139.129 49.8422 139.92 49.8422C142.264 49.8422 144.049 48.7946 144.049 46.1604C144.049 44.0836 142.994 41.6638 138.81 41.6638C137.386 41.6638 137.282 41.8231 137.282 42.3499V46.24H137.288Z" fill="#FDB913"/>
<path d="M151.675 35.0414C153.595 33.5405 156.043 32.8054 158.779 32.8054C160.202 32.8054 162.202 33.0933 163.442 33.4364C163.755 33.516 163.945 33.5712 164.178 33.5405C164.202 34.147 164.337 35.8011 164.546 37.4061C164.417 37.5899 164.018 37.6205 163.834 37.4551C163.442 35.6663 162.252 33.6141 158.436 33.6141C154.405 33.6141 150.988 36.1686 150.988 41.6086C150.988 47.0486 154.491 50.1791 158.804 50.1791C162.202 50.1791 163.699 47.9676 164.307 46.4177C164.491 46.2829 164.89 46.338 164.994 46.5218C164.81 47.8879 164.123 49.6277 163.73 50.124C163.411 50.1791 163.098 50.2832 162.81 50.3874C162.233 50.6018 160.337 50.9939 158.65 50.9939C156.276 50.9939 154.012 50.5222 152.092 49.2295C149.988 47.7838 148.356 45.3885 148.356 42.0007C148.356 39.0847 149.675 36.5852 151.675 35.0353V35.0414Z" fill="#FDB913"/>
<path d="M52.0798 17.5942C49.2822 6.83064 39.5337 0.147034 29.7301 0.147034C19.9264 0.147034 9.82209 6.99604 7.15337 18.2375C6.77914 19.8058 6.59509 21.5578 6.59509 23.2303C6.59509 24.7128 6.74847 25.9687 7.01841 27.3777C7.22086 27.3348 7.30675 27.3164 7.53374 27.2674C9.6319 26.906 12.9509 26.4771 15.7853 26.8324C20.2945 27.4022 23.1104 28.1618 27.865 29.2339C32.6196 30.306 36.1288 31.3168 41.2577 30.7532C45.7546 30.2569 48.8282 29.5586 51.8221 27.586L52.0613 27.4267C52.1104 27.3899 52.3129 27.2429 52.3804 27.1939C52.6012 25.9135 52.7669 24.6332 52.7669 23.2915C52.7669 21.4047 52.5031 19.3586 52.0798 17.6065" fill="white"/>
<path d="M7.14111 18.2987C6.95092 19.2115 6.59509 20.933 6.59509 23.2303C6.59509 24.7128 6.74847 25.9686 7.01841 27.3777C7.22086 27.3348 7.30675 27.3164 7.53374 27.2674C9.6319 26.9059 12.9509 26.4771 15.7853 26.8324C20.2883 27.4022 23.1104 28.1557 27.865 29.2339C32.6196 30.3059 36.1288 31.3168 41.2577 30.7531C45.7485 30.2569 48.8282 29.5586 51.8221 27.5859L52.0613 27.4267C52.1104 27.396 52.319 27.2429 52.3804 27.1939C52.6012 25.9135 52.7669 24.6331 52.7669 23.2915C52.7669 21.4843 52.5215 19.5362 52.1288 17.8331L48.9509 16.0627L45.2761 18.6357L42.8037 17.6739C41.9632 18.0966 36.7975 21.5517 36.7975 21.5517L34.816 20.1182L32.6871 19.6955L29.8528 17.631L26.5951 19.8609C26.5951 19.8609 22.9632 21.9683 22.8405 21.9683C22.7178 21.9683 18.4601 18.5989 18.4601 18.5989L16.4969 16.5344C16.1656 16.7427 14.8282 17.3553 14.8282 17.3553L14.7607 17.3737L13.4724 16.9694L11.908 16.1423L7.14724 18.2987H7.14111Z" fill="#004B8D"/>
<path d="M8.18408 34.0306C8.18408 33.1056 8.12886 32.8728 7.5031 32.8238L7.06138 32.787C6.95095 32.7135 6.96322 32.5236 7.07365 32.4746C7.82211 32.4133 8.76076 32.3766 10.0491 32.3766C10.9203 32.3766 11.7546 32.4378 12.3743 32.7258C12.9694 32.9831 13.4295 33.4854 13.4295 34.2818C13.4295 35.1823 12.8467 35.6357 12.0184 35.9849C12.0184 36.1135 12.1289 36.1441 12.2822 36.1686C13.0307 36.2912 14.135 36.916 14.135 38.2454C14.135 39.6912 12.9448 40.6652 10.454 40.6652C10.0552 40.6652 9.37426 40.6285 8.79144 40.6285C8.20862 40.6285 7.71168 40.653 7.20248 40.6652C7.12273 40.6285 7.09205 40.4263 7.17794 40.3528L7.42948 40.316C8.16567 40.2058 8.19021 40.0649 8.19021 38.76V34.0306H8.18408ZM9.31905 35.6847C9.31905 36.0339 9.33132 36.0584 10.0368 36.0339C11.4479 35.9849 12.2086 35.6112 12.2086 34.4411C12.2086 33.271 11.1963 32.7564 10.1473 32.7564C9.84052 32.7564 9.63807 32.7809 9.50923 32.8299C9.36813 32.8667 9.31291 32.934 9.31291 33.1546V35.6786L9.31905 35.6847ZM9.31905 38.5762C9.31905 39.0234 9.34359 39.6605 9.60739 39.9362C9.87119 40.2241 10.2884 40.2854 10.6994 40.2854C11.9325 40.2854 12.8712 39.7892 12.8712 38.5456C12.8712 37.5593 12.319 36.4198 10.1166 36.4198C9.36813 36.4198 9.31291 36.4933 9.31291 36.7445V38.5885L9.31905 38.5762Z" fill="#004B8D"/>
<path d="M23.7546 35.2559C23.7546 34.1286 23.7301 33.9449 23.0368 33.8959L22.7423 33.8775C22.6687 33.8346 22.6932 33.6447 22.7669 33.6141C23.3558 33.6324 23.7607 33.6447 24.2577 33.6447C24.7546 33.6447 25.1288 33.6324 25.7239 33.6141C25.7975 33.6447 25.8159 33.8346 25.7485 33.8775L25.454 33.8959C24.7546 33.951 24.7301 34.1286 24.7301 35.2559V39.0418C24.7301 40.169 24.7546 40.3222 25.454 40.3957L25.7485 40.4263C25.8221 40.4692 25.7975 40.6591 25.7239 40.6897C25.135 40.6652 24.7301 40.6591 24.2577 40.6591C23.7607 40.6591 23.362 40.6713 22.7669 40.6897C22.6932 40.6591 22.6687 40.4876 22.7423 40.4263L23.0368 40.3957C23.7362 40.3222 23.7546 40.1751 23.7546 39.0418V35.2559Z" fill="#004B8D"/>
<path d="M30.3129 39.0602C30.3129 40.1813 30.3374 40.3344 30.9754 40.3896L31.3313 40.4202C31.3988 40.4631 31.3742 40.653 31.3067 40.6836C30.6748 40.6591 30.3006 40.653 29.8527 40.653C29.4049 40.653 29.0245 40.6652 28.3129 40.6836C28.2454 40.653 28.227 40.4692 28.3129 40.4202L28.7116 40.3896C29.3435 40.3344 29.3988 40.1813 29.3988 39.0602V34.3063C29.3988 33.9755 29.3988 33.9632 29.0675 33.9632H28.4601C27.9816 33.9632 27.3742 33.9816 27.0981 34.2267C26.8343 34.4595 26.7239 34.6923 26.6012 34.9618C26.5153 35.0231 26.3558 34.9679 26.3129 34.8883C26.4908 34.4105 26.6564 33.7305 26.7362 33.3016C26.7669 33.2771 26.9141 33.271 26.9448 33.3016C27.0123 33.6447 27.3804 33.6263 27.8896 33.6263H32.3742C32.9754 33.6263 33.0736 33.6079 33.2392 33.3261C33.2945 33.3077 33.4172 33.3139 33.4417 33.3568C33.319 33.7917 33.2392 34.6555 33.2761 34.9741C33.2331 35.0598 33.0429 35.0598 32.9877 34.9924C32.957 34.729 32.8773 34.3308 32.7116 34.2205C32.4601 34.0429 32.0368 33.9571 31.4294 33.9571H30.6442C30.3129 33.9571 30.3251 33.9694 30.3251 34.3186V39.0541L30.3129 39.0602Z" fill="#004B8D"/>
<path d="M35.0552 35.2559C35.0552 34.1286 35.0307 33.9449 34.3313 33.8959L34.0368 33.8775C33.9632 33.8346 33.9877 33.6447 34.0614 33.6141C34.6503 33.6324 35.0552 33.6447 35.5522 33.6447C36.0491 33.6447 36.4295 33.6324 37.0184 33.6141C37.092 33.6447 37.1104 33.8346 37.043 33.8775L36.7485 33.8959C36.0491 33.951 36.0246 34.1286 36.0246 35.2559V39.0418C36.0246 40.169 36.0491 40.3222 36.7485 40.3957L37.043 40.4263C37.1166 40.4692 37.092 40.6591 37.0184 40.6897C36.4295 40.6652 36.0246 40.6591 35.5522 40.6591C35.0798 40.6591 34.6565 40.6713 34.0614 40.6897C33.9877 40.6591 33.9693 40.4876 34.0368 40.4263L34.3313 40.3957C35.0307 40.3222 35.0552 40.1751 35.0552 39.0418V35.2559Z" fill="#004B8D"/>
<path d="M40.3558 40.8C39.3006 40.8 38.638 40.5243 38.3988 40.4079C38.2454 40.1751 38.0859 39.4155 38.0613 38.9193C38.1227 38.8458 38.3129 38.8213 38.362 38.8886C38.5521 39.4339 39.0675 40.4692 40.5215 40.4692C41.5767 40.4692 42.092 39.8872 42.092 39.2501C42.092 38.7784 41.9755 38.2577 41.0613 37.7614L39.8712 37.1059C39.2454 36.7568 38.5153 36.1503 38.5153 35.2804C38.5153 34.2695 39.4417 33.4486 41.0797 33.4486C41.4662 33.4486 41.9202 33.5099 42.2454 33.5834C42.411 33.6263 42.5828 33.6447 42.6871 33.6447C42.7975 33.902 42.9141 34.4962 42.9141 34.9434C42.865 35.0108 42.6626 35.0414 42.6012 34.9741C42.4356 34.4656 42.0982 33.7733 40.8896 33.7733C39.681 33.7733 39.3926 34.4656 39.3926 34.9557C39.3926 35.5744 39.9939 36.0216 40.4601 36.2605L41.4662 36.7935C42.2577 37.2101 43.0368 37.8227 43.0368 38.8335C43.0368 40.0036 41.9939 40.8 40.3558 40.8Z" fill="#004B8D"/>
<path d="M46.681 37.2223C46.1288 37.2223 46.1104 37.2407 46.1104 37.5593V39.0602C46.1104 40.1813 46.1656 40.3283 46.8098 40.3895L47.1411 40.4202C47.2086 40.4631 47.1902 40.653 47.1166 40.6836C46.4969 40.6591 46.1104 40.653 45.6626 40.653C45.1718 40.653 44.7791 40.6775 44.3313 40.6836C44.2638 40.653 44.2393 40.4814 44.3067 40.4202L44.5031 40.3895C45.1472 40.2793 45.1656 40.1813 45.1656 39.0602V35.2313C45.1656 34.1164 45.0859 33.9326 44.4908 33.8897L44.1902 33.8713C44.1227 33.8285 44.1411 33.6386 44.2147 33.6079C44.7791 33.6141 45.1656 33.6386 45.6564 33.6386C46.1043 33.6386 46.4908 33.6263 46.9877 33.6079C47.0552 33.6386 47.0797 33.8285 47.0123 33.8713L46.7914 33.8897C46.1288 33.951 46.1043 34.1164 46.1043 35.2313V36.4566C46.1043 36.7874 46.1288 36.7996 46.6748 36.7996H49.9509C50.5031 36.7996 50.5215 36.7874 50.5215 36.4566V35.2313C50.5215 34.1164 50.4969 33.9571 49.8221 33.8897L49.6074 33.8713C49.5399 33.8285 49.5583 33.6386 49.6319 33.6079C50.1595 33.6263 50.546 33.6386 51.0184 33.6386C51.4908 33.6386 51.8527 33.6263 52.3681 33.6079C52.4356 33.6386 52.4601 33.8285 52.3926 33.8713L52.1534 33.8897C51.4908 33.951 51.4662 34.1164 51.4662 35.2313V39.0602C51.4662 40.1813 51.4908 40.316 52.1534 40.3895L52.4294 40.4202C52.4969 40.4631 52.4785 40.653 52.4049 40.6836C51.8527 40.6591 51.4662 40.653 51.0184 40.653C50.546 40.653 50.135 40.6652 49.6319 40.6836C49.5644 40.653 49.5399 40.4814 49.6074 40.4202L49.8221 40.3895C50.5215 40.2793 50.5215 40.1813 50.5215 39.0602V37.5593C50.5215 37.2407 50.4969 37.2223 49.9509 37.2223H46.6748H46.681Z" fill="#004B8D"/>
<path d="M1.62574 43.0238C2.57052 42.2948 3.76684 41.9333 5.1104 41.9333C5.80979 41.9333 6.78525 42.0742 7.39261 42.2396C7.54598 42.2764 7.63801 42.307 7.75457 42.2887C7.76684 42.5827 7.83433 43.3914 7.93249 44.1755C7.865 44.2613 7.67482 44.2796 7.58279 44.2C7.38647 43.324 6.80979 42.3254 4.93862 42.3254C2.96316 42.3254 1.28831 43.569 1.28831 46.2278C1.28831 48.8865 3.00611 50.4119 5.12267 50.4119C6.78525 50.4119 7.52144 49.3337 7.81592 48.5741C7.90795 48.5128 8.09813 48.5373 8.15334 48.6231C8.06132 49.2908 7.73003 50.1362 7.53371 50.3813C7.38034 50.4058 7.22696 50.4609 7.07972 50.5099C6.79752 50.6141 5.865 50.804 5.04292 50.804C3.88341 50.804 2.77298 50.5712 1.82819 49.9402C0.797516 49.2357 -0.00616455 48.0656 -0.00616455 46.4115C-0.00616455 44.9841 0.638007 43.7712 1.6196 43.0054L1.62574 43.0238Z" fill="#004B8D"/>
<path d="M8.68097 47.1773C8.68097 45.0515 10.362 43.422 12.6626 43.422C15.2454 43.422 16.5399 45.1986 16.5399 47.067C16.5399 49.2173 14.8159 50.7795 12.6626 50.7795C10.1779 50.7795 8.68097 49.0887 8.68097 47.1773ZM15.4233 47.404C15.4233 45.6519 14.6073 43.7528 12.4724 43.7528C11.3067 43.7528 9.79753 44.5063 9.79753 46.8404C9.79753 48.4148 10.6012 50.4548 12.8037 50.4548C14.1472 50.4548 15.4172 49.493 15.4172 47.404H15.4233Z" fill="#004B8D"/>
<path d="M29.1595 46.2645C29.1595 45.609 29.135 44.3838 28.9448 44.0652C28.865 43.9366 28.6626 43.8631 28.3804 43.8447L28.0982 43.8263C28.0307 43.7528 28.0552 43.6119 28.1227 43.569C28.5522 43.5935 28.9693 43.5996 29.4111 43.5996C29.8834 43.5996 30.1902 43.5935 30.5951 43.569C30.6871 43.6241 30.6749 43.7589 30.6196 43.8263L30.3497 43.8447C30.0675 43.8631 29.8528 43.9611 29.7853 44.0959C29.6258 44.4512 29.6258 45.6703 29.6258 46.2645V47.4652C29.6258 48.3903 29.4663 49.3704 28.8344 50.0076C28.3497 50.5099 27.5154 50.7856 26.681 50.7856C25.9019 50.7856 25.1227 50.6508 24.5706 50.1975C23.9755 49.7319 23.6933 48.9539 23.6933 47.6919V45.1802C23.6933 44.0713 23.6687 43.8937 23.0184 43.8386L22.7362 43.8202C22.6687 43.7712 22.6933 43.5935 22.7607 43.5629C23.3252 43.5874 23.7055 43.5935 24.1595 43.5935C24.6135 43.5935 24.9939 43.5874 25.546 43.5629C25.6135 43.5935 25.6381 43.7712 25.5706 43.8202L25.3006 43.8386C24.6442 43.8937 24.6258 44.0713 24.6258 45.1802V47.4775C24.6258 49.1867 25.1902 50.3139 26.9203 50.3139C28.5583 50.3139 29.1779 49.1009 29.1779 47.4836V46.2584L29.1595 46.2645Z" fill="#004B8D"/>
<path d="M42.27 44.978C42.27 44.1939 42.2209 43.9917 41.6626 43.9488L41.2638 43.9182C41.1657 43.8569 41.1779 43.6977 41.2761 43.6548C41.9448 43.5996 42.7853 43.569 43.9325 43.569C44.7117 43.569 45.454 43.6241 46.0061 43.8692C46.5399 44.0959 46.9448 44.5186 46.9448 45.1986C46.9448 45.9643 46.4295 46.3564 45.6871 46.6566C45.6871 46.7607 45.7853 46.7975 45.9203 46.8159C46.589 46.92 47.5767 47.453 47.5767 48.5924C47.5767 49.8238 46.5154 50.6569 44.2884 50.6569C43.9325 50.6569 43.3252 50.6263 42.8037 50.6263C42.2822 50.6263 41.8405 50.6508 41.3865 50.6569C41.3129 50.6263 41.2884 50.4548 41.362 50.3935L41.5828 50.3629C42.2393 50.2649 42.2638 50.1485 42.2638 49.0335V44.9903L42.27 44.978ZM43.2822 46.3932C43.2822 46.6933 43.2945 46.7117 43.9264 46.6933C45.1841 46.6505 45.865 46.3319 45.865 45.3333C45.865 44.3348 44.9632 43.8998 44.0246 43.8998C43.7546 43.8998 43.5706 43.9182 43.4601 43.9611C43.3374 43.9917 43.2884 44.0469 43.2884 44.2368V46.3993L43.2822 46.3932ZM43.2822 48.862C43.2822 49.2418 43.3068 49.787 43.5399 50.0198C43.773 50.2649 44.1472 50.32 44.5153 50.32C45.6135 50.32 46.454 49.8973 46.454 48.8314C46.454 47.9921 45.9571 47.0119 43.9939 47.0119C43.3252 47.0119 43.2761 47.0793 43.2761 47.2876V48.862H43.2822Z" fill="#004B8D"/>
<path d="M21.9448 40.4263L21.6503 40.3957C21.589 40.3957 21.5399 40.3834 21.4847 40.3773C21.0491 40.2977 20.8773 39.9117 20.6748 39.5564L19.6503 37.7798C19.4724 37.4796 19.2822 37.0876 18.8834 37.0263C19.9325 36.9038 20.8773 36.2973 20.8773 35.262C20.8773 34.0674 19.6933 33.5283 18.4908 33.5283C17.773 33.5283 17.0614 33.5773 16.3313 33.5773C15.9264 33.5773 15.4969 33.5283 15.092 33.5283C14.865 33.5283 14.865 33.5773 14.865 33.6998C14.865 33.8836 14.9448 33.8346 15.1779 33.8346C16.0614 33.8346 16 34.0551 16 34.7841V39.4461C16 40.1139 16.0552 40.3099 15.3558 40.3712C15.3558 40.3712 15.2454 40.3834 15.1902 40.3896L14.8957 40.4202C14.8221 40.4814 14.8466 40.653 14.9202 40.6836C15.0798 40.6836 15.3558 40.6714 15.3558 40.6714C15.7423 40.6591 16.135 40.6285 16.5215 40.6285C16.908 40.6285 17.2883 40.6591 17.6687 40.6714C17.8037 40.6714 17.9448 40.6775 18.1043 40.6836C18.1779 40.653 18.1963 40.4814 18.1288 40.4202L17.8282 40.3896C17.7669 40.3834 17.6626 40.3712 17.6626 40.3712C16.9571 40.3222 17 40.12 17 39.44V37.6818C17 37.5777 16.9877 37.302 17.0614 37.2285C17.1227 37.1611 17.2393 37.1733 17.3374 37.1733C18.2945 37.1733 18.2822 37.2652 18.7362 38.0616L19.9693 40.2854C20.0675 40.4569 20.1472 40.6714 20.3988 40.6714H21.4724C21.6074 40.6714 21.7485 40.6775 21.908 40.6836C21.9816 40.653 22 40.4814 21.9325 40.4202L21.9448 40.4263ZM17.638 36.9283C17.4233 36.9283 16.9939 37.0079 16.9939 36.7261V34.6861C16.9939 33.8897 17.0184 33.7733 17.9816 33.7733C19.1043 33.7733 19.7975 34.3431 19.7975 35.3906C19.7975 35.8501 19.6319 36.2667 19.2147 36.5546C18.7362 36.8854 18.2209 36.9283 17.638 36.9283Z" fill="#004B8D"/>
<path d="M17.8711 45.2169C17.8711 44.102 17.8466 43.9304 17.1104 43.8753L16.8159 43.8569C16.7423 43.814 16.7669 43.6241 16.8405 43.5935C17.4969 43.6119 17.8957 43.6241 18.3619 43.6241C18.8282 43.6241 19.2208 43.6119 19.8037 43.5935C19.8773 43.6241 19.8957 43.8202 19.8282 43.8569L19.546 43.8753C18.8527 43.9243 18.8282 44.102 18.8282 45.2169V48.9171C18.8282 49.591 18.865 49.8667 19.0736 50.0688C19.2024 50.1852 19.4233 50.3139 20.3497 50.3139C21.3435 50.3139 21.5951 50.271 21.7791 50.1791C22.0123 50.0505 22.319 49.6645 22.5521 49.1254C22.6196 49.0703 22.8466 49.1132 22.8466 49.1928C22.8466 49.3092 22.5153 50.3935 22.3558 50.6814C21.7607 50.6631 20.6442 50.6508 19.4417 50.6508H18.3619C17.8712 50.6508 17.4969 50.6631 16.8405 50.6814C16.773 50.6508 16.7485 50.4793 16.8159 50.418L17.1656 50.3874C17.8466 50.3261 17.8711 50.1791 17.8711 49.058V45.2292V45.2169Z" fill="#004B8D"/>
<path d="M49.2515 45.2353C49.2515 44.1081 49.227 43.9243 48.5521 43.8753L48.2638 43.8569C48.1963 43.814 48.2209 43.6241 48.2883 43.5935C48.865 43.6119 49.2515 43.6241 49.7362 43.6241C50.1963 43.6241 50.589 43.6119 51.1595 43.5935C51.227 43.6241 51.2515 43.8202 51.184 43.8569L50.8957 43.8753C50.2209 43.9243 50.1963 44.1081 50.1963 45.2353V49.0213C50.1963 50.1485 50.2209 50.2955 50.8957 50.369L51.184 50.3996C51.2515 50.4425 51.227 50.6324 51.1595 50.6631C50.5828 50.6447 50.1902 50.6324 49.7362 50.6324C49.2515 50.6324 48.865 50.6447 48.2883 50.6631C48.2209 50.6324 48.1963 50.4609 48.2638 50.3996L48.5521 50.369C49.227 50.2955 49.2515 50.1423 49.2515 49.0213V45.2353Z" fill="#004B8D"/>
<path d="M40.0614 50.369C40.0061 50.369 39.8896 50.3568 39.8896 50.3568C39.7669 50.3445 39.6626 50.3261 39.5767 50.2342C39.4295 50.0811 39.4417 49.6277 39.4417 49.444V44.782C39.4417 44.5798 39.3926 44.1387 39.5399 43.9856C39.6135 43.8998 39.7669 43.8876 39.908 43.8814C39.9939 43.8753 39.9939 43.8753 40.0675 43.8753L40.362 43.8508C40.4356 43.8079 40.411 43.618 40.3374 43.5813C40.1779 43.5874 40.0368 43.5813 39.9018 43.5874H38.6442C38.5092 43.5874 38.3865 43.5874 38.3068 43.7344L35.7485 49.058L33.4847 43.9121C33.411 43.7344 33.3988 43.5874 33.1595 43.5874H31.8528C31.7178 43.5874 31.5644 43.5874 31.4049 43.5751C31.3374 43.6058 31.3129 43.8018 31.3804 43.8447L31.6749 43.8692C31.7362 43.8692 31.8466 43.8814 31.8466 43.8814C32.3374 43.9121 32.3681 44.0223 32.3252 44.5369L31.9387 49.5359C31.908 50.0382 31.8773 50.3016 31.3497 50.3506C31.3497 50.3506 31.2393 50.3629 31.1779 50.369L30.8834 50.3996C30.8098 50.467 30.8344 50.6324 30.908 50.6631C31.0614 50.6569 31.3374 50.6508 31.3374 50.6508C31.6074 50.6386 31.8773 50.6141 32.1472 50.6141C32.4417 50.6141 32.7362 50.6386 33.0307 50.6508C33.1656 50.6508 33.3129 50.6569 33.4663 50.6692C33.5399 50.6386 33.5583 50.467 33.4908 50.4058L33.1963 50.3751C33.1166 50.369 33.0307 50.3568 33.0307 50.3568C32.2699 50.3077 32.2883 49.7686 32.3374 49.1132L32.6994 44.4695H32.7853L35.2331 50.1914C35.2577 50.271 35.2945 50.4058 35.4172 50.4058C35.5276 50.4058 35.5644 50.2832 35.6012 50.2036L38.362 44.3409H38.4479V49.4501C38.4479 49.6523 38.4724 50.0688 38.2638 50.2281C38.1534 50.3077 37.7976 50.3629 37.7976 50.3629C37.7485 50.369 37.6994 50.3751 37.638 50.3813L37.3436 50.4119C37.2699 50.4732 37.2945 50.6447 37.3681 50.6753C37.5215 50.6692 37.8037 50.6631 37.8037 50.6631C38.2025 50.6508 38.6135 50.6202 39.0184 50.6202C39.3129 50.6202 39.8834 50.6447 39.8834 50.6447C40.0184 50.6447 40.1779 50.6631 40.3313 50.6692C40.4049 50.6386 40.4233 50.467 40.3558 50.4058L40.0614 50.3751V50.369Z" fill="#004B8D"/>
<path d="M59.2638 50.3996L59.227 50.369C59.1656 50.3629 59.1166 50.3568 59.0675 50.3445C58.6074 50.2404 58.4294 49.689 58.2577 49.2969L55.8896 43.6977C55.865 43.6303 55.816 43.4832 55.7239 43.4832C55.5951 43.4832 55.5583 43.6364 55.5276 43.7283L53.2638 49.3153C53.184 49.5297 52.9693 50.0382 52.8159 50.1914C52.6994 50.3139 52.546 50.3384 52.3865 50.3506C52.3865 50.3506 52.2577 50.3629 52.1963 50.369L51.9202 50.3996C51.8466 50.4609 51.8712 50.6324 51.9448 50.6631C52.1043 50.6569 52.3804 50.6447 52.3804 50.6447C52.6933 50.6447 53 50.6018 53.3129 50.6018C53.5767 50.6018 53.8344 50.6324 54.0982 50.6386C54.0982 50.6386 54.3804 50.6447 54.5337 50.6569C54.6074 50.6263 54.6258 50.4548 54.5583 50.3935L54.2638 50.3629C54.2025 50.3629 54.1043 50.3445 54.1043 50.3445C53.8344 50.3139 53.4908 50.2649 53.4908 49.9647C53.4908 49.7625 53.5828 49.5297 53.6564 49.3521L54.0061 48.5189C54.184 48.1146 54.1104 48.0717 54.5828 48.0717H56.1779C56.7423 48.0717 56.6564 48.0717 56.908 48.6414L57.2822 49.493C57.3436 49.6339 57.4479 49.885 57.4479 50.0382C57.4479 50.32 57.1411 50.3384 56.8528 50.3629C56.8528 50.3629 56.7546 50.369 56.6748 50.3751L56.3926 50.3935C56.319 50.4609 56.3436 50.6263 56.4172 50.6569C56.5767 50.6508 56.8528 50.6386 56.8528 50.6386C57.184 50.6263 57.5215 50.6018 57.8466 50.6018C58.2577 50.6018 58.6687 50.6324 59.0798 50.6386C59.2147 50.6386 59.1043 50.6447 59.2577 50.6508C59.3313 50.6202 59.3558 50.4486 59.2822 50.3874L59.2638 50.3996ZM56.1595 47.7654H54.7791C54.7301 47.7654 54.3436 47.8083 54.3436 47.698C54.3436 47.6674 54.3681 47.6 54.3804 47.5632L55.2086 45.511C55.2331 45.4559 55.3129 45.1741 55.411 45.1741C55.4847 45.1741 55.5767 45.4681 55.6012 45.511L56.4172 47.4285C56.4172 47.4285 56.5031 47.6306 56.5031 47.6796C56.5031 47.8022 56.227 47.7654 56.1534 47.7654H56.1595Z" fill="#004B8D"/>
<path d="M48.4601 16.0076L43.7914 17.7351L45.2638 18.2375L48.4601 16.0076Z" fill="#FDB913"/>
<path d="M11.2025 16.0688L8.58283 15.107C8.61351 15.0274 8.64418 14.9478 8.67486 14.8681L11.5583 15.8728L11.8344 15.7013L13.2147 16.4487L14.9264 17.0735L15.0307 17.0245L8.92025 14.28C8.95706 14.2004 8.98774 14.1207 9.02455 14.0411L15.7546 16.7243L15.8528 16.6753L9.29449 13.4591C9.3313 13.3795 9.36811 13.306 9.40492 13.2263L16.5276 16.3323L9.69326 12.6566C9.73007 12.5831 9.76688 12.5157 9.80369 12.4483L19.3988 17.5207C19.5338 17.2634 19.681 17.0123 19.8344 16.7733L12.0123 10.6717L20.3558 16.0198C20.5583 15.7441 20.7792 15.4807 21.0061 15.2296L12.9755 7.96397C13.0307 7.90271 13.092 7.84145 13.1534 7.77406L18.9877 12.92L13.5951 7.3146C13.6565 7.25334 13.7178 7.19208 13.7791 7.12469L19.865 12.9568L14.2393 6.67748C14.3006 6.62235 14.362 6.56109 14.4295 6.50595L19.8773 12.0562L14.908 6.07712C14.9693 6.02811 15.0307 5.97298 15.092 5.92397L22.0675 14.1881C22.3374 13.9553 22.6135 13.7348 22.908 13.5265L17.9325 4.92541L23.6749 13.0241C23.9877 12.8342 24.3068 12.6627 24.638 12.5034L19.9325 2.79352C20.0123 2.75064 20.0982 2.71388 20.1779 2.67712L23.6626 9.64253L20.7607 2.4137C20.8405 2.37694 20.9203 2.34631 21 2.30956L24.4601 10.004L21.6012 2.07064C21.681 2.04001 21.7607 2.00937 21.8405 1.97874L24.816 9.17082L22.454 1.76433C22.5215 1.73983 22.5951 1.72145 22.6626 1.69082L26.0184 11.9337C26.3313 11.8296 26.6442 11.7377 26.9693 11.658L25.5828 1.82559L27.8712 11.4804C28.2515 11.4191 28.638 11.3823 29.0307 11.3578L28.3129 0.630997C28.3926 0.630997 28.4724 0.618744 28.5583 0.618744L29.3006 8.33154L29.1902 0.600366C29.2822 0.600366 29.3681 0.600366 29.454 0.600366L29.773 8.71748L30.092 0.600366C30.1779 0.600366 30.2638 0.600366 30.3497 0.600366L30.2822 8.33154L30.9939 0.630997C31.0736 0.630997 31.1534 0.643249 31.2331 0.643249L30.5031 11.364C30.8773 11.3885 31.2454 11.4314 31.6074 11.4804L33.8896 1.85622L32.5092 11.658C32.8466 11.7377 33.1841 11.8418 33.5092 11.9521L36.8528 1.75208C36.9325 1.78271 37.0123 1.80721 37.0859 1.83784L34.7423 9.17082L37.6871 2.05226C37.7669 2.08289 37.8466 2.11352 37.9325 2.14415L35.0982 9.99784L38.5215 2.38307C38.6012 2.41983 38.6871 2.45658 38.7669 2.49334L35.9018 9.63028L39.3436 2.75064C39.4172 2.78739 39.4908 2.82415 39.5644 2.86091L34.8896 12.5096C35.2086 12.6627 35.5215 12.8342 35.8221 13.018L41.5522 4.94379L36.589 13.5204C36.8834 13.7348 37.1718 13.9614 37.4479 14.2004L44.362 6.00361C44.4233 6.05874 44.4908 6.11388 44.5522 6.16901L39.638 12.0869L45.0307 6.59784C45.0982 6.65298 45.1595 6.71424 45.2209 6.7755L39.6503 12.9874L45.6687 7.21658C45.7301 7.27784 45.7914 7.34523 45.8528 7.40649L40.5215 12.9445L46.2822 7.85983C46.3374 7.92109 46.3926 7.97622 46.4417 8.03748L38.4908 15.2296C38.7178 15.4807 38.9325 15.738 39.135 16.0076L47.4663 10.6717L39.6626 16.7611C39.816 17.0061 39.9632 17.2573 40.1043 17.5146L49.589 12.5034C49.6258 12.5769 49.6687 12.6505 49.7055 12.724L42.9877 16.3384L49.9877 13.2876C50.0245 13.3672 50.0614 13.4469 50.0982 13.5265L42.6626 17.1777L50.362 14.1023C50.3988 14.182 50.4356 14.2616 50.4663 14.3474L43.4908 17.4717L50.6994 14.9294C50.7301 15.0029 50.7546 15.0764 50.7853 15.1499L49.2454 15.7196L51.5337 17.4595L52.1656 17.8148C51.9264 16.8469 51.5522 15.6706 51.1963 14.7578C47.7239 6.06487 39.0552 0.122528 29.6565 0.122528C18.638 0.122528 9.42946 7.8537 7.16565 18.1762C7.16565 18.1762 7.15338 18.2497 7.14111 18.3049L7.58897 18.0966L11.2025 16.0688Z" fill="#FDB913"/>
</g>
<defs>
<clipPath id="clip0_2003_1291">
<rect width="165" height="51" fill="white"/>
</clipPath>
</defs>
</svg>
