<svg xmlns="http://www.w3.org/2000/svg" xml:space="preserve" id="Layer_1" x="0" y="0" viewBox="0 0 144 144"><style>.st1{fill:#006931}.st1,.st2{fill-rule:evenodd;clip-rule:evenodd}</style><linearGradient id="SVGID_1_" x1="36" x2="36.71" y1="108" y2="107.29" gradientUnits="userSpaceOnUse"><stop offset="0" style="stop-color:#20ac4b"/><stop offset=".98" style="stop-color:#19361a"/></linearGradient><path d="M93.83 0c.69 0 1.25.55 1.25 1.22V12.7c0 .67.55 1.23 1.25 1.23h42.07c1.06 0 1.64 1.24.93 2.04l-10.3 11.56c-.21.21-.31.51-.31.8v70.03c0 24.45-32.39 39.62-57.81 39.6-25.35 0-57.35-15.15-57.35-39.6V28.35q-.01-.47-.31-.8L2.89 15.98c-.7-.8-.13-2.04.94-2.04h42.13c.69 0 1.25-.56 1.25-1.23V1.22c0-.67.56-1.22 1.25-1.22z" style="fill:#fff;stroke:#000"/><path d="M96.62 104.47c3.03 0 1.97-2.23 3.82-2.23h1.38-.84l1.25-.05c3.97-.2 7.77-2.04 9.87-5.47.21-.36.48-.71.66-1.08l.37-.73c.09-.13-.07-.26-.19-.18l-.54.3a7.6 7.6 0 0 1-7.46.06l-.43-.24c-.1-.07-.06-.28.09-.26l.41.01a7.8 7.8 0 0 0 7.71-4.5l.4-.95.23-.64c.06-.11-.07-.23-.17-.18l-.77.39a9.3 9.3 0 0 1-6.97.66l-.58-.2c-.15-.03-.14-.23.01-.26l.45-.08a7.6 7.6 0 0 0 6.27-6.13l.12-.72c.02-.12-.11-.21-.21-.17l-.71.42a7.5 7.5 0 0 1-7.39-.14l-.66-.37c-.12-.05-.09-.21.03-.25l.8-.21a8.5 8.5 0 0 0 5.3-4.21l.37-.73a.13.13 0 0 0-.14-.2l-.78.21a7.4 7.4 0 0 1-5.29-.36l-.97-.48-.59-.36c-.11-.08-.1-.23.03-.28l.69-.15a7.6 7.6 0 0 0 5.48-4.5l.24-.67c.05-.13-.07-.23-.18-.2l-.74.26a6.2 6.2 0 0 1-6.2-1.33l-.61-.55c-.08-.09-.06-.21.04-.24l.82-.33a7.3 7.3 0 0 0 3.49-2.95l.46-.8c.07-.08-.01-.21-.13-.21l-.75.04A7.5 7.5 0 0 1 98.34 61l-.6-.58c-.07-.08-.04-.21.07-.23l.64-.13a5.6 5.6 0 0 0 3.43-2.4l.33-.48c.07-.1-.02-.23-.13-.23l-.67.06c-1.92.11-3.92-.38-5.23-1.82l-.49-.52c-.08-.08-.04-.21.09-.25l.77-.13c1-.18 1.82-.8 2.39-1.62l.48-.67c.07-.08.02-.2-.07-.22-4.12-1.16-5.1-3.31-6.28-7.22-.05-.14-.24-.13-.28.02-.62 3.81-1.44 5.82-4.59 7.42-.09.04-.09.18-.01.24 6.82 4.62 11.17 15.13 10.82 27.65v.04c.45 4.71 1.27 9.07-2.75 12.92l-1.71 1.64-.04.02-1.46 2.45q-.07.06-.02.14l2.59 5.06c.05.06-.02.26-.16.23-2.67-.54-17.51 3.21-16.39 3.46l7.82 1.81h.02l1.01.11c2.68.31 4.6-2.05 6.92-3.07l.52-.23.03-.01h1.23zM53.28 105.83c1.82.38 3.25-1.38 5-1.5 1.1-.11 2.74-.75 3.82-.43.13.03.24-.11.14-.23l-1.1-1.38a5 5 0 0 0-2.44-1.31l-10.58-2.37c-1.76-.56-3.49-2.04-3.36-4.58.05-1.33.52-2.71.35-4.07l-.4-2.98q-.02-.05.02-.11c1.08-1.38 1.36-1.46-.1-3.44q-.03-.04-.04-.1l.15-1.77q0-.08-.05-.13l-2.29-1.9c-.81-.63-.7-1.53-.05-2.45l3.36-5.64c.56-.85.66-2.14.44-3.13l-1.61-7.03v-.03l-.05-1.04v-.01a6 6 0 0 1 1.05-4.75c2.46-3.58 6.69-5.98 7.94-6.38.1-.02.16-.15.03-.25l-1.45-.92c-1.02-.64-3.87-3.05-4.33-5.47l-.19-.96-.13 1.21c-.31 3.25-2.21 6.39-5.16 7.82l-.97.46c-.08.03-.1.14-.04.21l.46.46c.6.62 1.41.98 2.23 1.21l.55.15c.12.03.15.17.05.26l-.67.48a7.4 7.4 0 0 1-4.33 1.51h-.87c-.12 0-.19.13-.12.21l.44.62c.41.61.98 1.08 1.62 1.44l.83.46q.1.09.05.21l-.51.66a6.6 6.6 0 0 1-5.23 2.64h-.77c-.13 0-.18.11-.13.21l.48.8c.8 1.37 2 2.49 3.49 3.08l.92.35c.08.03.12.13.08.2l-.42.64a4.9 4.9 0 0 1-4.5 2.34l-.64-.05c-.1 0-.18.08-.13.18l.18.66a5.06 5.06 0 0 0 4.87 3.72h.64c.11 0 .18.13.13.23l-.36.56a5.4 5.4 0 0 1-6.43 2.22l-.47-.18c-.13-.03-.23.11-.18.21l.41.69a8.7 8.7 0 0 0 4.39 3.72l.9.37c.1.03.11.13.06.21l-.49.63a5.7 5.7 0 0 1-6.2 2.03l-.58-.18c-.14-.05-.23.1-.17.21l.52.82a10 10 0 0 0 6.25 4.44l.98.23c.11.03.15.19.04.26l-.7.41c-2.07 1.21-4.54 1.67-6.81.79l-.72-.28c-.11-.05-.25.07-.16.21l.41.72c1.41 2.54 4.04 4.03 6.86 4.45l.83.14c.13.01.18.17.07.24l-.66.46a8.2 8.2 0 0 1-7.77.79l-.64-.26a.14.14 0 0 0-.17.2l.4.66a8 8 0 0 0 5.7 3.72l.76.13c.13 0 .14.18.04.26l-.61.33a4 4 0 0 1-1.99.49h-.67c-.15 0-.2.16-.1.25l.29.23c1.33 1.06 3.08.75 4.62.42a8 8 0 0 1 1.76-.17c4.72.01 9.38.6 13.93 1.56" class="st1"/><path d="M89.32 23.9h38.52q.06 0 .08-.06l1.75-1.94c.09-.08.02-.2-.08-.2l-37.39-.03q-.11-.02-.12-.13v-2.18q.02-.11.13-.12l39.73.05q.06 0 .09-.05l1.82-2.01c.07-.08.02-.2-.09-.2H92.23a.12.12 0 0 1-.12-.12l.02-13.75a.13.13 0 0 0-.13-.14l-41.58-.04q-.13 0-.14.13l-.03 13.8c0 .07-.07.12-.13.12H8.45c-.1 0-.17.11-.1.2l1.82 2.01q.05.05.1.05l39.85-.05q.1 0 .11.12v2.18q-.01.11-.11.13l-37.49.03c-.12 0-.16.11-.1.2l1.76 1.94q.05.06.1.06h38.79q.12-.02.13-.12V6.17c0-.06.05-.13.13-.13h35.63c.06 0 .12.08.12.13l.01 17.61q0 .1.12.12M122.22 26.53v71.95c0 14.67-14.75 26.23-33.36 31.31-5.99 1.64-12.13 2.1-17.75 2.1l-.04-.03h-.01c-5.61 0-11.69-.42-17.69-2.06-18.61-5.08-33.38-16.64-33.38-31.31V26.53q-.01-.11-.11-.12h-3.13c-.12 0-.17.12-.1.21l.26.27q.03.03.04.08v71.44c0 16.35 16.32 28.66 35.49 33.9a72 72 0 0 0 18.64 2.61h.04l.03.03c5.96 0 12.38-.92 18.66-2.64 19.16-5.24 35.5-17.55 35.5-33.9V26.97q0-.06.04-.08l.25-.27c.07-.09.02-.21-.1-.21h-3.11q-.17 0-.17.12" class="st2"/><path d="M81.36 125.33v-.47c0-.14-.18-.2-.26-.08a4.1 4.1 0 0 1-2.99 1.75c-1.13 0-2.78-1.13-2.78-4.44 0-2.36 1.07-4.24 2.84-4.24 1.18 0 2.45.87 2.91 2.38l.03.13h.11q.14 0 .15-.15v-2.74q0-.13-.15-.14h-.16l-.07.11c-.21.33-.41.41-.62.41-.17 0-.38-.11-.61-.19a4 4 0 0 0-1.94-.45c-1.79 0-3.15.77-4 2.08a5.5 5.5 0 0 0-.88 2.98c0 1.67.95 3.33 2.27 4.15.71.41 1.62.67 2.56.67a4.6 4.6 0 0 0 3.59-1.76M58.5 126.97h5.15c2 0 3.15-1.46 3.15-2.62 0-.87-.69-1.83-1.77-2.21-.13-.05-.13-.23 0-.26a2.2 2.2 0 0 0 1.58-2.11c0-1.12-.93-2.31-2.94-2.39h-.02l-4.96-.01q-.14.01-.15.14v.13h.56c.39 0 .69.31.72.61v7.71c-.01.46-.31.74-.63.76h-.53q-.13.01-.15.14zm3.89-4.93h.36c1.11 0 1.92.72 1.92 2.16 0 1.42-.83 2.09-1.6 2.09-.58 0-.79-.27-.82-.53v-3.58q0-.13.14-.14m-.48-.52v-3.58q.02-.12.14-.14h.51c.9 0 1.62.63 1.62 1.85 0 1.36-.74 1.97-1.54 2.01h-.59q-.12 0-.14-.14M70.62 36.76h.98q.11 0 .13-.11l1.25-4.92c.05-.13.25-.13.28.02l1.21 4.89q.03.1.13.11h1.01q.12 0 .13-.11l1.21-8.52c.01-.08-.05-.16-.13-.16H75.7q-.1.01-.14.11l-.54 3.9c-.03.14-.25.16-.28.01l-.96-3.91a.2.2 0 0 0-.15-.11h-1a.2.2 0 0 0-.15.11l-.98 3.95c-.05.14-.27.14-.28-.02l-.55-3.93a.2.2 0 0 0-.14-.11h-1.1q-.16.02-.15.16l1.18 8.52q.03.11.16.12M35.53 36.76h1.11q.12-.01.13-.14v-3.65l.04-.07 2.87-4.71c.07-.1-.01-.21-.11-.21h-1.3q-.08-.01-.12.07l-1.93 3.17c-.07.08-.2.08-.25 0l-1.95-3.17q-.04-.08-.12-.07h-1.27c-.12 0-.2.11-.13.21l2.88 4.71q.03.03.02.09v3.64c-.01.07.06.13.13.13M94.6 36.76h1.15q.09 0 .12-.09l.83-2.35q.03-.09.13-.09h2.53q.1 0 .13.09l.82 2.35q.03.1.13.09h1.14c.09 0 .17-.09.14-.18l-2.91-8.52q-.03-.09-.15-.09H97.5q-.11 0-.13.09l-2.92 8.52c-.04.09.04.18.15.18m2.65-4.2.71-2.06c.03-.13.23-.13.26.01l.69 2.05c.05.08-.03.18-.13.18h-1.39c-.11 0-.17-.09-.14-.18M62.58 36.05l.08.09a3 3 0 0 0 2 .81c.81 0 1.69-.43 2.23-1.13.32-.44.82-1.55.82-3.44 0-1.87-.45-3-.75-3.42a2.84 2.84 0 0 0-4.38-.27c-.46.51-.99 1.56-.99 3.6.01 2.29.54 3.25.99 3.76m.89-1.04-.05-.11a5 5 0 0 1-.48-2.52c0-1.95.48-2.56.54-2.66.26-.36.72-.59 1.18-.59.72 0 1.51.38 1.69 2.54l.04.71v.01c-.07 2.07-.48 2.58-.69 2.8a1.6 1.6 0 0 1-1.07.42 1.4 1.4 0 0 1-1.16-.6M79.17 36.76h1.08q.12-.01.14-.14v-3.55q.02-.13.15-.15h2.88q.13.02.14.15v3.55q.01.14.15.14h1.07q.13-.01.14-.14v-8.5a.14.14 0 0 0-.14-.14h-1.07q-.13.02-.15.14v3.28q-.01.12-.14.14h-2.88a.14.14 0 0 1-.14-.14v-3.28q-.01-.12-.16-.14h-1.08q-.13.02-.15.14v8.5q.03.13.16.14M103.34 36.76h2.47a3.3 3.3 0 0 0 2.4-1.27c.46-.62.89-1.75.89-3.11a6 6 0 0 0-.18-1.51c-.46-1.95-1.7-2.83-2.98-2.9h-2.59q-.13.02-.15.14v8.5q-.01.14.14.15m1.23-1.5v-5.77q.02-.13.12-.15h1.12c.62 0 1.26.38 1.64 1.42.14.41.26 1.05.26 1.65a4.3 4.3 0 0 1-.49 2.08c-.29.54-.84.87-1.44.88h-1.09q-.1 0-.12-.11M87.9 36.76H93q.11-.01.13-.14v-1.09q-.02-.14-.13-.15h-3.71a.15.15 0 0 1-.15-.15v-2.16q0-.13.15-.15h2.25q.12-.01.14-.14v-1.1a.15.15 0 0 0-.14-.14h-2.27q-.13-.02-.15-.14v-1.9q.01-.13.15-.15h3.42q.14-.02.15-.15v-1.08q-.02-.12-.15-.14h-4.8c-.07 0-.15.07-.15.14v8.5c0 .08.09.14.16.14M48.46 36.76h5.05q.13-.01.14-.14v-.95a.14.14 0 0 0-.14-.14h-3.67a.15.15 0 0 1-.15-.15v-7.26q-.02-.12-.15-.14h-1.07a.15.15 0 0 0-.15.14v8.5q-.01.13.14.14M55.3 36.76h5.05q.13-.01.14-.14v-.95a.14.14 0 0 0-.14-.14h-3.67q-.13-.02-.14-.15v-7.26q-.02-.12-.15-.14H55.3q-.14.02-.15.14v8.5q0 .13.15.14M41.19 36.76h5.07q.15-.01.16-.14v-1.09q-.01-.14-.16-.15h-3.68q-.13-.02-.14-.15v-2.16q.01-.13.14-.15h2.25q.14-.01.15-.14v-1.1q-.01-.12-.15-.14h-2.26a.15.15 0 0 1-.15-.14v-1.9q0-.13.15-.15H46c.06 0 .13-.07.13-.15v-1.08c0-.07-.07-.14-.13-.14h-4.8a.15.15 0 0 0-.15.14v8.5q0 .13.14.14M69.92 127.28c.58 0 1.07-.49 1.07-1.09 0-.56-.41-1.09-1.1-1.09-.59 0-1.07.49-1.07 1.09 0 .57.48 1.07 1.1 1.09M84.41 127.28a1.1 1.1 0 0 0 1.07-1.09c0-.56-.4-1.09-1.09-1.09-.59 0-1.08.49-1.08 1.09 0 .57.48 1.07 1.1 1.09M99.43 89.29l.48-1.8.19-1.33.05-1.38-.05-1.19-.19-1.14-.18-1.26-.05-1.26v-2.47l-.14-2.34-.23-2.4-.31-2.4-.23-1.87-.31-1.8-.48-1.87-.61-1.74-.71-1.75-.84-1.67-.9-1.62-1.09-1.5-1.2-1.51-1.27-1.37-1.67-1.39-1.8-1.31-1.87-1.21-1.93-1.08-2.03-.9-2.06-.8-2.1-.65-2.18-.48-2.28-.37-2.35-.18h-2.28l-2.36.06-2.29.25-2.27.35-2.29.48-2.23.6-2.16.79-2.28 1.08-2.12.97-2.03 1.44-1.51 1.31-1.2 1.21-.97 1.5-.54 1.02-.36 1.01-.18 1.04-.07 1.01v1.02l.18 1.03 1.58 7.28.04.72v.76l-.23.74-.37.65-3.47 5.47-.25.54-.18.55v.6l.11.54.25.54.35.48.43.36.9.61.41.23.31.36.18.42.05.43v.9l.07.76.11.79.13.29.29.36-.35.49-.3.54-.07.6v.58l.18.54.18.79.11.72v.79l-.11.72-.24 1.31-.05 1.32.12 1.34.18.83.43.78.54.66.97.78 1.08.66.72.36.77.25 9.8 2.04.72.25.67.41.54.49 1.32 1.56 1.2 1.69 1.15 1.74.95 1.8.86 1.93.73 1.91.66-.9.84-.78.85-.72 2.17-1.38 2.23-1.27 2.28-1.15 2.35-.96 2.41-.83 2.46-.72 2.41-.66 2.41-.54 4.87-.66 2.48-.12h2.46l-.97-1.08-.9-1.21-.72-1.31-.55-1.33-.47-1.44.83-1.38.67-1.51.66-.07.61-.25.54-.37.48-.47.3-.6.54-1.08z" class="st2"/><path d="m55.76 49.32 2.1-.79 2.1-.61 2.16-.47 2.23-.37 2.22-.18 2.17-.06h2.23l2.24.18 2.16.31 2.04.48 2.05.61 1.93.72 1.92.9 1.8.94 1.8 1.15 1.69 1.21 1.62 1.38 1.33 1.44 1.13 1.56 1.08 1.62.97 1.75.79 1.74.72 1.87.48 1.87.36 1.91.25 1.99.29 2.34.24 2.34.06 2.36v2.34l.12 1.38.17 1.43.18 1.03.07 1.02-.07 1.2-.11 1.15-.24 1.15-.36 1.08-.43.95-.48.97-.06.13v-1.27l-.23-1.21-.36-1.14-.17 1.7-.31 1.62-.23.72-.43.6-.25-.54-.05-.6-.31 1.15-.41 1.15-.56 1.08-.36-.67-.54-.63-.59-.54.05 1.49.17 1.5.31 1.51.47 1.38.66 1.38.79 1.27-2.34.18-2.34.29-2.35.35-2.35.55-2.29.6-2.53.77-2.53.85-2.46 1.02-2.34 1.21-2.29 1.26-2.23 1.49-.83.61-.91-1.8-.97-1.87-1.13-1.73-1.22-1.62-1.32-1.56-.59-.59-.67-.49-.77-.36-.79-.23-9.8-2.04-.55-.19-.47-.25-.9-.54-.85-.66-.3-.36-.18-.49-.18-.48-.13-1.08.13-1.15.18-1.07.18-1.02v-.96l-.13-1.09-.36-.96-.05-.29.05-.36 2.29-1.37-2.11-1.51-.05-.79v-.96l-.06-.6-.11-.54-.31-.53-.36-.5-.48-.41-.47-.31-.79-.54-.25-.23-.12-.36v-.42l.12-.29 3.49-5.47.42-.72.3-.85.13-.83.05-.9-.11-.84-.07-.07-.05-.9v-.96l.12-.9.3-.91.36-.83.49-.79.48-.66.29-.71.31-.72.18-.79-.79.9-.66.97L47.8 63l-.12-.65-.24-.54-1.01 2.34-.67-3.17-.18-1.03v-1.02l.13-1.08.36-.97.41-.83.56-.79L48.16 54l1.26-1.14 1.33-1.08 1.44-.9 1.5-.79zm-1.97 36.64c.37 6.38 6.08 12.48 15.77 12.48 10.33 0 16.46-6.7 16.46-14.49 0-4.6-1.93-8.57-5.25-11.23-2.32-1.86-5.15-2.91-8.83-2.91-3.38 0-6.13.95-8.61 2.87l2.06-9.6h18.28v-6.61h-24l-4.05 22.36 7.38.38a7.7 7.7 0 0 1 6.32-2.83c5.08 0 8.29 3.33 8.29 7.7 0 4.43-3.5 7.97-8.13 7.97s-7.4-2.68-7.77-6.19z" style="fill-rule:evenodd;clip-rule:evenodd;fill:#fcc72d"/></svg>