<svg xmlns="http://www.w3.org/2000/svg" xml:space="preserve" viewBox="0 0 144 144"><style>.st1,.st2,.st3,.st4{fill-rule:evenodd;clip-rule:evenodd;fill:#2e3293}.st2,.st3,.st4{fill:#ffdc00}.st3,.st4{fill:#ef4125}.st4{fill:#00a2e5}.st5{fill:#2e3293}</style><linearGradient id="SVGID_1_" x1="36" x2="36.71" y1="108" y2="107.29" gradientUnits="userSpaceOnUse"><stop offset="0" style="stop-color:#20ac4b"/><stop offset=".98" style="stop-color:#19361a"/></linearGradient><g id="Hwy_2"><path d="M89.91 135.3a81 81 0 0 1-15.39 1.5 75.7 75.7 0 0 1-46.84-16.01c-6.74-5.33-9.66-12.55-9.66-21.16v-.09l.13-68.52-10.9-14.3c-.76-1-.1-2.5 1.2-2.5h44a1.5 1.5 0 0 0 1.52-1.48V2.64c0-.86.65-1.53 1.51-1.53l38.15.04c.84 0 1.5.68 1.5 1.51v10.07c0 .84.69 1.52 1.54 1.52h43.5c1.25 0 2 1.42 1.26 2.41l-10.53 14.4-.04 68.79.04.26a28 28 0 0 1-3.06 12.87c-2.45 4.81-6.12 7.7-10.85 10.91a75 75 0 0 1-27.08 11.41z" style="fill-rule:evenodd;clip-rule:evenodd;fill:#fff;stroke:#000;stroke-width:.6875"/><path d="M120.64 116.12a22.5 22.5 0 0 0 6.16-15.49v-.96l.09-71.41h1.03l1.67-2.13H91.74V23.8h39.66l1.62-2.16H91.68v-2.32h43.2l1.63-2.18H91.74V4.21H56.88v12.84l-44.73-.03 1.84 2.2h42.89v2.37H15.84l1.43 2.12h39.61v2.21l-37.81.1 1.7 2.16h.8v70.45l.09 1.9c0 5.98 2.26 11.38 6.02 15.39A71.7 71.7 0 0 0 74 132.9h.39c17.56 0 33.7-6.28 46.25-16.78m3.78-87.76.03 71.43c-.12 5.65-1.63 10.32-5.37 14.52a73 73 0 0 1-17.96 10.88c-3.51 1.54-7.5 2.59-11.31 3.57a79 79 0 0 1-11.12 1.6 69 69 0 0 1-22.9-2.35 76 76 0 0 1-14.4-5.74 82 82 0 0 1-10.73-6.92c-4.61-3.97-6.35-9.34-6.43-15.27V28.36h32.66v12.86a4.2 4.2 0 0 0 2.39 3.5v.07c1.3.84 2.92 1.06 4.48 1.06h4.96c.92 0 1.88.18 2.73.35a4.5 4.5 0 0 1 2.84 2.27 4.2 4.2 0 0 1 2.84-2.24c.82-.21 1.79-.39 2.74-.39h4.89c1.61 0 3.12-.43 4.54-1.06a3.9 3.9 0 0 0 2.31-2.81s.11-.19.08-.41l.03-13.2zm-33.71 6.77-8.75 4.46c.52-.58 1.14-1.25 1.39-1.64 1.46-2.37 1.36-2.75 2.09-3.61 1.19-1.35 2.95-1.05 3.03-.32.92-.55-.12-1.86-1.87-1.86-2.08-.08-3.71 2.55-5.99 5.64-.28.31-.64.6-.96.79l7.41-15.82-8.97 13.61c.53-1.74.43-2.8.5-3.83v-1.18c0-.55.27-1.46.44-1.84a2.5 2.5 0 0 1 2.33-1.68c-.93-1.08-2.84-.35-3.7 1.11a6 6 0 0 0-.8 2.45c-.2 1.89-.14 3.29-1.16 5.41l-1.4-16.56-1.04 13.16-.13 3.59c-.5-.93-.9-2.13-1.14-2.84-.17-.68-.17-1.98-.17-2.12 0-1.38-.62-2.51-.62-2.51-.56-1.42-2.03-2.86-3.52-1.8a3.2 3.2 0 0 1 2.18 1.96s.29 1.5.16 2.24q-.02.45-.02.97c0 1.36.23 2.45.8 3.82l-2.42-3.74L66 29.33l-4.52-6.91 7.7 16.32c-.25 0-.85-.75-1.07-.95-.3-.28-.77-.73-1.03-1.08-.74-1.03-1.17-1.64-2.1-2.77-.62-.77-3.16-2.91-5.03-.77-.12.14-.12.42-.09.63 1.88-1.23 3.97.96 4.9 2.96.41.92.95 1.63 1.92 2.8l-6.37-3.21-2.29-1.14-.05-15.27 32.75.04v15.15zM90.69 8.7v6.41l-6.41-.08 6.41 3.35v.85h-4.96l-8.23-4.2v4.2h-6.25v-4.2l-9.74 4.14H58v-1.8l5.43-2.34H58V8.62l6.1.08-6.11-3v-.28h6.53l6.72 3.29V5.46h6.25v2.3l5.46-2.3h7.73v.07L83.22 8.7zM58.36 40.59l.05-4.39.89.69 3.85 2.68 4.21 2.75c-1.43-.02-4.47-1.37-5.05-1.58a7 7 0 0 0-3.95-.15m32.6.07a6 6 0 0 0-3.21-.15c-.69.18-1.39.43-1.54.45-.64.29-1.36.54-2 .84-.58.27-1.27.37-1.93.45l8.68-5.98zm-32.35 1.49v-.02c1.63-.29 4.47 1.69 6.89 2.32l-3.38.14c-1.88-.39-2.97-.89-3.51-2.44" class="st1"/><path d="M90.71 40.97v.54h-.02c-.16 0-.2-.07-.42 0q-1.94 0-3.6.87c-1.42.6-1.33.86-2.16 1.27-.55.27-1.13.53-1.8.6l-1.05.13 3.79.37-5.22.06a5.94 5.94 0 0 0-5.92-5.45 5.94 5.94 0 0 0-5.99 5.38h-5.18l3.82-.37c-.7-.09-1.13-.13-1.9-.48-.86-.35-1.65-.86-2.81-1.34a8 8 0 0 0-3.94-1.13l-.35.02v-.52c.68-.23 1.1-.29 1.71-.25q1.16 0 2.15.39c.96.37 1.89.69 2.82 1.14.66.26 1.33.38 2.11.38h.99l-9.77-6.83v-.05l10.73 5.36-.86-.76a15 15 0 0 1-3.35-4.8 4.6 4.6 0 0 0-2.57-2.21 2.3 2.3 0 0 0-1.68.26c.61-.69 1.66-1.06 2.51-.75.76.35 1.44.85 1.96 1.46q1.15 1.35 2.12 2.81A7 7 0 0 0 69 39.13l.76.43-5.47-11.88h.07l7.07 10.82-.42-1.48c-.28-1.07-.54-2.2-.62-3.32a7 7 0 0 1 .05-1.71c0-1.13-.14-2.3-.85-3.18q-.5-.74-1.36-1.01c.85-.18 1.7.33 2.2 1.01a6.3 6.3 0 0 1 1.03 3.37v.18q.02 2.3 1.01 4.27l.78 1.45 1.04-13.88 1.1 13.88-.07.07.07-.07.77-1.45a9 9 0 0 0 1.02-4.22v-.19c0-1.27.39-2.43 1.06-3.4a2.6 2.6 0 0 1 1.96-1.01h.28c-.57.18-1.05.59-1.39 1.01a4.5 4.5 0 0 0-.87 2.73l.02 1.37c0 .23 0 .52-.02.79a15 15 0 0 1-.6 3.36l-.44 1.44 7.12-10.82-5.47 11.88.73-.43a5.6 5.6 0 0 0 2.19-2 36 36 0 0 1 2.19-2.88 5 5 0 0 1 1.93-1.4c.28-.06.58-.16.91-.16.62 0 1.23.26 1.62.74a2 2 0 0 0-1.08-.29c-.23 0-.42 0-.68.13a4 4 0 0 0-2.38 2.22c-.82 1.9-2 3.51-3.46 4.8l-.7.63 10.58-5.23v.08l-9.79 6.81h.91c.83 0 1.58-.12 2.25-.47.86-.37 1.8-.69 2.79-1.06a6 6 0 0 1 2.11-.36c.61 0 1.23.12 1.76.27" class="st2"/><path d="m76.27 13.82 14.16.02v-3.75H76.27v-4.3l-3.87-.02v4.3l-14.15-.02v3.74l14.15.02-.01 5.07 3.87.02z" class="st3"/><path d="m73.94 24.46.05-.93q-.03.03-.04.02c-.62.09-1.44.39-1.89.63-1.04.5-2.17.79-3.36.79-1.16 0-2-.29-3.03-.7-1-.49-2.32-.77-3.51-.83l-.05-.02.58.92c.91.14 1.98.38 2.7.71 1.03.48 2.16.76 3.32.76 1.19 0 2.41-.29 3.36-.79.45-.19 1.21-.43 1.87-.56M85.58 24.98l.7-1.05c-.32.1-.68.19-.9.29a9 9 0 0 1-3.32.64 9 9 0 0 1-3.7-.79 6.5 6.5 0 0 0-3.73-.69l.09.88q.33-.04.59-.05c1.09 0 2.07.23 3.05.7a8 8 0 0 0 3.63.79c1.16 0 2.3-.36 3.38-.68z" class="st4"/><path d="M79.9 44.81h-.05q-1.56 0-2.96.39c-1 .29-1.88.79-2.55 1.46a5.5 5.5 0 0 0-2.57-1.46q-1.45-.45-3.01-.45a5.62 5.62 0 0 1 11.14.06" class="st2"/><path d="m59.78 5.75 7.63 3.64h3.27l-7.64-3.62zM88.5 5.75l-3.26.02-7.64 3.62h3.28zM79.18 14.86l7.63 3.64h3.28l-7.64-3.62zM69.49 14.86l-3.25.02-7.65 3.62h3.28z" class="st3"/><path d="M71.08 29.4q.53-.17.99-.42c.36-.16.98-.35 1.55-.5l.26-3.27c-.64.11-1.38.36-1.8.61a7.6 7.6 0 0 1-6.61.1 8 8 0 0 0-2.21-.71l2.6 3.96a8 8 0 0 0 3.96.5 3 3 0 0 0-2.1-1.91c1.39-1.02 2.76.28 3.36 1.64M79.1 29.38a9 9 0 0 0 3.36.41l2.36-3.59a8.7 8.7 0 0 1-6.53-.31 6.5 6.5 0 0 0-3.05-.74l-.55.03.26 3.18h.29q1.34-.01 2.55.46c.9-1.32 2.61-1.93 3.5-.9-1.02 0-1.74.58-2.19 1.46M90.74 33.14a8 8 0 0 0-2.65-.72 3 3 0 0 0-1.5-.36c-.87 0-1.62.43-2.41 1.21-.73.18-1.45.32-2.19.32l.39-.86a9 9 0 0 0 2.99-.63 8 8 0 0 1 2.45-.55c1.06.03 2.03.29 2.8.71h.06l.05.03v.85zM61.96 32.34h-.24c-1.14 0-2.59.3-3.69.74v-.85c1.1-.4 2.55-.75 3.69-.75l.53.03c1.19.07 2.23.34 3.24.84q.37.15.75.28l.47.96a9 9 0 0 1-1.23-.46c-.82-.37-2.08-.63-3.07-.77h-.43zM88.56 40.41q-.27-.02-.52-.02c-.56 0-1.85.34-2.45.5-.71.22-1.47.45-2.23.58l1.75-1.21.47-.16c.6-.27 1.76-.55 2.45-.55a6 6 0 0 1 2.8.71h.1v.4a5.4 5.4 0 0 0-2.37-.25" class="st4"/><path d="M88.81 33.48q.03.32-.33.54c-.19-.69-1.7-.88-2.84.14-.38.45-.34.32-.79 1.06-.28.5-.6 1.32-1.2 2.24.53-.13 1.16-.29 1.68-.45.6-.16 1.87-.5 2.44-.5l.29.01 2.66-1.35-.02-1.09a6 6 0 0 0-1.89-.6M60.91 44.3c-1.19-.4-1.95-.95-2.42-2.2l-.02-.01c1.68-.29 4.57 1.69 6.95 2.3l-1.14.07c-.48-.11-1-.19-1.46-.26h-.69q-.58 0-1.22.1M85.51 26.13a7 7 0 0 1 2.17-.45 6 6 0 0 1 2.8.71h.06l.19.16-.01 3.16c-.63-.29-2.09-.94-3.05-.87-.58 0-1.86.34-2.45.5q-.7.22-1.42.42zM57.98 33.71a15 15 0 0 1 2.01-.56q0 .01-.03.03a.7.7 0 0 0-.07.63c1.82-1.16 3.9.7 4.77 2.8-.71-.21-1.58-.37-2.26-.45h-.71q-.73 0-1.54.13l-2.17-1.07zM90.5 41.99c.22.84-1.68 2.35-3.99 2.77l-2.63-.32c1.9-.65 3.96-2.76 6.62-2.45M57.94 25.78c1.1-.41 2.55-.77 3.71-.77l.54.04.55.04 1.64 3.51c-.66-.18-1.4-.32-2.03-.4h-.7c-1.16 0-2.59.3-3.71.74zM58.36 39.96c1.09-.41 2.58-.78 3.74-.78l.54.03h.07l.45.33 1.23.8c-.54-.12-1.09-.23-1.57-.29h-.71c-.71 0-1.52.11-2.31.3-.49.02-.99.08-1.43.26zM86.46 24.01c.46-.11.94-.2 1.29-.2a6 6 0 0 1 2.8.73h.07l.06.02-.01.84a7 7 0 0 0-2.92-.72c-.41 0-1.15.18-1.76.32zM62.53 40.79l.02.02c1.19.07 2.21.34 3.22.84.35.13.76.24 1.13.36l.36.26c-1.26-.08-3.78-1.09-4.73-1.48M58.02 24.17c1.1-.4 2.55-.77 3.71-.77l.27.03.42.86h-.7c-1.16 0-2.59.3-3.71.74v-.86zM67.17 34.46l1.58 3.34q-.41-.02-.8-.08a4 4 0 0 1-.75-.84l-2.13-2.79c-.06-.08-.37-.35-.52-.52.31.12.67.24.97.39q.79.33 1.65.5M80.14 37.49l.57.1q.12-.14.23-.24c.48-.66.48-.71.93-1.29q.64-.89 1.26-1.61-.58.07-1.16.06-.23 0-.44-.02zM79.98 33.48l.5-.76a8 8 0 0 1-1.93-.55l.02.37-.02.48c.43.21.95.36 1.43.46M70.02 33.67q-.02-.34-.02-.69v-.16q-.6.11-1.22.11l-.5-.02.1.14.45.71q.61 0 1.19-.09M73.31 32.3l.07-.95c-.46.15-.95.32-1.26.5l-.32.14c0 .18 0 .5.02.84l.3-.15c.3-.1.74-.25 1.19-.38M76.77 32.35c.04-.27.04-.56.08-.86a6 6 0 0 0-1.57-.19h-.04l.09.9q.74 0 1.44.15M78.54 33.73c-.04.71-.15 1.54-.45 2.59l1.45-2.21a7 7 0 0 1-1-.38M69.31 34.55l1.45 2.25c-.32-.85-.55-1.57-.67-2.35q-.37.07-.78.1M72.88 36.97q.12-.03.26-.1l.11-3.02.02-.22c-.44.13-.87.31-1.15.45l-.21.12c.04.12.05.28.09.37.19.63.51 1.56.88 2.4M76.73 33.19a7 7 0 0 0-1.34-.14l.26 3.21.37.03c.45-1.17.61-2.11.71-3.1M90.89 37.3q-.38-.17-.95-.36l.95-.66zM59.17 36.79q-.43.13-.8.27v-.82z" class="st4"/><path d="M85.83 25q-.06 0 0 0" class="st1"/></g><g id="Layer_3"><path d="M63.41 109.12H52.98v-39.3a36 36 0 0 1-13.47 7.9v-9.46q4.08-1.33 8.87-5.07t6.57-8.7h8.46zM73.02 96.46l10.09-1.11q.37 3.12 1.93 4.6a5.6 5.6 0 0 0 4.04 1.48q3.3 0 5.58-2.97t2.88-12.36a12.2 12.2 0 0 1-9.69 4.6q-6.52 0-11.19-4.97-4.65-4.98-4.66-12.84 0-8.35 4.9-13.4t12.58-5.05a16.8 16.8 0 0 1 13.54 6.4q5.31 6.4 5.31 20.99 0 14.96-5.53 21.56T88.44 110q-6.2 0-10.26-3.47c-4.06-3.47-4.42-5.67-5.16-10.07m23.63-22.75q0-5.09-2.34-7.85t-5.34-2.76q-2.9 0-4.82 2.26t-1.93 7.42q0 5.31 2.08 7.77a6.5 6.5 0 0 0 5.2 2.47q3 0 5.08-2.36 2.07-2.36 2.07-6.95" class="st5"/></g></svg>