<?xml version="1.0" encoding="utf-8"?>
<!-- Generator: Adobe Illustrator 26.1.0, SVG Export Plug-In . SVG Version: 6.00 Build 0)  -->
<svg version="1.1" id="TCH" xmlns="http://www.w3.org/2000/svg" xmlns:xlink="http://www.w3.org/1999/xlink" x="0px" y="0px"
	 viewBox="0 0 109.88 144" style="enable-background:new 0 0 109.88 144;" xml:space="preserve">
<style type="text/css">
	.Arched_x0020_Green{fill:url(#SVGID_1_);stroke:#FFFFFF;stroke-width:0.25;stroke-miterlimit:1;}
	.st0{fill-rule:evenodd;clip-rule:evenodd;fill:#FFFFFF;stroke:#000000;stroke-width:1.375;}
	.st1{fill-rule:evenodd;clip-rule:evenodd;fill:#00665B;}
	.st2{fill:#00665B;}
</style>
<linearGradient id="SVGID_1_" gradientUnits="userSpaceOnUse" x1="17.5" y1="108" x2="18.2071" y2="107.2929">
	<stop  offset="0" style="stop-color:#20AC4B"/>
	<stop  offset="0.9831" style="stop-color:#19361A"/>
</linearGradient>
<path class="st0" d="M97.75,141.16c4.86,0,8.8-3.94,8.8-8.8v-121c0-4.86-3.93-8.8-8.8-8.8H11.47c-4.86,0-8.79,3.94-8.79,8.8v121
	c0,4.86,3.94,8.8,8.79,8.8H97.75z"/>
<path class="st1" d="M103.28,27.81v104.43c0,2.95-2.39,5.34-5.34,5.34H11.66c-2.94,0-5.33-2.39-5.33-5.34V27.81H103.28z
	 M53.32,106.39l-0.39,0.62l-0.28,0.34l1.52,0.38l1.46,0.55l0.17-1.8l0.04-1.01c-0.17-1.57-0.57-2.95-0.94-4.47
	c-0.21-1.69-0.19-2.22,0.61-3.58c0.33-0.58,2.03-1.34,2.88-0.35c0.97,1.03,1.25,1.97,2.61,2.61c0.94,0.3,1.89,0.32,2.84,0.59
	c1.07,0.51,1.66,1.08,2.5,1.91l0.59-0.56c0.86-0.86,1.6-1.08,2.77-1.28c1.87,0,3.67-0.16,5.33-1.04c1.36-0.99,2.32-2.34,3.81-3.16
	c1.55-0.4,3.04-0.56,4.51-1.24c-0.67,0-0.89-0.09-1.42-0.49c-0.62-0.8-1.15-1.49-1.94-2.15c-1.04-0.61-2.11-0.73-3.29-0.97
	c-1.02-0.41-1.27-1.31-0.6-2.18c1.55-1.26,3.61-1.43,5.37-2.25c1.07-0.8,2-1.77,3.08-2.54l0.9-0.41c1.44-0.67,2.36-1.33,3.4-2.53
	c1.15-1.61,1.57-2.99,1.7-4.96c-1.04,1.05-2.32,1.28-3.46,0.24c-0.86-1.32-0.53-2.64,0.24-3.92c0.77-1.07,1.16-2.02,1.36-3.33
	c0.19-2.66-0.45-5.87,2.52-7.11l-1.11-0.56l-1.21-0.38c-1.85-0.34-3.03-0.1-4.75,0.62c-1.51,0.86-4.46,3.08-6.38,1.95
	c-1.21-1.21-0.35-2.66,1.11-3.05c-2.62-1.39-4.25,0.01-6.58,1.35c-0.89,0.27-1.33,0.21-2.07-0.38c-0.97-1.19-0.34-2.01,0.2-3.27
	c0.41-1.76,0.34-2.93-0.48-4.57c-1.35-2.51-2.43-4.13-1.28-6.9c0.32-0.54,0.67-0.69,1.21-1l-0.7-0.11c-1.29,0-1.93,0.3-3.08,0.87
	c-1.36,0.93-2.41,1.98-4.09,1.14c-1.11-1.02-1.66-2.5-2.07-3.92c-0.51-2.15-1.13-3.72-2.88-5.13c-0.93-0.56-1.48-0.91-2.16-1.77
	h0.04c-0.67,0.85-1.23,1.2-2.14,1.77c-2.13,1.71-2.44,3.59-3.16,6.11c-0.45,1.06-0.94,2.16-1.8,2.95c-1.04,0.51-1.56,0.36-2.59-0.1
	c-1.02-0.75-2-1.37-3.19-1.8c-0.77-0.12-1.31-0.12-2.09,0l0.7,0.41c1.09,0.84,1.1,2.54,0.94,3.78c-0.39,1.32-1.05,2.51-1.7,3.71
	c-1.07,2.14-0.9,3.61,0.04,5.76c0.29,0.68,0.25,1.07-0.04,1.74c-1.47,1.85-3,0.36-4.64-0.59c-1.55-0.77-2.74-0.86-4.3-0.03
	c1.14,0.31,1.79,1.08,1.62,2.29c-0.7,1.71-2.68,1.05-3.98,0.45l-2.91-1.63c-0.96-0.4-1.76-0.65-2.8-0.79
	c-1.66,0-2.78,0.37-4.27,1.11c2.99,1.25,2.32,4.43,2.52,7.11c0.2,1.31,0.59,2.26,1.36,3.33c0.77,1.27,1.09,2.56,0.23,3.92
	c-1.15,1.04-2.41,0.8-3.46-0.24c0.07,1.16,0.25,2.02,0.62,3.12c0.85,1.82,1.83,2.82,3.5,3.91c0.97,0.45,1.83,0.84,2.7,1.46
	c1.04,0.98,1.85,1.76,3.16,2.36c1.51,0.43,3.69,0.87,4.71,2.15c0.55,2.04-1.38,1.99-2.88,2.3c-1.12,0.34-1.71,0.87-2.45,1.77
	c-0.71,0.91-0.95,1.42-2.15,1.42c1.46,0.67,2.96,0.84,4.5,1.24c1.05,0.58,1.71,1.26,2.57,2.12c1.2,1.14,2,1.54,3.61,1.84l1.11,0.18
	c1.7,0.11,3.79-0.06,4.81,1.64c1.16-1.7,3.02-1.96,4.88-2.33c1.4-0.59,2.16-1.46,2.99-2.71c0.53-0.72,1.15-1.02,1.88-0.8
	c1.47,0.59,0.87,1.5,0.58,2.71c-0.16,1.05-0.11,1.93,0,2.99C53.73,103.6,54.04,104.66,53.32,106.39z M89.89,112.11l-5.16-5.31
	l-1.8,1.67l-1.94,1.52l-2,1.42l-2.09,1.32l-2.15,1.18l-2.22,1.07l-2.29,0.93l-2.32,0.8l-2.29,0.59l-2.45,0.62l-2.43,0.38l-2.45,0.29
	l-2.46,0.1h-2.46l-2.46-0.17l-2.43-0.27l-2.43-0.45l-2.39-0.56l-2.35-0.73L39,115.67l-2.26-0.97l-2.18-1.11l-2.14-1.21l-2.05-1.36
	l-2.01-1.45l-1.87-1.56l-1.84-1.66l-5.23,5.2l1.97,1.84l2.04,1.74l2.15,1.63l2.26,1.5l2.29,1.38l2.38,1.25l2.43,1.11l2.5,1
	l2.56,0.87l2.59,0.72l2.59,0.6l2.68,0.45l2.67,0.28l2.67,0.17l2.71,0.03l2.67-0.13l2.66-0.25l2.67-0.41l2.64-0.55l2.59-0.7
	l2.57-0.79l2.52-0.98l2.42-1.07l2.49-1.26l2.26-1.32l2.25-1.45l2.19-1.6l2.07-1.7L89.89,112.11z M89.65,104.82l-2.9,3.19l4.02,4.2
	l-1.39,2.25l-1.53,2.14l1.95-1.66l1.91-1.77l1.77-1.84l1.7-1.94l-4.85,0.18L89.65,104.82z M18.18,111.44l4.09-4.12l-2.84-3.23
	l-0.8,4.68l-4.74-0.17l1.59,1.95l1.7,1.84l1.8,1.77l1.91,1.66l-1.46-2.15L18.18,111.44z M88.84,114.41l-2.18,1.84l-2.29,1.66
	l0.73,1.07l1.35-1.46l1.25-1.55L88.84,114.41z M25.3,117.55l-2.18-1.67l-2.12-1.77l1.08,1.57l1.18,1.48l1.24,1.42L25.3,117.55z"/>
<path class="st1" d="M103.09,17.53H6.14v-6.18c0-2.94,2.38-5.33,5.33-5.33h86.28c2.95,0,5.34,2.39,5.34,5.33V17.53z"/>
<path class="st1" d="M14.5,26.71l-0.01-6.74h-2.6v-0.88h6.27v0.88h-2.6v6.74H14.5z M20.08,22.48h2.22c0.29-0.01,0.48-0.09,0.65-0.24
	c0.11-0.09,0.42-0.4,0.42-1c0-0.26-0.07-0.54-0.18-0.73c-0.18-0.32-0.48-0.53-1.09-0.53h-2.02V22.48z M19.02,26.71l-0.01-7.62l3,0
	c1.2,0.04,1.56,0.25,1.86,0.53c0.33,0.32,0.58,0.85,0.58,1.49c0,1.05-0.61,1.71-1.54,1.84c0.52,0.02,1.03,0.42,1.15,1.12l0.36,2.16
	c0.03,0.18,0.11,0.37,0.25,0.48h-1.2c-0.06-0.1-0.09-0.22-0.11-0.34l-0.23-1.68c-0.2-1.11-0.52-1.34-1.43-1.34h-1.63v3.36H19.02z
	 M27.84,23.81l2.88,0.01l-1.35-3.69L27.84,23.81z M25.54,26.71l3.32-7.63h1.1l3.01,7.63h-1.12l-0.79-2.01h-3.59l-0.85,2.01H25.54z
	 M33.81,26.71v-7.62h1.48l3.62,6.65l-0.09-6.65h0.95v7.62h-1.3l-3.75-6.81l0.05,6.81H33.81z M41.31,24.56h1.11
	c0,0.45,0.11,0.71,0.35,0.95c0.27,0.29,0.79,0.55,1.46,0.55c1.34,0,1.86-0.68,1.86-1.36c0-0.55-0.29-0.98-1.05-1.18l-2.16-0.54
	c-0.92-0.29-1.39-0.89-1.39-1.84c0-0.57,0.21-1.07,0.5-1.38c0.47-0.49,1.24-0.88,2.36-0.88c1.76,0,2.57,0.95,2.61,2.04h-1.11
	c0-0.63-0.41-1.18-1.55-1.18c-1.24,0-1.78,0.62-1.78,1.31c0,0.48,0.21,0.85,1.16,1.08l1.56,0.37c1.1,0.27,1.9,0.82,1.9,2.1
	c0,1.2-0.91,2.33-3,2.33c-2.73,0-2.84-1.99-2.84-2.11l0-0.14C41.31,24.64,41.31,24.59,41.31,24.56z M48.57,23.25v-0.69h3.84v0.69
	H48.57z M58.66,24.7h1.16c-0.09,0.71-0.5,1.37-1.09,1.76c-0.42,0.26-1.04,0.48-1.73,0.48c-0.86,0-1.64-0.32-2.16-0.79
	c-0.56-0.53-1.07-1.46-1.07-3.2c0-1.1,0.15-1.73,0.32-2.15c0.49-1.24,1.56-1.96,2.89-1.96c1.88,0,2.82,1.08,2.86,2.21h-1.1
	c-0.07-0.68-0.73-1.33-1.7-1.33c-0.79,0-1.46,0.41-1.81,1.16c-0.19,0.42-0.36,1.01-0.36,2.19c0,0.76,0.15,1.38,0.38,1.84
	c0.36,0.74,0.99,1.14,1.86,1.14c0.71,0,1.28-0.41,1.48-1.07l0.05-0.15C58.65,24.79,58.66,24.75,58.66,24.7z M62.66,23.81l2.89,0.01
	l-1.36-3.69L62.66,23.81z M60.37,26.71l3.32-7.63h1.09l3.01,7.63h-1.13l-0.78-2.01h-3.59l-0.86,2.01H60.37z M68.65,26.71v-7.62h1.48
	l3.62,6.65l-0.09-6.65h0.96v7.62h-1.3l-3.75-6.81l0.05,6.81H68.65z M77.77,23.81l2.89,0.01l-1.35-3.69L77.77,23.81z M75.47,26.71
	l3.32-7.63h1.09l3.02,7.63h-1.13l-0.78-2.01H77.4l-0.86,2.01H75.47z M84.79,25.84l1.72-0.01c1.29-0.02,2.25-0.73,2.25-3.05
	c0-2.04-0.92-2.82-2.38-2.82h-1.59V25.84z M83.75,26.71v-7.62l3.08,0.02c2.45,0.19,3.04,2.41,3.04,3.78c0,1.23-0.43,2.23-0.93,2.83
	c-0.5,0.56-1.29,0.96-2.14,1L83.75,26.71z M92.34,23.81l2.89,0.01l-1.35-3.69L92.34,23.81z M90.04,26.71l3.32-7.63h1.09l3.01,7.63
	h-1.13l-0.78-2.01h-3.59l-0.85,2.01H90.04z"/>
<path class="st1" d="M70.99,122.37c-0.56-1.56-1.11-3.13-1.66-4.7c0.37-0.14,0.74-0.27,1.11-0.41c0.98,1.16,2,2.3,3.07,3.41
	c-0.09-1.52-0.22-3.04-0.4-4.54c0.36-0.16,0.7-0.34,1.04-0.51c0.74,1.5,1.48,2.98,2.21,4.48c-0.23,0.11-0.45,0.21-0.68,0.32
	l-1.96-4.14c0.17,1.62,0.29,3.24,0.34,4.88c-0.24,0.1-0.47,0.2-0.7,0.3c-1.15-1.18-2.25-2.41-3.29-3.65l1.59,4.31
	C71.43,122.21,71.21,122.29,70.99,122.37z"/>
<path class="st1" d="M26.45,116.1l2.89-4.04c0.54,0.38,1.08,0.75,1.64,1.09c0.64,0.45,0.78,0.69,0.86,0.95
	c0.08,0.3,0.04,0.68-0.17,1.04c-0.34,0.59-0.93,0.75-1.52,0.46c0.3,0.21,0.46,0.61,0.3,1.05c-0.17,0.45-0.34,0.89-0.51,1.34
	c-0.04,0.11-0.04,0.23,0,0.36c-0.25-0.15-0.5-0.3-0.75-0.45c0-0.08,0.02-0.16,0.05-0.24c0.15-0.34,0.29-0.68,0.43-1.02
	c0.27-0.7,0.16-0.94-0.37-1.29c-0.32-0.21-0.64-0.42-0.95-0.63l-1.24,1.8C26.87,116.41,26.66,116.26,26.45,116.1z M28.65,114.27
	c0.43,0.29,0.86,0.58,1.29,0.86c0.16,0.1,0.3,0.12,0.46,0.1c0.09,0,0.38-0.07,0.58-0.4c0.09-0.16,0.15-0.33,0.15-0.47
	c0-0.25-0.08-0.46-0.43-0.68c-0.38-0.24-0.75-0.49-1.12-0.74L28.65,114.27z"/>
<path class="st1" d="M82.59,116.42c-0.29-1.82-0.64-3.62-1.08-5.38c0.18-0.14,0.37-0.3,0.55-0.45c1.56,0.89,3.16,1.73,4.8,2.49
	c-0.2,0.18-0.41,0.36-0.62,0.54c-0.43-0.22-0.84-0.43-1.27-0.65c-0.65,0.54-1.32,1.05-2.01,1.57c0.1,0.47,0.19,0.95,0.27,1.43
	C83.02,116.11,82.8,116.27,82.59,116.42z M82.82,113.91c0.55-0.4,1.08-0.82,1.61-1.24c-0.77-0.42-1.5-0.86-2.23-1.3
	C82.42,112.21,82.63,113.05,82.82,113.91z"/>
<path class="st1" d="M22.62,113.08l3.28-3.75c0.45,0.39,0.9,0.77,1.36,1.15c0.57,0.48,0.68,0.76,0.73,1.03
	c0.05,0.34-0.04,0.73-0.25,1.01c-0.3,0.4-0.85,0.53-1.34,0.3c0.4,0.52,0.43,1.18,0.08,1.66c-0.43,0.59-1.3,0.67-1.93,0.19
	C23.88,114.16,23.24,113.62,22.62,113.08z M23.57,113.15c0.34,0.29,0.68,0.57,1.02,0.85c0.51,0.39,1.01,0.32,1.32-0.07
	c0.31-0.41,0.24-0.9-0.25-1.29c-0.32-0.27-0.65-0.54-0.97-0.8L23.57,113.15z M25.05,111.41c0.36,0.29,0.71,0.58,1.08,0.88
	c0.34,0.21,0.74,0.14,0.99-0.19c0.27-0.35,0.2-0.81-0.15-1.09c-0.31-0.25-0.62-0.5-0.93-0.76L25.05,111.41z"/>
<path class="st1" d="M77.29,119.63l-2.3-4.43c0.53-0.27,1.05-0.55,1.56-0.85c0.66-0.35,0.95-0.36,1.22-0.3
	c0.33,0.07,0.66,0.29,0.84,0.59c0.27,0.43,0.2,0.99-0.2,1.36c0.64-0.19,1.27,0.03,1.59,0.53c0.39,0.62,0.16,1.47-0.52,1.88
	C78.75,118.84,78.02,119.24,77.29,119.63z M77.69,118.78c0.4-0.21,0.79-0.43,1.17-0.66c0.55-0.33,0.67-0.82,0.41-1.25
	c-0.27-0.44-0.75-0.55-1.3-0.24c-0.36,0.21-0.73,0.42-1.1,0.61L77.69,118.78z M76.6,116.75c0.4-0.22,0.81-0.45,1.21-0.68
	c0.32-0.24,0.39-0.65,0.19-0.99c-0.24-0.38-0.69-0.48-1.08-0.26c-0.35,0.21-0.7,0.4-1.05,0.59L76.6,116.75z"/>
<path class="st1" d="M64.64,119.03c0.21-0.05,0.41-0.09,0.62-0.14l0.76,3.08c0.18,0.63,0.44,0.85,0.71,0.95
	c0.28,0.1,0.66,0.14,1.09,0.01c0.49-0.13,0.85-0.44,0.98-0.69c0.13-0.23,0.2-0.5,0-1.12l-0.93-2.98c0.2-0.06,0.39-0.12,0.59-0.2
	l1.04,3.18c0.24,0.79,0.06,1.37-0.68,1.91c-0.26,0.18-0.55,0.32-0.85,0.4c-0.44,0.12-0.95,0.14-1.3,0.08
	c-0.66-0.13-1.05-0.51-1.23-1.09C65.18,121.3,64.91,120.17,64.64,119.03z"/>
<path class="st1" d="M43.03,123.72l1.19-4.83c0.23,0.05,0.45,0.11,0.68,0.16l-0.48,2.07c0.82,0.2,1.65,0.36,2.47,0.5l0.36-2.11
	c0.23,0.04,0.45,0.07,0.68,0.11l-0.77,4.93c-0.25-0.04-0.5-0.08-0.75-0.12l0.39-2.25c-0.84-0.14-1.67-0.3-2.5-0.5l-0.51,2.21
	C43.52,123.85,43.27,123.79,43.03,123.72z"/>
<path class="st1" d="M56.93,124.68c-0.41-0.34-0.79-0.94-0.82-2.03c-0.04-1.82,0.9-2.67,2.13-2.77c1.33-0.11,2.35,0.57,2.59,2.33
	c0.23,1.64-0.44,2.46-1.43,2.79c-0.22,0.07-0.46,0.13-0.7,0.14c-0.3,0.03-0.63,0-0.73-0.02c-0.09-0.04-0.19-0.04-0.27-0.07
	c-0.25-0.07-0.47-0.17-0.68-0.32C56.99,124.72,56.96,124.7,56.93,124.68z M57.35,124.09c0.33,0.37,0.77,0.52,1.29,0.48
	c0.89-0.07,1.63-0.7,1.43-2.26c-0.17-1.47-0.98-1.93-1.75-1.88c-1.19,0.1-1.49,1.3-1.45,2.15c0.04,0.82,0.28,1.29,0.42,1.44
	C57.31,124.05,57.33,124.07,57.35,124.09z"/>
<path class="st1" d="M38.59,120.91c0.25,0.09,0.49,0.18,0.74,0.27c-0.1,0.27-0.07,0.45,0.04,0.66c0.12,0.25,0.42,0.52,0.89,0.66
	c0.93,0.3,1.42-0.04,1.54-0.46c0.09-0.34-0.03-0.67-0.51-0.95c-0.45-0.26-0.89-0.53-1.32-0.8c-0.55-0.39-0.71-0.86-0.5-1.46
	c0.12-0.34,0.36-0.61,0.62-0.73c0.4-0.2,0.96-0.27,1.65-0.06c1.1,0.34,1.45,1.06,1.3,1.77c-0.24-0.06-0.48-0.13-0.72-0.2
	c0.11-0.39-0.06-0.81-0.78-1.04c-0.79-0.25-1.25,0.03-1.39,0.45c-0.1,0.3-0.05,0.57,0.53,0.92c0.31,0.19,0.62,0.38,0.95,0.55
	c0.68,0.38,1.12,0.88,0.91,1.68c-0.2,0.76-1.04,1.31-2.5,0.86c-1.92-0.62-1.52-1.9-1.5-1.96c0.01-0.03,0.02-0.06,0.03-0.09
	C38.57,120.95,38.58,120.93,38.59,120.91z"/>
<path class="st1" d="M33.56,120.32c0.63-1.33,1.27-2.66,1.9-3.98c-0.52-0.25-1.04-0.51-1.54-0.77l0.27-0.52
	c1.22,0.64,2.46,1.23,3.72,1.75l-0.22,0.54c-0.53-0.22-1.05-0.45-1.59-0.7l-1.85,4C34.03,120.54,33.79,120.43,33.56,120.32z"/>
<path class="st1" d="M54.66,123.85c0.27,0,0.54,0,0.82,0c-0.06,0.45-0.34,0.89-0.77,1.15c-0.3,0.18-0.77,0.31-1.26,0.3
	c-0.64-0.02-1.2-0.25-1.55-0.59c-0.39-0.37-0.71-1-0.62-2.13c0.05-0.72,0.18-1.12,0.32-1.39c0.39-0.79,1.12-1.21,1.99-1.2
	c1.21,0.03,1.84,0.73,1.88,1.47c-0.25,0-0.5,0-0.74,0c-0.05-0.44-0.49-0.88-1.12-0.89c-0.52-0.01-0.98,0.24-1.24,0.71
	c-0.14,0.26-0.29,0.65-0.33,1.42c-0.03,0.49,0.06,0.9,0.2,1.22c0.23,0.5,0.67,0.79,1.31,0.79c0.51,0.02,0.92-0.25,1.07-0.69
	c0.01-0.03,0.02-0.06,0.04-0.09C54.64,123.9,54.65,123.88,54.66,123.85z"/>
<path class="st1" d="M62.05,124.61c-0.25-1.64-0.5-3.28-0.75-4.93c0.22-0.04,0.45-0.08,0.69-0.11l0.72,4.36
	c0.86-0.15,1.71-0.31,2.55-0.51l0.12,0.56C64.29,124.23,63.18,124.44,62.05,124.61z"/>
<path class="st1" d="M81.5,117.16c-0.91-1.39-1.83-2.78-2.74-4.16c0.2-0.13,0.4-0.26,0.6-0.4l2.8,4.12
	C81.94,116.86,81.72,117,81.5,117.16z"/>
<path class="st1" d="M30.7,118.81c0.82-1.44,1.63-2.89,2.46-4.34c0.2,0.12,0.41,0.23,0.63,0.35l-2.39,4.38
	C31.16,119.08,30.93,118.95,30.7,118.81z"/>
<path class="st1" d="M36.49,121.61c0.62-1.54,1.24-3.08,1.86-4.63c0.23,0.09,0.45,0.18,0.68,0.26l-1.79,4.66
	C36.99,121.81,36.74,121.71,36.49,121.61z"/>
<g>
	<path class="st2" d="M41.68,63.48h4.61v29.57h-5.4V73.17h-4.38v-5.18h0.2c1.38,0,2.59-0.37,3.64-1.11l0.04-0.18
		c0.13-0.21,0.25-0.4,0.37-0.58c0.12-0.18,0.2-0.34,0.25-0.49v-0.22l0.16-0.53l0.31-1.42H41.68z"/>
	<path class="st2" d="M71.47,69.28l-0.9,0.31l-0.2,0.18l-0.55,0.18c-0.26,0.12-0.51,0.21-0.74,0.27c-0.03,0.03-0.09,0.04-0.2,0.04
		c-0.03,0-0.04,0.02-0.04,0.04c-0.03,0.03-0.09,0.04-0.2,0.04l-0.12,0.18h-0.2c-0.21,0.06-0.31,0.1-0.29,0.13
		c0.01,0.03-0.03,0.04-0.14,0.04c-0.03,0.03-0.08,0.04-0.16,0.04l-1.13,0.58c-0.83-2.01-2.07-3.01-3.71-3.01
		c-0.37,0-0.74,0.04-1.13,0.13c-2.5,0.77-3.82,2.86-3.95,6.29c2.01-1.48,3.97-2.21,5.9-2.21c1.9,0,3.73,0.68,5.47,2.04
		c1.93,2.18,2.89,4.74,2.89,7.66c0,0.88-0.08,1.81-0.23,2.79c-0.52,4.49-2.57,7.19-6.14,8.1c-0.52,0.12-1.04,0.2-1.54,0.24
		c-0.51,0.04-1,0.07-1.47,0.07c-6.31,0-9.74-4.58-10.28-13.72c0-0.03,0-0.13,0-0.31s-0.01-0.38-0.02-0.6s-0.02-0.42-0.02-0.6
		s0-0.28,0-0.31c0-9.47,3.22-14.48,9.66-15.01c0.16,0,0.32-0.01,0.49-0.02c0.17-0.01,0.33-0.02,0.49-0.02
		C67.67,62.81,70.48,64.97,71.47,69.28z M58.3,82.21v0.31c0,2.86,1.16,4.59,3.48,5.18c0.03,0.03,0.12,0.04,0.27,0.04
		c0.03,0,0.05,0.01,0.08,0.04h0.59c1.62,0,2.78-0.89,3.48-2.66c0.13-0.68,0.24-1.23,0.31-1.66s0.12-0.73,0.12-0.91
		c0-2.01-0.91-3.51-2.74-4.52h-0.2c-0.18-0.12-0.5-0.18-0.94-0.18C60.23,78.16,58.74,79.61,58.3,82.21z"/>
</g>
</svg>
