<svg xmlns="http://www.w3.org/2000/svg" id="a" viewBox="0 0 105.24 139.97"><defs><style>.c{fill-rule:evenodd;fill:#00665b}</style></defs><path d="M95.76 139.29a8.8 8.8 0 0 0 8.8-8.8V9.48a8.8 8.8 0 0 0-8.8-8.8H9.48a8.8 8.8 0 0 0-8.79 8.8v121a8.8 8.8 0 0 0 8.79 8.8z" style="fill:#fff;stroke:#231f20;stroke-width:1.38px;fill-rule:evenodd"/><path d="M101.29 25.94v104.43a5.34 5.34 0 0 1-5.34 5.34H9.67a5.34 5.34 0 0 1-5.33-5.34V25.94zm-49.96 78.58-.39.62-.28.34 1.52.38 1.46.55.17-1.8.04-1.01c-.17-1.57-.57-2.95-.94-4.47-.21-1.69-.19-2.22.61-3.58.33-.58 2.03-1.34 2.88-.35.97 1.03 1.25 1.97 2.61 2.61.94.3 1.89.32 2.84.59a9 9 0 0 1 2.5 1.91l.59-.56c.86-.86 1.6-1.08 2.77-1.28 1.87 0 3.67-.16 5.33-1.04 1.36-.99 2.32-2.34 3.81-3.16 1.55-.4 3.04-.56 4.51-1.24-.67 0-.89-.09-1.42-.49-.62-.8-1.15-1.49-1.94-2.15-1.04-.61-2.11-.73-3.29-.97-1.02-.41-1.27-1.31-.6-2.18 1.55-1.26 3.61-1.43 5.37-2.25 1.07-.8 2-1.77 3.08-2.54l.9-.41a9 9 0 0 0 3.4-2.53 8.7 8.7 0 0 0 1.7-4.96c-1.04 1.05-2.32 1.28-3.46.24-.86-1.32-.53-2.64.24-3.92a7 7 0 0 0 1.36-3.33c.19-2.66-.45-5.87 2.52-7.11l-1.11-.56-1.21-.38a7.4 7.4 0 0 0-4.75.62c-1.51.86-4.46 3.08-6.38 1.95-1.21-1.21-.35-2.66 1.11-3.05-2.62-1.39-4.25.01-6.58 1.35-.89.27-1.33.21-2.07-.38-.97-1.19-.34-2.01.2-3.27a6 6 0 0 0-.48-4.57c-1.35-2.51-2.43-4.13-1.28-6.9.32-.54.67-.69 1.21-1l-.7-.11c-1.29 0-1.93.3-3.08.87-1.36.93-2.41 1.98-4.09 1.14-1.11-1.02-1.66-2.5-2.07-3.92-.51-2.15-1.13-3.72-2.88-5.13a7 7 0 0 1-2.16-1.77h.04c-.67.85-1.23 1.2-2.14 1.77-2.13 1.71-2.44 3.59-3.16 6.11a8 8 0 0 1-1.8 2.95c-1.04.51-1.56.36-2.59-.1-1.02-.75-2-1.37-3.19-1.8a6 6 0 0 0-2.09 0l.7.41c1.09.84 1.1 2.54.94 3.78-.39 1.32-1.05 2.51-1.7 3.71-1.07 2.14-.9 3.61.04 5.76.29.68.25 1.07-.04 1.74-1.47 1.85-3 .36-4.64-.59-1.55-.77-2.74-.86-4.3-.03 1.14.31 1.79 1.08 1.62 2.29-.7 1.71-2.68 1.05-3.98.45l-2.91-1.63c-.96-.4-1.76-.65-2.8-.79a9 9 0 0 0-4.27 1.11c2.99 1.25 2.32 4.43 2.52 7.11.2 1.31.59 2.26 1.36 3.33.77 1.27 1.09 2.56.23 3.92-1.15 1.04-2.41.8-3.46-.24.07 1.16.25 2.02.62 3.12a8.6 8.6 0 0 0 3.5 3.91c.97.45 1.83.84 2.7 1.46 1.04.98 1.85 1.76 3.16 2.36 1.51.43 3.69.87 4.71 2.15.55 2.04-1.38 1.99-2.88 2.3a4.6 4.6 0 0 0-2.45 1.77c-.71.91-.95 1.42-2.15 1.42 1.46.67 2.96.84 4.5 1.24 1.05.58 1.71 1.26 2.57 2.12 1.2 1.14 2 1.54 3.61 1.84l1.11.18c1.7.11 3.79-.06 4.81 1.64 1.16-1.7 3.02-1.96 4.88-2.33 1.4-.59 2.16-1.46 2.99-2.71.53-.72 1.15-1.02 1.88-.8 1.47.59.87 1.5.58 2.71a11 11 0 0 0 0 2.99c.31 1.82.62 2.88-.1 4.61Zm36.57 5.72-5.16-5.31-1.8 1.67-1.94 1.52-2 1.42-2.09 1.32-2.15 1.18-2.22 1.07-2.29.93-2.32.8-2.29.59-2.45.62-2.43.38-2.45.29-2.46.1h-2.46l-2.46-.17-2.43-.27-2.43-.45-2.39-.56-2.35-.73-2.32-.84-2.26-.97-2.18-1.11-2.14-1.21-2.05-1.36-2.01-1.45-1.87-1.56-1.84-1.66-5.23 5.2 1.97 1.84 2.04 1.74 2.15 1.63 2.26 1.5 2.29 1.38 2.38 1.25 2.43 1.11 2.5 1 2.56.87 2.59.72 2.59.6 2.68.45 2.67.28 2.67.17 2.71.03 2.67-.13 2.66-.25 2.67-.41 2.64-.55 2.59-.7 2.57-.79 2.52-.98 2.42-1.07 2.49-1.26 2.26-1.32 2.25-1.45 2.19-1.6 2.07-1.7 1.97-1.8Zm-.24-7.29-2.9 3.19 4.02 4.2-1.39 2.25-1.53 2.14 1.95-1.66 1.91-1.77 1.77-1.84 1.7-1.94-4.85.18-.66-4.75Zm-71.48 6.62 4.09-4.12-2.84-3.23-.8 4.68-4.74-.17 1.59 1.95 1.7 1.84 1.8 1.77 1.91 1.66-1.46-2.15zm70.66 2.96-2.18 1.84-2.29 1.66.73 1.07 1.35-1.46 1.25-1.55zm-63.53 3.14L21.13 114l-2.12-1.77 1.08 1.57 1.18 1.48 1.24 1.42.8-1.04ZM101.09 15.66H4.15V9.48a5.33 5.33 0 0 1 5.33-5.33h86.28a5.34 5.34 0 0 1 5.34 5.33v6.18Z" class="c"/><path d="M56.59 87.92c0 .16-.12.29-.27.29h-5.93a.3.3 0 0 1-.29-.29V62.47a.3.3 0 0 0-.27-.28h-4.4q-.26-.02-.27-.28v-4.32c0-.15.11-.27.26-.28 3.62-.39 4.56-1.47 5.75-3.64a.3.3 0 0 1 .23-.15h4.91c.14 0 .27.13.27.28v34.11ZM12.5 24.84V18.1H9.89v-.88h6.27v.88h-2.6v6.74zm5.59-4.23h2.22a1 1 0 0 0 .65-.24c.11-.09.42-.4.42-1 0-.26-.07-.54-.18-.73-.18-.32-.48-.53-1.09-.53h-2.02zm-1.06 4.23v-7.62h3c1.2.03 1.56.25 1.86.53.33.32.58.85.58 1.49 0 1.05-.61 1.71-1.54 1.84.52.02 1.03.42 1.15 1.12l.36 2.16c.03.18.11.37.25.48h-1.2a1 1 0 0 1-.11-.34l-.23-1.68c-.2-1.11-.52-1.34-1.43-1.34h-1.63v3.36zm8.82-2.9h2.88l-1.35-3.68zm-2.3 2.9 3.32-7.63h1.1l3.01 7.63h-1.12l-.79-2.01h-3.59l-.85 2.01h-1.07Zm8.28 0v-7.62h1.48l3.62 6.65-.09-6.65h.95v7.62h-1.3l-3.75-6.81.05 6.81h-.98Zm7.5-2.15h1.11c0 .45.11.71.35.95.27.29.79.55 1.46.55 1.34 0 1.86-.68 1.86-1.36 0-.55-.29-.98-1.05-1.18l-2.16-.54q-1.39-.43-1.39-1.84c0-.57.21-1.07.5-1.38a3.2 3.2 0 0 1 2.36-.88c1.76 0 2.57.95 2.61 2.04h-1.11c0-.63-.41-1.18-1.55-1.18-1.24 0-1.78.62-1.78 1.31 0 .48.21.85 1.16 1.08l1.56.37c1.1.27 1.9.82 1.9 2.1 0 1.2-.91 2.33-3 2.33-2.73 0-2.84-1.99-2.84-2.11v-.26Zm7.26-1.31v-.69h3.84v.69zm10.09 1.45h1.16c-.09.71-.5 1.37-1.09 1.76a3.4 3.4 0 0 1-3.89-.31c-.56-.53-1.07-1.46-1.07-3.2 0-1.1.15-1.73.32-2.15A3 3 0 0 1 55 16.97c1.88 0 2.82 1.08 2.86 2.21h-1.1c-.07-.68-.73-1.33-1.7-1.33-.79 0-1.46.41-1.81 1.16a5 5 0 0 0-.36 2.19q.02 1.15.38 1.84.55 1.13 1.86 1.14c.71 0 1.28-.41 1.48-1.07l.05-.15zm4-.89h2.89l-1.36-3.68-1.54 3.68Zm-2.3 2.9 3.32-7.63h1.09l3.01 7.63h-1.13l-.78-2.01H60.3l-.86 2.01h-1.07Zm8.28 0v-7.62h1.48l3.62 6.65-.09-6.65h.96v7.62h-1.3l-3.75-6.81.05 6.81zm9.12-2.9h2.89l-1.35-3.68zm-2.3 2.9 3.32-7.63h1.09l3.02 7.63h-1.13L79 22.83h-3.59l-.86 2.01zm9.32-.87h1.72c1.29-.03 2.25-.74 2.25-3.06 0-2.04-.92-2.82-2.38-2.82H82.8zm-1.04.87v-7.62l3.08.02c2.45.19 3.04 2.41 3.04 3.78 0 1.23-.43 2.23-.93 2.83-.5.56-1.29.96-2.14 1h-3.04Zm8.59-2.89h2.89l-1.35-3.68zm-2.3 2.9 3.32-7.63h1.09l3.01 7.63h-1.13l-.78-2.01h-3.59l-.85 2.01zM69 120.5l-1.66-4.7 1.11-.41q1.47 1.74 3.07 3.41a76 76 0 0 0-.4-4.54q.54-.25 1.04-.51l2.21 4.48-.68.32-1.96-4.14q.26 2.43.34 4.88l-.7.3a66 66 0 0 1-3.29-3.65l1.59 4.31-.66.24ZM24.45 114.23l2.89-4.04q.8.57 1.64 1.09c.64.45.78.69.86.95.08.3.04.68-.17 1.04-.34.59-.93.75-1.52.46.3.21.46.61.3 1.05l-.51 1.34a.6.6 0 0 0 0 .36l-.75-.45q0-.12.05-.24l.43-1.02c.27-.7.16-.94-.37-1.29l-.95-.63-1.24 1.8q-.32-.21-.64-.45Zm2.2-1.83 1.29.86q.23.14.46.1c.09 0 .38-.07.58-.4q.14-.25.15-.47c0-.25-.08-.46-.43-.68l-1.12-.74zM80.6 114.55a63 63 0 0 0-1.08-5.38l.55-.45q2.34 1.34 4.8 2.49l-.62.54-1.27-.65a54 54 0 0 1-2.01 1.57q.15.7.27 1.43zm.23-2.5q.82-.6 1.61-1.24-1.14-.63-2.23-1.3.33 1.26.62 2.54M20.62 111.21l3.28-3.75 1.36 1.15c.57.48.68.76.73 1.03.05.34-.04.73-.25 1.01-.3.4-.85.53-1.34.3.4.52.43 1.18.08 1.66-.43.59-1.3.67-1.93.19a60 60 0 0 1-1.93-1.59m.95.07 1.02.85c.51.39 1.01.32 1.32-.07.31-.41.24-.9-.25-1.29l-.97-.8-1.11 1.31Zm1.48-1.75 1.08.88c.34.21.74.14.99-.19.27-.35.2-.81-.15-1.09l-.93-.76zM75.29 117.76l-2.3-4.43a29 29 0 0 0 1.56-.85c.66-.35.95-.36 1.22-.3.33.07.66.29.84.59.27.43.2.99-.2 1.36.64-.19 1.27.03 1.59.53.39.62.16 1.47-.52 1.88q-1.08.65-2.18 1.23Zm.41-.86q.6-.31 1.17-.66c.55-.33.67-.82.41-1.25s-.75-.55-1.3-.24q-.54.32-1.1.61zm-1.09-2.03 1.21-.68a.74.74 0 0 0 .19-.99.8.8 0 0 0-1.08-.26q-.52.31-1.05.59zM62.65 117.16l.62-.14.76 3.08c.18.63.44.85.71.95.28.1.66.14 1.09.01.49-.13.85-.44.98-.69.13-.23.2-.5 0-1.12l-.93-2.98q.3-.08.59-.2l1.04 3.18c.24.79.06 1.37-.68 1.91q-.4.27-.85.4c-.44.12-.95.14-1.3.08a1.5 1.5 0 0 1-1.23-1.09l-.8-3.4ZM41.04 121.85l1.19-4.83.68.16-.48 2.07a36 36 0 0 0 2.47.5l.36-2.11.68.11-.77 4.93-.75-.12.39-2.25q-1.26-.2-2.5-.5l-.51 2.21-.75-.18ZM54.94 122.8c-.41-.34-.79-.94-.82-2.03-.04-1.82.9-2.67 2.13-2.77 1.33-.11 2.35.57 2.59 2.33.23 1.64-.44 2.46-1.43 2.79q-.33.11-.7.14c-.3.03-.63 0-.73-.02q-.14-.04-.27-.07a2 2 0 0 1-.68-.32zm.42-.58q.5.55 1.29.48c.89-.07 1.63-.7 1.43-2.26-.17-1.47-.98-1.93-1.75-1.88-1.19.1-1.49 1.3-1.45 2.15.04.82.28 1.29.42 1.44l.05.07ZM36.6 119.04l.74.27c-.1.27-.07.45.04.66.12.25.42.52.89.66.93.3 1.42-.04 1.54-.46.09-.34-.03-.67-.51-.95q-.68-.4-1.32-.8-.82-.57-.5-1.46c.12-.34.36-.61.62-.73.4-.2.96-.27 1.65-.06 1.1.34 1.45 1.06 1.3 1.77l-.72-.2c.11-.39-.06-.81-.78-1.04-.79-.25-1.25.03-1.39.45-.1.3-.05.57.53.92q.46.29.95.55c.68.38 1.12.88.91 1.68-.2.76-1.04 1.31-2.5.86-1.92-.62-1.52-1.9-1.5-1.96l.03-.09q0-.04.03-.07ZM31.57 118.45l1.9-3.98-1.54-.77.27-.52q1.83.97 3.72 1.75l-.22.54q-.79-.33-1.59-.7l-1.85 4-.7-.32ZM52.67 121.98h.82c-.06.45-.34.89-.77 1.15-.3.18-.77.31-1.26.3a2.3 2.3 0 0 1-1.55-.59c-.39-.37-.71-1-.62-2.13.05-.72.18-1.12.32-1.39a2.1 2.1 0 0 1 1.99-1.2c1.21.03 1.84.73 1.88 1.47h-.74c-.05-.44-.49-.88-1.12-.89-.52-.01-.98.24-1.24.71-.14.26-.29.65-.33 1.42q-.03.74.2 1.22c.23.5.67.79 1.31.79.51.02.92-.25 1.07-.69l.04-.09q0-.04.02-.08ZM60.06 122.73l-.75-4.93.69-.11.72 4.36q1.29-.22 2.55-.51l.12.56q-1.65.38-3.34.62ZM79.51 115.29l-2.74-4.16.6-.4 2.8 4.12zM28.71 116.94l2.46-4.34.63.35-2.39 4.38q-.35-.19-.7-.39M34.5 119.74l1.86-4.63.68.26-1.79 4.66z" class="c"/></svg>