<?xml version="1.0" encoding="utf-8"?>
<!-- Generator: Adobe Illustrator 26.1.0, SVG Export Plug-In . SVG Version: 6.00 Build 0)  -->
<svg version="1.1" id="Hwy_3" xmlns="http://www.w3.org/2000/svg" xmlns:xlink="http://www.w3.org/1999/xlink" x="0px" y="0px"
	 viewBox="0 0 144 144" style="enable-background:new 0 0 144 144;" xml:space="preserve">
<style type="text/css">
	.Arched_x0020_Green{fill:url(#SVGID_1_);stroke:#FFFFFF;stroke-width:0.25;stroke-miterlimit:1;}
	.st0{fill-rule:evenodd;clip-rule:evenodd;fill:#FFFFFF;stroke:#000000;stroke-width:0.825;}
	.st1{fill-rule:evenodd;clip-rule:evenodd;}
</style>
<linearGradient id="SVGID_1_" gradientUnits="userSpaceOnUse" x1="36" y1="108" x2="36.7071" y2="107.2929">
	<stop  offset="0" style="stop-color:#20AC4B"/>
	<stop  offset="0.9831" style="stop-color:#19361A"/>
</linearGradient>
<path class="st0" d="M97.21,1.17c0.68,0,1.23,0.55,1.23,1.21v11.29c0,0.66,0.54,1.21,1.22,1.21h41.37c1.05,0,1.61,1.22,0.91,2.01
	l-10.12,11.37c-0.21,0.21-0.3,0.5-0.3,0.79v68.88c0,24.05-31.86,38.96-56.85,38.95c-24.93,0-56.4-14.89-56.4-38.95V29.05
	c0-0.29-0.12-0.58-0.31-0.79L7.77,16.89c-0.69-0.79-0.12-2.01,0.92-2.01h41.43c0.68,0,1.23-0.55,1.23-1.21V2.38
	c0-0.66,0.55-1.21,1.23-1.21H97.21z"/>
<path class="st1" d="M92.38,24.67h37.89c0.03,0,0.07-0.02,0.08-0.05l1.72-1.92c0.08-0.08,0.02-0.19-0.08-0.19l-36.78-0.04
	c-0.07,0-0.11-0.06-0.11-0.12v-2.14c0-0.07,0.07-0.12,0.13-0.12l39.06,0.05c0.03,0,0.09-0.02,0.09-0.05l1.79-1.98
	c0.07-0.09,0.02-0.2-0.09-0.2H95.23c-0.07,0-0.12-0.05-0.12-0.13l0.02-13.51c0-0.08-0.06-0.13-0.12-0.13L54.12,4.1
	c-0.08,0-0.13,0.05-0.13,0.14l-0.04,13.55c0,0.08-0.07,0.13-0.12,0.13H12.84c-0.09,0-0.16,0.11-0.09,0.2l1.79,1.98
	c0.04,0.03,0.07,0.05,0.1,0.05l39.2-0.05c0.06,0,0.11,0.05,0.11,0.12v2.14c0,0.06-0.05,0.12-0.11,0.12l-36.88,0.04
	c-0.11,0-0.16,0.11-0.1,0.19l1.73,1.92c0.03,0.03,0.06,0.05,0.09,0.05h38.15c0.06,0,0.12-0.05,0.12-0.12V7.24
	c0-0.07,0.05-0.13,0.13-0.13h35.04c0.07,0,0.11,0.06,0.11,0.13l0.02,17.31C92.25,24.62,92.3,24.67,92.38,24.67z"/>
<path class="st1" d="M124.73,27.26v70.76c0,14.43-14.51,25.8-32.8,30.8c-5.9,1.61-11.94,2.06-17.46,2.06l-0.03-0.04h-0.02
	c-5.51,0-11.5-0.42-17.4-2.03c-18.3-5-32.82-16.37-32.82-30.8V27.26c0-0.06-0.05-0.11-0.12-0.11H21c-0.11,0-0.16,0.11-0.1,0.2
	l0.26,0.27c0.02,0.02,0.03,0.05,0.03,0.08v70.26c0,16.07,16.05,28.19,34.9,33.34c6.18,1.7,12.48,2.56,18.33,2.56h0.03l0.04,0.04
	c5.85,0,12.17-0.9,18.35-2.6c18.85-5.15,34.91-17.27,34.91-33.34V27.7c0-0.04,0.01-0.07,0.03-0.08l0.24-0.27
	c0.06-0.08,0.02-0.2-0.1-0.2h-3.06C124.79,27.14,124.73,27.2,124.73,27.26z"/>
<path class="st1" d="M90,68.77l-0.27-1.12c0-0.02,0-0.02,0-0.02l-0.13-1.11c0-0.02,0.02-0.04,0.03-0.07l0.96-1.3l0,0l0.89-1.39
	c0,0,0,0,0-0.01l0.78-1.48c0,0,0,0,0-0.02l0.54-1.53l0,0l0.43-1.61c0-0.02,0-0.02,0-0.02l0.29-1.61l0,0l0.09-1.66l0,0l-0.03-1.66
	c0,0,0,0,0-0.02l-0.26-1.59c0,0,0-0.02,0-0.03l-0.44-0.57c0-0.02,0-0.02,0-0.02l-0.3-0.62c-0.02-0.02-0.02-0.02-0.02-0.02l-0.16-0.7
	c0,0,0,0,0-0.02l-0.03-0.69c0,0,0,0,0-0.02l0.09-0.69c0,0,0,0,0-0.02l0.24-0.66l0,0l0.71-1.66l0,0l0.52-1.74l0,0l0.36-0.98
	c0,0,0,0,0-0.02l0.52-0.93c0.02,0,0.02,0,0.02-0.01l0.66-0.81c0.02-0.02,0.02-0.02,0.02-0.02l0.76-0.69c0-0.02,0-0.02,0.01-0.02
	l0.86-0.58c0.02-0.01,0.02-0.01,0.02-0.01l0.98-0.44c0.01,0,0.01,0,0.01,0l1-0.27l0,0l1.68-0.38c0,0,0,0,0.02,0l1.58-0.55
	c0.02,0,0.02,0,0.02,0l1.52-0.71l0,0l1.48-0.83c0,0,0,0,0.02,0l1.39-0.98l0,0l1.28-1.08c0.02,0,0.02,0,0.02,0l0.81-0.86
	c0.06-0.07-0.02-0.18-0.1-0.13l-0.95,0.51l0,0l-1.49,0.63l0,0l-1.56,0.48l0,0l-1.55,0.39l0,0l-1.61,0.24l0,0l-1.59,0.11
	c-0.02,0-0.02,0-0.02,0l-1.37-0.03c-0.09,0-0.11-0.1-0.05-0.15l0.67-0.53l0,0l0.91-0.58c0-0.02,0-0.02,0.02-0.02l0.98-0.44l0,0
	l1.05-0.35l0,0l8.09-2.24c0.07-0.02,0.07-0.13,0-0.16l-1.75-0.32c0,0,0,0-0.02,0l-2.11-0.2l0,0l-2.13-0.08l0,0l-2.16,0.11l0,0
	l-2.08,0.27l0.11,0.05l-1.57,0.27l0,0l-1.59,0.19c0,0,0,0-0.02,0h-1.62H95.4l-1.1-0.46c-0.01,0-0.01,0-0.01,0l-1.15-0.36
	c-0.01,0-0.01,0-0.01,0l-1.25-0.21c0,0,0,0-0.02,0l-1.18-0.03c-0.02,0-0.02,0-0.02,0l-1.23,0.11c-0.01,0-0.01,0-0.01,0l-1.2,0.24
	c0,0,0,0-0.02,0l-1.14,0.39c0,0,0,0-0.02,0l-1.1,0.52c-0.02,0-0.02,0-0.02,0l-1.03,0.64c-0.02,0-0.02,0-0.02,0l-0.95,0.79l0,0
	l-0.84,0.85c0,0.02,0,0.02-0.02,0.02l-0.71,0.98c0,0,0,0,0,0.01l-0.61,1.05c0,0,0,0,0,0.02l-0.47,1.09l0,0l-0.33,1.17l-0.23,0.84
	l0,0l-0.37,0.79l0,0l-0.47,0.69c0,0.02,0,0.04-0.02,0.04L79.7,42.8c0,0.02,0,0.02,0,0.02l-0.36,0.61c0,0.02,0,0.02,0,0.03
	l-0.51,0.45c0,0.02,0,0.02-0.02,0.02l-0.58,0.39c-0.02,0-0.02,0-0.02,0l-0.66,0.24c-0.02,0-0.02,0-0.02,0l-9.57,5.69l-2.21,1.39l0,0
	l-2.08,1.49l0,0l-2.02,1.66l0,0l-1.87,1.82l0,0l-1.77,1.89l0,0l-1.66,2.02l0,0l-1.47,2.09l0,0l-1.32,2.2l0,0l-1.21,2.29l-0.8,1.5
	l0,0l-0.92,1.41c0,0.02,0,0.02,0,0.02l-1.08,1.3l0,0l-1.16,1.18l0,0l-1.28,1.11l0,0l-1.39,0.98c-0.02,0-0.02,0-0.02,0l-1.47,0.84
	c-0.02,0-0.02,0-0.02,0l-1.56,0.65l0,0l-1.6,0.57l0,0l-1.64,0.44c0,0,0,0-0.02,0l-1.65,0.22c-0.02,0-0.02,0-0.02,0l-1.71,0.08
	c0,0,0,0-0.02,0l-1.68-0.08l0,0l-1.49-0.16c-0.07-0.02-0.12,0.06-0.07,0.11l0.59,0.8c0.02,0,0.02,0,0.02,0.01l0.84,0.83l0,0
	l0.92,0.74l0,0l1,0.64c0,0,0,0,0.02,0l1.1,0.51c0.02,0,0.02,0,0.02,0l1.11,0.39c0,0,0,0,0.02,0l1.14,0.24c0,0,0,0,0.02,0l1.18,0.11
	c0.02,0,0.02,0,0.02,0l1.19-0.03c0.02,0,0.02,0,0.02,0l1.2-0.21c0,0,0,0,0.01,0l0.78-0.2c0.08-0.02,0.15,0.08,0.08,0.14l-1.27,1.02
	l0,0l-1.44,1.38l0,0l-1.32,1.46l0,0l-1.25,1.54l0,0l-1.12,1.62l0,0l-1,1.74l0,0l-0.84,1.77l0,0l-0.72,1.86l0,0l-0.6,1.86l0,0
	l-0.43,1.94l0,0l-0.32,1.9c-0.02,0.02,0,0.03,0.02,0.06l0.73,1.03c0.01,0,0.01,0,0.01,0.02l0.91,0.89c0.02,0.02,0.02,0.02,0.02,0.02
	l1.03,0.79c0,0,0,0,0.02,0l1.11,0.66c0,0,0,0,0.02,0l1.22,0.48c0,0,0,0,0.02,0l1.23,0.3c0.03,0,0.06,0,0.07-0.02l0.84-0.69
	c0.03-0.02,0.06-0.03,0.09-0.02l6.08,2.94l0,0l3.33,1.47l0,0l3.27,1.21c0.06,0.02,0.12-0.03,0.11-0.09l-0.4-1.68l0,0l-0.38-1.8
	c0,0,0,0,0-0.01l-0.16-1.86l0,0l-0.04-1.85l0,0l0.08-1.85c0,0,0,0,0-0.02l0.27-1.85l0,0l0.4-1.8l0,0l0.52-1.78c0-0.02,0-0.02,0-0.02
	l0.7-1.72c0-0.01,0-0.01,0-0.01l0.82-1.61c0-0.04,0.03-0.05,0.06-0.05h2.94c0.07,0,0.11,0.11,0.04,0.14l-1.3,0.77
	c-0.04,0.04-0.05,0.05-0.05,0.09v0.79c0,0.06,0.05,0.1,0.1,0.07l2.74-0.71c0.04,0,0.07,0.02,0.08,0.03l0.07,0.13
	c0.04,0.04,0.02,0.08-0.02,0.11l-3.27,2.11c-0.02,0-0.03,0.03-0.03,0.05l-0.29,2.69c-0.02,0.06,0.06,0.11,0.11,0.07l5.95-3.54
	c0.08-0.05,0.16,0.05,0.11,0.11l-0.87,1.05c-0.02,0.03-0.02,0.08,0,0.11l0.96,1.13c0.04,0.04,0.1,0.04,0.13-0.02l1.79-2.51
	c0.04-0.02,0.07-0.03,0.1-0.03l1.27,0.29c0.04,0.02,0.07,0.05,0.07,0.1l-1.28,7.65c-0.02,0.08,0.13,0.13,0.17,0.03l0.7-2.12
	c0.02-0.02,0.02-0.04,0.04-0.04l2.21-2.02c0.05-0.05,0.11-0.03,0.13,0.03l0.52,1.55c0,0.02,0,0.03,0,0.05l-0.3,2.21
	c0,0.01,0,0.04,0,0.05l0.64,1.9c0.02,0.04,0.06,0.07,0.11,0.04l1.28-0.74c0.04-0.03,0.05-0.05,0.05-0.08v-1.46
	c0-0.02,0-0.03,0.02-0.05l1.21-1.43c0.05-0.05,0.13-0.02,0.13,0.07v0.96c0,0.02,0,0.04,0.02,0.04l0.92,1.88l0,0l0.63,1.14
	c0.02,0,0.02,0,0.02,0.02l0.95,1.13c0,0.02,0,0.02,0.02,0.02l2.21,1.89c0.04,0.03,0.11,0.02,0.12-0.05l0.62-2.67
	c0-0.02,0-0.05-0.02-0.07l-0.81-1.3c-0.04-0.05-0.01-0.1,0.03-0.13l1.98-0.66c0.04,0,0.05-0.02,0.07-0.06l0.32-2.3
	c0.02-0.06-0.05-0.11-0.12-0.09l-3.98,1.48c-0.03,0.02-0.06,0-0.07-0.02l-0.21-0.27l0,0l-0.9-0.73c0-0.03-0.02-0.05-0.02-0.06v-4.26
	c0-0.03,0.02-0.06,0.07-0.07l0.95-0.28c0.03-0.02,0.08,0,0.1,0.04l0.79,1.25c0,0.02,0,0.05,0,0.08l-1.18,1.82
	c-0.02,0.04-0.02,0.08,0.02,0.11l1.92,1.14c0.04,0.03,0.08,0.02,0.11,0l1.69-1.74c0.04-0.05,0.09-0.03,0.12,0l2.02,2.79
	c0,0.02,0.02,0.02,0.02,0.05v1.78c0,0,0,0.01,0,0.02l-1.08,3.9c-0.03,0.1,0.13,0.14,0.16,0.05l1.44-3.93l0,0l0.96-2.22
	c0-0.02,0-0.03,0-0.05l-0.6-3.62c0-0.03,0.01-0.07,0.05-0.08l3.46-1.39c0.03-0.02,0.06,0,0.08,0l0.76,0.58
	c0.04,0.02,0.05,0.06,0.02,0.1l-0.57,1.35c0,0,0,0,0,0.02l-0.97,3.38v0.02v1.9c0,0.02,0.02,0.04,0.02,0.05l1.6,2.64
	c0.01,0.04,0.06,0.05,0.09,0.04l2.54-1.16c0.04-0.01,0.04-0.07,0.01-0.11l-0.59-0.74c0,0,0-0.02-0.02-0.04l-0.92-2.59l-0.9-2.53
	c0-0.04,0-0.05,0-0.07l0.9-1.77c0,0,0-0.02,0.02-0.02l1.69-1.75c0.03-0.04,0.08-0.04,0.11-0.02l0.73,0.6c0,0.02,0.02,0.04,0.02,0.06
	v4.03c0,0,0,0.02,0.02,0.02l0.95,2.68c0.04,0.03,0.08,0.06,0.13,0.03l1.3-0.79c0.03-0.02,0.04-0.05,0.03-0.1L91.18,99
	c-0.02,0-0.02-0.02-0.02-0.02v-2.19c0-0.09,0.08-0.12,0.14-0.07l3.41,2.74c0.04,0.03,0.07,0.03,0.11,0l2.21-1.52
	c0.05-0.03,0.05-0.09,0-0.13l-1.45-1.03c-0.03-0.03-0.04-0.09-0.02-0.12l1.46-2.11c0.02,0,0.02,0,0.02-0.01l0.62-1.52v-0.02
	l0.29-3.55c0-0.03,0.04-0.07,0.09-0.07h1.03c0,0,0,0,0.01,0l1.54,0.34c0.02,0.02,0.03,0.02,0.05,0l1.64-0.32
	c0.04-0.02,0.09,0.02,0.09,0.08v2.05c0,0.03,0.03,0.07,0.06,0.08l1.96,0.39c0.06,0.02,0.11-0.05,0.09-0.1l-0.87-2.41
	c-0.02-0.05,0.02-0.1,0.07-0.1h1.42c0.04,0,0.07,0.04,0.07,0.09v3.19c0,0.05,0.05,0.09,0.12,0.07l1.4-0.66
	c0.05-0.02,0.09,0,0.11,0.05l0.57,1.71c0.03,0.05,0.09,0.06,0.14,0.03l2.23-1.9c0.03-0.04,0.03-0.07,0.02-0.11l-1.19-3.57
	c-0.02-0.04,0.02-0.1,0.07-0.1l2.61-0.72c0.05,0,0.06-0.04,0.06-0.07v-2.29c0-0.05-0.05-0.09-0.09-0.08l-3.68,1.09
	c-0.02,0.02-0.05,0.02-0.07,0l-4.34-2.79c-0.05-0.04-0.05-0.11,0-0.12l1.34-0.63c0.07-0.03,0.07-0.12,0-0.15l-2.26-1.13
	c-0.02-0.02-0.06-0.02-0.08,0l-1.21,0.86c-0.05,0.03-0.14-0.01-0.13-0.08l0.28-1.44c0.02-0.07-0.04-0.09-0.08-0.09l-3.29,0.3
	c-0.08,0-0.11-0.09-0.03-0.14l2.31-1.43c0.01-0.01,0.05-0.01,0.08,0l0.52,0.31c0.03,0.02,0.05,0.02,0.08,0l1.61-0.73
	c0.04-0.01,0.06-0.06,0.04-0.11l-0.86-1.76c-0.02-0.04,0-0.08,0.05-0.09l5.07-2.14c0.02,0,0.02,0,0.02,0l4.38-3.4l0,0l4.37-3.01
	c0.03-0.02,0.03-0.05,0.03-0.08l-0.31-2.66c0-0.07-0.07-0.1-0.12-0.07l-7.27,4.72c-0.05,0.03-0.11,0-0.11-0.06l-0.26-1.97
	c0-0.05-0.07-0.07-0.13-0.05l-1.28,0.76c0,0-0.02,0.02-0.04,0.04l-1.85,3.3c0,0.03-0.03,0.03-0.04,0.05l-5.15,1.84
	c-0.01,0-0.04,0-0.06-0.02l-1.16-0.71c-0.03-0.02-0.06-0.02-0.08,0l-2.42,1.45c-0.02,0.02-0.04,0.02-0.08,0l-0.98-0.59
	c-0.02,0-0.02,0-0.02,0l-0.91-0.71l0,0l-0.84-0.79c0,0,0,0,0-0.02l-0.76-0.89c0-0.02,0-0.02,0-0.02l-0.64-0.98c0,0,0,0,0-0.02
	l-0.52-1.01c0,0,0,0,0-0.02L90,68.77L90,68.77z M66.66,85.03c-1.8-1.92-3.15-5.05-3.21-8.7c0-0.19,0.13-0.34,0.32-0.34l5.02-0.11
	c0.18,0,0.32,0.13,0.32,0.32c0.05,4.11,2.28,6.5,5.57,6.5c3.17,0,5.35-2.41,5.35-5.34c0-2.06-0.83-3.67-2.59-4.66
	c-0.77-0.42-1.82-0.82-4.44-0.79c-0.19,0-0.34-0.15-0.34-0.32v-3.91c0-0.18,0.15-0.32,0.34-0.32c4.57,0.19,6.2-2.32,6.2-4.72
	c0-2.32-1.71-4.53-4.48-4.53c-2.68,0-4.79,2.23-4.92,5.87c0,0.17-0.15,0.32-0.34,0.32l-4.84-0.21c-0.18-0.01-0.32-0.16-0.3-0.33
	c0.09-4.61,2.61-10.63,10.16-10.63c3.55,0,5.75,1.04,7.27,2.37c2.22,1.96,3.14,4.67,3.14,6.76c0,1.98-0.62,3.69-1.72,4.98
	c-0.62,0.72-1.28,1.3-2.6,1.72c-0.3,0.1-0.29,0.54,0.04,0.61c3.38,0.89,5.69,4.19,5.69,8.29c0,2.74-1.06,5.4-3.05,7.3
	c-1.78,1.74-4.16,2.95-8.46,2.95C70.81,88.1,68.38,86.84,66.66,85.03z M97.13,84.82l3.48,0.77c0.03,0.02,0.07,0.03,0.07,0.06
	L101,87.2c0.02,0.06-0.05,0.11-0.11,0.1l-2.85-1.12c-0.02,0-0.02,0-0.02-0.02l-0.61-0.37c-0.02-0.02-0.03-0.02-0.03-0.05l-0.32-0.81
	C97.02,84.86,97.06,84.79,97.13,84.82z M94.98,91.81l-0.62,1.52c0,0.02,0,0.02,0,0.02l-0.34,2.01c-0.02,0.07-0.07,0.08-0.13,0.07
	L92,94.5c-0.04-0.02-0.05-0.05-0.04-0.09l0.34-1.9c0,0,0.02-0.01,0.02-0.02l1.22-1.52c0.03-0.03,0.06-0.03,0.11-0.02l1.27,0.77
	C94.98,91.73,94.99,91.78,94.98,91.81z M93.01,34.69l0.2,0.29c0,0.02,0,0.03,0,0.03l0.08,0.37c0,0.02,0,0.02,0,0.04l-0.08,0.32
	c0,0.02,0,0.02,0,0.03l-0.2,0.29c0,0-0.02,0-0.02,0.02L92.7,36.3c-0.01,0-0.01,0-0.04,0.02l-0.36,0.07c0,0-0.02,0-0.03,0l-0.37-0.07
	c-0.02-0.02-0.02-0.02-0.04-0.02l-0.29-0.22c0-0.02-0.02-0.02-0.02-0.02l-0.2-0.29c0-0.01,0-0.01,0-0.03l-0.09-0.32
	c0-0.02,0-0.02,0-0.04l0.09-0.37c0,0,0-0.02,0-0.03l0.2-0.29c0,0,0.02,0,0.02-0.02l0.29-0.21c0.02-0.02,0.02-0.02,0.04-0.02
	l0.37-0.08c0.02,0,0.03,0,0.03,0l0.36,0.08c0.02,0,0.02,0,0.04,0.02L93,34.68C93,34.69,93.01,34.69,93.01,34.69z"/>
<path class="st1" d="M88.64,122.46v-0.97c0-0.15-0.18-0.19-0.26-0.09c-1.35,1.87-3.29,2.74-4.56,2.74c-1.68,0-4.15-1.66-4.15-6.52
	c0-3.45,1.6-6.2,4.22-6.2c1.76,0,3.63,1.25,4.31,3.49l0,0l0.02,0.08c0.03,0.05,0.09,0.1,0.14,0.1h0.13c0.08,0,0.14-0.06,0.14-0.15
	v-4.14c0-0.08-0.06-0.14-0.14-0.14h-0.23c-0.06,0-0.11,0.04-0.13,0.07l-0.06,0.08c0,0.02,0,0.02,0,0.02c-0.31,0.48-0.6,0.6-0.93,0.6
	c-0.26,0-0.55-0.15-0.89-0.29c-1.33-0.55-1.98-0.64-2.89-0.64c-2.62,0-4.66,1.14-5.93,3.04c-0.84,1.29-1.32,2.9-1.32,4.38
	c0,2.45,1.41,4.89,3.4,6.07c1.05,0.61,2.4,1,3.81,1c2.03,0,3.91-0.87,5.27-2.48L88.64,122.46z"/>
<path class="st1" d="M58.16,124.79h7.5c2.98,0,4.68-2.12,4.68-3.84c0-1.33-1.1-2.82-2.82-3.32c-0.17-0.04-0.15-0.24,0-0.27
	c1.57-0.39,2.54-1.66,2.54-3.14c0-1.63-1.37-3.38-4.37-3.51l0,0l-7.46-0.02c-0.07,0-0.14,0.06-0.14,0.14v0.13
	c0,0.07,0.07,0.14,0.14,0.14h0.66c0.62,0,1.05,0.43,1.09,0.87c0,0.02,0,0.02,0,0.02l0.02,11.3c0,0,0,0,0,0.02
	c-0.03,0.64-0.48,1.04-0.97,1.07l0,0h-0.85c-0.08,0-0.15,0.07-0.15,0.15v0.09C58.01,124.72,58.08,124.79,58.16,124.79z
	 M63.32,117.79h0.6c1.67,0,2.84,1.07,2.84,3.17c0,2.08-1.22,3.07-2.37,3.07c-0.86,0-1.16-0.41-1.2-0.8c0-0.02,0-0.02,0-0.02
	l-0.02-5.28C63.16,117.86,63.22,117.79,63.32,117.79z M63.25,116.86v-5.38c0-0.07,0.07-0.14,0.17-0.14h0.82
	c1.32,0,2.42,0.95,2.42,2.72c0,2-1.1,2.92-2.3,2.95h-0.93C63.32,117,63.25,116.94,63.25,116.86z"/>
<path class="st1" d="M73.3,124.49c0.83,0,1.58-0.73,1.58-1.63c0-0.8-0.6-1.57-1.63-1.57c-0.85,0-1.58,0.74-1.58,1.57
	C71.67,123.76,72.38,124.45,73.3,124.49z"/>
<path class="st1" d="M91.91,124.49c0.84,0,1.58-0.73,1.58-1.63c0-0.8-0.61-1.57-1.62-1.57c-0.87,0-1.58,0.74-1.58,1.57
	C90.28,123.76,90.97,124.45,91.91,124.49z"/>
</svg>
