<?xml version="1.0" encoding="utf-8"?>
<!-- Generator: Adobe Illustrator 26.1.0, SVG Export Plug-In . SVG Version: 6.00 Build 0)  -->
<svg version="1.1" id="Layer_1" xmlns="http://www.w3.org/2000/svg" xmlns:xlink="http://www.w3.org/1999/xlink" x="0px" y="0px"
	 viewBox="0 0 144 144" style="enable-background:new 0 0 144 144;" xml:space="preserve">
<style type="text/css">
	.Arched_x0020_Green{fill:url(#SVGID_1_);stroke:#FFFFFF;stroke-width:0.25;stroke-miterlimit:1;}
	.st0{fill:#FFFFFF;stroke:#000000;}
	.st1{fill-rule:evenodd;clip-rule:evenodd;fill:#006931;}
	.st2{fill-rule:evenodd;clip-rule:evenodd;}
	.st3{fill-rule:evenodd;clip-rule:evenodd;fill:#FCC72D;}
</style>
<linearGradient id="SVGID_1_" gradientUnits="userSpaceOnUse" x1="36" y1="108" x2="36.7071" y2="107.2929">
	<stop  offset="0" style="stop-color:#20AC4B"/>
	<stop  offset="0.9831" style="stop-color:#19361A"/>
</linearGradient>
<path class="st0" d="M93.83,0c0.69,0,1.25,0.55,1.25,1.22v11.48c0,0.67,0.55,1.23,1.25,1.23h42.07c1.06,0,1.64,1.24,0.93,2.04
	l-10.3,11.56c-0.21,0.21-0.31,0.51-0.31,0.8v70.03c0,24.45-32.39,39.62-57.81,39.6c-25.35,0-57.35-15.15-57.35-39.6V28.35
	c0-0.3-0.12-0.59-0.31-0.8L2.89,15.98c-0.7-0.8-0.13-2.04,0.94-2.04h42.13c0.69,0,1.25-0.56,1.25-1.23V1.22
	c0-0.67,0.56-1.22,1.25-1.22H93.83z"/>
<path class="st1" d="M96.62,104.47c3.03,0,1.97-2.23,3.82-2.23h1.38c0.01,0-0.86,0-0.84,0l1.25-0.05c3.97-0.2,7.77-2.04,9.87-5.47
	c0.21-0.36,0.48-0.71,0.66-1.08l0.37-0.73c0.09-0.13-0.07-0.26-0.19-0.18l-0.54,0.3c-2.31,1.29-5.13,1.38-7.46,0.06l-0.43-0.24
	c-0.1-0.07-0.06-0.28,0.09-0.26l0.41,0.01c3.25,0.2,6.38-1.49,7.71-4.5l0.4-0.95l0,0l0.23-0.64c0.06-0.11-0.07-0.23-0.17-0.18
	l-0.77,0.39c-2.17,1.08-4.66,1.39-6.97,0.66l-0.58-0.2c-0.15-0.03-0.14-0.23,0.01-0.26l0.45-0.08c3.16-0.56,5.7-2.94,6.27-6.13
	l0.12-0.72c0.02-0.12-0.11-0.21-0.21-0.17l-0.71,0.42c-2.31,1.3-5.12,1.16-7.39-0.14l-0.66-0.37c-0.12-0.05-0.09-0.21,0.03-0.25
	l0.8-0.21c2.29-0.61,4.18-2.13,5.3-4.21l0.37-0.73c0.07-0.1-0.02-0.23-0.14-0.2l-0.78,0.21c-1.75,0.48-3.63,0.46-5.29-0.36
	l-0.97-0.48l0,0l-0.59-0.36c-0.11-0.08-0.1-0.23,0.03-0.28l0.69-0.15c2.43-0.57,4.58-2.14,5.48-4.5l0.24-0.67
	c0.05-0.13-0.07-0.23-0.18-0.2l-0.74,0.26c-2.15,0.75-4.52,0.21-6.2-1.33l-0.61-0.55c-0.08-0.09-0.06-0.21,0.04-0.24l0.82-0.33
	c1.44-0.59,2.68-1.61,3.49-2.95l0.46-0.8c0.07-0.08-0.01-0.21-0.13-0.21l-0.75,0.04c-2.15,0.13-4.25-0.69-5.77-2.23l-0.6-0.58
	c-0.07-0.08-0.04-0.21,0.07-0.23l0.64-0.13c1.43-0.29,2.62-1.21,3.43-2.4l0.33-0.48c0.07-0.1-0.02-0.23-0.13-0.23l-0.67,0.06
	c-1.92,0.11-3.92-0.38-5.23-1.82l-0.49-0.52c-0.08-0.08-0.04-0.21,0.09-0.25l0.77-0.13c1-0.18,1.82-0.8,2.39-1.62l0.48-0.67
	c0.07-0.08,0.02-0.2-0.07-0.22c-4.12-1.16-5.1-3.31-6.28-7.22c-0.05-0.14-0.24-0.13-0.28,0.02c-0.62,3.81-1.44,5.82-4.59,7.42
	c-0.09,0.04-0.09,0.18-0.01,0.24c6.82,4.62,11.17,15.13,10.82,27.65c0,0.02,0,0.02,0,0.04c0.45,4.71,1.27,9.07-2.75,12.92
	l-1.71,1.64c-0.02,0-0.02,0-0.04,0.02l-1.46,2.45C93,97,93,97.05,93.03,97.1l2.59,5.06c0.05,0.06-0.02,0.26-0.16,0.23
	c-2.67-0.54-17.51,3.21-16.39,3.46l7.82,1.81c0.02,0,0.02,0,0.02,0l1.01,0.11c2.68,0.31,4.6-2.05,6.92-3.07l0.52-0.23
	c0-0.01,0.03-0.01,0.03-0.01H96.62z"/>
<path class="st1" d="M53.28,105.83c1.82,0.38,3.25-1.38,5-1.5c1.1-0.11,2.74-0.75,3.82-0.43c0.13,0.03,0.24-0.11,0.14-0.23
	l-1.1-1.38c-0.49-0.59-1.67-1.16-2.44-1.31l-10.58-2.37l0,0c-1.76-0.56-3.49-2.04-3.36-4.58c0.05-1.33,0.52-2.71,0.35-4.07
	l-0.4-2.98c-0.02-0.04,0-0.07,0.02-0.11c1.08-1.38,1.36-1.46-0.1-3.44c-0.02-0.03-0.04-0.06-0.04-0.1l0.15-1.77
	c0.01-0.05-0.02-0.1-0.05-0.13l-2.29-1.9c-0.81-0.63-0.7-1.53-0.05-2.45l0,0l3.36-5.64l0,0c0.56-0.85,0.66-2.14,0.44-3.13
	l-1.61-7.03c0-0.01,0-0.01,0-0.03l-0.05-1.04c0-0.01,0-0.01,0-0.01c-0.31-1.77-0.03-3.16,1.05-4.75c2.46-3.58,6.69-5.98,7.94-6.38
	c0.1-0.02,0.16-0.15,0.03-0.25l-1.45-0.92c-1.02-0.64-3.87-3.05-4.33-5.47l-0.19-0.96l-0.13,1.21c-0.31,3.25-2.21,6.39-5.16,7.82
	l-0.97,0.46c-0.08,0.03-0.1,0.14-0.04,0.21l0.46,0.46c0.6,0.62,1.41,0.98,2.23,1.21l0.55,0.15c0.12,0.03,0.15,0.17,0.05,0.26
	l-0.67,0.48c-1.26,0.92-2.75,1.51-4.33,1.51h-0.87c-0.12,0-0.19,0.13-0.12,0.21l0.44,0.62c0.41,0.61,0.98,1.08,1.62,1.44l0.83,0.46
	c0.06,0.05,0.1,0.14,0.05,0.21l-0.51,0.66c-1.25,1.62-3.16,2.64-5.23,2.64h-0.77c-0.13,0-0.18,0.11-0.13,0.21l0.48,0.8
	c0.8,1.37,2,2.49,3.49,3.08l0.92,0.35c0.08,0.03,0.12,0.13,0.08,0.2l-0.42,0.64c-0.95,1.56-2.67,2.47-4.5,2.34l-0.64-0.05
	c-0.1,0-0.18,0.08-0.13,0.18l0.18,0.66c0.62,2.18,2.57,3.72,4.87,3.72h0.64c0.11,0,0.18,0.13,0.13,0.23l-0.36,0.56
	c-1.35,2.18-4.02,3.08-6.43,2.22l-0.47-0.18c-0.13-0.03-0.23,0.11-0.18,0.21l0.41,0.69c1,1.71,2.56,3.01,4.39,3.72l0.9,0.37
	c0.1,0.03,0.11,0.13,0.06,0.21l-0.49,0.63c-1.44,1.89-3.9,2.75-6.2,2.03l-0.58-0.18c-0.14-0.05-0.23,0.1-0.17,0.21l0.52,0.82
	c1.41,2.24,3.66,3.84,6.25,4.44l0.98,0.23c0.11,0.03,0.15,0.19,0.04,0.26l-0.7,0.41c-2.07,1.21-4.54,1.67-6.81,0.79l-0.72-0.28
	c-0.11-0.05-0.25,0.07-0.16,0.21l0.41,0.72c1.41,2.54,4.04,4.03,6.86,4.45l0.83,0.14c0.13,0.01,0.18,0.17,0.07,0.24l-0.66,0.46
	c-2.29,1.57-5.21,1.83-7.77,0.79l-0.64-0.26c-0.12-0.04-0.23,0.08-0.17,0.2l0.4,0.66c1.21,2.06,3.36,3.35,5.7,3.72l0.76,0.13
	c0.13,0,0.14,0.18,0.04,0.26l-0.61,0.33c-0.59,0.34-1.29,0.49-1.99,0.49h-0.67c-0.15,0-0.2,0.16-0.1,0.25l0.29,0.23
	c1.33,1.06,3.08,0.75,4.62,0.42c0.59-0.13,1.16-0.17,1.76-0.17C44.07,104.28,48.73,104.87,53.28,105.83z"/>
<path class="st2" d="M89.32,23.9h38.52c0.03,0,0.07-0.02,0.08-0.06l1.75-1.94c0.09-0.08,0.02-0.2-0.08-0.2l-37.39-0.03
	c-0.07,0-0.12-0.07-0.12-0.13v-2.18c0-0.07,0.07-0.12,0.13-0.12l39.73,0.05c0.03,0,0.08-0.02,0.09-0.05l1.82-2.01
	c0.07-0.08,0.02-0.2-0.09-0.2H92.23c-0.07,0-0.12-0.05-0.12-0.12l0.02-13.75c0-0.09-0.07-0.14-0.13-0.14L50.42,2.98
	c-0.08,0-0.14,0.05-0.14,0.13l-0.03,13.8c0,0.07-0.07,0.12-0.13,0.12H8.45c-0.1,0-0.17,0.11-0.1,0.2l1.82,2.01
	c0.03,0.04,0.07,0.05,0.1,0.05l39.85-0.05c0.07,0,0.11,0.05,0.11,0.12v2.18c0,0.06-0.05,0.13-0.11,0.13L12.63,21.7
	c-0.12,0-0.16,0.11-0.1,0.2l1.76,1.94c0.03,0.04,0.07,0.06,0.1,0.06h38.79c0.07,0,0.13-0.06,0.13-0.12V6.17
	c0-0.06,0.05-0.13,0.13-0.13h35.63c0.06,0,0.12,0.08,0.12,0.13l0.01,17.61C89.19,23.84,89.24,23.9,89.32,23.9z"/>
<path class="st2" d="M122.22,26.53v71.95c0,14.67-14.75,26.23-33.36,31.31c-5.99,1.64-12.13,2.1-17.75,2.1l-0.04-0.03h-0.01
	c-5.61,0-11.69-0.42-17.69-2.06c-18.61-5.08-33.38-16.64-33.38-31.31V26.53c0-0.07-0.05-0.12-0.11-0.12h-3.13
	c-0.12,0-0.17,0.12-0.1,0.21l0.26,0.27c0.02,0.02,0.04,0.05,0.04,0.08v71.44c0,16.35,16.32,28.66,35.49,33.9
	c6.28,1.72,12.69,2.61,18.64,2.61h0.04l0.03,0.03c5.96,0,12.38-0.92,18.66-2.64c19.16-5.24,35.5-17.55,35.5-33.9V26.97
	c0-0.03,0.01-0.07,0.04-0.08l0.25-0.27c0.07-0.09,0.02-0.21-0.1-0.21h-3.11C122.28,26.41,122.22,26.46,122.22,26.53z"/>
<path class="st2" d="M81.36,125.33v-0.47c0-0.14-0.18-0.2-0.26-0.08c-0.9,1.2-2.15,1.75-2.99,1.75c-1.13,0-2.78-1.13-2.78-4.44
	c0-2.36,1.07-4.24,2.84-4.24c1.18,0,2.45,0.87,2.91,2.38l0.03,0.13h0.11c0.09,0,0.15-0.06,0.15-0.15v-2.74
	c0-0.08-0.06-0.14-0.15-0.14h-0.16l-0.07,0.11c-0.21,0.33-0.41,0.41-0.62,0.41c-0.17,0-0.38-0.11-0.61-0.19
	c-0.9-0.38-1.33-0.45-1.94-0.45c-1.79,0-3.15,0.77-4,2.08c-0.58,0.87-0.88,1.97-0.88,2.98c0,1.67,0.95,3.33,2.27,4.15
	c0.71,0.41,1.62,0.67,2.56,0.67c1.35,0,2.63-0.58,3.56-1.7C81.35,125.38,81.36,125.36,81.36,125.33z"/>
<path class="st2" d="M58.5,126.97h5.15c2,0,3.15-1.46,3.15-2.62c0-0.87-0.69-1.83-1.77-2.21c-0.13-0.05-0.13-0.23,0-0.26
	c0.98-0.29,1.58-1.14,1.58-2.11c0-1.12-0.93-2.31-2.94-2.39c0,0,0,0-0.02,0l-4.96-0.01c-0.09,0-0.15,0.06-0.15,0.14v0.13h0.56
	c0.39,0,0.69,0.31,0.72,0.61c0,0,0,0,0,0.02v7.69l0,0c-0.01,0.46-0.31,0.74-0.63,0.76c0,0,0,0-0.02,0h-0.51
	c-0.08,0-0.15,0.06-0.15,0.14V126.97z M62.39,122.04h0.36c1.11,0,1.92,0.72,1.92,2.16c0,1.42-0.83,2.09-1.6,2.09
	c-0.58,0-0.79-0.27-0.82-0.53c0-0.02,0-0.02,0-0.02v-3.56C62.24,122.1,62.31,122.04,62.39,122.04z M61.91,121.52v-3.58
	c0-0.07,0.07-0.14,0.14-0.14h0.51c0.9,0,1.62,0.63,1.62,1.85c0,1.36-0.74,1.97-1.54,2.01h-0.59
	C61.98,121.67,61.91,121.6,61.91,121.52z"/>
<path class="st2" d="M70.62,36.76h0.98c0.06,0,0.13-0.04,0.13-0.11l1.25-4.92c0.05-0.13,0.25-0.13,0.28,0.02l1.21,4.89
	c0.01,0.07,0.08,0.11,0.13,0.11h1.01c0.07,0,0.13-0.04,0.13-0.11l1.21-8.52c0.01-0.08-0.05-0.16-0.13-0.16h-1.12
	c-0.06,0-0.13,0.05-0.14,0.11l-0.54,3.9c-0.03,0.14-0.25,0.16-0.28,0.01l-0.96-3.91c-0.02-0.07-0.08-0.11-0.15-0.11h-1
	c-0.07,0-0.13,0.05-0.15,0.11l-0.98,3.95c-0.05,0.14-0.27,0.14-0.28-0.02l-0.55-3.93c-0.02-0.07-0.08-0.11-0.14-0.11h-1.1
	c-0.1,0-0.17,0.08-0.15,0.16l1.18,8.52C70.48,36.71,70.54,36.76,70.62,36.76z"/>
<path class="st2" d="M35.53,36.76h1.11c0.07,0,0.13-0.06,0.13-0.14v-3.65c0-0.02,0.02-0.05,0.04-0.07l2.87-4.71
	c0.07-0.1-0.01-0.21-0.11-0.21h-1.3c-0.05,0-0.1,0.01-0.12,0.07l-1.93,3.17c-0.07,0.08-0.2,0.08-0.25,0l-1.95-3.17
	c-0.02-0.06-0.07-0.07-0.12-0.07h-1.27c-0.12,0-0.2,0.11-0.13,0.21l2.88,4.71c0.02,0.02,0.02,0.05,0.02,0.09v3.64
	C35.39,36.7,35.46,36.76,35.53,36.76z"/>
<path class="st2" d="M94.6,36.76h1.15c0.05,0,0.11-0.03,0.12-0.09l0.83-2.35c0.02-0.06,0.07-0.09,0.13-0.09h2.53
	c0.05,0,0.12,0.03,0.13,0.09l0.82,2.35c0.02,0.07,0.07,0.09,0.13,0.09h1.14c0.09,0,0.17-0.09,0.14-0.18l-2.91-8.52
	c-0.02-0.06-0.07-0.09-0.15-0.09H97.5c-0.07,0-0.12,0.03-0.13,0.09l-2.92,8.52C94.41,36.67,94.49,36.76,94.6,36.76z M97.25,32.56
	l0.71-2.06c0.03-0.13,0.23-0.13,0.26,0.01l0.69,2.05c0.05,0.08-0.03,0.18-0.13,0.18h-1.39C97.28,32.74,97.22,32.65,97.25,32.56z"/>
<path class="st2" d="M62.58,36.05l0.08,0.09c0.43,0.44,1.23,0.81,2,0.81c0.81,0,1.69-0.43,2.23-1.13c0.32-0.44,0.82-1.55,0.82-3.44
	c0-1.87-0.45-3-0.75-3.42c-0.56-0.76-1.4-1.18-2.32-1.18c-0.79,0-1.53,0.32-2.06,0.91c-0.46,0.51-0.99,1.56-0.99,3.6
	C61.6,34.58,62.13,35.54,62.58,36.05z M63.47,35.01l-0.05-0.11c-0.17-0.25-0.48-1.12-0.48-2.52c0-1.95,0.48-2.56,0.54-2.66
	c0.26-0.36,0.72-0.59,1.18-0.59c0.72,0,1.51,0.38,1.69,2.54l0.04,0.71c0,0.01,0,0.01,0,0.01c-0.07,2.07-0.48,2.58-0.69,2.8
	c-0.28,0.26-0.67,0.42-1.07,0.42C64.16,35.6,63.69,35.36,63.47,35.01z"/>
<path class="st2" d="M79.17,36.76h1.08c0.07,0,0.14-0.06,0.14-0.14v-3.55c0-0.08,0.07-0.15,0.15-0.15h2.88
	c0.08,0,0.14,0.07,0.14,0.15v3.55c0,0.09,0.07,0.14,0.15,0.14h1.07c0.08,0,0.14-0.06,0.14-0.14v-8.5c0-0.07-0.06-0.14-0.14-0.14
	h-1.07c-0.08,0-0.15,0.07-0.15,0.14v3.28c0,0.07-0.06,0.14-0.14,0.14h-2.88c-0.08,0-0.14-0.07-0.14-0.14v-3.28
	c0-0.07-0.07-0.14-0.16-0.14h-1.08c-0.08,0-0.15,0.07-0.15,0.14v8.5C79.03,36.7,79.09,36.76,79.17,36.76z"/>
<path class="st2" d="M103.34,36.76h2.45c0,0,0,0,0.02,0c1.01-0.08,1.88-0.57,2.4-1.27c0.46-0.62,0.89-1.75,0.89-3.11
	c0-0.52-0.06-1.02-0.18-1.51c-0.46-1.95-1.7-2.83-2.98-2.9l0,0h-2.59c-0.08,0-0.15,0.07-0.15,0.14v8.5
	C103.18,36.7,103.25,36.76,103.34,36.76z M104.57,35.26v-5.77c0-0.08,0.06-0.15,0.12-0.15h1.12c0.62,0,1.26,0.38,1.64,1.42
	c0.14,0.41,0.26,1.05,0.26,1.65c0,0.86-0.23,1.66-0.49,2.08c-0.29,0.54-0.84,0.87-1.44,0.88c0,0,0,0-0.02,0h-1.07
	C104.63,35.38,104.57,35.32,104.57,35.26z"/>
<path class="st2" d="M87.9,36.76H93c0.06,0,0.13-0.06,0.13-0.14v-1.09c0-0.09-0.07-0.15-0.13-0.15h-3.71
	c-0.09,0-0.15-0.07-0.15-0.15v-2.16c0-0.08,0.06-0.15,0.15-0.15h2.25c0.07,0,0.14-0.06,0.14-0.14v-1.1c0-0.07-0.07-0.14-0.14-0.14
	h-2.27c-0.08,0-0.15-0.07-0.15-0.14v-1.9c0-0.08,0.07-0.15,0.15-0.15h3.42c0.08,0,0.15-0.07,0.15-0.15v-1.08
	c0-0.07-0.07-0.14-0.15-0.14h-4.8c-0.07,0-0.15,0.07-0.15,0.14v8.5C87.74,36.7,87.83,36.76,87.9,36.76z"/>
<path class="st2" d="M48.46,36.76h5.05c0.08,0,0.14-0.06,0.14-0.14v-0.95c0-0.08-0.06-0.14-0.14-0.14h-3.67
	c-0.09,0-0.15-0.07-0.15-0.15v-7.26c0-0.07-0.07-0.14-0.15-0.14h-1.07c-0.09,0-0.15,0.07-0.15,0.14v8.5
	C48.3,36.7,48.37,36.76,48.46,36.76z"/>
<path class="st2" d="M55.3,36.76h5.05c0.08,0,0.14-0.06,0.14-0.14v-0.95c0-0.08-0.07-0.14-0.14-0.14h-3.67
	c-0.08,0-0.14-0.07-0.14-0.15v-7.26c0-0.07-0.07-0.14-0.15-0.14H55.3c-0.08,0-0.15,0.07-0.15,0.14v8.5
	C55.15,36.7,55.21,36.76,55.3,36.76z"/>
<path class="st2" d="M41.19,36.76h5.07c0.09,0,0.16-0.06,0.16-0.14v-1.09c0-0.09-0.07-0.15-0.16-0.15h-3.68
	c-0.08,0-0.14-0.07-0.14-0.15v-2.16c0-0.08,0.06-0.15,0.14-0.15h2.25c0.08,0,0.15-0.06,0.15-0.14v-1.1c0-0.07-0.07-0.14-0.15-0.14
	h-2.26c-0.09,0-0.15-0.07-0.15-0.14v-1.9c0-0.08,0.06-0.15,0.15-0.15h3.43c0.06,0,0.13-0.07,0.13-0.15v-1.08
	c0-0.07-0.07-0.14-0.13-0.14h-4.8c-0.09,0-0.15,0.07-0.15,0.14v8.5C41.04,36.7,41.1,36.76,41.19,36.76z"/>
<path class="st2" d="M69.92,127.28c0.58,0,1.07-0.49,1.07-1.09c0-0.56-0.41-1.09-1.1-1.09c-0.59,0-1.07,0.49-1.07,1.09
	C68.82,126.76,69.3,127.26,69.92,127.28z"/>
<path class="st2" d="M84.41,127.28c0.57,0,1.07-0.49,1.07-1.09c0-0.56-0.4-1.09-1.09-1.09c-0.59,0-1.08,0.49-1.08,1.09
	C83.31,126.76,83.79,127.26,84.41,127.28z"/>
<path class="st2" d="M99.43,89.29l0.48-1.8l0.19-1.33l0.05-1.38l-0.05-1.19l-0.19-1.14l-0.18-1.26l-0.05-1.26v-2.47l-0.14-2.34
	l-0.23-2.4l-0.31-2.4l-0.23-1.87l-0.31-1.8l-0.48-1.87l-0.61-1.74l-0.71-1.75l-0.84-1.67l-0.9-1.62l-1.09-1.5l-1.2-1.51l-1.27-1.37
	l-1.67-1.39l-1.8-1.31l-1.87-1.21l-1.93-1.08l-2.03-0.9L80,46.93l-2.1-0.65l-2.18-0.48l-2.28-0.37l-2.35-0.18h-2.28l-2.36,0.06
	l-2.29,0.25l-2.27,0.35l-2.29,0.48l-2.23,0.6l-2.16,0.79l-2.28,1.08l-2.12,0.97l-2.03,1.44l-1.51,1.31l-1.2,1.21l-0.97,1.5
	l-0.54,1.02l-0.36,1.01l-0.18,1.04l-0.07,1.01v1.02l0.18,1.03l1.58,7.28l0.04,0.72v0.76l-0.23,0.74l-0.37,0.65l-3.47,5.47
	l-0.25,0.54l-0.18,0.55v0.6l0.11,0.54l0.25,0.54l0.35,0.48l0.43,0.36l0.9,0.61l0.41,0.23l0.31,0.36l0.18,0.42l0.05,0.43v0.9
	l0.07,0.76l0.11,0.79l0.13,0.29l0.29,0.36l-0.35,0.49l-0.3,0.54l-0.07,0.6v0.58l0.18,0.54l0.18,0.79l0.11,0.72v0.79l-0.11,0.72
	l-0.24,1.31l-0.05,1.32l0.12,1.34l0.18,0.83l0.43,0.78l0.54,0.66l0.97,0.78l1.08,0.66l0.72,0.36l0.77,0.25l9.8,2.04l0.72,0.25
	l0.67,0.41l0.54,0.49l1.32,1.56l1.2,1.69l1.15,1.74l0.95,1.8l0.86,1.93l0.73,1.91l0.66-0.9l0.84-0.78l0.85-0.72l2.17-1.38l2.23-1.27
	l2.28-1.15l2.35-0.96l2.41-0.83l2.46-0.72l2.41-0.66l2.41-0.54l4.87-0.66l2.48-0.12h2.46l-0.97-1.08l-0.9-1.21l-0.72-1.31
	l-0.55-1.33l-0.47-1.44l0.83-1.38l0.67-1.51l0.66-0.07l0.61-0.25l0.54-0.37l0.48-0.47l0.3-0.6l0.54-1.08L99.43,89.29z"/>
<path class="st3" d="M55.76,49.32l2.1-0.79l2.1-0.61l2.16-0.47l2.23-0.37l2.22-0.18l2.17-0.06h2.23l2.24,0.18l2.16,0.31l2.04,0.48
	l2.05,0.61l1.93,0.72l1.92,0.9l1.8,0.94l1.8,1.15l1.69,1.21l1.62,1.38l1.33,1.44l1.13,1.56l1.08,1.62l0.97,1.75l0.79,1.74l0.72,1.87
	l0.48,1.87l0.36,1.91l0.25,1.99l0.29,2.34l0.24,2.34l0.06,2.36v2.34l0.12,1.38l0.17,1.43l0.18,1.03l0.07,1.02l-0.07,1.2l-0.11,1.15
	l-0.24,1.15l-0.36,1.08l-0.43,0.95l-0.48,0.97l-0.06,0.13v-1.27l-0.23-1.21l-0.36-1.14l-0.17,1.7l-0.31,1.62l-0.23,0.72l-0.43,0.6
	l-0.25-0.54l-0.05-0.6l-0.31,1.15l-0.41,1.15l-0.56,1.08l-0.36-0.67L92.5,93.3l-0.59-0.54l0.05,1.49l0.17,1.5l0.31,1.51l0.47,1.38
	l0.66,1.38l0.79,1.27l-2.34,0.18l-2.34,0.29l-2.35,0.35l-2.35,0.55l-2.29,0.6l-2.53,0.77l-2.53,0.85l-2.46,1.02l-2.34,1.21
	l-2.29,1.26l-2.23,1.49l-0.83,0.61l-0.91-1.8l-0.97-1.87l-1.13-1.73l-1.22-1.62l-1.32-1.56l-0.59-0.59l-0.67-0.49l-0.77-0.36
	l-0.79-0.23l-9.8-2.04l-0.55-0.19l-0.47-0.25l-0.9-0.54l-0.85-0.66l-0.3-0.36l-0.18-0.49l-0.18-0.48l-0.13-1.08l0.13-1.15l0.18-1.07
	l0.18-1.02v-0.96l-0.13-1.09l-0.36-0.96l-0.05-0.29l0.05-0.36l2.29-1.37l-2.11-1.51l-0.05-0.79V82.6L45.82,82l-0.11-0.54l-0.31-0.53
	l-0.36-0.5l-0.48-0.41l-0.47-0.31l-0.79-0.54l-0.25-0.23l-0.12-0.36v-0.42l0.12-0.29l3.49-5.47l0.42-0.72l0.3-0.85l0.13-0.83
	l0.05-0.9l-0.11-0.84l-0.07-0.07l-0.05-0.9v-0.96l0.12-0.9l0.3-0.91l0.36-0.83l0.49-0.79l0.48-0.66l0.29-0.71l0.31-0.72l0.18-0.79
	l-0.79,0.9l-0.66,0.97L47.8,63l-0.12-0.65l-0.24-0.54l-1.01,2.34l-0.67-3.17l-0.18-1.03v-1.02l0.13-1.08l0.36-0.97l0.41-0.83
	l0.56-0.79L48.16,54l1.26-1.14l1.33-1.08l1.44-0.9l1.5-0.79L55.76,49.32z M53.79,85.96c0.37,6.38,6.08,12.48,15.77,12.48
	c10.33,0,16.46-6.7,16.46-14.49c0-4.6-1.93-8.57-5.25-11.23c-2.32-1.86-5.15-2.91-8.83-2.91c-3.38,0-6.13,0.95-8.61,2.87l2.06-9.6
	h18.28v-6.61h-24l-4.05,22.36L63,79.21c1.59-1.88,3.57-2.83,6.32-2.83c5.08,0,8.29,3.33,8.29,7.7c0,4.43-3.5,7.97-8.13,7.97
	c-4.63,0-7.4-2.68-7.77-6.19L53.79,85.96z"/>
</svg>
