<svg xmlns="http://www.w3.org/2000/svg" xml:space="preserve" id="Hwy_3" x="0" y="0" viewBox="0 0 144 144"><style>.st1{fill-rule:evenodd;clip-rule:evenodd}</style><linearGradient id="SVGID_1_" x1="36" x2="36.71" y1="108" y2="107.29" gradientUnits="userSpaceOnUse"><stop offset="0" style="stop-color:#20ac4b"/><stop offset=".98" style="stop-color:#19361a"/></linearGradient><path d="M97.21 1.17c.68 0 1.23.55 1.23 1.21v11.29c0 .66.54 1.21 1.22 1.21h41.37a1.2 1.2 0 0 1 .91 2.01l-10.12 11.37c-.21.21-.3.5-.3.79v68.88c0 24.05-31.86 38.96-56.85 38.95-24.93 0-56.4-14.89-56.4-38.95V29.05c0-.29-.12-.58-.31-.79L7.77 16.89a1.21 1.21 0 0 1 .92-2.01h41.43c.68 0 1.23-.55 1.23-1.21V2.38c0-.66.55-1.21 1.23-1.21z" style="fill-rule:evenodd;clip-rule:evenodd;fill:#fff;stroke:#000;stroke-width:.825"/><path d="M92.38 24.67h37.89q.06 0 .08-.05l1.72-1.92c.08-.08.02-.19-.08-.19l-36.78-.04q-.1-.01-.11-.12v-2.14q.02-.11.13-.12l39.06.05c.03 0 .09-.02.09-.05l1.79-1.98c.07-.09.02-.2-.09-.2H95.23q-.11 0-.12-.13l.02-13.51q-.02-.12-.12-.13L54.12 4.1q-.13 0-.13.14l-.04 13.55c0 .08-.07.13-.12.13H12.84a.12.12 0 0 0-.09.2l1.79 1.98q.06.05.1.05l39.2-.05q.1 0 .11.12v2.14q-.01.1-.11.12l-36.88.04c-.11 0-.16.11-.1.19l1.73 1.92q.04.05.09.05h38.15q.1 0 .12-.12V7.24q0-.12.13-.13h35.04q.1.01.11.13l.02 17.31q0 .11.13.12M124.73 27.26v70.76c0 14.43-14.51 25.8-32.8 30.8-5.9 1.61-11.94 2.06-17.46 2.06l-.03-.04h-.02c-5.51 0-11.5-.42-17.4-2.03-18.3-5-32.82-16.37-32.82-30.8V27.26q0-.1-.12-.11H21c-.11 0-.16.11-.1.2l.26.27q.03.03.03.08v70.26c0 16.07 16.05 28.19 34.9 33.34a70 70 0 0 0 18.33 2.56h.03l.04.04c5.85 0 12.17-.9 18.35-2.6 18.85-5.15 34.91-17.27 34.91-33.34V27.7q0-.06.03-.08l.24-.27c.06-.08.02-.2-.1-.2h-3.06a.12.12 0 0 0-.13.11" class="st1"/><path d="m90 68.77-.27-1.12v-.02l-.13-1.11.03-.07.96-1.3.89-1.39v-.01l.78-1.48v-.02l.54-1.53.43-1.61v-.02l.29-1.61.09-1.66-.03-1.66v-.02l-.26-1.59v-.03l-.44-.57v-.02l-.3-.62-.02-.02-.16-.7v-.02l-.03-.69v-.02l.09-.69v-.02l.24-.66.71-1.66.52-1.74.36-.98v-.02l.52-.93.02-.01.66-.81.02-.02.76-.69.01-.02.86-.58.02-.01.98-.44h.01l1-.27 1.68-.38h.02l1.58-.55h.02l1.52-.71 1.48-.83h.02l1.39-.98 1.28-1.08h.02l.81-.86c.06-.07-.02-.18-.1-.13l-.95.51-1.49.63-1.56.48-1.55.39-1.61.24-1.59.11h-.02l-1.37-.03c-.09 0-.11-.1-.05-.15l.67-.53.91-.58q0-.03.02-.02l.98-.44 1.05-.35 8.09-2.24c.07-.02.07-.13 0-.16l-1.75-.32h-.02l-2.11-.2-2.13-.08-2.16.11-2.08.27.11.05-1.57.27-1.59.19h-1.7l-1.1-.46h-.01l-1.15-.36h-.01l-1.25-.21h-.02l-1.18-.03h-.02l-1.23.11h-.01l-1.2.24h-.02l-1.14.39h-.02l-1.1.52h-.02l-1.03.64h-.02l-.95.79-.84.85q0 .03-.02.02l-.71.98v.01l-.61 1.05v.02l-.47 1.09-.33 1.17-.23.84-.37.79-.47.69q0 .04-.02.04l-.15.68v.02l-.36.61v.03l-.51.45q0 .03-.02.02l-.58.39h-.02l-.66.24h-.02l-9.57 5.69-2.21 1.39-2.08 1.49-2.02 1.66-1.87 1.82-1.77 1.89-1.66 2.02-1.47 2.09-1.32 2.2-1.21 2.29-.8 1.5-.92 1.41v.02l-1.08 1.3-1.16 1.18-1.28 1.11-1.39.98h-.02l-1.47.84h-.02l-1.56.65-1.6.57-1.64.44h-.02l-1.65.22h-.02l-1.71.08h-.02l-1.68-.08-1.49-.16c-.07-.02-.12.06-.07.11l.59.8.02.01.84.83.92.74 1 .64h.02l1.1.51h.02l1.11.39h.02l1.14.24h.02l1.18.11h.02l1.19-.03h.02l1.2-.21h.01l.78-.2c.08-.02.15.08.08.14l-1.27 1.02-1.44 1.38L40 85.1l-1.25 1.54-1.12 1.62-1 1.74-.84 1.77-.72 1.86-.6 1.86-.43 1.94-.32 1.9q-.02.02.02.06l.73 1.03.01.02.91.89.02.02 1.03.79h.02l1.11.66h.02l1.22.48h.02l1.23.3q.05 0 .07-.02l.84-.69q.05-.03.09-.02l6.08 2.94 3.33 1.47 3.27 1.21q.1.02.11-.09l-.4-1.68-.38-1.8v-.01l-.16-1.86-.04-1.85.08-1.85v-.02l.27-1.85.4-1.8.52-1.78v-.02l.7-1.72v-.01l.82-1.61q0-.06.06-.05h2.94c.07 0 .11.11.04.14l-1.3.77q-.05.05-.05.09v.79q.01.1.1.07l2.74-.71q.06 0 .08.03l.07.13q.05.06-.02.11L57.05 94q-.03.01-.03.05l-.29 2.69c-.02.06.06.11.11.07l5.95-3.54c.08-.05.16.05.11.11l-.87 1.05a.1.1 0 0 0 0 .11l.96 1.13q.07.06.13-.02l1.79-2.51.1-.03 1.27.29q.07.03.07.1l-1.28 7.65c-.02.08.13.13.17.03l.7-2.12q.02-.03.04-.04L68.19 97q.09-.07.13.03l.52 1.55v.05l-.3 2.21v.05l.64 1.9q.03.07.11.04l1.28-.74q.06-.04.05-.08v-1.46q0-.02.02-.05l1.21-1.43c.05-.05.13-.02.13.07v.96q0 .03.02.04l.92 1.88.63 1.14q.03 0 .02.02l.95 1.13q0 .02.02.02l2.21 1.89c.04.03.11.02.12-.05l.62-2.67q0-.04-.02-.07l-.81-1.3q-.05-.08.03-.13l1.98-.66q.05 0 .07-.06l.32-2.3c.02-.06-.05-.11-.12-.09l-3.98 1.48q-.05.02-.07-.02l-.21-.27-.9-.73-.02-.06v-4.26q0-.05.07-.07l.95-.28q.06-.03.1.04l.79 1.25v.08l-1.18 1.82q-.03.06.02.11l1.92 1.14q.06.04.11 0l1.69-1.74q.07-.06.12 0l2.02 2.79q.01.02.02.05v1.8l-1.08 3.9c-.03.1.13.14.16.05l1.44-3.93.96-2.22v-.05l-.6-3.62q0-.06.05-.08l3.46-1.39q.05-.02.08 0l.76.58q.06.04.02.1l-.57 1.35v.02l-.97 3.38v1.92l.02.05 1.6 2.64q.03.06.09.04l2.54-1.16q.06-.03.01-.11l-.59-.74-.02-.04-.92-2.59-.9-2.53v-.07l.9-1.77q0-.01.02-.02l1.69-1.75a.1.1 0 0 1 .11-.02l.73.6.02.06v4.03q0 .01.02.02l.95 2.68q.06.06.13.03l1.3-.79q.05-.03.03-.1L91.18 99q-.03-.01-.02-.02v-2.19c0-.09.08-.12.14-.07l3.41 2.74q.06.05.11 0l2.21-1.52q.08-.06 0-.13l-1.45-1.03q-.05-.06-.02-.12l1.46-2.11.02-.01.62-1.52V93l.29-3.55q0-.06.09-.07h1.04l1.54.34q.03.03.05 0l1.64-.32q.08-.02.09.08v2.05q0 .05.06.08l1.96.39c.06.02.11-.05.09-.1l-.87-2.41q-.02-.09.07-.1h1.42q.07 0 .07.09v3.19q0 .09.12.07l1.4-.66q.08-.03.11.05l.57 1.71q.06.07.14.03l2.23-1.9q.04-.05.02-.11l-1.19-3.57c-.02-.04.02-.1.07-.1l2.61-.72q.07-.01.06-.07v-2.29q-.02-.09-.09-.08l-3.68 1.09a.1.1 0 0 1-.07 0l-4.34-2.79c-.05-.04-.05-.11 0-.12l1.34-.63a.08.08 0 0 0 0-.15l-2.26-1.13a.1.1 0 0 0-.08 0l-1.21.86c-.05.03-.14-.01-.13-.08l.28-1.44c.02-.07-.04-.09-.08-.09l-3.29.3c-.08 0-.11-.09-.03-.14l2.31-1.43h.08l.52.31q.04.03.08 0l1.61-.73q.06-.02.04-.11l-.86-1.76q-.03-.07.05-.09l5.07-2.14h.02l4.38-3.4 4.37-3.01q.04-.03.03-.08l-.31-2.66c0-.07-.07-.1-.12-.07l-7.27 4.72q-.1.04-.11-.06l-.26-1.97q-.02-.08-.13-.05l-1.28.76-.04.04-1.85 3.3q-.01.03-.04.05l-5.15 1.84q-.02 0-.06-.02l-1.16-.71q-.05-.03-.08 0l-2.42 1.45q-.03.03-.08 0l-.98-.59h-.02l-.91-.71-.84-.79v-.02l-.76-.89v-.02l-.64-.98v-.02l-.52-1.01v-.02zM66.66 85.03c-1.8-1.92-3.15-5.05-3.21-8.7 0-.19.13-.34.32-.34l5.02-.11c.18 0 .32.13.32.32.05 4.11 2.28 6.5 5.57 6.5a5.2 5.2 0 0 0 5.35-5.34c0-2.06-.83-3.67-2.59-4.66-.77-.42-1.82-.82-4.44-.79-.19 0-.34-.15-.34-.32v-3.91c0-.18.15-.32.34-.32 4.57.19 6.2-2.32 6.2-4.72a4.43 4.43 0 0 0-4.48-4.53c-2.68 0-4.79 2.23-4.92 5.87 0 .17-.15.32-.34.32l-4.84-.21c-.18-.01-.32-.16-.3-.33.09-4.61 2.61-10.63 10.16-10.63 3.55 0 5.75 1.04 7.27 2.37a9.3 9.3 0 0 1 3.14 6.76c0 1.98-.62 3.69-1.72 4.98a5 5 0 0 1-2.6 1.72c-.3.1-.29.54.04.61 3.38.89 5.69 4.19 5.69 8.29 0 2.74-1.06 5.4-3.05 7.3-1.78 1.74-4.16 2.95-8.46 2.95-3.98-.01-6.41-1.27-8.13-3.08m30.47-.21 3.48.77q.06.02.07.06l.32 1.55c.02.06-.05.11-.11.1l-2.85-1.12q-.02 0-.02-.02l-.61-.37q-.03-.02-.03-.05l-.32-.81c-.04-.07 0-.14.07-.11m-2.15 6.99-.62 1.52v.02l-.34 2.01q-.03.1-.13.07L92 94.5q-.06-.03-.04-.09l.34-1.9.02-.02 1.22-1.52q.04-.04.11-.02l1.27.77q.08.03.06.09m-1.97-57.12.2.29v.03l.08.37v.04l-.08.32v.03l-.2.29q-.01 0-.02.02l-.29.22-.04.02-.36.07h-.03l-.37-.07-.04-.02-.29-.22q-.01-.03-.02-.02l-.2-.29v-.03l-.09-.32v-.04l.09-.37v-.03l.2-.29q.01 0 .02-.02l.29-.21.04-.02.37-.08h.03l.36.08.04.02.3.22zM88.64 122.46v-.97c0-.15-.18-.19-.26-.09-1.35 1.87-3.29 2.74-4.56 2.74-1.68 0-4.15-1.66-4.15-6.52 0-3.45 1.6-6.2 4.22-6.2a4.7 4.7 0 0 1 4.31 3.49l.02.08q.05.09.14.1h.13q.13 0 .14-.15v-4.14a.14.14 0 0 0-.14-.14h-.23a.2.2 0 0 0-.13.07l-.06.08v.02c-.31.48-.6.6-.93.6-.26 0-.55-.15-.89-.29a6.5 6.5 0 0 0-2.89-.64 6.8 6.8 0 0 0-5.93 3.04 8.3 8.3 0 0 0-1.32 4.38 7.3 7.3 0 0 0 3.4 6.07c1.05.61 2.4 1 3.81 1 2.03 0 3.91-.87 5.27-2.48zM58.16 124.79h7.5c2.98 0 4.68-2.12 4.68-3.84 0-1.33-1.1-2.82-2.82-3.32-.17-.04-.15-.24 0-.27a3.2 3.2 0 0 0 2.54-3.14c0-1.63-1.37-3.38-4.37-3.51l-7.46-.02a.14.14 0 0 0-.14.14v.13q.02.12.14.14h.66c.62 0 1.05.43 1.09.87v.02l.02 11.3v.02c-.03.64-.48 1.04-.97 1.07h-.85a.15.15 0 0 0-.15.15v.09q-.01.16.13.17m5.16-7h.6c1.67 0 2.84 1.07 2.84 3.17 0 2.08-1.22 3.07-2.37 3.07-.86 0-1.16-.41-1.2-.8v-.02l-.02-5.28q0-.12.15-.14m-.07-.93v-5.38q.01-.12.17-.14h.82c1.32 0 2.42.95 2.42 2.72 0 2-1.1 2.92-2.3 2.95h-.93q-.17-.02-.18-.15M73.3 124.49c.83 0 1.58-.73 1.58-1.63 0-.8-.6-1.57-1.63-1.57-.85 0-1.58.74-1.58 1.57 0 .9.71 1.59 1.63 1.63M91.91 124.49c.84 0 1.58-.73 1.58-1.63 0-.8-.61-1.57-1.62-1.57a1.6 1.6 0 0 0-1.58 1.57c-.01.9.68 1.59 1.62 1.63" class="st1"/></svg>