<?xml version="1.0" encoding="UTF-8"?><svg id="a" xmlns="http://www.w3.org/2000/svg" viewBox="0 0 105.24 139.97"><defs><style>.b{fill:#fff;stroke:#231f20;stroke-width:1.38px;}.b,.c{fill-rule:evenodd;}.c{fill:#00665b;}</style></defs><path class="b" d="M95.76,139.29c4.86,0,8.8-3.94,8.8-8.8V9.48c0-4.86-3.93-8.8-8.8-8.8H9.48C4.62,.69,.69,4.63,.69,9.48v121c0,4.86,3.94,8.8,8.79,8.8H95.76Z"/><path class="c" d="M101.29,25.94v104.43c0,2.95-2.39,5.34-5.34,5.34H9.67c-2.94,0-5.33-2.39-5.33-5.34V25.94H101.29ZM51.33,104.52l-.39,.62-.28,.34,1.52,.38,1.46,.55,.17-1.8,.04-1.01c-.17-1.57-.57-2.95-.94-4.47-.21-1.69-.19-2.22,.61-3.58,.33-.58,2.03-1.34,2.88-.35,.97,1.03,1.25,1.97,2.61,2.61,.94,.3,1.89,.32,2.84,.59,1.07,.51,1.66,1.08,2.5,1.91l.59-.56c.86-.86,1.6-1.08,2.77-1.28,1.87,0,3.67-.16,5.33-1.04,1.36-.99,2.32-2.34,3.81-3.16,1.55-.4,3.04-.56,4.51-1.24-.67,0-.89-.09-1.42-.49-.62-.8-1.15-1.49-1.94-2.15-1.04-.61-2.11-.73-3.29-.97-1.02-.41-1.27-1.31-.6-2.18,1.55-1.26,3.61-1.43,5.37-2.25,1.07-.8,2-1.77,3.08-2.54l.9-.41c1.44-.67,2.36-1.33,3.4-2.53,1.15-1.61,1.57-2.99,1.7-4.96-1.04,1.05-2.32,1.28-3.46,.24-.86-1.32-.53-2.64,.24-3.92,.77-1.07,1.16-2.02,1.36-3.33,.19-2.66-.45-5.87,2.52-7.11l-1.11-.56-1.21-.38c-1.85-.34-3.03-.1-4.75,.62-1.51,.86-4.46,3.08-6.38,1.95-1.21-1.21-.35-2.66,1.11-3.05-2.62-1.39-4.25,.01-6.58,1.35-.89,.27-1.33,.21-2.07-.38-.97-1.19-.34-2.01,.2-3.27,.41-1.76,.34-2.93-.48-4.57-1.35-2.51-2.43-4.13-1.28-6.9,.32-.54,.67-.69,1.21-1l-.7-.11c-1.29,0-1.93,.3-3.08,.87-1.36,.93-2.41,1.98-4.09,1.14-1.11-1.02-1.66-2.5-2.07-3.92-.51-2.15-1.13-3.72-2.88-5.13-.93-.56-1.48-.91-2.16-1.77h.04c-.67,.85-1.23,1.2-2.14,1.77-2.13,1.71-2.44,3.59-3.16,6.11-.45,1.06-.94,2.16-1.8,2.95-1.04,.51-1.56,.36-2.59-.1-1.02-.75-2-1.37-3.19-1.8-.77-.12-1.31-.12-2.09,0l.7,.41c1.09,.84,1.1,2.54,.94,3.78-.39,1.32-1.05,2.51-1.7,3.71-1.07,2.14-.9,3.61,.04,5.76,.29,.68,.25,1.07-.04,1.74-1.47,1.85-3,.36-4.64-.59-1.55-.77-2.74-.86-4.3-.03,1.14,.31,1.79,1.08,1.62,2.29-.7,1.71-2.68,1.05-3.98,.45l-2.91-1.63c-.96-.4-1.76-.65-2.8-.79-1.66,0-2.78,.37-4.27,1.11,2.99,1.25,2.32,4.43,2.52,7.11,.2,1.31,.59,2.26,1.36,3.33,.77,1.27,1.09,2.56,.23,3.92-1.15,1.04-2.41,.8-3.46-.24,.07,1.16,.25,2.02,.62,3.12,.85,1.82,1.83,2.82,3.5,3.91,.97,.45,1.83,.84,2.7,1.46,1.04,.98,1.85,1.76,3.16,2.36,1.51,.43,3.69,.87,4.71,2.15,.55,2.04-1.38,1.99-2.88,2.3-1.12,.34-1.71,.87-2.45,1.77-.71,.91-.95,1.42-2.15,1.42,1.46,.67,2.96,.84,4.5,1.24,1.05,.58,1.71,1.26,2.57,2.12,1.2,1.14,2,1.54,3.61,1.84l1.11,.18c1.7,.11,3.79-.06,4.81,1.64,1.16-1.7,3.02-1.96,4.88-2.33,1.4-.59,2.16-1.46,2.99-2.71,.53-.72,1.15-1.02,1.88-.8,1.47,.59,.87,1.5,.58,2.71-.16,1.05-.11,1.93,0,2.99,.31,1.82,.62,2.88-.1,4.61Zm36.57,5.72l-5.16-5.31-1.8,1.67-1.94,1.52-2,1.42-2.09,1.32-2.15,1.18-2.22,1.07-2.29,.93-2.32,.8-2.29,.59-2.45,.62-2.43,.38-2.45,.29-2.46,.1h-2.46l-2.46-.17-2.43-.27-2.43-.45-2.39-.56-2.35-.73-2.32-.84-2.26-.97-2.18-1.11-2.14-1.21-2.05-1.36-2.01-1.45-1.87-1.56-1.84-1.66-5.23,5.2,1.97,1.84,2.04,1.74,2.15,1.63,2.26,1.5,2.29,1.38,2.38,1.25,2.43,1.11,2.5,1,2.56,.87,2.59,.72,2.59,.6,2.68,.45,2.67,.28,2.67,.17,2.71,.03,2.67-.13,2.66-.25,2.67-.41,2.64-.55,2.59-.7,2.57-.79,2.52-.98,2.42-1.07,2.49-1.26,2.26-1.32,2.25-1.45,2.19-1.6,2.07-1.7,1.97-1.8Zm-.24-7.29l-2.9,3.19,4.02,4.2-1.39,2.25-1.53,2.14,1.95-1.66,1.91-1.77,1.77-1.84,1.7-1.94-4.85,.18-.66-4.75Zm-71.48,6.62l4.09-4.12-2.84-3.23-.8,4.68-4.74-.17,1.59,1.95,1.7,1.84,1.8,1.77,1.91,1.66-1.46-2.15-1.25-2.22Zm70.66,2.96l-2.18,1.84-2.29,1.66,.73,1.07,1.35-1.46,1.25-1.55,1.14-1.56Zm-63.53,3.14l-2.18-1.67-2.12-1.77,1.08,1.57,1.18,1.48,1.24,1.42,.8-1.04Z"/><path class="c" d="M101.09,15.66H4.15v-6.18c0-2.94,2.38-5.33,5.33-5.33H95.76c2.95,0,5.34,2.39,5.34,5.33v6.18Z"/><path class="c" d="M56.59,87.92c0,.16-.12,.29-.27,.29h-5.93c-.16,0-.29-.12-.29-.29v-25.45c0-.15-.12-.28-.27-.28h-4.4c-.16,0-.27-.12-.27-.28v-4.32c0-.15,.11-.27,.26-.28,3.62-.39,4.56-1.47,5.75-3.64,.04-.09,.13-.15,.23-.15h4.91c.14,0,.27,.13,.27,.28v34.11Z"/><path class="c" d="M12.5,24.84v-6.74h-2.61v-.88h6.27v.88h-2.6v6.74h-1.06Zm5.59-4.23h2.22c.29,0,.48-.09,.65-.24,.11-.09,.42-.4,.42-1,0-.26-.07-.54-.18-.73-.18-.32-.48-.53-1.09-.53h-2.02v2.49Zm-1.06,4.23v-7.62h3c1.2,.03,1.56,.25,1.86,.53,.33,.32,.58,.85,.58,1.49,0,1.05-.61,1.71-1.54,1.84,.52,.02,1.03,.42,1.15,1.12l.36,2.16c.03,.18,.11,.37,.25,.48h-1.2c-.06-.1-.09-.22-.11-.34l-.23-1.68c-.2-1.11-.52-1.34-1.43-1.34h-1.63v3.36h-1.05Zm8.82-2.9h2.88l-1.35-3.68-1.53,3.68Zm-2.3,2.9l3.32-7.63h1.1l3.01,7.63h-1.12l-.79-2.01h-3.59l-.85,2.01h-1.07Zm8.28,0v-7.62h1.48l3.62,6.65-.09-6.65h.95v7.62h-1.3l-3.75-6.81,.05,6.81h-.98Zm7.5-2.15h1.11c0,.45,.11,.71,.35,.95,.27,.29,.79,.55,1.46,.55,1.34,0,1.86-.68,1.86-1.36,0-.55-.29-.98-1.05-1.18l-2.16-.54c-.92-.29-1.39-.89-1.39-1.84,0-.57,.21-1.07,.5-1.38,.47-.49,1.24-.88,2.36-.88,1.76,0,2.57,.95,2.61,2.04h-1.11c0-.63-.41-1.18-1.55-1.18-1.24,0-1.78,.62-1.78,1.31,0,.48,.21,.85,1.16,1.08l1.56,.37c1.1,.27,1.9,.82,1.9,2.1,0,1.2-.91,2.33-3,2.33-2.73,0-2.84-1.99-2.84-2.11v-.14s0-.08,0-.12Zm7.26-1.31v-.69h3.84v.69h-3.84Zm10.09,1.45h1.16c-.09,.71-.5,1.37-1.09,1.76-.42,.26-1.04,.48-1.73,.48-.86,0-1.64-.32-2.16-.79-.56-.53-1.07-1.46-1.07-3.2,0-1.1,.15-1.73,.32-2.15,.49-1.24,1.56-1.96,2.89-1.96,1.88,0,2.82,1.08,2.86,2.21h-1.1c-.07-.68-.73-1.33-1.7-1.33-.79,0-1.46,.41-1.81,1.16-.19,.42-.36,1.01-.36,2.19,0,.76,.15,1.38,.38,1.84,.36,.74,.99,1.14,1.86,1.14,.71,0,1.28-.41,1.48-1.07l.05-.15s.02-.09,.03-.13Zm4-.89h2.89l-1.36-3.68-1.54,3.68Zm-2.3,2.9l3.32-7.63h1.09l3.01,7.63h-1.13l-.78-2.01h-3.59l-.86,2.01h-1.07Zm8.28,0v-7.62h1.48l3.62,6.65-.09-6.65h.96v7.62h-1.3l-3.75-6.81,.05,6.81h-.97Zm9.12-2.9h2.89l-1.35-3.68-1.54,3.68Zm-2.3,2.9l3.32-7.63h1.09l3.02,7.63h-1.13l-.78-2.01h-3.59l-.86,2.01h-1.07Zm9.32-.87h1.72c1.29-.03,2.25-.74,2.25-3.06,0-2.04-.92-2.82-2.38-2.82h-1.59v5.88Zm-1.04,.87v-7.62l3.08,.02c2.45,.19,3.04,2.41,3.04,3.78,0,1.23-.43,2.23-.93,2.83-.5,.56-1.29,.96-2.14,1h-3.04Zm8.59-2.89h2.89l-1.35-3.68-1.54,3.68Zm-2.3,2.9l3.32-7.63h1.09l3.01,7.63h-1.13l-.78-2.01h-3.59l-.85,2.01h-1.07Z"/><path class="c" d="M69,120.5c-.56-1.56-1.11-3.13-1.66-4.7,.37-.14,.74-.27,1.11-.41,.98,1.16,2,2.3,3.07,3.41-.09-1.52-.22-3.04-.4-4.54,.36-.16,.7-.34,1.04-.51,.74,1.5,1.48,2.98,2.21,4.48-.23,.11-.45,.21-.68,.32l-1.96-4.14c.17,1.62,.29,3.24,.34,4.88-.24,.1-.47,.2-.7,.3-1.15-1.18-2.25-2.41-3.29-3.65l1.59,4.31c-.21,.08-.43,.16-.66,.24Z"/><path class="c" d="M24.45,114.23l2.89-4.04c.54,.38,1.08,.75,1.64,1.09,.64,.45,.78,.69,.86,.95,.08,.3,.04,.68-.17,1.04-.34,.59-.93,.75-1.52,.46,.3,.21,.46,.61,.3,1.05-.17,.45-.34,.89-.51,1.34-.04,.11-.04,.23,0,.36-.25-.15-.5-.3-.75-.45,0-.08,.02-.16,.05-.24,.15-.34,.29-.68,.43-1.02,.27-.7,.16-.94-.37-1.29-.32-.21-.64-.42-.95-.63l-1.24,1.8c-.21-.14-.43-.29-.64-.45Zm2.2-1.83c.43,.29,.86,.58,1.29,.86,.16,.1,.3,.12,.46,.1,.09,0,.38-.07,.58-.4,.09-.16,.15-.33,.15-.47,0-.25-.08-.46-.43-.68-.38-.24-.75-.49-1.12-.74l-.93,1.33Z"/><path class="c" d="M80.6,114.55c-.29-1.82-.64-3.62-1.08-5.38,.18-.14,.37-.3,.55-.45,1.56,.89,3.16,1.73,4.8,2.49-.2,.18-.41,.36-.62,.54-.43-.22-.84-.43-1.27-.65-.65,.54-1.32,1.05-2.01,1.57,.1,.47,.19,.95,.27,1.43-.21,.14-.42,.3-.64,.45Zm.23-2.5c.55-.4,1.08-.82,1.61-1.24-.77-.42-1.5-.86-2.23-1.3,.22,.84,.43,1.68,.62,2.54Z"/><path class="c" d="M20.62,111.21l3.28-3.75c.45,.39,.9,.77,1.36,1.15,.57,.48,.68,.76,.73,1.03,.05,.34-.04,.73-.25,1.01-.3,.4-.85,.53-1.34,.3,.4,.52,.43,1.18,.08,1.66-.43,.59-1.3,.67-1.93,.19-.66-.52-1.3-1.05-1.93-1.59Zm.95,.07c.34,.29,.68,.57,1.02,.85,.51,.39,1.01,.32,1.32-.07,.31-.41,.24-.9-.25-1.29-.32-.27-.65-.54-.97-.8l-1.11,1.31Zm1.48-1.75c.36,.29,.71,.58,1.08,.88,.34,.21,.74,.14,.99-.19,.27-.35,.2-.81-.15-1.09-.31-.25-.62-.5-.93-.76l-1,1.17Z"/><path class="c" d="M75.29,117.76l-2.3-4.43c.53-.27,1.05-.55,1.56-.85,.66-.35,.95-.36,1.22-.3,.33,.07,.66,.29,.84,.59,.27,.43,.2,.99-.2,1.36,.64-.19,1.27,.03,1.59,.53,.39,.62,.16,1.47-.52,1.88-.72,.43-1.45,.84-2.18,1.23Zm.41-.86c.4-.21,.79-.43,1.17-.66,.55-.33,.67-.82,.41-1.25-.27-.44-.75-.55-1.3-.24-.36,.21-.73,.42-1.1,.61l.82,1.53Zm-1.09-2.03c.4-.22,.81-.45,1.21-.68,.32-.24,.39-.65,.19-.99-.24-.38-.69-.48-1.08-.26-.35,.21-.7,.4-1.05,.59l.73,1.34Z"/><path class="c" d="M62.65,117.16c.21-.05,.41-.09,.62-.14l.76,3.08c.18,.63,.44,.85,.71,.95,.28,.1,.66,.14,1.09,.01,.49-.13,.85-.44,.98-.69,.13-.23,.2-.5,0-1.12l-.93-2.98c.2-.06,.39-.12,.59-.2l1.04,3.18c.24,.79,.06,1.37-.68,1.91-.26,.18-.55,.32-.85,.4-.44,.12-.95,.14-1.3,.08-.66-.13-1.05-.51-1.23-1.09-.27-1.13-.54-2.27-.8-3.4Z"/><path class="c" d="M41.04,121.85l1.19-4.83c.23,.05,.45,.11,.68,.16l-.48,2.07c.82,.2,1.65,.36,2.47,.5l.36-2.11c.23,.04,.45,.07,.68,.11l-.77,4.93c-.25-.04-.5-.08-.75-.12l.39-2.25c-.84-.14-1.67-.3-2.5-.5l-.51,2.21c-.25-.06-.5-.11-.75-.18Z"/><path class="c" d="M54.94,122.8c-.41-.34-.79-.94-.82-2.03-.04-1.82,.9-2.67,2.13-2.77,1.33-.11,2.35,.57,2.59,2.33,.23,1.64-.44,2.46-1.43,2.79-.22,.07-.46,.13-.7,.14-.3,.03-.63,0-.73-.02-.09-.04-.19-.04-.27-.07-.25-.07-.47-.17-.68-.32-.03-.02-.06-.04-.09-.06Zm.42-.58c.33,.37,.77,.52,1.29,.48,.89-.07,1.63-.7,1.43-2.26-.17-1.47-.98-1.93-1.75-1.88-1.19,.1-1.49,1.3-1.45,2.15,.04,.82,.28,1.29,.42,1.44,.02,.03,.04,.05,.05,.07Z"/><path class="c" d="M36.6,119.04c.25,.09,.49,.18,.74,.27-.1,.27-.07,.45,.04,.66,.12,.25,.42,.52,.89,.66,.93,.3,1.42-.04,1.54-.46,.09-.34-.03-.67-.51-.95-.45-.26-.89-.53-1.32-.8-.55-.39-.71-.86-.5-1.46,.12-.34,.36-.61,.62-.73,.4-.2,.96-.27,1.65-.06,1.1,.34,1.45,1.06,1.3,1.77-.24-.06-.48-.13-.72-.2,.11-.39-.06-.81-.78-1.04-.79-.25-1.25,.03-1.39,.45-.1,.3-.05,.57,.53,.92,.31,.19,.62,.38,.95,.55,.68,.38,1.12,.88,.91,1.68-.2,.76-1.04,1.31-2.5,.86-1.92-.62-1.52-1.9-1.5-1.96,.01-.03,.02-.06,.03-.09,0-.03,.02-.05,.03-.07Z"/><path class="c" d="M31.57,118.45c.63-1.33,1.27-2.66,1.9-3.98-.52-.25-1.04-.51-1.54-.77l.27-.52c1.22,.64,2.46,1.23,3.72,1.75l-.22,.54c-.53-.22-1.05-.45-1.59-.7l-1.85,4c-.23-.1-.46-.22-.7-.32Z"/><path class="c" d="M52.67,121.98c.27,0,.54,0,.82,0-.06,.45-.34,.89-.77,1.15-.3,.18-.77,.31-1.26,.3-.64-.02-1.2-.25-1.55-.59-.39-.37-.71-1-.62-2.13,.05-.72,.18-1.12,.32-1.39,.39-.79,1.12-1.21,1.99-1.2,1.21,.03,1.84,.73,1.88,1.47-.25,0-.5,0-.74,0-.05-.44-.49-.88-1.12-.89-.52-.01-.98,.24-1.24,.71-.14,.26-.29,.65-.33,1.42-.03,.49,.06,.9,.2,1.22,.23,.5,.67,.79,1.31,.79,.51,.02,.92-.25,1.07-.69,.01-.03,.02-.06,.04-.09,0-.03,0-.05,.02-.08Z"/><path class="c" d="M60.06,122.73c-.25-1.64-.5-3.28-.75-4.93,.22-.04,.45-.08,.69-.11l.72,4.36c.86-.15,1.71-.31,2.55-.51l.12,.56c-1.1,.25-2.21,.46-3.34,.62Z"/><path class="c" d="M79.51,115.29c-.91-1.39-1.83-2.78-2.74-4.16,.2-.13,.4-.26,.6-.4l2.8,4.12c-.22,.14-.44,.29-.66,.44Z"/><path class="c" d="M28.71,116.94c.82-1.44,1.63-2.89,2.46-4.34,.2,.12,.41,.23,.63,.35l-2.39,4.38c-.23-.13-.47-.25-.7-.39Z"/><path class="c" d="M34.5,119.74c.62-1.54,1.24-3.08,1.86-4.63,.23,.09,.45,.18,.68,.26l-1.79,4.66c-.25-.09-.5-.19-.75-.29Z"/></svg>