<svg width="34" height="34" viewBox="0 0 34 34" fill="none" xmlns="http://www.w3.org/2000/svg">
<path fill-rule="evenodd" clip-rule="evenodd" d="M20.9125 33.5388C19.6301 33.7856 18.3401 33.9128 17.0502 33.9128C12.819 33.9128 8.65308 32.5466 5.29524 29.9214C3.60378 28.5926 2.87097 26.7927 2.87097 24.6462V24.6237L2.9036 7.54144L0.16814 3.9764C-0.022589 3.7271 0.143044 3.35315 0.469292 3.35315H11.5115C11.7173 3.35315 11.893 3.19359 11.893 2.98418V0.466212C11.893 0.251811 12.0561 0.0847778 12.2719 0.0847778L21.846 0.09475C22.0568 0.09475 22.2225 0.264276 22.2225 0.471198V2.98168C22.2225 3.1911 22.3956 3.36062 22.6089 3.36062H33.5257C33.8394 3.36062 34.0276 3.71464 33.8419 3.96145L31.1993 7.55142L31.1893 24.701L31.1993 24.7658C31.1993 25.9001 30.9458 26.9697 30.4314 27.9744C29.8165 29.1735 28.8955 29.894 27.7084 30.6943C25.6983 32.0629 23.289 33.0601 20.9125 33.5388Z" fill="white" stroke="black" stroke-width="0.69"/>
<path fill-rule="evenodd" clip-rule="evenodd" d="M28.6244 28.7571C29.5756 27.7525 30.1704 26.3987 30.1704 24.8954V24.6561L30.1929 6.85335H30.4514L30.8705 6.32234H21.3717V5.74146H31.3248L31.7313 5.20296H21.3567V4.62458H32.1981L32.6072 4.0811H21.3717V0.857605H12.6233V4.05866L1.39784 4.05118L1.85961 4.59965H12.6233V5.1905H2.32388L2.68276 5.71902H12.6233V6.26998L3.13448 6.29491L3.56111 6.83341H3.76188V24.3968L3.78447 24.8705C3.78447 26.3613 4.35164 27.7076 5.29524 28.7073C8.45232 31.3574 12.5128 32.9355 16.9197 32.9405H17.0176C21.4244 32.9405 25.4749 31.3748 28.6244 28.7571ZM29.5731 6.87828L29.5806 24.686C29.5505 26.0946 29.1715 27.2588 28.2329 28.3059C26.8828 29.4228 25.3394 30.3352 23.7257 31.0183C22.8448 31.4023 21.8435 31.664 20.8874 31.9083C19.9714 32.0903 19.0403 32.2549 18.0967 32.3072C16.1844 32.4543 14.2093 32.215 12.3497 31.7214C11.0899 31.3674 9.89282 30.8887 8.7359 30.2904C7.79229 29.7818 6.88633 29.2059 6.0431 28.5652C4.88618 27.5755 4.44951 26.2367 4.42943 24.7583V6.87828H12.6258V10.0843C12.6509 10.4757 12.9018 10.8048 13.2256 10.9569V10.9743C13.5518 11.1838 13.9584 11.2386 14.3499 11.2386H15.5946C15.8255 11.2386 16.0664 11.2835 16.2797 11.3259C16.5884 11.4056 16.8394 11.6076 16.9925 11.8918C17.1405 11.6076 17.389 11.4056 17.7052 11.3333C17.911 11.281 18.1544 11.2361 18.3928 11.2361H19.62C20.0241 11.2361 20.403 11.1289 20.7594 10.9718C21.063 10.8297 21.2764 10.6004 21.3391 10.2713C21.3391 10.2713 21.3667 10.2239 21.3592 10.1691L21.3667 6.87828H29.5731ZM21.1132 8.56607L18.9173 9.67796C19.0478 9.53336 19.2034 9.36633 19.2662 9.2691C19.6326 8.67825 19.6075 8.58352 19.7907 8.36912C20.0893 8.03256 20.531 8.10735 20.5511 8.28934C20.782 8.15222 20.521 7.82563 20.0818 7.82563C19.5598 7.80569 19.1507 8.46136 18.5785 9.23171C18.5083 9.30899 18.4179 9.38129 18.3376 9.42866L20.1972 5.48468L17.9461 8.8777C18.0791 8.44391 18.054 8.17965 18.0716 7.92286V7.62869C18.0716 7.49157 18.1394 7.2647 18.182 7.16997C18.2774 6.92565 18.4832 6.75114 18.7668 6.75114C18.5334 6.48189 18.054 6.66388 17.8382 7.02786C17.7303 7.20736 17.66 7.41428 17.6374 7.63866C17.5872 8.10984 17.6023 8.45887 17.3463 8.98739L16.995 4.85892L16.734 8.13976L16.7014 9.03476C16.5759 8.80291 16.4755 8.50374 16.4153 8.32674C16.3726 8.15721 16.3726 7.83311 16.3726 7.79821C16.3726 7.45417 16.217 7.17246 16.217 7.17246C16.0765 6.81845 15.7076 6.45945 15.3336 6.72371C15.5871 6.79601 15.8029 6.98299 15.8807 7.21235C15.8807 7.21235 15.9535 7.5863 15.9209 7.77079C15.9159 7.84807 15.9159 7.92286 15.9159 8.01261C15.9159 8.35166 15.9736 8.62341 16.1166 8.96495L15.5093 8.03256L14.912 7.12011L13.7777 5.39742L15.7101 9.46605C15.6473 9.46605 15.4968 9.27907 15.4415 9.22921C15.3663 9.15941 15.2483 9.04722 15.1831 8.95997C14.9973 8.70318 14.8894 8.55111 14.656 8.26939C14.5004 8.07743 13.863 7.54392 13.3937 8.07743C13.3636 8.11233 13.3636 8.18214 13.3711 8.23449C13.8429 7.92785 14.3674 8.47382 14.6008 8.97243C14.7037 9.20179 14.8392 9.3788 15.0827 9.67048L13.4841 8.87022L12.9094 8.58601L12.8968 4.77915L21.1157 4.78912V8.56607H21.1132ZM21.1082 1.97698V3.57501L19.4996 3.55507L21.1082 4.39023V4.60214H19.8634L17.7981 3.55507V4.60214H16.2296V3.55507L13.7852 4.58718H12.9043V4.13844L14.267 3.55507H12.9043V1.95703L14.4352 1.97698L12.9018 1.22907V1.15926H14.5406L16.227 1.97947V1.16923H17.7955V1.74263L19.1658 1.16923H21.1057V1.18669L19.2335 1.97698H21.1082ZM12.9947 9.92726L13.0072 8.83282L13.2306 9.00484L14.1968 9.67297L15.2533 10.3586C14.8944 10.3536 14.1315 10.017 13.986 9.96466C13.8003 9.89485 13.3335 9.82006 12.9947 9.92726ZM21.176 9.94471C20.9501 9.84749 20.5661 9.85995 20.3704 9.90732C20.1972 9.95219 20.0216 10.0145 19.9839 10.0195C19.8233 10.0918 19.6426 10.1541 19.482 10.2289C19.3364 10.2962 19.1633 10.3212 18.9976 10.3411L21.176 8.85027V9.94471ZM13.0574 10.3162V10.3112C13.4665 10.2389 14.1792 10.7325 14.7865 10.8896L13.9383 10.9245C13.4665 10.8272 13.1929 10.7026 13.0574 10.3162Z" fill="#2E3293"/>
<path fill-rule="evenodd" clip-rule="evenodd" d="M21.1132 10.022V10.1566H21.1082C21.0681 10.1566 21.058 10.1392 21.0028 10.1566C20.6816 10.1566 20.3754 10.2264 20.0993 10.3735C19.743 10.5231 19.7656 10.5879 19.5573 10.6901C19.4192 10.7575 19.2737 10.8223 19.1055 10.8397L18.842 10.8721L19.7932 10.9644L18.4832 10.9793C18.4179 10.2165 17.7805 9.62063 16.9975 9.62063C16.2145 9.62063 15.5595 10.194 15.4942 10.9619H14.1943L15.1529 10.8696C14.9773 10.8472 14.8693 10.8372 14.6761 10.75C14.4603 10.6627 14.262 10.5356 13.9709 10.4159C13.6999 10.2588 13.3435 10.1342 12.9821 10.1342C12.9595 10.1342 12.9319 10.1392 12.8943 10.1392V10.0095C13.065 9.9522 13.1704 9.93724 13.3234 9.94721C13.5142 9.94721 13.6999 9.98212 13.863 10.0444C14.1039 10.1367 14.3373 10.2165 14.5707 10.3286C14.7363 10.3935 14.9045 10.4234 15.1002 10.4234H15.3487L12.8968 8.72064V8.70818L15.5896 10.0444L15.3738 9.85497C15.0199 9.51841 14.7363 9.11205 14.5331 8.65831C14.4126 8.40403 14.1692 8.21206 13.8881 8.10735C13.7526 8.06747 13.5869 8.10237 13.4665 8.17217C13.6196 8.00015 13.8831 7.90791 14.0964 7.9852C14.2871 8.07245 14.4578 8.1971 14.5883 8.34918C14.7815 8.57355 14.9572 8.8079 15.1203 9.04972C15.2608 9.25664 15.4516 9.42866 15.6649 9.56329L15.8556 9.67049L14.4829 6.70876H14.5004L16.2747 9.40623L16.1693 9.03726C16.0991 8.7705 16.0338 8.48879 16.0137 8.20957C16.0012 8.06497 16.0012 7.9129 16.0263 7.78326C16.0263 7.50155 15.9911 7.20986 15.813 6.99048C15.7301 6.86582 15.6147 6.78355 15.4717 6.73868C15.685 6.6938 15.8983 6.82095 16.0238 6.99048C16.1794 7.2323 16.2823 7.52149 16.2823 7.83063V7.8755C16.2823 8.26192 16.3726 8.61095 16.5357 8.94003L16.7315 9.30152L16.9925 5.84119L17.2685 9.30152L17.4618 8.94003C17.6199 8.63089 17.7177 8.27688 17.7177 7.88797V7.8406C17.7177 7.52398 17.8156 7.23479 17.9838 6.99297C18.0967 6.85087 18.2799 6.74117 18.4756 6.74117H18.5459C18.4029 6.78605 18.2824 6.88826 18.1971 6.99297C18.049 7.18742 17.9787 7.42676 17.9787 7.67357C17.9787 7.8057 17.9838 7.89046 17.9838 8.01511C17.9838 8.07245 17.9838 8.14475 17.9787 8.21206C17.9587 8.50624 17.911 8.77798 17.8282 9.04972L17.7177 9.40872L19.5046 6.71126L18.1318 9.67298L18.315 9.56578C18.5359 9.45359 18.7442 9.26911 18.8646 9.06717C19.0403 8.81538 19.221 8.57355 19.4142 8.34918C19.5523 8.1971 19.7179 8.07245 19.8986 8.00015C19.9688 7.9852 20.0441 7.96027 20.127 7.96027C20.2825 7.96027 20.4356 8.02508 20.5335 8.14475C20.4607 8.10486 20.3679 8.07245 20.2625 8.07245C20.2047 8.07245 20.1571 8.07245 20.0918 8.10486C19.8258 8.1971 19.5999 8.40652 19.4945 8.65831C19.2887 9.13199 18.9926 9.53337 18.6262 9.85497L18.4505 10.012L21.1057 8.70818V8.72812L18.6488 10.4259H18.8772C19.0855 10.4259 19.2737 10.396 19.4418 10.3087C19.6577 10.2165 19.8936 10.1367 20.142 10.0444C20.3152 9.98461 20.4758 9.94721 20.6715 9.95469C20.8246 9.95469 20.9802 9.98461 21.1132 10.022Z" fill="#FFDC00"/>
<path fill-rule="evenodd" clip-rule="evenodd" d="M17.4894 3.25341L21.043 3.2584V2.32351H17.4894V1.25151L16.5182 1.24652V2.31853L12.9671 2.31354V3.24593L16.5182 3.25092L16.5156 4.51489L17.4869 4.51987L17.4894 3.25341Z" fill="#EF4125"/>
<path fill-rule="evenodd" clip-rule="evenodd" d="M16.9046 5.906L16.9172 5.67415L16.9071 5.67914C16.7515 5.70158 16.5458 5.77637 16.4328 5.8362C16.1718 5.96085 15.8882 6.03315 15.5896 6.03315C15.291 6.03315 15.0877 5.96085 14.8292 5.85864C14.5782 5.73648 14.247 5.66667 13.9483 5.65171L13.9358 5.64673L14.0813 5.87609C14.3097 5.91099 14.5782 5.97082 14.7589 6.05309C15.0174 6.17276 15.301 6.24256 15.5921 6.24256C15.8832 6.24256 16.1969 6.17027 16.4353 6.04561C16.5483 5.99825 16.739 5.93841 16.9046 5.906Z" fill="#00A2E5"/>
<path fill-rule="evenodd" clip-rule="evenodd" d="M19.8258 6.03568L20.0015 5.77391C19.9212 5.79884 19.8308 5.82128 19.7756 5.84621C19.5171 5.95092 19.2436 6.00576 18.9424 6.00576C18.5961 6.00576 18.2824 5.93346 18.0139 5.80881C17.7679 5.68416 17.522 5.62433 17.2484 5.62433C17.2158 5.62433 17.1481 5.62931 17.0778 5.63679L17.1004 5.85618C17.1531 5.85119 17.2083 5.84372 17.2484 5.84372C17.522 5.84372 17.7679 5.90106 18.0139 6.01823C18.2799 6.14787 18.5961 6.21518 18.9249 6.21518C19.216 6.21518 19.5021 6.12543 19.7731 6.04565C19.7857 6.04316 19.8158 6.03817 19.8258 6.03568Z" fill="#00A2E5"/>
<path fill-rule="evenodd" clip-rule="evenodd" d="M18.4004 10.9793H18.3878C18.1243 10.9793 17.8809 11.0093 17.645 11.0766C17.394 11.1489 17.1732 11.2735 17.005 11.4405C16.8293 11.271 16.616 11.1364 16.3601 11.0766C16.1191 11.0018 15.8632 10.9644 15.6047 10.9644C15.695 10.2663 16.2823 9.72784 17.0025 9.73781C17.7152 9.73781 18.3125 10.2663 18.4004 10.9793Z" fill="#FFDC00"/>
<path fill-rule="evenodd" clip-rule="evenodd" d="M13.351 1.24152L15.2659 2.14898H16.0865L14.1692 1.2465L13.351 1.24152Z" fill="#EF4125"/>
<path fill-rule="evenodd" clip-rule="evenodd" d="M20.5586 1.24152L19.7405 1.2465L17.8231 2.14898H18.6463L20.5586 1.24152Z" fill="#EF4125"/>
<path fill-rule="evenodd" clip-rule="evenodd" d="M18.2197 3.5127L20.1345 4.42016H20.9576L19.0403 3.51768L18.2197 3.5127Z" fill="#EF4125"/>
<path fill-rule="evenodd" clip-rule="evenodd" d="M15.7879 3.5127L14.9722 3.51768L13.0524 4.42016H13.8756L15.7879 3.5127Z" fill="#EF4125"/>
<path fill-rule="evenodd" clip-rule="evenodd" d="M16.1869 7.1376C16.2747 7.10768 16.3575 7.07527 16.4353 7.03289C16.5257 6.993 16.6813 6.94563 16.8243 6.90824L16.8896 6.09302C16.729 6.12044 16.5433 6.18277 16.4378 6.24509C16.1819 6.36974 15.8983 6.44454 15.5996 6.44454C15.301 6.44454 15.035 6.37224 14.779 6.27002C14.6058 6.18526 14.4126 6.12543 14.2244 6.09302L14.8769 7.08026C15.1002 7.17001 15.3537 7.22485 15.6022 7.22485C15.6925 7.22485 15.7854 7.21738 15.8707 7.20491C15.7979 6.98054 15.5946 6.79356 15.3437 6.72874C15.6925 6.47445 16.0363 6.79855 16.1869 7.1376Z" fill="#00A2E5"/>
<path fill-rule="evenodd" clip-rule="evenodd" d="M18.1996 7.13256C18.4179 7.20735 18.6563 7.24474 18.9048 7.24474C18.9474 7.24474 19.0001 7.23976 19.0428 7.23477L19.6351 6.33977C19.4192 6.40958 19.1683 6.45944 18.9223 6.45944C18.5785 6.45944 18.2648 6.38714 17.9963 6.26249C17.7479 6.13784 17.5069 6.078 17.2309 6.078C17.2083 6.078 17.1506 6.08299 17.0929 6.08548L17.1581 6.87827H17.2309C17.4567 6.87827 17.6676 6.91317 17.8708 6.99295C18.0967 6.66387 18.5258 6.51179 18.7492 6.76857C18.4932 6.76857 18.3125 6.91317 18.1996 7.13256Z" fill="#00A2E5"/>
<path fill-rule="evenodd" clip-rule="evenodd" d="M21.1208 8.06998C20.9777 8.00765 20.6866 7.89796 20.4557 7.89048C20.3629 7.83314 20.2298 7.80571 20.0793 7.80073C19.8609 7.80073 19.6727 7.90793 19.4745 8.10239C19.2913 8.14726 19.1106 8.18216 18.9249 8.18216L19.0227 7.96776C19.2913 7.96028 19.5372 7.90294 19.7731 7.8107C19.9212 7.74588 20.2123 7.67358 20.388 7.67358C20.654 7.68106 20.8974 7.74588 21.0906 7.85059H21.1057L21.1182 7.85807V8.06998H21.1208Z" fill="#00A2E5"/>
<path fill-rule="evenodd" clip-rule="evenodd" d="M13.8981 7.87053H13.8379C13.5518 7.87053 13.1879 7.94532 12.9119 8.05501V7.84311C13.1879 7.74338 13.5518 7.65613 13.8379 7.65613L13.9709 7.66361C14.2696 7.68106 14.5306 7.74837 14.784 7.87302C14.8443 7.89546 14.9095 7.92288 14.9722 7.94283L15.0902 8.18216C14.9848 8.15473 14.8794 8.10986 14.7815 8.06748C14.5757 7.97524 14.2595 7.91042 14.0111 7.87552H13.9032C13.9032 7.87552 13.9032 7.87053 13.8981 7.87053Z" fill="#00A2E5"/>
<path fill-rule="evenodd" clip-rule="evenodd" d="M20.5737 9.88243C20.531 9.87744 20.4833 9.87744 20.4432 9.87744C20.3026 9.87744 19.9789 9.96221 19.8283 10.0021C19.6501 10.0569 19.4594 10.1143 19.2687 10.1467L19.7079 9.84504C19.7505 9.83257 19.7907 9.81761 19.8258 9.80515C19.9764 9.73784 20.2675 9.66803 20.4407 9.66803C20.7067 9.67551 20.9501 9.73534 21.1433 9.84504H21.1684V9.94476C21.0078 9.87744 20.7719 9.86498 20.5737 9.88243Z" fill="#00A2E5"/>
<path fill-rule="evenodd" clip-rule="evenodd" d="M20.6364 8.15474C20.6414 8.20709 20.6138 8.25446 20.5536 8.28936C20.5059 8.11734 20.127 8.06997 19.8409 8.32426C19.7455 8.43645 19.7555 8.40404 19.6426 8.58852C19.5723 8.71318 19.492 8.9176 19.3415 9.14696C19.4745 9.11455 19.6326 9.07467 19.7631 9.03478C19.9136 8.99489 20.2324 8.91013 20.3754 8.91013C20.393 8.91013 20.4231 8.91013 20.4482 8.91013L21.1157 8.57357L21.1107 8.30183C20.9777 8.22953 20.8045 8.17967 20.6364 8.15224V8.15474Z" fill="#00A2E5"/>
<path fill-rule="evenodd" clip-rule="evenodd" d="M13.6346 10.8522C13.336 10.7525 13.1453 10.6154 13.0273 10.3037H13.0223C13.4439 10.229 14.1692 10.7226 14.7665 10.8746L14.4804 10.8921C14.3599 10.8647 14.2294 10.8447 14.114 10.8273H13.9408C13.8454 10.8273 13.74 10.8348 13.6346 10.8522Z" fill="#00A2E5"/>
<path fill-rule="evenodd" clip-rule="evenodd" d="M19.8082 6.32233C19.9638 6.2625 20.1972 6.21014 20.3528 6.21014C20.6188 6.21762 20.8598 6.28244 21.0555 6.38715H21.0706L21.1182 6.42704V7.21484C20.9576 7.14254 20.5912 6.98049 20.3503 6.99794C20.2048 6.99794 19.8835 7.08271 19.7355 7.12259C19.6175 7.1575 19.5021 7.19739 19.3791 7.2273L19.8082 6.32233Z" fill="#00A2E5"/>
<path fill-rule="evenodd" clip-rule="evenodd" d="M12.8993 8.21206C13.0474 8.1597 13.2306 8.10735 13.4037 8.07245C13.4037 8.07245 13.4037 8.07993 13.3962 8.07993C13.3661 8.1248 13.3611 8.18214 13.3787 8.23699C13.8354 7.9478 14.3574 8.4115 14.5757 8.93504C14.3975 8.88268 14.1792 8.8428 14.0086 8.82285H13.8304C13.7099 8.82285 13.5794 8.83532 13.4439 8.85526L12.8993 8.58851V8.21206Z" fill="#00A2E5"/>
<path fill-rule="evenodd" clip-rule="evenodd" d="M21.0605 10.2763C21.1157 10.4857 20.6389 10.8622 20.0592 10.9669L19.3992 10.8871C19.876 10.7251 20.393 10.199 21.0605 10.2763Z" fill="#00A2E5"/>
<path fill-rule="evenodd" clip-rule="evenodd" d="M12.8893 6.23512C13.1653 6.1329 13.5292 6.04315 13.8203 6.04315L13.9559 6.05312C13.9985 6.05562 14.0512 6.05811 14.0939 6.0631L14.5055 6.93815C14.3398 6.89328 14.1541 6.85837 13.996 6.83843H13.8203C13.5292 6.83843 13.1704 6.91322 12.8893 7.02291V6.23512Z" fill="#00A2E5"/>
<path fill-rule="evenodd" clip-rule="evenodd" d="M12.9947 9.7702C13.2682 9.66799 13.6422 9.57574 13.9333 9.57574L14.0688 9.58322H14.0864L14.1993 9.66549L14.508 9.86494C14.3725 9.83502 14.2344 9.8076 14.114 9.79264H13.9358C13.7576 9.79264 13.5543 9.82006 13.3561 9.86743C13.2331 9.87242 13.1076 9.88737 12.9972 9.93225V9.7702H12.9947Z" fill="#00A2E5"/>
<path fill-rule="evenodd" clip-rule="evenodd" d="M20.0466 5.79382C20.1621 5.76639 20.2825 5.74396 20.3704 5.74396C20.6389 5.75393 20.8798 5.81626 21.0731 5.92595H21.0906L21.1057 5.93094V6.14035C20.9451 6.07304 20.6138 5.9434 20.3704 5.96085C20.2675 5.96085 20.0818 6.00573 19.9287 6.04063L20.0466 5.79382Z" fill="#00A2E5"/>
<path fill-rule="evenodd" clip-rule="evenodd" d="M14.0412 9.97711L14.0462 9.9821C14.3448 9.99955 14.6008 10.0669 14.8543 10.1915C14.9421 10.2239 15.045 10.2513 15.1379 10.2813L15.2282 10.3461C14.912 10.3261 14.2796 10.0743 14.0412 9.97711Z" fill="#00A2E5"/>
<path fill-rule="evenodd" clip-rule="evenodd" d="M12.9094 5.83369C13.1854 5.73397 13.5493 5.64172 13.8404 5.64172L13.9082 5.6492L14.0136 5.8636H13.8379C13.5468 5.8636 13.1879 5.93839 12.9068 6.04809V5.83369H12.9094Z" fill="#00A2E5"/>
<path fill-rule="evenodd" clip-rule="evenodd" d="M15.2056 8.39906L15.6022 9.23174C15.5319 9.23174 15.4666 9.21927 15.4014 9.21179C15.3361 9.15445 15.2608 9.07966 15.2132 9.00238L14.6786 8.30682C14.6636 8.28688 14.5858 8.21957 14.5481 8.17719C14.6259 8.2071 14.7163 8.23702 14.7916 8.27441C14.9221 8.32926 15.0626 8.36915 15.2056 8.39906Z" fill="#00A2E5"/>
<path fill-rule="evenodd" clip-rule="evenodd" d="M18.4606 9.15443C18.5108 9.16191 18.5534 9.16939 18.6036 9.17936C18.6212 9.15443 18.6463 9.13698 18.6614 9.11953C18.7818 8.95499 18.7818 8.94252 18.8947 8.79792C19.0027 8.65084 19.1056 8.51621 19.211 8.39655C19.1131 8.40901 19.0177 8.4115 18.9198 8.4115C18.8822 8.4115 18.8446 8.4115 18.8094 8.40652L18.4606 9.15443Z" fill="#00A2E5"/>
<path fill-rule="evenodd" clip-rule="evenodd" d="M18.4204 8.15471L18.5459 7.96524C18.3753 7.93782 18.2046 7.89294 18.0616 7.82812C18.0616 7.86303 18.0666 7.89793 18.0666 7.92037C18.0666 7.96026 18.0616 8.00014 18.0616 8.04003C18.1695 8.09239 18.3 8.12978 18.4204 8.15471Z" fill="#00A2E5"/>
<path fill-rule="evenodd" clip-rule="evenodd" d="M15.9209 8.20208C15.9159 8.14474 15.9159 8.0874 15.9159 8.03006V7.99017C15.8155 8.01012 15.7151 8.0176 15.6097 8.0176C15.5695 8.0176 15.5244 8.01261 15.4842 8.01261L15.5093 8.04751L15.6222 8.22452C15.7226 8.22701 15.8255 8.21704 15.9209 8.20208Z" fill="#00A2E5"/>
<path fill-rule="evenodd" clip-rule="evenodd" d="M16.7465 7.86056L16.7641 7.62372C16.6487 7.66111 16.5257 7.7035 16.4479 7.74837C16.4203 7.76084 16.3952 7.7733 16.3676 7.78327C16.3676 7.82815 16.3676 7.90792 16.3726 7.99269C16.3952 7.98022 16.4228 7.97025 16.4479 7.95529C16.5232 7.93036 16.6336 7.89297 16.7465 7.86056Z" fill="#00A2E5"/>
<path fill-rule="evenodd" clip-rule="evenodd" d="M17.6148 7.87304C17.6249 7.80572 17.6249 7.73343 17.6349 7.65863C17.5044 7.62622 17.3789 7.61127 17.2409 7.61127H17.2309L17.2535 7.83564C17.3789 7.83564 17.4969 7.84811 17.6148 7.87304Z" fill="#00A2E5"/>
<path fill-rule="evenodd" clip-rule="evenodd" d="M18.059 8.21704C18.049 8.39405 18.0214 8.60097 17.9461 8.86274L18.31 8.31178C18.2247 8.28685 18.1343 8.25194 18.059 8.21704Z" fill="#00A2E5"/>
<path fill-rule="evenodd" clip-rule="evenodd" d="M15.7427 8.42148L16.1066 8.98241C16.0263 8.7705 15.9686 8.591 15.9384 8.39655C15.8757 8.40901 15.8105 8.41649 15.7427 8.42148Z" fill="#00A2E5"/>
<path fill-rule="evenodd" clip-rule="evenodd" d="M16.6386 9.02481C16.6587 9.02481 16.6813 9.00985 16.7039 8.99988L16.7315 8.24699L16.7365 8.19214C16.6261 8.22455 16.5182 8.26942 16.4479 8.30433C16.4328 8.3118 16.4128 8.32427 16.3952 8.33424C16.4052 8.36416 16.4077 8.40405 16.4178 8.42648C16.4655 8.58354 16.5458 8.8154 16.6386 9.02481Z" fill="#00A2E5"/>
<path fill-rule="evenodd" clip-rule="evenodd" d="M17.6048 8.08245C17.4969 8.06001 17.3865 8.04755 17.2685 8.04755L17.3338 8.84781C17.3689 8.8528 17.3965 8.8528 17.4266 8.85529C17.5396 8.5636 17.5797 8.32926 17.6048 8.08245Z" fill="#00A2E5"/>
<path fill-rule="evenodd" clip-rule="evenodd" d="M21.1584 9.10707C21.0982 9.08214 21.0128 9.04724 20.92 9.01732L21.1584 8.85278V9.10707Z" fill="#00A2E5"/>
<path fill-rule="evenodd" clip-rule="evenodd" d="M13.198 8.97995C13.1277 8.9999 13.0574 9.02483 12.9972 9.04726V8.84283L13.198 8.97995Z" fill="#00A2E5"/>
</svg>
