<svg xmlns="http://www.w3.org/2000/svg" width="34" height="34" fill="none" viewBox="0 0 34 34"><path fill="#fff" fill-rule="evenodd" stroke="#000" stroke-width=".69" d="M20.91 33.54q-1.92.37-3.86.37c-4.23 0-8.4-1.36-11.75-3.99a6.3 6.3 0 0 1-2.43-5.27v-.03L2.9 7.54.17 3.98c-.2-.25-.03-.63.3-.63H11.5c.2 0 .38-.16.38-.37V.47c0-.22.17-.39.38-.39l9.58.01c.2 0 .37.17.37.38v2.51c0 .21.18.38.39.38h10.92c.3 0 .5.35.31.6l-2.64 3.6-.01 17.14v.07q.01 1.7-.76 3.2c-.61 1.2-1.53 1.92-2.72 2.72a19 19 0 0 1-6.8 2.85Z" clip-rule="evenodd"/><path fill="#2e3293" fill-rule="evenodd" d="M28.62 28.76a5.6 5.6 0 0 0 1.55-3.86v-.24l.02-17.8h.26l.42-.54h-9.5v-.58h9.95l.41-.54H21.36v-.58H32.2l.4-.54H21.38V.86h-8.75v3.2H1.4l.46.54h10.76v.6H2.32l.36.52h9.94v.55l-9.49.02.43.54h.2V24.4l.02.47c0 1.5.57 2.84 1.52 3.84a18 18 0 0 0 11.62 4.23h.1c4.4 0 8.45-1.57 11.6-4.18m.95-21.88.01 17.8a5.3 5.3 0 0 1-1.35 3.63 18 18 0 0 1-4.5 2.7c-.89.4-1.89.65-2.84.9q-1.38.29-2.8.4a17.4 17.4 0 0 1-9.35-2.02q-1.42-.76-2.7-1.72a4.8 4.8 0 0 1-1.61-3.81V6.88h8.2v3.2c.02.4.27.72.6.88v.01c.32.21.73.27 1.12.27h1.24q.37 0 .69.09.47.13.71.56.23-.43.72-.56.31-.09.68-.1h1.23q.6-.01 1.14-.26.47-.2.58-.7.02-.01.02-.1v-3.3zm-8.46 1.69-2.2 1.1c.14-.14.3-.3.36-.4.36-.6.34-.69.52-.9.3-.34.74-.26.76-.08.23-.14-.03-.46-.47-.46-.52-.02-.93.63-1.5 1.4a1 1 0 0 1-.24.2l1.86-3.95-2.25 3.4c.13-.44.1-.7.12-.96v-.3c0-.13.07-.36.11-.45.1-.24.3-.42.59-.42-.24-.27-.72-.09-.93.28q-.17.27-.2.6c-.05.48-.04.83-.3 1.36L17 4.86l-.27 3.28-.03.9c-.12-.24-.22-.54-.28-.71-.05-.17-.05-.5-.05-.53 0-.35-.15-.63-.15-.63-.14-.35-.51-.71-.89-.45a.8.8 0 0 1 .55.5s.07.37.04.55v.24c0 .34.05.61.2.95l-.61-.93-.6-.91-1.13-1.72 1.93 4.07c-.06 0-.21-.2-.27-.24l-.26-.27c-.18-.26-.3-.4-.52-.7-.16-.18-.8-.72-1.27-.18q-.04.06-.02.15c.47-.3 1 .24 1.23.74.1.23.24.4.48.7l-1.6-.8-.57-.28-.01-3.81h8.22zm0-6.6v1.6l-1.61-.01 1.6.83v.21h-1.24L17.8 3.56V4.6h-1.57V3.56l-2.44 1.03h-.89v-.45l1.37-.58H12.9v-1.6l1.54.02-1.54-.75v-.07h1.64l1.69.82v-.81h1.57v.57l1.37-.57h1.94v.02l-1.88.79zm-8.12 7.96.02-1.1.22.17.97.67 1.05.69c-.36 0-1.12-.34-1.26-.4a2 2 0 0 0-1-.03m8.19.01c-.23-.1-.61-.08-.81-.03l-.39.11-.5.2q-.23.1-.48.12l2.18-1.49zm-8.12.38c.4-.08 1.12.41 1.73.57l-.85.03c-.47-.1-.75-.22-.88-.6" clip-rule="evenodd"/><path fill="#ffdc00" fill-rule="evenodd" d="M21.11 10.02v.14q-.04-.01-.1 0-.5 0-.91.21c-.36.15-.33.22-.54.32q-.21.11-.45.15l-.27.03.95.1h-1.3a1.5 1.5 0 0 0-1.5-1.35c-.78 0-1.43.57-1.5 1.34h-1.3l.96-.09c-.17-.02-.28-.03-.47-.12-.22-.09-.42-.21-.7-.33a2 2 0 0 0-1-.29h-.09v-.12a1 1 0 0 1 .43-.06q.3 0 .54.1.36.13.71.28.24.1.53.1h.25l-2.45-1.7V8.7l2.69 1.33-.22-.19a4 4 0 0 1-.84-1.2 1.1 1.1 0 0 0-.64-.54.6.6 0 0 0-.42.06c.15-.17.41-.26.63-.18q.29.12.49.36.3.34.53.7.22.3.54.51l.2.11-1.38-2.96h.02l1.77 2.7-.1-.37A5 5 0 0 1 16 8.2a2 2 0 0 1 .02-.43c0-.28-.04-.57-.22-.79a.6.6 0 0 0-.34-.25c.21-.05.43.08.55.25q.25.37.26.84v.05q.01.57.26 1.06l.2.36.25-3.46.28 3.46.2-.36q.24-.46.25-1.05v-.05q.01-.48.26-.85c.12-.14.3-.25.5-.25h.07a1 1 0 0 0-.35.25q-.22.31-.22.68v.55q-.03.43-.15.83l-.11.36 1.78-2.7-1.37 2.96.19-.1q.35-.19.54-.5.27-.38.55-.72.2-.23.49-.35.1-.03.23-.04.24 0 .4.18a1 1 0 0 0-.27-.07q-.08 0-.17.03c-.26.1-.49.3-.6.56q-.31.7-.86 1.2l-.18.15 2.66-1.3v.02l-2.46 1.7h.23q.31 0 .56-.12.33-.13.7-.27.26-.1.53-.09.23 0 .44.07" clip-rule="evenodd"/><path fill="#ef4125" fill-rule="evenodd" d="M17.49 3.25h3.55v-.93H17.5V1.25h-.97v1.07h-3.55v.93h3.55v1.26l.97.01z" clip-rule="evenodd"/><path fill="#00a2e5" fill-rule="evenodd" d="m16.9 5.9.02-.23h-.01c-.16.03-.36.1-.48.17q-.39.19-.84.2c-.3 0-.5-.08-.76-.18-.25-.12-.58-.2-.88-.2l-.01-.01.14.23c.23.03.5.1.68.17q.4.19.83.2.46-.01.85-.2c.1-.05.3-.11.46-.14M19.83 6.04l.17-.27q-.13.04-.22.08-.39.16-.84.16a2 2 0 0 1-.93-.2 1.6 1.6 0 0 0-.93-.17l.02.22.15-.02q.4 0 .76.18.42.2.91.2c.3 0 .58-.1.85-.17z" clip-rule="evenodd"/><path fill="#ffdc00" fill-rule="evenodd" d="M18.4 10.98h-.01q-.39 0-.75.1-.38.11-.64.36-.25-.26-.64-.36-.36-.12-.76-.12a1.4 1.4 0 0 1 2.8.01" clip-rule="evenodd"/><path fill="#ef4125" fill-rule="evenodd" d="m13.35 1.24 1.92.9h.82l-1.92-.9zM20.56 1.24h-.82l-1.92.9h.83zM18.22 3.51l1.91.91h.83l-1.92-.9zM15.79 3.51h-.82l-1.92.91h.83z" clip-rule="evenodd"/><path fill="#00a2e5" fill-rule="evenodd" d="m16.19 7.14.25-.1.38-.13.07-.82a2 2 0 0 0-.45.16 2 2 0 0 1-1.66.02 2 2 0 0 0-.56-.18l.66.99a2 2 0 0 0 1 .12.8.8 0 0 0-.54-.47c.35-.26.7.07.85.4M18.2 7.13a2 2 0 0 0 .84.1l.6-.89q-.34.11-.72.12a2 2 0 0 1-.92-.2 2 2 0 0 0-.77-.18h-.14l.07.8h.07q.34 0 .64.11c.23-.33.66-.48.88-.22q-.39.01-.55.36M21.12 8.07a2 2 0 0 0-.66-.18 1 1 0 0 0-.38-.09q-.31 0-.6.3a2 2 0 0 1-.56.08l.1-.21q.4-.02.75-.16c.15-.06.44-.14.62-.14q.4.02.7.18h.02zM13.9 7.87h-.06c-.29 0-.65.08-.93.19v-.22a3 3 0 0 1 .93-.18h.13q.44.03.81.21l.2.07.11.24-.3-.11a3 3 0 0 0-.78-.2zM20.57 9.88h-.13c-.14 0-.46.08-.61.12l-.56.15.44-.3.12-.04c.15-.07.44-.14.61-.14q.41 0 .7.18h.03v.1c-.16-.07-.4-.09-.6-.07" clip-rule="evenodd"/><path fill="#00a2e5" fill-rule="evenodd" d="M20.64 8.15q0 .09-.09.14c-.04-.17-.42-.22-.7.03-.1.12-.1.08-.2.27q-.1.2-.3.56l.41-.12c.15-.04.47-.12.62-.12h.07l.67-.34V8.3q-.23-.1-.48-.15M13.63 10.85c-.3-.1-.48-.23-.6-.55.41-.07 1.14.42 1.74.57l-.29.02-.37-.06h-.17q-.15 0-.3.02M19.8 6.32c.16-.06.4-.11.55-.11q.41 0 .7.18h.02l.05.04v.78a2 2 0 0 0-.77-.21c-.15 0-.47.08-.61.12q-.18.06-.36.1zM12.9 8.21l.5-.14v.01a.2.2 0 0 0-.02.16c.46-.3.98.17 1.2.7-.18-.06-.4-.1-.57-.12h-.18q-.18 0-.39.04l-.54-.27zM21.06 10.28c.06.2-.42.58-1 .69l-.66-.08c.48-.16 1-.7 1.66-.61M12.89 6.24c.28-.1.64-.2.93-.2l.14.01.13.01.42.88-.51-.1h-.18c-.3 0-.65.07-.93.18zM13 9.77c.27-.1.64-.2.93-.2l.14.01h.02l.1.09.32.2-.4-.08h-.17q-.28 0-.58.08-.2 0-.36.06zM20.05 5.8q.18-.05.32-.06.41.02.7.19h.04v.21c-.16-.07-.5-.2-.74-.18-.1 0-.29.05-.44.08zM14.04 9.98q.44.03.81.21l.29.1.09.06a5 5 0 0 1-1.19-.37M12.9 5.83a3 3 0 0 1 .94-.19h.07l.1.22h-.17c-.3 0-.65.08-.93.19zM15.2 8.4l.4.83-.2-.02-.19-.2-.53-.7-.13-.13q.13.04.24.1.2.07.42.12M18.46 9.15l.14.03.06-.06.23-.32.32-.4-.29.01h-.11zM18.42 8.15l.13-.18a2 2 0 0 1-.49-.14v.21q.17.08.36.11M15.92 8.2V8q-.15.03-.31.03h-.13l.03.03.11.17q.15 0 .3-.02M16.75 7.86l.01-.24q-.18.06-.31.13l-.08.03V8l.08-.03zM17.61 7.87l.02-.21a2 2 0 0 0-.39-.05l.01.23q.2 0 .36.03M18.06 8.22q-.01.25-.11.64l.36-.55zM15.74 8.42l.37.56q-.12-.3-.17-.58zM16.64 9.02 16.7 9l.03-.75v-.06l-.28.11-.05.03q0 .05.02.1c.05.15.13.39.22.6M17.6 8.08q-.15-.03-.33-.03l.06.8h.1q.15-.41.17-.77M21.16 9.1l-.24-.08.24-.17zM13.2 8.98l-.2.07v-.2z" clip-rule="evenodd"/></svg>