<?xml version="1.0" encoding="utf-8"?>
<!-- Generator: Adobe Illustrator 26.1.0, SVG Export Plug-In . SVG Version: 6.00 Build 0)  -->
<svg version="1.1" xmlns="http://www.w3.org/2000/svg" xmlns:xlink="http://www.w3.org/1999/xlink" x="0px" y="0px"
	 viewBox="0 0 144 144" style="enable-background:new 0 0 144 144;" xml:space="preserve">
<style type="text/css">
	.Arched_x0020_Green{fill:url(#SVGID_1_);stroke:#FFFFFF;stroke-width:0.25;stroke-miterlimit:1;}
	.st0{fill-rule:evenodd;clip-rule:evenodd;fill:#FFFFFF;stroke:#000000;stroke-width:0.6875;}
	.st1{fill-rule:evenodd;clip-rule:evenodd;fill:#2E3293;}
	.st2{fill-rule:evenodd;clip-rule:evenodd;fill:#FFDC00;}
	.st3{fill-rule:evenodd;clip-rule:evenodd;fill:#EF4125;}
	.st4{fill-rule:evenodd;clip-rule:evenodd;fill:#00A2E5;}
	.st5{fill:#2E3293;}
</style>
<linearGradient id="SVGID_1_" gradientUnits="userSpaceOnUse" x1="36" y1="108" x2="36.7071" y2="107.2929">
	<stop  offset="0" style="stop-color:#20AC4B"/>
	<stop  offset="0.9831" style="stop-color:#19361A"/>
</linearGradient>
<g id="Hwy_2">
	<path class="st0" d="M89.91,135.3c-5.11,0.99-10.25,1.5-15.39,1.5c-16.86,0-33.46-5.48-46.84-16.01
		c-6.74-5.33-9.66-12.55-9.66-21.16v-0.09l0.13-68.52l-10.9-14.3c-0.76-1-0.1-2.5,1.2-2.5h44c0.82,0,1.52-0.64,1.52-1.48V2.64
		c0-0.86,0.65-1.53,1.51-1.53l38.15,0.04c0.84,0,1.5,0.68,1.5,1.51v10.07c0,0.84,0.69,1.52,1.54,1.52h43.5c1.25,0,2,1.42,1.26,2.41
		l-10.53,14.4l-0.04,68.79l0.04,0.26c-0.01,4.55-1.01,8.84-3.06,12.87c-2.45,4.81-6.12,7.7-10.85,10.91
		C108.98,129.38,99.38,133.38,89.91,135.3z"/>
	<path class="st1" d="M120.64,116.12c3.79-4.03,6.16-9.46,6.16-15.49c0-0.29,0-0.64,0-0.96l0.09-71.41h1.03l1.67-2.13H91.74V23.8
		h39.66l1.62-2.16H91.68v-2.32h43.2l1.63-2.18H91.74V4.21H56.88v12.84l-44.73-0.03l1.84,2.2h42.89v2.37H15.84l1.43,2.12h39.61v2.21
		l0,0l-37.81,0.1l1.7,2.16h0.8v70.45l0.09,1.9c0,5.98,2.26,11.38,6.02,15.39C40.26,126.55,56.44,132.88,74,132.9
		c0.03,0,0.1,0,0.14,0l0,0l0,0l0,0l0,0c0.09,0,0.13,0,0.25,0C91.95,132.9,108.09,126.62,120.64,116.12z M124.42,28.36l0.03,71.43
		c-0.12,5.65-1.63,10.32-5.37,14.52c-5.38,4.48-11.53,8.14-17.96,10.88c-3.51,1.54-7.5,2.59-11.31,3.57
		c-3.65,0.73-7.36,1.39-11.12,1.6c-7.62,0.59-15.49-0.37-22.9-2.35c-5.02-1.42-9.79-3.34-14.4-5.74c-3.76-2.04-7.37-4.35-10.73-6.92
		c-4.61-3.97-6.35-9.34-6.43-15.27V28.36h32.66v12.86c0.1,1.57,1.1,2.89,2.39,3.5v0.07c1.3,0.84,2.92,1.06,4.48,1.06h4.96
		c0.92,0,1.88,0.18,2.73,0.35c1.23,0.32,2.23,1.13,2.84,2.27c0.59-1.14,1.58-1.95,2.84-2.24c0.82-0.21,1.79-0.39,2.74-0.39h4.89l0,0
		c1.61,0,3.12-0.43,4.54-1.06c1.21-0.57,2.06-1.49,2.31-2.81c0,0,0.11-0.19,0.08-0.41l0,0l0,0l0.03-13.2H124.42z M90.71,35.13
		l-8.75,4.46c0.52-0.58,1.14-1.25,1.39-1.64c1.46-2.37,1.36-2.75,2.09-3.61c1.19-1.35,2.95-1.05,3.03-0.32
		c0.92-0.55-0.12-1.86-1.87-1.86c-2.08-0.08-3.71,2.55-5.99,5.64c-0.28,0.31-0.64,0.6-0.96,0.79l7.41-15.82l-8.97,13.61
		c0.53-1.74,0.43-2.8,0.5-3.83c0-0.3,0-0.82,0-1.18c0-0.55,0.27-1.46,0.44-1.84c0.38-0.98,1.2-1.68,2.33-1.68
		c-0.93-1.08-2.84-0.35-3.7,1.11c-0.43,0.72-0.71,1.55-0.8,2.45c-0.2,1.89-0.14,3.29-1.16,5.41L74.3,20.26l-1.04,13.16l-0.13,3.59
		c-0.5-0.93-0.9-2.13-1.14-2.84c-0.17-0.68-0.17-1.98-0.17-2.12c0-1.38-0.62-2.51-0.62-2.51c-0.56-1.42-2.03-2.86-3.52-1.8
		c1.01,0.29,1.87,1.04,2.18,1.96c0,0,0.29,1.5,0.16,2.24C70,32.25,70,32.55,70,32.91c0,1.36,0.23,2.45,0.8,3.82l-2.42-3.74
		l-2.38-3.66l-4.52-6.91l7.7,16.32c-0.25,0-0.85-0.75-1.07-0.95c-0.3-0.28-0.77-0.73-1.03-1.08c-0.74-1.03-1.17-1.64-2.1-2.77
		c-0.62-0.77-3.16-2.91-5.03-0.77c-0.12,0.14-0.12,0.42-0.09,0.63c1.88-1.23,3.97,0.96,4.9,2.96c0.41,0.92,0.95,1.63,1.92,2.8
		l-6.37-3.21l0,0l-2.29-1.14l-0.05-15.27l32.75,0.04V35.13z M90.69,8.7v6.41l-6.41-0.08l6.41,3.35v0.85h-4.96l-8.23-4.2v4.2h-6.25
		v-4.2l-9.74,4.14h-3.51v-1.8l5.43-2.34h-5.43V8.62L64.1,8.7l-6.11-3V5.42h6.53l6.72,3.29V5.46h6.25v2.3l5.46-2.3h7.73v0.07
		L83.22,8.7H90.69z M58.36,40.59l0.05-4.39l0.89,0.69l3.85,2.68l4.21,2.75c-1.43-0.02-4.47-1.37-5.05-1.58
		C61.57,40.46,59.71,40.16,58.36,40.59z M90.96,40.66c-0.9-0.39-2.43-0.34-3.21-0.15c-0.69,0.18-1.39,0.43-1.54,0.45
		c-0.64,0.29-1.36,0.54-2,0.84c-0.58,0.27-1.27,0.37-1.93,0.45l8.68-5.98V40.66z M58.61,42.15v-0.02c1.63-0.29,4.47,1.69,6.89,2.32
		l-3.38,0.14C60.24,44.2,59.15,43.7,58.61,42.15z"/>
	<path class="st2" d="M90.71,40.97v0.54h-0.02c-0.16,0-0.2-0.07-0.42,0c-1.28,0-2.5,0.28-3.6,0.87c-1.42,0.6-1.33,0.86-2.16,1.27
		c-0.55,0.27-1.13,0.53-1.8,0.6l-1.05,0.13l0,0l3.79,0.37l0,0l0,0l-5.22,0.06c-0.26-3.06-2.8-5.45-5.92-5.45
		c-3.11,0-5.73,2.3-5.99,5.38h-4.49l0,0c-0.2,0-0.48,0-0.69,0l3.82-0.37l0,0c-0.7-0.09-1.13-0.13-1.9-0.48
		c-0.86-0.35-1.65-0.86-2.81-1.34c-1.08-0.63-2.5-1.13-3.94-1.13c-0.09,0-0.2,0.02-0.35,0.02v-0.52c0.68-0.23,1.1-0.29,1.71-0.25
		c0.76,0,1.5,0.14,2.15,0.39c0.96,0.37,1.89,0.69,2.82,1.14c0.66,0.26,1.33,0.38,2.11,0.38h0.99l0,0l-9.77-6.83V35.7l10.73,5.36
		l-0.86-0.76c-1.41-1.35-2.54-2.98-3.35-4.8c-0.48-1.02-1.45-1.79-2.57-2.21c-0.54-0.16-1.2-0.02-1.68,0.26
		c0.61-0.69,1.66-1.06,2.51-0.75c0.76,0.35,1.44,0.85,1.96,1.46c0.77,0.9,1.47,1.84,2.12,2.81c0.56,0.83,1.32,1.52,2.17,2.06
		l0.76,0.43l-5.47-11.88h0.07l7.07,10.82l-0.42-1.48c-0.28-1.07-0.54-2.2-0.62-3.32c-0.05-0.58-0.05-1.19,0.05-1.71
		c0-1.13-0.14-2.3-0.85-3.18c-0.33-0.5-0.79-0.83-1.36-1.01c0.85-0.18,1.7,0.33,2.2,1.01c0.62,0.97,1.03,2.13,1.03,3.37
		c0,0.09,0,0.13,0,0.18c0,1.55,0.36,2.95,1.01,4.27l0.78,1.45l0,0l1.04-13.88l1.1,13.88l-0.07,0.07l0.07-0.07l0.77-1.45
		c0.63-1.24,1.02-2.66,1.02-4.22c0-0.05,0-0.13,0-0.19c0-1.27,0.39-2.43,1.06-3.4c0.45-0.57,1.18-1.01,1.96-1.01
		c0.11,0,0.2,0,0.28,0c-0.57,0.18-1.05,0.59-1.39,1.01c-0.59,0.78-0.87,1.74-0.87,2.73c0,0.53,0.02,0.87,0.02,1.37
		c0,0.23,0,0.52-0.02,0.79c-0.08,1.18-0.27,2.27-0.6,3.36l-0.44,1.44l7.12-10.82l-5.47,11.88l0.73-0.43c0.88-0.45,1.71-1.19,2.19-2
		c0.7-1.01,1.42-1.98,2.19-2.88c0.55-0.61,1.21-1.11,1.93-1.4c0.28-0.06,0.58-0.16,0.91-0.16c0.62,0,1.23,0.26,1.62,0.74
		c-0.29-0.16-0.66-0.29-1.08-0.29c-0.23,0-0.42,0-0.68,0.13c-1.06,0.37-1.96,1.21-2.38,2.22c-0.82,1.9-2,3.51-3.46,4.8l-0.7,0.63
		l10.58-5.23v0.08l-9.79,6.81h0.91c0.83,0,1.58-0.12,2.25-0.47c0.86-0.37,1.8-0.69,2.79-1.06c0.69-0.24,1.33-0.39,2.11-0.36
		C89.56,40.7,90.18,40.82,90.71,40.97z"/>
	<polygon class="st3" points="76.27,13.82 90.43,13.84 90.43,10.09 76.27,10.09 76.27,5.79 72.4,5.77 72.4,10.07 58.25,10.05 
		58.25,13.79 72.4,13.81 72.39,18.88 76.26,18.9 	"/>
	<path class="st4" d="M73.94,24.46l0.05-0.93c-0.01,0.02-0.04,0.02-0.04,0.02c-0.62,0.09-1.44,0.39-1.89,0.63
		c-1.04,0.5-2.17,0.79-3.36,0.79c-1.16,0-2-0.29-3.03-0.7c-1-0.49-2.32-0.77-3.51-0.83l-0.05-0.02l0.58,0.92
		c0.91,0.14,1.98,0.38,2.7,0.71c1.03,0.48,2.16,0.76,3.32,0.76c1.19,0,2.41-0.29,3.36-0.79C72.52,24.83,73.28,24.59,73.94,24.46z"/>
	<path class="st4" d="M85.58,24.98l0.7-1.05c-0.32,0.1-0.68,0.19-0.9,0.29c-1.03,0.42-2.12,0.64-3.32,0.64
		c-1.38,0-2.63-0.29-3.7-0.79c-0.98-0.5-1.96-0.74-3.05-0.74c-0.13,0-0.4,0.02-0.68,0.05l0.09,0.88c0.21-0.02,0.43-0.05,0.59-0.05
		c1.09,0,2.07,0.23,3.05,0.7c1.06,0.52,2.32,0.79,3.63,0.79c1.16,0,2.3-0.36,3.38-0.68C85.42,25.01,85.54,24.99,85.58,24.98z"/>
	<path class="st2" d="M79.9,44.81L79.9,44.81c-0.05,0-0.05,0-0.05,0c-1.05,0-2.02,0.12-2.96,0.39c-1,0.29-1.88,0.79-2.55,1.46
		c-0.7-0.68-1.55-1.22-2.57-1.46c-0.96-0.3-1.98-0.45-3.01-0.45l0,0l0,0c0.36-2.8,2.7-4.96,5.57-4.92
		C77.17,39.83,79.55,41.95,79.9,44.81z"/>
	<polygon class="st3" points="59.78,5.75 67.41,9.39 70.68,9.39 63.04,5.77 	"/>
	<polygon class="st3" points="88.5,5.75 85.24,5.77 77.6,9.39 80.88,9.39 	"/>
	<polygon class="st3" points="79.18,14.86 86.81,18.5 90.09,18.5 82.45,14.88 	"/>
	<polygon class="st3" points="69.49,14.86 66.24,14.88 58.59,18.5 61.87,18.5 	"/>
	<path class="st4" d="M71.08,29.4c0.35-0.12,0.68-0.25,0.99-0.42c0.36-0.16,0.98-0.35,1.55-0.5l0.26-3.27
		c-0.64,0.11-1.38,0.36-1.8,0.61c-1.02,0.5-2.15,0.8-3.34,0.8c-1.16,0-2.25-0.29-3.27-0.7c-0.69-0.34-1.46-0.58-2.21-0.71l2.6,3.96
		c0.89,0.36,1.9,0.58,2.89,0.58c0.36,0,0.73-0.03,1.07-0.08c-0.29-0.9-1.1-1.65-2.1-1.91C69.11,26.74,70.48,28.04,71.08,29.4z"/>
	<path class="st4" d="M79.1,29.38c0.87,0.3,1.82,0.45,2.81,0.45c0.17,0,0.38-0.02,0.55-0.04l2.36-3.59
		c-0.86,0.28-1.86,0.48-2.84,0.48c-1.37,0-2.62-0.29-3.69-0.79c-0.99-0.5-1.95-0.74-3.05-0.74c-0.09,0-0.32,0.02-0.55,0.03
		l0.26,3.18c0.12,0,0.2,0,0.29,0c0.9,0,1.74,0.14,2.55,0.46c0.9-1.32,2.61-1.93,3.5-0.9C80.27,27.92,79.55,28.5,79.1,29.38z"/>
	<path class="st4" d="M90.74,33.14c-0.57-0.25-1.73-0.69-2.65-0.72c-0.37-0.23-0.9-0.34-1.5-0.36c-0.87,0-1.62,0.43-2.41,1.21
		c-0.73,0.18-1.45,0.32-2.19,0.32l0.39-0.86c1.07-0.03,2.05-0.26,2.99-0.63c0.59-0.26,1.75-0.55,2.45-0.55
		c1.06,0.03,2.03,0.29,2.8,0.71c0.06,0,0.06,0,0.06,0l0,0l0,0l0,0l0,0l0,0l0.05,0.03V33.14z"/>
	<path class="st4" d="M61.96,32.34c-0.1,0-0.17,0-0.24,0c-1.14,0-2.59,0.3-3.69,0.74v-0.85c1.1-0.4,2.55-0.75,3.69-0.75l0.53,0.03
		c1.19,0.07,2.23,0.34,3.24,0.84c0.24,0.09,0.5,0.2,0.75,0.28l0.47,0.96c-0.42-0.11-0.84-0.29-1.23-0.46
		c-0.82-0.37-2.08-0.63-3.07-0.77c0,0-0.22,0-0.43,0C61.97,32.34,61.97,32.34,61.96,32.34z"/>
	<path class="st4" d="M88.56,40.41c-0.17-0.02-0.36-0.02-0.52-0.02c-0.56,0-1.85,0.34-2.45,0.5c-0.71,0.22-1.47,0.45-2.23,0.58
		l1.75-1.21c0.17-0.05,0.33-0.11,0.47-0.16c0.6-0.27,1.76-0.55,2.45-0.55c1.06,0.03,2.03,0.27,2.8,0.71c0.08,0,0.08,0,0.08,0l0,0
		l0,0l0,0l0,0l0,0h0.02v0.4C90.29,40.39,89.35,40.34,88.56,40.41z"/>
	<path class="st4" d="M88.81,33.48c0.02,0.21-0.09,0.4-0.33,0.54c-0.19-0.69-1.7-0.88-2.84,0.14c-0.38,0.45-0.34,0.32-0.79,1.06
		c-0.28,0.5-0.6,1.32-1.2,2.24c0.53-0.13,1.16-0.29,1.68-0.45c0.6-0.16,1.87-0.5,2.44-0.5c0.07,0,0.19,0.01,0.29,0.01l2.66-1.35
		l-0.02-1.09C90.17,33.79,89.48,33.59,88.81,33.48z"/>
	<path class="st4" d="M60.91,44.3c-1.19-0.4-1.95-0.95-2.42-2.2l-0.02-0.01c1.68-0.29,4.57,1.69,6.95,2.3l-1.14,0.07
		c-0.48-0.11-1-0.19-1.46-0.26c0,0-0.5,0-0.69,0C61.75,44.2,61.33,44.23,60.91,44.3z"/>
	<path class="st4" d="M85.51,26.13c0.62-0.24,1.55-0.45,2.17-0.45c1.06,0.03,2.02,0.29,2.8,0.71c0.06,0,0.06,0,0.06,0l0,0l0,0l0,0
		l0,0l0,0l0.19,0.16l-0.01,3.16c-0.63-0.29-2.09-0.94-3.05-0.87c-0.58,0-1.86,0.34-2.45,0.5c-0.47,0.14-0.93,0.3-1.42,0.42
		L85.51,26.13z"/>
	<path class="st4" d="M57.98,33.71c0.59-0.21,1.32-0.42,2.01-0.56c-0.01,0-0.01,0.03-0.03,0.03c-0.12,0.18-0.14,0.41-0.07,0.63
		c1.82-1.16,3.9,0.7,4.77,2.8c-0.71-0.21-1.58-0.37-2.26-0.45c0,0-0.5,0-0.71,0c-0.48,0-1,0.05-1.54,0.13l-2.17-1.07V33.71z"/>
	<path class="st4" d="M90.5,41.99c0.22,0.84-1.68,2.35-3.99,2.77l-2.63-0.32C85.78,43.79,87.84,41.68,90.5,41.99z"/>
	<path class="st4" d="M57.94,25.78c1.1-0.41,2.55-0.77,3.71-0.77l0.54,0.04c0.17,0.01,0.38,0.02,0.55,0.04l1.64,3.51
		c-0.66-0.18-1.4-0.32-2.03-0.4c0,0-0.5,0-0.7,0c-1.16,0-2.59,0.3-3.71,0.74V25.78z"/>
	<path class="st4" d="M58.36,39.96c1.09-0.41,2.58-0.78,3.74-0.78l0.54,0.03c0.01,0,0.03,0,0.07,0l0.45,0.33l1.23,0.8
		c-0.54-0.12-1.09-0.23-1.57-0.29c0,0-0.49,0-0.71,0c-0.71,0-1.52,0.11-2.31,0.3c-0.49,0.02-0.99,0.08-1.43,0.26V39.96z"/>
	<path class="st4" d="M86.46,24.01c0.46-0.11,0.94-0.2,1.29-0.2c1.07,0.04,2.03,0.29,2.8,0.73c0.07,0,0.07,0,0.07,0l0,0l0,0l0,0l0,0
		l0,0l0.06,0.02l-0.01,0.84c-0.63-0.27-1.95-0.79-2.92-0.72c-0.41,0-1.15,0.18-1.76,0.32L86.46,24.01z"/>
	<path class="st4" d="M62.53,40.79l0.02,0.02c1.19,0.07,2.21,0.34,3.22,0.84c0.35,0.13,0.76,0.24,1.13,0.36l0.36,0.26
		C66,42.19,63.48,41.18,62.53,40.79z"/>
	<path class="st4" d="M58.02,24.17c1.1-0.4,2.55-0.77,3.71-0.77L62,23.43l0.42,0.86c-0.1,0-0.52,0-0.7,0c-1.16,0-2.59,0.3-3.71,0.74
		V24.17z"/>
	<path class="st4" d="M67.17,34.46l1.58,3.34c-0.28,0-0.54-0.05-0.8-0.08c-0.26-0.23-0.56-0.53-0.75-0.84l-2.13-2.79
		c-0.06-0.08-0.37-0.35-0.52-0.52c0.31,0.12,0.67,0.24,0.97,0.39C66.04,34.18,66.6,34.34,67.17,34.46z"/>
	<path class="st4" d="M80.14,37.49c0.2,0.03,0.37,0.06,0.57,0.1c0.07-0.1,0.17-0.17,0.23-0.24c0.48-0.66,0.48-0.71,0.93-1.29
		c0.43-0.59,0.84-1.13,1.26-1.61c-0.39,0.05-0.77,0.06-1.16,0.06c-0.15,0-0.3,0-0.44-0.02L80.14,37.49z"/>
	<path class="st4" d="M79.98,33.48l0.5-0.76c-0.68-0.11-1.36-0.29-1.93-0.55c0,0.14,0.02,0.28,0.02,0.37c0,0.16-0.02,0.32-0.02,0.48
		C78.98,33.23,79.5,33.38,79.98,33.48z"/>
	<path class="st4" d="M70.02,33.67C70,33.44,70,33.21,70,32.98c0-0.05,0-0.11,0-0.16c-0.4,0.08-0.8,0.11-1.22,0.11
		c-0.16,0-0.34-0.02-0.5-0.02l0.1,0.14l0.45,0.71C69.23,33.77,69.64,33.73,70.02,33.67z"/>
	<path class="st4" d="M73.31,32.3l0.07-0.95c-0.46,0.15-0.95,0.32-1.26,0.5c-0.11,0.05-0.21,0.1-0.32,0.14c0,0.18,0,0.5,0.02,0.84
		c0.09-0.05,0.2-0.09,0.3-0.15C72.42,32.58,72.86,32.43,73.31,32.3z"/>
	<path class="st4" d="M76.77,32.35c0.04-0.27,0.04-0.56,0.08-0.86c-0.52-0.13-1.02-0.19-1.57-0.19c-0.02,0-0.02,0-0.04,0l0.09,0.9
		C75.83,32.2,76.3,32.25,76.77,32.35z"/>
	<path class="st4" d="M78.54,33.73c-0.04,0.71-0.15,1.54-0.45,2.59l1.45-2.21C79.2,34.01,78.84,33.87,78.54,33.73z"/>
	<path class="st4" d="M69.31,34.55l1.45,2.25c-0.32-0.85-0.55-1.57-0.67-2.35C69.84,34.5,69.58,34.53,69.31,34.55z"/>
	<path class="st4" d="M72.88,36.97c0.08-0.01,0.17-0.06,0.26-0.1l0.11-3.02l0.02-0.22c-0.44,0.13-0.87,0.31-1.15,0.45
		c-0.06,0.03-0.14,0.08-0.21,0.12c0.04,0.12,0.05,0.28,0.09,0.37C72.19,35.2,72.51,36.13,72.88,36.97z"/>
	<path class="st4" d="M76.73,33.19c-0.43-0.09-0.87-0.14-1.34-0.14l0.26,3.21c0.14,0.02,0.25,0.02,0.37,0.03
		C76.47,35.12,76.63,34.18,76.73,33.19z"/>
	<path class="st4" d="M90.89,37.3c-0.24-0.1-0.58-0.24-0.95-0.36l0.95-0.66V37.3z"/>
	<path class="st4" d="M59.17,36.79c-0.28,0.08-0.56,0.18-0.8,0.27v-0.82L59.17,36.79z"/>
	<path class="st1" d="M85.83,25L85.83,25C85.79,25,85.79,25,85.83,25z"/>
</g>
<g id="Layer_3">
	<g>
		<path class="st5" d="M63.41,109.12H52.98v-39.3c-3.81,3.56-8.3,6.2-13.47,7.9v-9.46c2.72-0.89,5.68-2.58,8.87-5.07
			c3.19-2.49,5.38-5.39,6.57-8.7h8.46V109.12z"/>
		<path class="st5" d="M73.02,96.46l10.09-1.11c0.25,2.08,0.89,3.61,1.93,4.6c1.04,0.99,2.39,1.48,4.04,1.48
			c2.2,0,4.06-0.99,5.58-2.97c1.52-1.98,2.48-6.1,2.88-12.36c-2.6,3.07-5.83,4.6-9.69,4.6c-4.35,0-8.08-1.66-11.19-4.97
			c-3.1-3.32-4.66-7.6-4.66-12.84c0-5.57,1.63-10.03,4.9-13.4c3.27-3.37,7.46-5.05,12.58-5.05c5.49,0,10.01,2.13,13.54,6.4
			c3.54,4.27,5.31,11.26,5.31,20.99c0,9.97-1.84,17.16-5.53,21.56c-3.69,4.4-8.47,6.61-14.36,6.61c-4.13,0-7.55-1.16-10.26-3.47
			S73.76,100.86,73.02,96.46z M96.65,73.71c0-3.39-0.78-6.01-2.34-7.85c-1.56-1.84-3.34-2.76-5.34-2.76c-1.93,0-3.54,0.75-4.82,2.26
			c-1.29,1.51-1.93,3.98-1.93,7.42c0,3.54,0.69,6.13,2.08,7.77c1.39,1.65,3.12,2.47,5.2,2.47c2,0,3.7-0.79,5.08-2.36
			C95.96,79.09,96.65,76.77,96.65,73.71z"/>
	</g>
</g>
</svg>
