<svg xmlns="http://www.w3.org/2000/svg" width="22" height="14" fill="none" viewBox="0 0 22 14"><path fill="#013366" d="M5 1.33C5 .6 5.58 0 6.33 0h5.34C12.4 0 13 .6 13 1.33v5.34C13 7.42 12.4 8 11.67 8H6.33C5.58 8 5 7.42 5 6.67zM16.65.75c.2.13.35.35.35.58v5.34c0 .25-.15.48-.35.6q-.36.16-.7-.04l-2-1.33-.28-.2V2.32l.29-.19 2-1.33c.2-.14.46-.14.69-.04"/><path fill="#013366" d="M10.06 9.66a.4.4 0 0 0-.7.29v1c-2.01-.09-3.86-.47-5.29-1.08-1.4-.6-2.25-1.39-2.25-2.1 0-.67.45-1.42 1.76-2.01V4c-.16.06-.2.1-.35.16C1.15 5.06 0 6.33 0 7.75s1.36 2.72 3.44 3.61c1.62.7 3.69 1.12 5.92 1.22v1a.4.4 0 0 0 .4.42.4.4 0 0 0 .3-.12l1.84-1.86a.36.36 0 0 0 0-.5zM18.66 4.18c-.16-.06-.5-.12-.66-.18v1.68c1.35.57 2.33 1.29 2.33 1.93 0 .68-.87 1.43-2.33 2q-1.6.62-3.3.84c-.2.04-.4.14-.52.3a.74.74 0 0 0 .14 1.09q.3.2.65.15 1.9-.26 3.69-.94C20.8 10.19 22 8.97 22 7.6s-1.19-2.57-3.34-3.43"/></svg>