<svg width="44" height="32" viewBox="0 0 44 32" fill="none" xmlns="http://www.w3.org/2000/svg">
<path d="M15.76 9.88728C15.76 9.12861 16.3667 8.5 17.1467 8.5H22.6933C23.4517 8.5 24.08 9.12861 24.08 9.88728V15.4364C24.08 16.2168 23.4517 16.8237 22.6933 16.8237H17.1467C16.3667 16.8237 15.76 16.2168 15.76 15.4364V9.88728ZM27.8717 9.28035C28.0883 9.41041 28.24 9.64884 28.24 9.88728V15.4364C28.24 15.6965 28.0883 15.935 27.8717 16.065C27.6333 16.1734 27.3733 16.1734 27.1567 16.0217L25.0767 14.6344L24.7733 14.4393V14.0491V11.2746V10.9061L25.0767 10.711L27.1567 9.3237C27.3733 9.17197 27.6333 9.17197 27.8717 9.28035Z" fill="#013366"/>
<path d="M21.2616 18.6809C21.1754 18.5948 21.0587 18.5465 20.9369 18.5465C20.8151 18.5465 20.6983 18.5948 20.6122 18.6809C20.5261 18.7669 20.4777 18.8836 20.4777 19.0053V20.1203C18.2313 20.0153 16.1609 19.5962 14.5586 18.9139C12.9824 18.2422 12.0412 17.3745 12.0412 16.5915C12.0412 15.8401 12.5459 15.0106 14.0084 14.3516L14.0085 12.4017C13.8311 12.4685 13.7835 12.5097 13.6146 12.5819C11.2838 13.5746 10 14.9886 10 16.5636C10 18.1385 11.5195 19.5804 13.8504 20.573C15.6658 21.3462 17.9858 21.817 20.4778 21.9261V23.0412C20.4778 23.1629 20.5262 23.2796 20.6123 23.3656C20.6984 23.4517 20.8152 23.5 20.937 23.5C21.0588 23.5 21.1755 23.4517 21.2616 23.3656L23.3232 21.3056C23.398 21.2306 23.44 21.1291 23.44 21.0232C23.44 20.9174 23.398 20.8158 23.3232 20.7409L21.2616 18.6809Z" fill="#013366"/>
<path d="M30.3878 12.6091C30.2191 12.5371 29.8573 12.4683 29.6801 12.4017L29.68 14.3462C31.1414 15.0032 32.1956 15.8304 32.1956 16.5797C32.1956 17.3605 31.2552 18.2258 29.68 18.8955C28.5369 19.3617 27.341 19.6869 26.1187 19.8639C25.893 19.8997 25.6893 20.0198 25.5491 20.1998C25.4089 20.3799 25.3427 20.6064 25.3639 20.8334C25.3869 21.0812 25.5118 21.3085 25.7091 21.4611C25.9062 21.6138 26.1579 21.6782 26.4045 21.6391C27.7717 21.439 29.1094 21.0733 30.3879 20.5502C32.7171 19.5603 34 18.1502 34 16.5797C34 15.0092 32.7171 13.5989 30.3878 12.6091Z" fill="#013366"/>
</svg>
