<svg xmlns="http://www.w3.org/2000/svg" width="144" height="37" fill="none" viewBox="0 0 144 37"><g clip-path="url(#a)"><path fill="#fdb913" d="M49.34 0h-.44v36.79h.44z"/><path fill="#004b8d" d="M57.27 26.59c0-1.34-.1-1.74-.9-1.85l-.43-.06c-.15-.1-.17-.4.02-.48 1.63-.09 3.18-.15 4.8-.15 1.63 0 2.97.12 4.22.58a5.7 5.7 0 0 1 3.88 5.62c0 2.52-1.17 4.5-3.35 5.69a9 9 0 0 1-4.29.91c-1.22 0-2.44-.15-3.12-.15-.8 0-1.5.02-2.39.06-.12-.06-.15-.36-.04-.48l.44-.06c1.11-.15 1.15-.38 1.15-2.38zm1.57 6.8c0 1.02.06 1.63.38 2.09.42.59 1.15.78 2.36.78 3.71 0 5.37-2.42 5.37-5.97 0-2.1-1-5.65-6.02-5.65-1.13 0-1.74.16-1.9.27q-.22.18-.2 1.45zM71.04 31.22c0-.74 0-.84-.52-1.18l-.17-.11c-.08-.08-.08-.29.02-.35.44-.15 1.45-.65 1.93-.93q.16.03.16.13v1.1q0 .15.05.18c.67-.55 1.4-1.15 2.1-1.15.49 0 .87.3.87.77 0 .62-.52.87-.83.87-.18 0-.28-.06-.41-.13q-.44-.3-.84-.3c-.31 0-.54.16-.7.37-.18.27-.24.83-.24 1.47v2.6c0 1.37.04 1.6.77 1.66l.68.06c.14.09.1.41-.03.47-.9-.03-1.46-.06-2.13-.06q-1 0-1.76.06c-.14-.06-.17-.38-.04-.47l.36-.06c.71-.12.73-.3.73-1.66zM77.4 31.22c0-.74 0-.84-.52-1.18l-.17-.11c-.08-.08-.08-.29.02-.35.44-.15 1.53-.65 1.97-.93q.16 0 .19.11a47 47 0 0 0-.08 2.37v3.43c0 1.37.04 1.56.73 1.66l.4.06c.14.1.1.42-.04.48a28 28 0 0 0-3.6 0c-.13-.06-.17-.39-.04-.48l.4-.06c.71-.1.73-.29.73-1.66v-3.34m1.59-5.43c0 .69-.48.99-1.02.99a.94.94 0 0 1-.97-.95 1 1 0 0 1 1.03-1.03c.58 0 .96.45.96.99M82.01 31.07c-.29-.7-.46-1.31-1.15-1.4l-.38-.07c-.12-.15-.1-.41.06-.47.47.03 1.14.06 1.8.06.51 0 .9-.03 1.55-.06.13.07.15.38.01.47l-.22.04c-.6.1-.61.2-.42.77.44 1.31 1 2.65 1.43 3.64.18.39.25.56.31.61q.13-.1.37-.72l1.1-2.8a4 4 0 0 0 .33-1.19q.01-.24-.34-.28l-.44-.06c-.12-.13-.1-.4.03-.48q.9.06 1.44.06c.48 0 .8-.02 1.34-.06.13.08.15.37.04.48l-.29.04c-.66.1-.84.59-1.4 1.66-.26.51-1.45 3.28-1.75 4.06-.2.47-.39.91-.64 1.56q-.06.09-.19.08-.16 0-.25-.08c-.15-.53-.44-1.28-.73-1.98zM90.74 31.81c-.5 0-.52.04-.52.52 0 1.93 1.13 3.56 3.17 3.56.64 0 1.17-.19 1.77-.93.19-.06.32.06.34.23-.63 1.3-2 1.77-3 1.77a3.4 3.4 0 0 1-2.78-1.26 4 4 0 0 1-.8-2.48c0-2.34 1.54-4.3 3.84-4.3 1.65 0 2.72 1.12 2.72 2.26q-.01.4-.08.5c-.06.11-.32.13-1.13.13zm1.18-.57c1.42 0 1.84-.08 2-.2.05-.03.1-.1.1-.36 0-.53-.36-1.2-1.46-1.2-1.11 0-2.11 1.04-2.13 1.67 0 .03 0 .09.14.09z"/><path fill="#fdb913" d="M98.28 26.59c0-1.42-.08-1.78-.94-1.85l-.62-.06c-.15-.12-.13-.4.02-.48 1.04-.09 2.34-.15 4.11-.15 1.2 0 2.36.1 3.22.54a2.5 2.5 0 0 1 1.46 2.38c0 1.38-.8 2.08-1.96 2.62 0 .19.15.25.36.28a3.16 3.16 0 0 1 2.57 3.19c0 2.21-1.65 3.7-5.1 3.7-.56 0-1.5-.06-2.3-.06s-1.49.04-2.2.06c-.11-.06-.15-.36-.03-.48l.34-.06c1.01-.17 1.05-.38 1.05-2.38v-7.25zm1.57 2.53c0 .54.02.58 1 .54 1.95-.08 3-.65 3-2.45s-1.4-2.57-2.85-2.57q-.64 0-.88.12c-.2.05-.27.15-.27.5zm0 4.43c0 .69.04 1.65.4 2.08s.94.53 1.51.53c1.7 0 3-.76 3-2.67 0-1.5-.76-3.26-3.8-3.26-1.04 0-1.12.11-1.12.5zM110.3 25.42a8.3 8.3 0 0 1 5.18-1.62c1.03 0 2.48.2 3.39.46.22.06.36.1.53.07.02.44.12 1.64.27 2.8-.1.14-.38.16-.52.04-.28-1.3-1.15-2.78-3.92-2.78-2.94 0-5.42 1.85-5.42 5.8s2.55 6.21 5.68 6.21c2.48 0 3.56-1.6 4-2.72.14-.1.43-.06.5.07-.13 1-.63 2.25-.91 2.61q-.36.07-.67.2c-.42.15-1.8.44-3.03.44a8.4 8.4 0 0 1-4.77-1.28 6.2 6.2 0 0 1-2.72-5.25c0-2.11.96-3.93 2.42-5.05"/><path fill="#fff" d="M37.88 12.76A16.96 16.96 0 0 0 21.62.11 17.1 17.1 0 0 0 5.2 13.23a16 16 0 0 0-.1 6.63l.38-.08a22 22 0 0 1 6-.31c3.28.41 5.33.96 8.79 1.74s6 1.51 9.74 1.1c3.27-.36 5.5-.87 7.68-2.3l.17-.11.23-.17q.27-1.38.29-2.83c0-1.37-.2-2.86-.5-4.13"/><path fill="#004b8d" d="M5.2 13.28a15.23 15.23 0 0 0-.09 6.59l.37-.09a22 22 0 0 1 6-.31c3.28.41 5.33.96 8.79 1.74s6 1.51 9.74 1.1c3.26-.36 5.5-.87 7.68-2.3l.17-.11.23-.17q.27-1.38.29-2.83c0-1.31-.18-2.73-.47-3.96l-2.3-1.29-2.68 1.87-1.8-.7c-.61.3-4.37 2.82-4.37 2.82l-1.44-1.04-1.55-.31-2.06-1.5-2.37 1.62s-2.64 1.53-2.73 1.53-3.18-2.45-3.18-2.45L12 12c-.24.16-1.22.6-1.22.6l-.04.01-.94-.29-1.14-.6zM5.95 24.69c0-.67-.04-.84-.5-.88l-.31-.02c-.08-.06-.08-.2 0-.23a27 27 0 0 1 2.17-.07c.63 0 1.24.04 1.69.25.43.19.77.55.77 1.13 0 .65-.43.98-1.03 1.24q.01.12.2.13c.54.09 1.34.54 1.34 1.5 0 1.06-.87 1.76-2.68 1.76l-1.2-.02-1.16.02c-.06-.02-.08-.17-.02-.22l.18-.03c.54-.08.56-.18.56-1.13zm.83 1.2c0 .25 0 .27.52.25 1.03-.03 1.58-.3 1.58-1.15s-.74-1.23-1.5-1.23q-.33 0-.46.06-.15.01-.15.23zm0 2.1c0 .32.02.78.2.98.2.21.5.26.8.26.9 0 1.58-.36 1.58-1.27 0-.71-.4-1.54-2-1.54-.55 0-.59.06-.59.24zM17.28 25.58c0-.82-.02-.95-.53-.99l-.21-.01c-.05-.03-.04-.17.02-.2l1.08.03 1.07-.02c.05.02.07.16.02.19l-.22.01c-.5.04-.52.17-.52.99v2.74c0 .82.01.93.52.99l.22.02c.05.03.03.17-.02.19a24 24 0 0 0-2.15 0c-.06-.02-.07-.15-.02-.2l.21-.01c.51-.06.53-.16.53-.99zM22.05 28.34c0 .81.01.92.48.96l.26.02c.05.04.03.17-.02.2l-1.06-.03-1.12.03c-.05-.03-.06-.16 0-.2l.3-.02c.45-.04.5-.15.5-.96v-3.45c0-.24 0-.25-.25-.25h-.44c-.35 0-.8.01-1 .2-.18.16-.26.33-.35.52-.07.05-.18 0-.21-.05.13-.35.25-.84.3-1.15.03-.02.13-.02.16 0 .05.25.31.24.68.24h3.26c.44 0 .51-.02.63-.22.04-.02.13-.01.15.02-.09.32-.15.94-.12 1.17-.03.07-.17.07-.2.02-.03-.2-.09-.48-.21-.56q-.28-.2-.93-.2h-.57c-.24 0-.24.01-.24.27zM25.5 25.58c0-.82-.02-.95-.53-.99l-.22-.01c-.05-.03-.03-.17.02-.2.43.02.72.03 1.09.03l1.06-.02c.06.02.07.16.02.19l-.21.01c-.51.04-.53.17-.53.99v2.74c0 .82.02.93.53.99l.21.02c.05.03.04.17-.02.19a24 24 0 0 0-2.15 0c-.05-.02-.07-.15-.02-.2l.22-.01c.5-.06.52-.16.52-.99zM29.35 29.6c-.77 0-1.25-.2-1.42-.28a3 3 0 0 1-.25-1.08c.05-.06.18-.08.22-.03.14.4.51 1.15 1.57 1.15.77 0 1.14-.42 1.14-.88 0-.35-.08-.72-.75-1.08l-.86-.48c-.46-.25-.99-.7-.99-1.32 0-.74.67-1.33 1.87-1.33.28 0 .6.04.84.1q.2.04.33.04c.08.19.16.62.16.94-.04.05-.18.07-.23.02-.12-.37-.36-.87-1.24-.87s-1.1.5-1.1.86c0 .45.45.77.79.95l.73.38c.57.3 1.14.75 1.14 1.48 0 .85-.76 1.43-1.95 1.43M33.95 27c-.4 0-.42.02-.42.25v1.09c0 .81.05.92.51.96l.24.02c.05.04.04.17-.01.2l-1.06-.03c-.36 0-.64.02-.97.03-.05-.03-.07-.15-.02-.2l.15-.02c.46-.08.48-.15.48-.96v-2.78c0-.8-.06-.94-.5-.97l-.21-.02c-.05-.03-.04-.17.02-.19l1.04.02c.33 0 .61 0 .97-.02.05.02.07.16.02.2h-.16c-.48.05-.5.17-.5.98v.89c0 .24.02.25.42.25h2.38c.4 0 .41-.01.41-.25v-.89c0-.8-.02-.92-.5-.97l-.16-.02c-.05-.03-.04-.17.02-.19a27 27 0 0 0 1.99 0c.04.02.06.16.01.2h-.17c-.48.05-.5.17-.5.98v2.78c0 .81.02.9.5.96l.2.02c.05.04.04.17-.02.2a21 21 0 0 0-2.01 0c-.05-.03-.07-.15-.02-.2l.15-.02c.51-.08.51-.15.51-.96v-1.1c0-.22-.02-.24-.41-.24zM1.18 31.21q1.05-.8 2.54-.79c.5 0 1.21.1 1.66.22q.14.05.26.04c0 .21.06.8.13 1.37-.05.06-.19.07-.26.02-.14-.64-.56-1.36-1.92-1.36-1.43 0-2.65.9-2.65 2.83s1.25 3.03 2.79 3.03a2 2 0 0 0 1.95-1.33c.07-.04.21-.03.25.04-.07.48-.3 1.1-.45 1.27q-.17.04-.33.1c-.2.07-.88.2-1.48.2-.85 0-1.65-.16-2.34-.62A3 3 0 0 1 0 33.67a3.1 3.1 0 0 1 1.18-2.47zM6.31 34.23c0-1.55 1.23-2.73 2.9-2.73 1.88 0 2.82 1.3 2.82 2.65 0 1.56-1.25 2.69-2.82 2.69-1.8 0-2.9-1.23-2.9-2.61m4.9.16c0-1.27-.59-2.65-2.14-2.65-.85 0-1.94.55-1.94 2.24 0 1.14.58 2.62 2.18 2.62.98 0 1.9-.7 1.9-2.2M21.2 33.56c0-.47-.01-1.36-.15-1.6q-.1-.13-.41-.15l-.2-.01c-.05-.06-.04-.16.01-.2a16 16 0 0 0 1.8 0c.07.05.06.15.02.2h-.2q-.32.04-.4.2c-.12.25-.12 1.13-.12 1.56v.88c0 .67-.12 1.38-.58 1.84-.35.36-.96.56-1.57.56a2.4 2.4 0 0 1-1.53-.42c-.43-.34-.64-.9-.64-1.82v-1.82c0-.8-.02-.94-.49-.98h-.2c-.05-.04-.04-.17.01-.2a21 21 0 0 0 2.03 0c.05.03.07.16.02.2h-.2c-.48.04-.49.17-.49.98v1.66c0 1.24.41 2.06 1.67 2.06 1.19 0 1.64-.88 1.64-2.05v-.89zM30.74 32.63c0-.57-.03-.71-.44-.75l-.29-.02c-.07-.04-.06-.16 0-.19.5-.04 1.1-.06 1.94-.06.57 0 1.1.04 1.5.22.4.16.7.47.7.96 0 .56-.38.84-.92 1.06q.01.1.17.11c.48.08 1.2.47 1.2 1.3 0 .89-.77 1.5-2.39 1.5-.26 0-.7-.03-1.08-.03l-1.03.02c-.05-.02-.07-.15-.02-.19l.16-.02c.48-.07.5-.16.5-.97zm.74 1.03c0 .22 0 .23.47.22.91-.04 1.4-.27 1.4-1 0-.72-.65-1.03-1.33-1.03q-.3 0-.41.04c-.1.03-.13.07-.13.2zm0 1.79c0 .27.02.67.19.84.16.18.44.22.7.22.8 0 1.41-.31 1.41-1.08 0-.61-.36-1.32-1.78-1.32-.5 0-.53.05-.53.2zM15.96 29.33l-.21-.02-.12-.02c-.32-.05-.45-.33-.6-.6l-.74-1.28c-.13-.22-.27-.5-.56-.55.77-.09 1.45-.53 1.45-1.28 0-.86-.86-1.26-1.73-1.26-.52 0-1.04.04-1.57.04q-.46-.02-.9-.04c-.17 0-.17.04-.17.13 0 .13.06.1.23.1.64 0 .6.16.6.69v3.38c0 .48.04.62-.47.67l-.12.01-.22.02c-.05.05-.03.17.02.2l.32-.01q.42-.02.85-.03.41 0 .83.03h.32c.05-.02.06-.14.01-.19l-.21-.02-.12-.01c-.52-.04-.49-.18-.49-.68v-1.27c0-.08 0-.28.05-.33q.08-.06.2-.04c.7 0 .69.07 1.02.64l.9 1.62c.06.12.12.28.3.28h1.1c.06-.02.07-.14.02-.19zm-3.13-2.54c-.16 0-.47.06-.47-.15v-1.48c0-.57.02-.66.72-.66.81 0 1.32.42 1.32 1.18q.02.51-.43.84c-.34.24-.72.27-1.14.27M13 32.8c0-.8-.02-.93-.56-.97l-.21-.01c-.05-.03-.04-.17.02-.2l1.1.03 1.05-.02c.06.02.07.16.02.19l-.2.01c-.5.04-.53.17-.53.97v2.69c0 .49.03.69.18.83.1.09.26.18.93.18.72 0 .9-.03 1.04-.1.17-.09.4-.37.56-.76.05-.04.22 0 .22.05 0 .08-.25.87-.36 1.08l-2.12-.02h-.79c-.35 0-.62 0-1.1.02-.05-.02-.07-.15-.02-.2l.25-.01c.5-.05.52-.16.52-.97v-2.78M35.82 32.82c0-.82-.02-.95-.5-.99l-.22-.01c-.05-.03-.03-.17.02-.2a31 31 0 0 0 2.09 0c.05.03.06.17.01.2l-.2.01c-.5.04-.51.17-.51.99v2.74c0 .82.01.93.5.98l.21.02c.05.04.04.17-.01.2a31 31 0 0 0-2.1 0c-.04-.03-.06-.15 0-.2l.2-.02c.5-.05.5-.16.5-.98zM29.14 36.54H29q-.13-.01-.23-.1c-.1-.1-.1-.44-.1-.57V32.5c0-.15-.03-.47.08-.58q.1-.08.26-.07h.12l.21-.03c.06-.03.04-.17-.01-.2l-.32.01h-.92c-.1 0-.18 0-.24.1L26 35.6l-1.65-3.73c-.05-.13-.06-.24-.23-.24h-1.28c-.05.02-.07.16-.02.19l.22.02h.12c.36.03.38.1.35.48l-.28 3.63c-.02.36-.05.55-.43.59l-.13.01-.2.02c-.06.05-.04.17 0 .2l.32-.01.59-.03.64.03.32.01c.05-.02.07-.15.02-.2l-.22-.01-.12-.02c-.55-.03-.54-.42-.5-.9l.26-3.37h.06l1.78 4.15c.02.06.05.16.14.16.08 0 .1-.09.13-.15l2.01-4.25h.06v3.7c0 .15.02.45-.13.57a1 1 0 0 1-.46.11l-.21.02c-.05.05-.04.17.02.2l.31-.01q.45-.03.89-.04l.63.02.32.02c.06-.02.07-.15.02-.2zM43.1 36.56l-.03-.02-.11-.02c-.34-.07-.47-.47-.6-.76l-1.71-4.06c-.02-.05-.06-.15-.12-.15-.1 0-.12.1-.15.17l-1.64 4.06c-.06.15-.22.52-.33.63-.08.1-.2.11-.31.12l-.14.01-.2.02c-.05.05-.04.17.02.2l.31-.02q.35-.02.68-.03.3 0 .57.03l.32.01c.05-.02.07-.15.02-.19l-.22-.02-.11-.02c-.2-.02-.45-.05-.45-.27 0-.15.07-.32.12-.45l.26-.6c.13-.3.07-.32.42-.32h1.16c.4 0 .34 0 .53.4l.27.63c.04.1.12.28.12.4 0 .2-.22.21-.43.23h-.13l-.2.02c-.06.05-.04.17.01.2l.32-.02.72-.03.9.03h.13c.05-.02.07-.14.01-.18m-2.26-1.9h-1c-.04 0-.32.02-.32-.06l.03-.1.6-1.48c.02-.04.08-.25.15-.25.05 0 .12.22.14.25l.6 1.39.05.18c0 .09-.2.06-.25.06"/><path fill="#fdb913" d="m35.24 11.61-3.4 1.26 1.08.36z"/><path fill="#fdb913" d="m8.15 11.66-1.9-.7q.02-.1.06-.17l2.1.73.2-.13 1 .54 1.25.46.07-.04-4.44-1.99.07-.17 4.9 1.94.07-.03-4.77-2.34.08-.16 5.18 2.25-4.97-2.67.08-.15 6.98 3.68q.14-.28.32-.54l-5.7-4.43 6.07 3.88q.22-.3.48-.57L9.44 5.78l.13-.14 4.24 3.73-3.92-4.06.13-.14 4.43 4.23-4.1-4.56.14-.12 3.97 4.03-3.62-4.34.14-.11 5.07 6q.3-.27.61-.49l-3.62-6.24 4.18 5.88q.34-.2.7-.38L14.5 2.03l.17-.09L17.21 7 15.1 1.75l.17-.07 2.52 5.58L15.7 1.5l.17-.06 2.17 5.21-1.72-5.37.15-.05 2.44 7.43q.34-.12.7-.2L18.6 1.32l1.66 7q.42-.06.84-.08L20.6.46l.18-.01.54 5.6-.08-5.61h.2l.22 5.88.24-5.88h.18l-.05 5.6.52-5.58h.18l-.54 7.78q.42.03.8.09l1.67-6.98-1 7.1.72.22 2.43-7.4.17.06-1.7 5.32L27.4 1.5l.18.07-2.06 5.7 2.49-5.53.17.08-2.08 5.18 2.5-5 .16.09-3.4 7q.36.16.68.36l4.17-5.85-3.61 6.22q.32.23.62.5l5.03-5.95.14.12-3.57 4.29 3.92-3.98.14.13-4.05 4.5 4.37-4.18.14.13-3.88 4.02 4.19-3.69.12.13-5.79 5.22q.25.27.47.56l6.06-3.87-5.67 4.42.32.55 6.9-3.64.08.16-4.89 2.62 5.1-2.21.08.17-5.41 2.65 5.6-2.23.07.18-5.07 2.27 5.24-1.85.06.16-1.12.41 1.67 1.27.46.25c-.18-.7-.45-1.55-.7-2.21A17.1 17.1 0 0 0 21.56.09c-8.02 0-14.71 5.6-16.36 13.1q0 .02-.02.09l.33-.15z"/></g><rect width="38" height="14" x="56" y="3" fill="#f8bb47" rx="2"/><path fill="#053662" d="M66.5 7.29q.55 0 1 .08.42.07.72.24t.44.45.15.68q0 .48-.23.82a1 1 0 0 1-.65.4v.05q.22.05.4.13t.32.24q.15.15.22.4.08.23.08.56 0 .4-.15.7t-.42.52q-.27.21-.66.33-.39.1-.86.11h-2.14V7.29zm.13 2.26q.53 0 .73-.16.2-.15.2-.5 0-.33-.23-.47a1.5 1.5 0 0 0-.76-.14h-.64v1.27zm-.7.96V12h.79q.55 0 .76-.2a.8.8 0 0 0 .22-.58.6.6 0 0 0-.23-.5q-.2-.2-.79-.2zm4.8-3.22h3.3v.99h-2.09v1.26h1.94v.99h-1.94V12h2.08v1h-3.28zm4.56 1v-1h4.31v1h-1.55V13h-1.2V8.3zM79.84 13l2.02-5.74h1.48L85.36 13h-1.3l-.42-1.36h-2.08L81.15 13zm2.03-2.38h1.48l-.41-1.32-.08-.24-.19-.63-.07-.28-.07.28-.02.07-.01.06-.01.02-.02.05v.01l-.01.06-.01.01-.02.06-.16.53z"/><defs><clipPath id="a"><path fill="#fff" d="M0 0h120v37H0z"/></clipPath></defs></svg>