<svg xmlns="http://www.w3.org/2000/svg" width="223" height="69" fill="none" viewBox="0 0 223 69"><g clip-path="url(#a)"><path fill="#fdb913" d="M91.69 0h-.81v68.6h.8z"/><path fill="#fff" d="M106.42 49.6c0-2.5-.19-3.24-1.67-3.46l-.78-.1c-.28-.19-.31-.75.04-.89 3.02-.18 5.9-.29 8.92-.29 3.03 0 5.51.21 7.83 1.07 4.81 1.74 7.22 5.8 7.22 10.5s-2.16 8.39-6.22 10.6c-2.32 1.25-5.24 1.71-7.97 1.71-2.28 0-4.55-.29-5.8-.29-1.5 0-2.78.03-4.44.1-.22-.1-.3-.66-.08-.88l.83-.1c2.06-.3 2.13-.7 2.13-4.44V49.6zm2.91 12.69c0 1.89.11 3.02.72 3.87.78 1.1 2.14 1.45 4.38 1.45 6.9 0 10-4.52 10-11.12 0-3.9-1.88-10.53-11.2-10.53-2.11 0-3.24.29-3.53.5-.3.22-.35 1.1-.35 2.7V62.3zM132.01 58.23c0-1.4 0-1.56-.96-2.22l-.32-.2c-.13-.15-.13-.54.03-.65.83-.29 2.7-1.2 3.6-1.74q.3.04.3.24v2.06q0 .28.1.33c1.25-1.03 2.6-2.14 3.9-2.14.9 0 1.61.56 1.61 1.42 0 1.17-.96 1.63-1.53 1.63-.35 0-.53-.1-.77-.24a3 3 0 0 0-1.56-.58c-.56 0-1 .32-1.28.71-.35.5-.46 1.53-.46 2.75v4.84c0 2.56.06 2.99 1.42 3.1l1.28.1c.25.19.19.78-.08.89a80 80 0 0 0-3.95-.11q-1.88 0-3.28.1c-.24-.1-.32-.71-.08-.88l.7-.1c1.3-.22 1.33-.54 1.33-3.1V58.2zM143.83 58.23c0-1.4 0-1.56-.96-2.22l-.32-.2c-.14-.15-.14-.54.03-.65.82-.29 2.85-1.2 3.66-1.74q.29 0 .35.21a78 78 0 0 0-.15 4.41v6.4c0 2.56.07 2.91 1.36 3.1l.74.1c.25.19.19.78-.07.89-1.07-.08-2.1-.11-3.34-.11q-1.87 0-3.35.1c-.24-.1-.32-.71-.07-.88l.74-.1c1.32-.19 1.36-.54 1.36-3.1V58.2zm2.96-10.13c0 1.28-.89 1.84-1.9 1.84-1.1 0-1.81-.82-1.81-1.77 0-1.17.85-1.92 1.92-1.92s1.77.85 1.77 1.85zM152.4 57.95c-.53-1.31-.85-2.45-2.13-2.62l-.7-.1c-.22-.3-.19-.79.1-.9.89.07 2.14.11 3.35.11.96 0 1.68-.04 2.88-.1.25.13.28.71.03.88l-.43.08c-1.1.18-1.14.35-.77 1.42a79 79 0 0 0 2.67 6.79c.32.71.45 1.03.56 1.14.14-.1.4-.6.67-1.36.46-1.2 1.68-4.3 2.03-5.23.5-1.25.65-2 .65-2.21 0-.32-.22-.46-.65-.54l-.82-.1c-.21-.25-.18-.75.08-.89q1.64.1 2.67.1c.88 0 1.5-.04 2.48-.1.25.14.3.67.08.89l-.53.07c-1.25.19-1.58 1.1-2.6 3.1-.5.96-2.7 6.12-3.28 7.58l-1.18 2.92q-.12.14-.35.14-.29 0-.45-.14c-.3-1-.83-2.38-1.35-3.71l-2.99-7.22zM168.62 59.33c-.94 0-.97.07-.97.96 0 3.6 2.1 6.65 5.91 6.65 1.18 0 2.17-.35 3.27-1.74.35-.1.6.1.64.43-1.18 2.42-3.74 3.3-5.59 3.3-2.32 0-4.13-.98-5.16-2.34a7.6 7.6 0 0 1-1.5-4.62c0-4.38 2.9-8.05 7.17-8.05 3.05 0 5.05 2.11 5.05 4.25 0 .5-.08.77-.14.93-.1.21-.6.24-2.1.24h-6.58zm2.2-1.07c2.64 0 3.43-.14 3.7-.35.11-.08.22-.22.22-.67 0-1-.68-2.25-2.74-2.25s-3.92 1.93-3.95 3.1c0 .08 0 .18.25.18h2.51z"/><path fill="#fdb913" d="M182.63 49.6c0-2.65-.14-3.32-1.74-3.46l-1.15-.1c-.27-.22-.24-.75.05-.89 1.92-.18 4.33-.29 7.65-.29 2.24 0 4.38.18 5.98 1a4.7 4.7 0 0 1 2.7 4.43c0 2.57-1.5 3.88-3.63 4.87 0 .35.29.46.67.53a5.9 5.9 0 0 1 4.78 5.94c0 4.12-3.07 6.9-9.47 6.9-1.03 0-2.77-.11-4.27-.11s-2.78.08-4.09.1c-.21-.1-.29-.66-.08-.88l.64-.1c1.9-.33 1.96-.7 1.96-4.45V49.58zm2.91 4.72c0 1 .03 1.07 1.85 1 3.63-.14 5.59-1.21 5.59-4.57s-2.6-4.8-5.3-4.8q-1.16 0-1.63.2c-.35.11-.5.3-.5.94v7.23m0 8.26c0 1.28.08 3.1.75 3.87.67.83 1.74 1 2.81 1 3.18 0 5.59-1.43 5.59-4.98 0-2.8-1.42-6.09-7.09-6.09-1.92 0-2.06.21-2.06.93zM204.99 47.42c2.6-2.03 5.9-3.02 9.6-3.02 1.92 0 4.63.4 6.3.86.43.1.68.18 1 .13.03.83.21 3.07.5 5.24-.18.24-.72.29-.96.06-.54-2.41-2.14-5.19-7.3-5.19-5.45 0-10.07 3.45-10.07 10.82s4.73 11.6 10.56 11.6c4.6 0 6.63-3 7.43-5.08.25-.19.78-.11.94.13-.25 1.85-1.18 4.2-1.72 4.87q-.64.13-1.25.35c-.78.3-3.34.83-5.61.83-3.2 0-6.26-.65-8.87-2.39a11.5 11.5 0 0 1-5.05-9.78c0-3.95 1.78-7.32 4.48-9.43z"/><path fill="#fff" d="M70.4 23.8A31.55 31.55 0 0 0 40.19.2 31.8 31.8 0 0 0 9.68 24.67a30 30 0 0 0-.2 12.38c.27-.06.4-.1.7-.15 2.84-.5 7.33-1.09 11.16-.6 6.09.78 9.89 1.8 16.33 3.25s11.17 2.82 18.1 2.06C61.85 40.94 66 40 70.06 37.32l.32-.21.43-.32c.3-1.74.52-3.46.52-5.28 0-2.55-.37-5.33-.93-7.7"/><path fill="#4a6da6" d="M9.66 24.75a29.56 29.56 0 0 0-.18 12.3c.27-.06.4-.1.7-.15 2.84-.5 7.33-1.09 11.16-.6 6.09.76 9.89 1.8 16.33 3.25s11.17 2.82 18.1 2.06C61.85 40.94 66 40 70.06 37.32l.32-.21.43-.32c.29-1.74.52-3.46.52-5.28 0-2.44-.34-5.08-.86-7.39l-4.3-2.4-4.98 3.49-3.34-1.3c-1.13.57-8.12 5.25-8.12 5.25l-2.67-1.94-2.89-.56-3.83-2.8-4.4 3.03s-4.9 2.85-5.08 2.85-5.92-4.56-5.92-4.56l-2.66-2.8c-.45.3-2.25 1.12-2.25 1.12l-.1.03-1.74-.55-2.12-1.11-6.44 2.91z"/><path fill="#fff" d="M11.07 46.05c0-1.25-.08-1.57-.92-1.63l-.6-.05c-.15-.1-.13-.35.02-.42 1-.08 2.27-.14 4.01-.14 1.18 0 2.3.07 3.15.47.8.35 1.42 1.02 1.42 2.1 0 1.23-.78 1.84-1.91 2.31 0 .17.15.21.35.26 1 .17 2.5 1 2.5 2.8 0 1.96-1.6 3.27-4.97 3.27-.54 0-1.47-.04-2.24-.04s-1.47.03-2.16.04c-.1-.04-.15-.32-.03-.42l.34-.05c.99-.15 1.02-.34 1.02-2.1v-6.4zm1.54 2.24c0 .48.01.5.97.48 1.91-.06 2.94-.57 2.94-2.15 0-1.6-1.36-2.28-2.8-2.28q-.6 0-.85.1c-.19.05-.26.13-.26.44zm0 3.91c0 .61.03 1.46.4 1.83.35.38.91.47 1.48.47 1.66 0 2.93-.67 2.93-2.35 0-1.32-.75-2.88-3.73-2.88-1 0-1.08.1-1.08.44zM32.1 47.7c0-1.53-.03-1.77-.98-1.85l-.4-.03c-.09-.06-.06-.32.04-.35a49 49 0 0 0 4 0c.09.05.12.3.03.35l-.4.03c-.95.08-.98.32-.98 1.85v5.13c0 1.52.03 1.72.98 1.83l.4.04c.09.06.06.32-.03.35a49 49 0 0 0-4 0c-.1-.04-.13-.27-.03-.35l.4-.04c.94-.11.97-.3.97-1.83zM40.97 52.86c0 1.5.03 1.72.9 1.8l.47.04c.1.06.06.32-.03.35a52 52 0 0 0-4.04 0c-.1-.04-.13-.29 0-.35l.53-.04c.85-.08.93-.3.93-1.8v-6.44c0-.45 0-.46-.44-.46h-.83c-.64 0-1.46.03-1.84.37-.37.32-.5.62-.67.99-.13.09-.34 0-.39-.1.25-.65.46-1.57.57-2.15.04-.03.24-.04.29 0 .09.46.58.45 1.27.45h6.06c.8 0 .94-.03 1.16-.4.07-.03.24 0 .27.05-.17.6-.27 1.75-.23 2.18-.06.12-.32.12-.38.03-.05-.35-.15-.89-.38-1.05q-.51-.37-1.74-.37h-1.07c-.44 0-.43 0-.43.49v6.4zM47.38 47.7c0-1.53-.03-1.77-.98-1.85l-.4-.03c-.09-.06-.06-.32.03-.35a49 49 0 0 0 4 0c.1.05.13.3.03.35l-.4.03c-.94.08-.97.32-.97 1.85v5.13c0 1.52.03 1.72.98 1.83l.4.04c.09.06.06.32-.04.35a49 49 0 0 0-4 0c-.09-.04-.12-.27-.03-.35l.4-.04c.95-.11.98-.3.98-1.83zM54.54 55.2a6 6 0 0 1-2.64-.53 6 6 0 0 1-.46-2.01c.07-.1.33-.12.41-.05.26.73.95 2.14 2.92 2.14 1.43 0 2.12-.8 2.12-1.65 0-.64-.16-1.34-1.4-2.01l-1.61-.89c-.85-.47-1.83-1.3-1.83-2.47 0-1.36 1.25-2.47 3.46-2.47.52 0 1.15.09 1.58.18.2.06.45.08.6.08.14.35.3 1.14.3 1.75-.08.1-.34.14-.43.05-.21-.69-.67-1.64-2.3-1.64-1.64 0-2.02.94-2.02 1.6 0 .85.82 1.44 1.45 1.78l1.36.71c1.07.57 2.12 1.4 2.12 2.77 0 1.58-1.4 2.67-3.62 2.67zM63.08 50.37c-.74 0-.77.03-.77.46v2.03c0 1.5.07 1.7.94 1.8l.44.04c.1.06.07.32-.03.35-.84-.03-1.35-.04-1.96-.04-.68 0-1.2.03-1.8.04-.1-.04-.13-.27-.04-.35l.26-.04c.87-.16.9-.3.9-1.8v-5.2c0-1.5-.1-1.75-.91-1.8l-.4-.04c-.1-.06-.06-.32.03-.35.76 0 1.28.05 1.96.05.6 0 1.12-.02 1.8-.05.09.05.12.3.03.35l-.3.03c-.9.1-.92.3-.92 1.82v1.66c0 .44.03.46.77.46h4.43c.75 0 .78-.02.78-.46v-1.66c0-1.51-.03-1.73-.95-1.82l-.29-.03c-.09-.06-.06-.32.03-.35a41 41 0 0 0 3.71 0c.1.05.12.3.03.35l-.32.03c-.9.1-.93.3-.93 1.82v5.19c0 1.5.03 1.69.93 1.8l.37.04c.09.06.06.32-.03.35a43 43 0 0 0-3.76 0c-.09-.04-.12-.27-.03-.35l.3-.04c.94-.16.94-.3.94-1.8v-2.03c0-.43-.03-.46-.78-.46zM2.2 58.21c1.26-.99 2.9-1.48 4.7-1.48.95 0 2.26.2 3.08.41.22.05.34.1.5.08 0 .4.1 1.5.23 2.55-.09.12-.35.14-.47.03-.26-1.2-1.05-2.53-3.57-2.53-2.67 0-4.93 1.67-4.93 5.28 0 3.6 2.32 5.66 5.17 5.66a3.7 3.7 0 0 0 3.65-2.5c.12-.08.38-.05.46.09-.12.9-.58 2.04-.84 2.38q-.31.05-.61.18c-.38.14-1.63.4-2.76.4a7.7 7.7 0 0 1-4.34-1.16A5.6 5.6 0 0 1 0 62.82a5.8 5.8 0 0 1 2.2-4.6M11.74 63.83c0-2.87 2.27-5.08 5.39-5.08 3.5 0 5.25 2.4 5.25 4.92 0 2.92-2.34 5.02-5.25 5.02-3.36 0-5.4-2.28-5.4-4.88zm9.11.3c0-2.36-1.1-4.93-3.98-4.93-1.58 0-3.62 1.03-3.62 4.18 0 2.13 1.08 4.9 4.06 4.9 1.82 0 3.54-1.3 3.54-4.13zM39.41 62.6c0-.9-.03-2.56-.29-2.98-.1-.19-.38-.28-.76-.3l-.38-.04c-.1-.1-.07-.29.03-.35q.85.05 1.74.05c.64 0 1.05 0 1.6-.05.12.08.1.26.03.35l-.37.03c-.38.03-.67.15-.76.34-.21.47-.21 2.13-.21 2.93v1.63c0 1.25-.22 2.58-1.07 3.43a4.2 4.2 0 0 1-2.92 1.05c-1.05 0-2.1-.18-2.85-.79-.81-.62-1.2-1.68-1.2-3.39v-3.4c0-1.5-.02-1.74-.9-1.81l-.39-.04c-.1-.06-.06-.3.03-.35.76.03 1.28.05 1.9.05.6 0 1.12 0 1.87-.05.1.05.12.3.03.35l-.37.04c-.88.07-.91.32-.91 1.81v3.11c0 2.32.76 3.85 3.1 3.85s3.05-1.63 3.05-3.83v-1.66zM57.13 60.85c0-1.07-.06-1.34-.82-1.39l-.54-.04c-.13-.08-.12-.3.02-.37.9-.07 2.03-.12 3.59-.12 1.05 0 2.06.08 2.8.4.72.3 1.27.88 1.27 1.8 0 1.03-.7 1.57-1.7 1.96 0 .16.13.19.31.22.9.15 2.25.85 2.25 2.4 0 1.66-1.44 2.79-4.45 2.79-.48 0-1.3-.05-2-.05s-1.3.03-1.92.05c-.1-.05-.14-.28-.03-.35l.3-.05c.9-.12.92-.29.92-1.8v-5.46zm1.38 1.92c0 .4.01.43.87.4 1.7-.06 2.62-.49 2.62-1.85 0-1.35-1.22-1.93-2.49-1.93q-.53 0-.76.09c-.17.04-.23.1-.23.36v2.93zm0 3.35c0 .51.03 1.25.35 1.57s.82.4 1.3.4c1.49 0 2.63-.59 2.63-2.02 0-1.13-.67-2.46-3.32-2.46-.9 0-.96.1-.96.39zM29.66 54.7l-.4-.04-.21-.03c-.58-.11-.83-.63-1.1-1.12l-1.4-2.4c-.24-.4-.48-.95-1.03-1.03 1.42-.17 2.7-1 2.7-2.4 0-1.61-1.6-2.35-3.22-2.35-.98 0-1.92.06-2.91.06-.55 0-1.13-.06-1.67-.06-.3 0-.3.06-.3.23 0 .25.1.19.42.19 1.2 0 1.12.29 1.12 1.28v6.3c0 .9.08 1.17-.87 1.25 0 0-.15 0-.23.03l-.4.05c-.09.09-.06.32.03.36l.6-.01q.79-.05 1.57-.06.78.02 1.56.06l.6.01c.08-.04.12-.27.02-.35l-.4-.04-.24-.02c-.96-.06-.9-.33-.9-1.27v-2.38c0-.13-.01-.5.08-.6s.24-.08.38-.08c1.3 0 1.28.12 1.9 1.2l1.66 3c.13.24.24.53.58.53h1.45l.6.01c.08-.04.11-.27.02-.35zm-5.83-4.73c-.3 0-.87.1-.87-.27v-2.76c0-1.09.03-1.24 1.32-1.24 1.52 0 2.46.76 2.46 2.18 0 .63-.23 1.2-.78 1.57-.65.45-1.34.5-2.13.5zM24.15 61.17c0-1.5-.03-1.74-1.04-1.81l-.4-.03c-.09-.06-.06-.32.03-.37a56 56 0 0 0 4.02 0c.09.05.12.3.03.37l-.38.03c-.94.06-.97.3-.97 1.81v5c0 .92.05 1.29.34 1.56.17.16.47.34 1.72.34 1.35 0 1.68-.06 1.94-.18.32-.17.74-.7 1.06-1.44.09-.07.4 0 .4.1 0 .16-.45 1.63-.68 2-.8-.02-2.3-.04-3.94-.04h-1.46c-.66 0-1.18 0-2.06.05-.1-.05-.12-.28-.03-.37l.47-.04c.92-.1.95-.3.95-1.8v-5.2zM66.56 61.2c0-1.52-.03-1.77-.94-1.84l-.4-.03c-.1-.06-.06-.32.03-.37a46 46 0 0 0 3.88 0c.09.05.12.3.03.37l-.4.03c-.91.06-.94.32-.94 1.84v5.13c0 1.53.03 1.72.94 1.83l.4.05c.1.06.06.32-.03.36-.78-.03-1.31-.04-1.92-.04-.66 0-1.18 0-1.96.04-.09-.04-.12-.27-.03-.36l.4-.05c.91-.1.94-.3.94-1.83zM54.14 68.16l-.23-.01q-.24-.01-.43-.17c-.2-.22-.18-.83-.18-1.07v-6.3c0-.28-.06-.87.14-1.09.1-.1.32-.13.5-.13h.22l.4-.03c.08-.06.05-.32-.04-.37h-2.29c-.18 0-.35 0-.46.2l-3.46 7.2-3.05-6.96c-.11-.24-.13-.44-.45-.44h-2.37c-.08.05-.11.3-.02.37l.4.03.22.01c.66.05.7.19.64.89l-.51 6.76c-.05.67-.08 1.03-.8 1.1l-.23.03-.4.04c-.09.1-.06.32.04.37l.58-.02q.54-.03 1.1-.04.6.01 1.19.04.27 0 .6.02c.08-.05.11-.28.02-.37l-.4-.04-.22-.02c-1.03-.06-1.01-.8-.94-1.68l.5-6.28h.12l3.3 7.73c.04.1.08.3.25.3.15 0 .2-.18.26-.28L51.87 60h.12v6.91c0 .28.03.84-.26 1.06-.15.1-.63.18-.63.18l-.21.03-.4.05c-.09.09-.06.32.03.36l.58-.01q.81-.04 1.65-.06c.4 0 1.18.03 1.18.03l.6.03c.1-.05.13-.28.04-.37l-.4-.04zM80.1 68.2l-.04-.05-.22-.04c-.62-.13-.87-.88-1.1-1.41l-3.2-7.59c-.03-.09-.1-.29-.23-.29-.17 0-.23.22-.27.34l-3.06 7.57c-.1.29-.4.97-.6 1.19-.15.16-.36.2-.57.21l-.26.03-.38.05c-.1.09-.06.32.03.36l.6-.01c.4 0 .83-.06 1.24-.06q.52.01 1.06.04s.38 0 .6.02c.08-.05.11-.28.02-.37l-.4-.04-.2-.02c-.37-.05-.83-.1-.83-.52 0-.27.12-.6.23-.82l.47-1.13c.24-.55.14-.61.78-.61h2.15c.76 0 .64 0 .98.76l.5 1.15c.08.2.23.53.23.73 0 .38-.41.41-.8.44 0 0-.13 0-.25.02l-.38.03c-.1.09-.07.32.03.36l.6-.01q.68-.04 1.33-.05.84.01 1.67.05l.24.01c.1-.04.12-.27.03-.35m-4.2-3.58h-1.86s-.58.06-.58-.1l.05-.17 1.13-2.78s.14-.46.27-.46c.1 0 .23.4.26.46l1.12 2.6s.1.27.1.33c0 .17-.38.12-.47.12z"/><path fill="#fdb913" d="M65.5 21.65 59.2 24l1.98.68z"/><path fill="#fdb913" d="m15.14 21.74-3.54-1.3.12-.33 3.9 1.36.38-.23 1.86 1 2.32.85.14-.06-8.26-3.71.14-.32 9.1 3.63.11-.06-8.86-4.35.15-.32 9.63 4.2-9.23-4.98q.06-.14.15-.29l12.97 6.87q.28-.53.6-1.01l-10.56-8.26 11.28 7.24q.42-.55.88-1.07l-10.85-9.83.24-.26 7.88 6.96-7.3-7.58q.13-.14.25-.26l8.22 7.89-7.6-8.5.26-.23 7.36 7.5-6.72-8.08.25-.21 9.41 11.18q.56-.48 1.13-.88L24.24 6.65 32 17.61q.63-.39 1.3-.7L26.95 3.77q.14-.08.33-.15l4.7 9.43-3.92-9.78.32-.14 4.67 10.4L29.2 2.81q.15-.07.32-.12l4.01 9.73L30.34 2.4l.3-.1 4.53 13.86q.63-.2 1.28-.38l-1.88-13.3 3.1 13.05q.78-.11 1.57-.16L38.28.85l.34-.01.99 10.44L39.46.8h.36l.43 10.99.43-11h.35l-.1 10.46L41.9.84l.32.01-1 14.5q.76.05 1.5.17L45.81 2.5l-1.87 13.26q.7.16 1.35.4l4.51-13.8.33.13-3.16 9.92 3.98-9.63.32.12-3.83 10.62 4.62-10.3.34.15-3.88 9.66 4.64-9.3.3.13-6.33 13.06q.65.32 1.26.69l7.73-10.93-6.7 11.62q.61.44 1.16.91l9.34-11.1.26.24-6.64 8 7.29-7.42q.13.1.25.24l-7.52 8.4 8.14-7.8.24.26-7.2 7.49 7.78-6.88q.12.1.21.24L52 20.61q.46.52.87 1.06l11.25-7.22-10.55 8.24q.31.49.6 1.02l12.82-6.77q.08.14.15.3l-9.08 4.89L67.5 18l.15.32-10.06 4.94 10.41-4.17.16.34-9.44 4.23 9.74-3.45q.07.14.12.3l-2.09.77 3.1 2.35.86.47a34 34 0 0 0-1.32-4.14A31.6 31.6 0 0 0 40.08.17 31.1 31.1 0 0 0 9.68 24.6l-.03.17.6-.3z"/></g><defs><clipPath id="a"><path fill="#fff" d="M0 0h223v69H0z"/></clipPath></defs></svg>