<svg xmlns="http://www.w3.org/2000/svg" width="165" height="51" fill="none" viewBox="0 0 165 51"><g clip-path="url(#a)"><path fill="#fdb913" d="M67.84 0h-.6v50.7h.6z"/><path fill="#004b8d" d="M78.74 36.65c0-1.84-.13-2.4-1.24-2.55l-.58-.08c-.2-.14-.24-.55.02-.66 2.24-.13 4.37-.2 6.61-.2s4.08.15 5.8.78c3.55 1.3 5.34 4.3 5.34 7.76 0 3.47-1.61 6.2-4.61 7.84a13 13 0 0 1-5.9 1.26c-1.68 0-3.36-.22-4.29-.22-1.1 0-2.06.03-3.29.08-.16-.08-.2-.5-.05-.65l.6-.08c1.53-.21 1.59-.53 1.59-3.3zm2.16 9.38c0 1.4.08 2.24.53 2.87.58.81 1.58 1.08 3.24 1.08 5.1 0 7.4-3.34 7.4-8.23 0-2.9-1.4-7.78-8.3-7.78-1.55 0-2.39.21-2.6.37-.22.16-.27.81-.27 2zM97.68 43.04c0-1.03 0-1.16-.71-1.63l-.24-.16c-.1-.1-.1-.4.02-.47.61-.21 2-.9 2.67-1.3q.2.04.2.2v1.52q0 .19.09.23c.92-.76 1.92-1.58 2.9-1.58.65 0 1.17.42 1.17 1.05 0 .87-.7 1.21-1.13 1.21-.26 0-.4-.08-.58-.18q-.6-.42-1.15-.43c-.42 0-.74.24-.94.53-.27.37-.35 1.13-.35 2.03v3.57c0 1.9.06 2.21 1.06 2.3l.94.07c.19.13.13.58-.05.66-1.24-.05-2-.08-2.92-.08q-1.4 0-2.43.08c-.18-.08-.23-.53-.05-.66l.5-.08c.98-.16 1-.4 1-2.29v-4.6M106.42 43.04c0-1.03 0-1.16-.7-1.63l-.25-.16c-.1-.1-.1-.4.03-.47.6-.21 2.1-.9 2.7-1.3q.22 0 .27.17c-.05.92-.1 2.18-.1 3.26v4.73c0 1.89.05 2.15 1 2.29l.55.08c.18.13.13.57-.06.65a38 38 0 0 0-4.95 0c-.18-.08-.23-.52-.05-.65l.55-.08c.98-.14 1-.4 1-2.3zm2.19-7.5c0 .95-.66 1.37-1.4 1.37a1.3 1.3 0 0 1-1.34-1.31c0-.87.63-1.42 1.42-1.42.8 0 1.32.63 1.32 1.36M112.77 42.83c-.4-.98-.63-1.82-1.59-1.94l-.52-.08c-.16-.21-.14-.58.08-.66.65.05 1.57.08 2.47.08.71 0 1.24-.03 2.13-.08.19.1.21.53.03.66l-.31.05c-.82.13-.84.26-.58 1.05.6 1.82 1.37 3.66 1.97 5.03.24.53.35.76.43.84.1-.08.29-.45.5-1l1.5-3.87c.37-.92.48-1.47.48-1.63q0-.33-.48-.39l-.6-.08c-.16-.18-.13-.55.05-.65q1.22.08 1.97.08c.66 0 1.1-.03 1.84-.08.19.1.21.5.06.65l-.4.06c-.92.13-1.16.81-1.92 2.28-.36.71-2 4.52-2.42 5.6-.26.66-.53 1.26-.87 2.16q-.1.11-.27.1-.2.01-.34-.1c-.2-.74-.6-1.77-1-2.74zM124.76 43.85c-.69 0-.71.06-.71.71 0 2.66 1.55 4.91 4.37 4.91.87 0 1.6-.26 2.42-1.28.26-.08.45.08.47.31a4.6 4.6 0 0 1-4.13 2.44 4.7 4.7 0 0 1-3.82-1.73 5.6 5.6 0 0 1-1.1-3.42c0-3.23 2.13-5.94 5.29-5.94 2.26 0 3.73 1.55 3.73 3.13q-.01.54-.1.68c-.08.16-.45.18-1.55.18zm1.63-.79c1.95 0 2.53-.1 2.74-.26.08-.05.16-.16.16-.5 0-.74-.5-1.66-2.03-1.66s-2.9 1.42-2.92 2.3c0 .04 0 .12.19.12z"/><path fill="#fdb913" d="M135.13 36.65c0-1.95-.1-2.45-1.29-2.55l-.85-.08c-.2-.16-.18-.55.03-.66a63 63 0 0 1 5.66-.2c1.65 0 3.23.13 4.42.73 1.13.55 2 1.6 2 3.29 0 1.9-1.1 2.87-2.69 3.6 0 .27.21.34.5.4a4.35 4.35 0 0 1 3.53 4.39c0 3.05-2.27 5.1-7.01 5.1-.77 0-2.06-.09-3.16-.09s-2.06.06-3.03.08c-.15-.08-.2-.5-.05-.65l.47-.08c1.4-.24 1.45-.53 1.45-3.3v-9.98zm2.16 3.5c0 .73.03.78 1.37.73 2.68-.1 4.13-.9 4.13-3.37s-1.92-3.55-3.92-3.55q-.86 0-1.2.16c-.27.08-.38.21-.38.69zm0 6.09c0 .95.05 2.28.55 2.87s1.29.73 2.08.73c2.34 0 4.13-1.05 4.13-3.68 0-2.08-1.06-4.5-5.24-4.5-1.42 0-1.53.16-1.53.69zM151.68 35.04a11.3 11.3 0 0 1 7.1-2.23c1.42 0 3.42.28 4.66.63.31.08.5.13.74.1a54 54 0 0 0 .37 3.87c-.13.18-.53.21-.72.05-.39-1.8-1.58-3.85-5.4-3.85-4.03 0-7.44 2.56-7.44 8s3.5 8.57 7.81 8.57c3.4 0 4.9-2.21 5.5-3.76.2-.14.59-.08.7.1a10 10 0 0 1-1.27 3.6q-.48.1-.92.27c-.58.21-2.47.6-4.16.6a11.5 11.5 0 0 1-6.56-1.76 8.5 8.5 0 0 1-3.73-7.23 8.7 8.7 0 0 1 3.31-6.96"/><path fill="#fff" d="M52.08 17.6A23.3 23.3 0 0 0 29.73.14C19.93.15 9.83 7 7.15 18.24a22 22 0 0 0-.13 9.14l.51-.11c2.1-.36 5.42-.8 8.26-.44 4.5.57 7.32 1.33 12.08 2.4 4.75 1.08 8.26 2.09 13.39 1.52 4.5-.5 7.57-1.2 10.56-3.16l.24-.16.32-.24c.22-1.28.39-2.56.39-3.9 0-1.89-.27-3.93-.69-5.68"/><path fill="#004b8d" d="M7.14 18.3a23 23 0 0 0-.54 4.93c0 1.48.15 2.74.42 4.15l.51-.11c2.1-.36 5.42-.8 8.26-.44 4.5.57 7.32 1.33 12.08 2.4 4.75 1.08 8.26 2.09 13.39 1.52 4.49-.5 7.57-1.2 10.56-3.16l.24-.16.32-.24c.22-1.28.39-2.56.39-3.9 0-1.8-.25-3.75-.64-5.46l-3.18-1.77-3.67 2.58-2.48-.97c-.84.43-6 3.88-6 3.88l-1.98-1.43-2.13-.42-2.84-2.07-3.25 2.23s-3.64 2.1-3.76 2.1-4.38-3.36-4.38-3.36l-1.96-2.07c-.33.21-1.67.83-1.67.83l-.07.01-1.29-.4-1.56-.83zM8.18 34.03c0-.92-.05-1.16-.68-1.2l-.44-.04c-.1-.08-.1-.27.01-.32.75-.06 1.7-.1 2.98-.1.87 0 1.7.07 2.32.36.6.25 1.06.76 1.06 1.55 0 .9-.58 1.36-1.41 1.7 0 .13.1.16.26.19.75.12 1.86.75 1.86 2.08 0 1.44-1.2 2.42-3.69 2.42-.4 0-1.08-.04-1.66-.04s-1.08.02-1.59.04c-.08-.04-.1-.24-.02-.32l.25-.03c.74-.11.76-.26.76-1.56v-4.73m1.14 1.65c0 .35.01.38.72.35 1.4-.05 2.17-.42 2.17-1.59s-1.01-1.68-2.06-1.68q-.45 0-.64.07c-.14.04-.2.1-.2.32zm0 2.9c0 .44.02 1.08.29 1.36s.68.35 1.09.35c1.23 0 2.17-.5 2.17-1.74 0-1-.55-2.13-2.75-2.13-.75 0-.8.07-.8.32zM23.75 35.26c0-1.13-.02-1.32-.71-1.36l-.3-.02c-.07-.05-.05-.24.03-.27l1.49.03c.5 0 .87 0 1.46-.03.08.03.1.22.03.27l-.3.02c-.7.05-.72.23-.72 1.36v3.78c0 1.13.02 1.28.72 1.36l.3.03c.07.04.05.23-.03.26a32 32 0 0 0-2.95 0c-.08-.03-.1-.2-.03-.26l.3-.03c.7-.08.71-.22.71-1.36zM30.31 39.06c0 1.12.03 1.27.67 1.33l.35.03c.07.04.04.23-.02.26l-1.46-.03-1.54.03c-.06-.03-.08-.21 0-.26l.4-.03c.63-.06.69-.2.69-1.33v-4.75c0-.33 0-.35-.33-.35h-.61c-.48 0-1.09.02-1.36.27-.27.23-.38.46-.5.73-.08.06-.24 0-.29-.07.18-.48.35-1.16.43-1.59.03-.02.17-.03.2 0 .07.34.44.33.95.33h4.48c.6 0 .7-.02.87-.3.05-.02.18-.02.2.03a6 6 0 0 0-.16 1.61c-.05.09-.24.09-.3.02-.02-.26-.1-.66-.27-.77q-.37-.27-1.28-.26h-.79c-.33 0-.31 0-.31.36v4.73zM35.06 35.26c0-1.13-.03-1.32-.73-1.36l-.3-.02c-.07-.05-.04-.24.03-.27l1.5.03c.49 0 .87 0 1.46-.03.07.03.09.22.02.27l-.3.02c-.7.05-.72.23-.72 1.36v3.78c0 1.13.03 1.28.73 1.36l.3.03c.07.04.04.23-.03.26a32 32 0 0 0-2.96 0c-.07-.03-.1-.2-.02-.26l.3-.03c.7-.08.72-.22.72-1.36zM40.36 40.8a4.5 4.5 0 0 1-1.96-.4 4 4 0 0 1-.34-1.48c.06-.07.25-.1.3-.03.2.54.7 1.58 2.16 1.58 1.06 0 1.57-.58 1.57-1.22 0-.47-.11-1-1.03-1.49l-1.19-.65c-.62-.35-1.35-.96-1.35-1.83 0-1.01.92-1.83 2.56-1.83.39 0 .84.06 1.17.13q.26.07.44.06c.1.26.22.86.22 1.3-.04.07-.25.1-.3.03-.17-.5-.51-1.2-1.72-1.2-1.2 0-1.5.7-1.5 1.19 0 .61.6 1.06 1.07 1.3l1 .53c.8.42 1.58 1.03 1.58 2.04 0 1.17-1.05 1.97-2.68 1.97M46.68 37.22c-.55 0-.57.02-.57.34v1.5c0 1.12.06 1.27.7 1.33l.33.03c.07.04.05.23-.02.26l-1.46-.03c-.49 0-.88.03-1.33.03-.07-.03-.1-.2-.02-.26l.2-.03c.64-.11.66-.2.66-1.33v-3.83c0-1.11-.08-1.3-.68-1.34l-.3-.02c-.07-.04-.05-.23.02-.26.57 0 .96.03 1.45.03l1.33-.03c.07.03.09.22.02.26l-.22.02c-.66.06-.69.23-.69 1.34v1.23c0 .33.03.34.57.34h3.28c.55 0 .57-.01.57-.34v-1.23c0-1.11-.02-1.27-.7-1.34l-.21-.02c-.07-.04-.05-.23.02-.26a37 37 0 0 0 2.74 0c.07.03.09.22.02.26l-.24.02c-.66.06-.68.23-.68 1.34v3.83c0 1.12.02 1.26.68 1.33l.28.03c.07.04.05.23-.03.26a29 29 0 0 0-2.77 0c-.07-.03-.09-.2-.02-.26l.21-.03c.7-.11.7-.2.7-1.33v-1.5c0-.32-.02-.34-.57-.34zM1.63 43.02a5.6 5.6 0 0 1 3.48-1.09c.7 0 1.68.14 2.28.31.16.04.25.07.36.05.02.3.08 1.1.18 1.89-.06.08-.26.1-.35.02-.2-.88-.77-1.87-2.64-1.87-1.98 0-3.65 1.24-3.65 3.9S3 50.4 5.12 50.4c1.67 0 2.4-1.08 2.7-1.84.09-.06.28-.03.33.05a5 5 0 0 1-.62 1.76q-.23.05-.45.13c-.28.1-1.21.3-2.04.3a5.7 5.7 0 0 1-3.21-.87 4.1 4.1 0 0 1-1.84-3.53c0-1.43.65-2.64 1.63-3.4zM8.68 47.18c0-2.13 1.68-3.76 3.98-3.76 2.59 0 3.88 1.78 3.88 3.65 0 2.15-1.72 3.7-3.88 3.7-2.48 0-3.98-1.68-3.98-3.6m6.74.22c0-1.75-.81-3.65-2.95-3.65-1.16 0-2.67.76-2.67 3.09 0 1.57.8 3.61 3 3.61 1.35 0 2.62-.96 2.62-3.05M29.16 46.26c0-.65-.02-1.88-.22-2.2q-.13-.19-.56-.22l-.28-.01c-.07-.08-.04-.22.02-.26a22 22 0 0 0 2.48 0c.09.05.07.19.02.26l-.27.01c-.28.02-.5.12-.56.26-.16.35-.16 1.57-.16 2.16v1.2c0 .93-.16 1.91-.8 2.55-.48.5-1.31.78-2.15.78a3.3 3.3 0 0 1-2.1-.6c-.6-.46-.89-1.24-.89-2.5v-2.51c0-1.1-.02-1.29-.67-1.34l-.28-.02c-.07-.05-.05-.23.02-.26a30 30 0 0 0 2.79 0c.06.03.09.21.02.26l-.27.02c-.66.05-.67.23-.67 1.34v2.3c0 1.7.56 2.83 2.29 2.83 1.64 0 2.26-1.2 2.26-2.83v-1.22zM42.27 44.98c0-.79-.05-.99-.6-1.03l-.4-.03c-.1-.06-.1-.22 0-.27.67-.05 1.52-.08 2.66-.08.78 0 1.52.05 2.08.3.53.23.93.65.93 1.33 0 .76-.51 1.16-1.25 1.46q.02.14.23.16c.67.1 1.66.63 1.66 1.77 0 1.23-1.06 2.07-3.3 2.07-.35 0-.95-.03-1.48-.03-.52 0-.96.02-1.41.03-.08-.03-.1-.2-.03-.27l.22-.03c.66-.1.68-.21.68-1.33V45zm1.01 1.41c0 .3.01.32.65.3 1.25-.04 1.94-.36 1.94-1.36s-.9-1.43-1.85-1.43q-.4 0-.56.06c-.12.03-.17.09-.17.28zm0 2.47c0 .38.03.93.26 1.16.23.24.6.3.98.3 1.1 0 1.93-.42 1.93-1.49 0-.84-.5-1.82-2.46-1.82-.66 0-.71.07-.71.28zM21.94 40.43l-.29-.03-.17-.02c-.43-.08-.6-.47-.8-.82l-1.03-1.78c-.18-.3-.37-.7-.77-.75 1.05-.13 2-.73 2-1.77 0-1.2-1.19-1.73-2.39-1.73-.72 0-1.43.05-2.16.05-.4 0-.83-.05-1.24-.05-.22 0-.22.05-.22.17 0 .18.07.13.3.13.9 0 .83.23.83.95v4.67c0 .66.06.86-.64.92l-.17.02-.3.03c-.07.06-.04.23.03.26h.44q.58-.04 1.16-.05.58.01 1.15.04l.43.01c.08-.03.1-.2.03-.26l-.3-.03-.17-.02c-.7-.05-.66-.25-.66-.93v-1.76c0-.1-.01-.38.06-.45s.18-.06.28-.06c.95 0 .94.1 1.4.9l1.23 2.22c.1.17.18.38.43.38h1.07l.44.01c.07-.03.09-.2.02-.26zm-4.3-3.5c-.22 0-.65.08-.65-.2v-2.04c0-.8.03-.92 1-.92 1.11 0 1.8.57 1.8 1.62 0 .46-.16.88-.58 1.16-.47.34-.99.38-1.57.38M17.87 45.22c0-1.12-.02-1.29-.76-1.34l-.3-.02c-.07-.05-.04-.24.03-.27l1.52.03c.47 0 .86 0 1.44-.03.08.03.1.23.03.27l-.28.02c-.7.04-.72.22-.72 1.34v3.7c0 .67.04.95.24 1.15.13.12.35.24 1.28.24 1 0 1.25-.04 1.43-.13.23-.13.54-.52.77-1.05.07-.06.3-.02.3.06 0 .12-.33 1.2-.5 1.5-.59-.03-1.7-.04-2.9-.04h-1.09l-1.52.03c-.07-.03-.1-.2-.02-.26l.35-.03c.68-.06.7-.21.7-1.33zM49.25 45.24c0-1.13-.02-1.32-.7-1.36l-.29-.02c-.06-.05-.04-.24.03-.27a42 42 0 0 0 2.87 0c.07.03.1.23.02.27l-.28.02c-.68.04-.7.23-.7 1.36v3.78c0 1.13.02 1.28.7 1.35l.28.03c.07.04.05.23-.02.26a43 43 0 0 0-2.87 0c-.07-.03-.1-.2-.03-.26l.3-.03c.67-.07.7-.23.7-1.35zM40.06 50.37l-.17-.01c-.12-.02-.23-.03-.31-.13-.15-.15-.14-.6-.14-.79v-4.66c0-.2-.05-.64.1-.8.07-.08.23-.1.37-.1h.16l.3-.03c.07-.04.04-.23-.03-.27h-1.7c-.13 0-.25 0-.33.15l-2.56 5.33-2.27-5.15c-.07-.18-.08-.32-.32-.32h-1.3l-.46-.01c-.06.03-.09.22-.02.26l.3.03.17.01c.49.03.52.14.48.66l-.4 5c-.02.5-.05.76-.58.81l-.17.02-.3.03c-.07.07-.05.23.03.26h.43q.4-.04.8-.05.45.01.9.04.2 0 .43.02c.07-.03.09-.2.02-.26l-.3-.03-.16-.02c-.76-.05-.74-.6-.7-1.25l.37-4.64h.09l2.44 5.72c.03.08.06.22.19.22.1 0 .14-.13.18-.2l2.76-5.87h.09v5.11c0 .2.02.62-.19.78-.1.08-.46.13-.46.13l-.16.02-.3.03c-.07.06-.05.23.03.27l.43-.02q.6-.02 1.22-.04l.86.02.45.03c.07-.03.1-.2.03-.26zM59.26 50.4l-.03-.03q-.09 0-.16-.03c-.46-.1-.64-.65-.81-1.04l-2.37-5.6c-.02-.07-.07-.22-.17-.22-.12 0-.16.16-.2.25l-2.26 5.59c-.08.21-.3.72-.44.87q-.18.16-.43.16l-.2.02-.27.03c-.07.06-.05.23.02.26l.44-.02c.31 0 .62-.04.93-.04q.4.01.79.04s.28 0 .43.02c.08-.03.1-.2.03-.27l-.3-.03-.16-.02c-.27-.03-.6-.08-.6-.38 0-.2.08-.43.16-.6l.35-.84c.17-.4.1-.45.57-.45h1.6c.56 0 .48 0 .73.57l.37.85c.06.14.17.4.17.55 0 .28-.3.3-.6.32 0 0-.1 0-.18.02l-.28.01c-.07.07-.05.24.03.27l.43-.02q.5-.03 1-.04.6.01 1.23.04l.18.01c.07-.03.1-.2.02-.26zm-3.1-2.63h-1.38c-.05 0-.44.04-.44-.07l.04-.14.83-2.05c.02-.05.1-.34.2-.34.07 0 .17.3.2.34l.8 1.92s.1.2.1.25c0 .12-.28.09-.36.09z"/><path fill="#fdb913" d="m48.46 16-4.67 1.74 1.47.5z"/><path fill="#fdb913" d="m11.2 16.07-2.62-.96.1-.24 2.88 1 .27-.17 1.38.75 1.72.62.1-.05-6.11-2.74.1-.24 6.73 2.68.1-.04-6.56-3.22.11-.23 7.13 3.1-6.84-3.67.11-.21 9.6 5.07q.2-.38.43-.75l-7.82-6.1 8.35 5.35q.3-.42.65-.79l-8.03-7.27.17-.19L19 12.92l-5.4-5.6.19-.2 6.08 5.84-5.62-6.28.19-.17 5.45 5.55-4.97-5.98.18-.16 6.98 8.27q.4-.35.84-.66l-4.98-8.6 5.74 8.1q.48-.3.97-.53l-4.7-9.7q.11-.07.24-.12l3.48 6.96-2.9-7.23.24-.1 3.46 7.7-2.86-7.94.24-.1 2.98 7.2-2.37-7.4.21-.08 3.36 10.24q.46-.16.95-.27l-1.39-9.83 2.3 9.65q.56-.09 1.15-.12L28.31.63l.25-.01.74 7.71L29.2.6h.26l.32 8.12L30.1.6h.26l-.07 7.73.71-7.7.24.01-.73 10.72q.57.05 1.1.12l2.29-9.62-1.38 9.8q.5.12 1 .3l3.34-10.2.24.08-2.35 7.33 2.95-7.12.24.1L35.1 10l3.42-7.62.25.11-2.87 7.14 3.44-6.88.22.11-4.67 9.65q.48.23.93.5l5.73-8.07-4.96 8.58q.44.32.86.68L44.36 6l.2.17-4.92 5.92 5.4-5.5.18.19-5.57 6.2 6.02-5.76.18.19-5.33 5.53 5.76-5.08.16.18-7.95 7.19q.34.37.64.78l8.34-5.34-7.8 6.1q.23.36.43.74l9.49-5 .12.21-6.72 3.62 7-3.05.1.24-7.43 3.65 7.7-3.08q.07.12.1.25l-6.97 3.12 7.2-2.54.1.22-1.54.57 2.28 1.74.64.35c-.24-.96-.62-2.14-.97-3.05A23.5 23.5 0 0 0 29.66.12 23 23 0 0 0 7.14 18.3l.45-.2z"/></g><defs><clipPath id="a"><path fill="#fff" d="M0 0h165v51H0z"/></clipPath></defs></svg>