<svg width="223" height="69" viewBox="0 0 223 69" fill="none" xmlns="http://www.w3.org/2000/svg">
<g clip-path="url(#clip0_4598_18208)">
<path d="M91.688 0H90.879V68.6033H91.688V0Z" fill="#FDB913"/>
<path d="M106.417 49.5909C106.417 47.1037 106.234 46.356 104.754 46.1424L103.975 46.0356C103.685 45.8525 103.655 45.2879 104.006 45.1506C107.028 44.9675 109.913 44.8607 112.935 44.8607C115.957 44.8607 118.445 45.0743 120.765 45.9288C125.573 47.6683 127.985 51.7271 127.985 56.4268C127.985 61.1265 125.817 64.8191 121.757 67.0316C119.437 68.2828 116.522 68.7406 113.79 68.7406C111.515 68.7406 109.241 68.4507 107.989 68.4507C106.494 68.4507 105.212 68.4812 103.548 68.5575C103.334 68.4507 103.258 67.8861 103.471 67.6725L104.296 67.5657C106.356 67.2758 106.433 66.8638 106.433 63.1254V49.6062L106.417 49.5909ZM109.333 62.2862C109.333 64.1782 109.44 65.3074 110.05 66.1619C110.828 67.2605 112.187 67.6115 114.431 67.6115C121.33 67.6115 124.428 63.0949 124.428 56.4878C124.428 52.5816 122.551 45.9593 113.225 45.9593C111.119 45.9593 109.989 46.2492 109.699 46.4629C109.409 46.6765 109.348 47.5615 109.348 49.1637V62.2862H109.333Z" fill="white"/>
<path d="M132.014 58.2273C132.014 56.8388 132.014 56.6709 131.053 56.0148L130.732 55.8012C130.595 55.6639 130.595 55.2671 130.763 55.1603C131.587 54.8704 133.464 53.9549 134.365 53.4208C134.548 53.4514 134.655 53.5276 134.655 53.665V55.7249C134.655 55.908 134.685 56.0148 134.762 56.0453C136.013 55.023 137.357 53.9091 138.669 53.9091C139.554 53.9091 140.272 54.4737 140.272 55.3282C140.272 56.5031 139.31 56.9609 138.745 56.9609C138.394 56.9609 138.211 56.8541 137.967 56.7167C137.433 56.3658 136.899 56.1369 136.41 56.1369C135.845 56.1369 135.418 56.4573 135.128 56.8541C134.777 57.3576 134.67 58.3799 134.67 59.6006V64.4376C134.67 67.0011 134.731 67.4284 136.09 67.5352L137.372 67.642C137.616 67.8251 137.555 68.4202 137.295 68.527C135.616 68.4507 134.594 68.4202 133.342 68.4202C132.091 68.4202 130.992 68.4507 130.061 68.527C129.816 68.4202 129.74 67.8098 129.984 67.642L130.671 67.5352C131.984 67.3215 132.014 67.0011 132.014 64.4376V58.2121V58.2273Z" fill="white"/>
<path d="M143.828 58.2273C143.828 56.8388 143.828 56.671 142.867 56.0148L142.546 55.8012C142.409 55.6639 142.409 55.2672 142.577 55.1603C143.401 54.8704 145.431 53.9549 146.24 53.4208C146.423 53.4208 146.56 53.4971 146.591 53.6345C146.515 54.8857 146.438 56.5794 146.438 58.0442V64.4376C146.438 67.0011 146.515 67.3521 147.797 67.5352L148.545 67.642C148.789 67.8251 148.728 68.4202 148.468 68.527C147.4 68.4507 146.377 68.4202 145.126 68.4202C143.874 68.4202 142.775 68.4507 141.783 68.527C141.539 68.4202 141.462 67.8098 141.707 67.642L142.454 67.5352C143.767 67.3521 143.813 67.0011 143.813 64.4376V58.2121L143.828 58.2273ZM146.789 48.0955C146.789 49.3773 145.904 49.9419 144.897 49.9419C143.798 49.9419 143.08 49.1179 143.08 48.1718C143.08 46.9969 143.935 46.2492 145.003 46.2492C146.072 46.2492 146.774 47.1037 146.774 48.0955H146.789Z" fill="white"/>
<path d="M152.406 57.9527C151.872 56.6404 151.552 55.496 150.269 55.3282L149.567 55.2214C149.354 54.9315 149.384 54.4432 149.674 54.3364C150.559 54.3974 151.811 54.4432 153.017 54.4432C153.978 54.4432 154.696 54.3974 155.902 54.3364C156.146 54.4737 156.176 55.0535 155.932 55.2214L155.505 55.2977C154.406 55.4808 154.36 55.6486 154.726 56.7167C155.551 59.1734 156.573 61.6606 157.398 63.5069C157.718 64.224 157.855 64.5445 157.962 64.6513C158.1 64.5445 158.359 64.0409 158.634 63.2932C159.092 62.0878 160.313 58.9903 160.664 58.0595C161.168 56.8083 161.305 56.0606 161.305 55.847C161.305 55.5265 161.091 55.3892 160.664 55.3129L159.84 55.2061C159.626 54.962 159.657 54.4584 159.916 54.3211C161.015 54.3821 161.9 54.4279 162.587 54.4279C163.472 54.4279 164.083 54.3821 165.075 54.3211C165.319 54.4584 165.365 54.9925 165.151 55.2061L164.617 55.2824C163.366 55.4655 163.045 56.381 162.022 58.3799C161.519 59.3412 159.321 64.4987 158.741 65.9635C158.39 66.8485 158.039 67.6725 157.565 68.8779C157.489 68.9848 157.352 69.0153 157.214 69.0153C157.031 69.0153 156.863 68.9848 156.756 68.8779C156.466 67.8861 155.932 66.4976 155.413 65.1701L152.422 57.9527H152.406Z" fill="white"/>
<path d="M168.616 59.326C167.685 59.326 167.655 59.4023 167.655 60.2873C167.655 63.8883 169.746 66.9401 173.562 66.9401C174.737 66.9401 175.729 66.5891 176.828 65.2006C177.179 65.0938 177.423 65.3074 177.469 65.6278C176.294 68.054 173.729 68.939 171.883 68.939C169.563 68.939 167.746 67.9472 166.723 66.5891C165.655 65.2006 165.228 63.5221 165.228 61.9657C165.228 57.5865 168.112 53.9244 172.386 53.9244C175.439 53.9244 177.438 56.0301 177.438 58.1663C177.438 58.6698 177.362 58.9445 177.301 59.0971C177.194 59.3107 176.691 59.3412 175.195 59.3412H168.616V59.326ZM170.829 58.2579C173.455 58.2579 174.248 58.1205 174.523 57.9069C174.63 57.8306 174.737 57.6933 174.737 57.2355C174.737 56.2437 174.065 54.9925 172.005 54.9925C169.944 54.9925 168.082 56.9151 168.051 58.09C168.051 58.1663 168.051 58.2731 168.296 58.2731H170.814L170.829 58.2579Z" fill="white"/>
<path d="M182.628 49.5909C182.628 46.9511 182.491 46.2797 180.888 46.1424L179.743 46.0356C179.469 45.822 179.499 45.2879 179.789 45.1506C181.712 44.9675 184.124 44.8607 187.436 44.8607C189.68 44.8607 191.817 45.0438 193.419 45.8525C194.946 46.6002 196.121 48.0192 196.121 50.2928C196.121 52.8563 194.625 54.1685 192.488 55.1603C192.488 55.5113 192.778 55.6181 193.16 55.6944C195.083 56.0453 197.937 57.8306 197.937 61.63C197.937 65.7499 194.869 68.527 188.474 68.527C187.436 68.527 185.696 68.4202 184.2 68.4202C182.704 68.4202 181.422 68.4965 180.11 68.527C179.896 68.4202 179.82 67.8556 180.033 67.642L180.674 67.5352C182.567 67.2147 182.628 66.8333 182.628 63.0949V49.5756V49.5909ZM185.543 54.3211C185.543 55.3129 185.574 55.3892 187.39 55.3129C191.023 55.1756 192.977 54.1075 192.977 50.7506C192.977 47.3936 190.382 45.9441 187.68 45.9441C186.902 45.9441 186.368 46.0204 186.047 46.1577C185.696 46.2645 185.543 46.4476 185.543 47.0885V54.3058V54.3211ZM185.543 62.5761C185.543 63.8578 185.62 65.6736 186.291 66.4518C186.963 67.2758 188.031 67.4436 189.1 67.4436C192.275 67.4436 194.686 66.0245 194.686 62.4693C194.686 59.6617 193.267 56.381 187.604 56.381C185.681 56.381 185.543 56.5947 185.543 57.3118V62.5761Z" fill="#FDB913"/>
<path d="M204.989 47.4242C207.584 45.3947 210.896 44.4029 214.59 44.4029C216.513 44.4029 219.215 44.7996 220.894 45.2574C221.321 45.3642 221.565 45.4405 221.886 45.3947C221.916 46.2187 222.1 48.4617 222.39 50.6285C222.206 50.8726 221.672 50.9184 221.428 50.6895C220.894 48.2786 219.291 45.5016 214.132 45.5016C208.683 45.5016 204.058 48.95 204.058 56.32C204.058 63.69 208.79 67.9166 214.62 67.9166C219.215 67.9166 221.245 64.9259 222.054 62.8355C222.298 62.6524 222.832 62.7287 222.985 62.9728C222.741 64.8191 221.81 67.169 221.275 67.8403C220.848 67.9166 220.421 68.054 220.024 68.1913C219.245 68.4812 216.681 69.0153 214.407 69.0153C211.201 69.0153 208.149 68.3744 205.539 66.6349C202.7 64.6818 200.486 61.4469 200.486 56.854C200.486 52.902 202.272 49.5299 204.974 47.4242H204.989Z" fill="#FDB913"/>
<path d="M70.3954 23.8039C66.61 9.24707 53.4376 0.198639 40.1889 0.198639C26.9402 0.198639 13.2793 9.46069 9.67712 24.6737C9.17342 26.7946 8.91394 29.1597 8.91394 31.4333C8.91394 33.4474 9.12763 35.1411 9.47869 37.0485C9.75343 36.9875 9.87554 36.9569 10.1808 36.8959C13.0198 36.4076 17.5073 35.8125 21.3384 36.3008C27.4286 37.079 31.2292 38.1013 37.6704 39.5509C44.0963 41.0005 48.8433 42.3738 55.7729 41.6108C61.8478 40.9395 65.9995 39.9934 70.0596 37.3231L70.3801 37.1095C70.4564 37.0637 70.7159 36.8501 70.8075 36.7891C71.1128 35.0496 71.3265 33.3254 71.3265 31.5096C71.3265 28.9614 70.9601 26.1843 70.3954 23.8192" fill="white"/>
<path d="M9.66185 24.7497C9.40237 25.9856 8.91394 28.3202 8.91394 31.433C8.91394 33.4472 9.12763 35.1409 9.47869 37.0482C9.75343 36.9872 9.87554 36.9567 10.1808 36.8956C13.0198 36.4074 17.5073 35.8123 21.3384 36.3005C27.4286 37.0635 31.2292 38.1011 37.6704 39.5507C44.0963 41.0002 48.8433 42.3735 55.7729 41.6106C61.8478 40.9392 65.9995 39.9932 70.0596 37.3229L70.3801 37.1093C70.4412 37.0635 70.7312 36.8499 70.8075 36.7888C71.0975 35.0493 71.3265 33.3251 71.3265 31.5093C71.3265 29.0679 70.9907 26.4281 70.4717 24.1241L66.1674 21.7285L61.1915 25.2074L57.8488 23.9105C56.7193 24.475 49.7286 29.1595 49.7286 29.1595L47.0575 27.2216L44.1727 26.657L40.3415 23.8647L35.9456 26.8859C35.9456 26.8859 31.046 29.7393 30.8629 29.7393C30.6797 29.7393 24.9406 25.1769 24.9406 25.1769L22.2848 22.3846C21.8269 22.6745 20.0258 23.4985 20.0258 23.4985L19.9342 23.529L18.1942 22.9797L16.0725 21.8658L9.63133 24.7802L9.66185 24.7497Z" fill="#4A6DA6"/>
<path d="M11.0661 46.0509C11.0661 44.7997 10.9898 44.4792 10.1503 44.4182L9.55501 44.3724C9.40237 44.2656 9.41763 44.0215 9.57027 43.9452C10.5777 43.8689 11.8445 43.8078 13.5846 43.8078C14.7599 43.8078 15.8894 43.8841 16.7289 44.2809C17.5378 44.6318 18.1484 45.3032 18.1484 46.3866C18.1484 47.6073 17.3699 48.2176 16.2404 48.6906C16.2404 48.8585 16.3931 48.9043 16.5915 48.95C17.5989 49.1179 19.0947 49.9571 19.0947 51.7576C19.0947 53.7107 17.492 55.023 14.1188 55.023C13.5846 55.023 12.6535 54.9772 11.8751 54.9772C11.0966 54.9772 10.4098 55.0077 9.7229 55.023C9.61606 54.9772 9.57027 54.7026 9.69238 54.5958L10.0282 54.55C11.0203 54.3974 11.0508 54.2143 11.0508 52.4443V46.0509H11.0661ZM12.6077 48.2939C12.6077 48.7669 12.623 48.7974 13.5846 48.7669C15.4925 48.7059 16.5152 48.2023 16.5152 46.6154C16.5152 45.0285 15.1567 44.3419 13.7219 44.3419C13.3098 44.3419 13.0351 44.3724 12.8672 44.4334C12.684 44.4945 12.6077 44.5708 12.6077 44.8759V48.2939ZM12.6077 52.2001C12.6077 52.8105 12.6382 53.665 13.0046 54.0312C13.3556 54.4127 13.9204 54.5042 14.4851 54.5042C16.1488 54.5042 17.4157 53.8328 17.4157 52.1544C17.4157 50.8268 16.6678 49.2705 13.6914 49.2705C12.684 49.2705 12.6077 49.362 12.6077 49.713V52.2001Z" fill="white"/>
<path d="M32.0992 47.6988C32.0992 46.1729 32.0687 45.9288 31.1223 45.8525L30.7255 45.822C30.6339 45.761 30.6644 45.5016 30.756 45.471C31.5497 45.5016 32.0992 45.5168 32.7708 45.5168C33.4424 45.5168 33.9461 45.5016 34.755 45.471C34.8466 45.5168 34.8771 45.7762 34.7856 45.822L34.3887 45.8525C33.4424 45.9288 33.4118 46.1729 33.4118 47.6988V52.8257C33.4118 54.3516 33.4424 54.55 34.3887 54.6568L34.7856 54.7026C34.8771 54.7636 34.8466 55.023 34.755 55.0535C33.9613 55.023 33.4118 55.0077 32.7708 55.0077C32.0992 55.0077 31.5497 55.0078 30.756 55.0535C30.6644 55.0078 30.6339 54.7789 30.7255 54.7026L31.1223 54.6568C32.0687 54.55 32.0992 54.3516 32.0992 52.8257V47.6988Z" fill="white"/>
<path d="M40.9673 52.8563C40.9673 54.3669 40.9978 54.5805 41.8678 54.6568L42.341 54.7026C42.4325 54.7636 42.402 55.023 42.3104 55.0535C41.4557 55.023 40.952 55.0077 40.3414 55.0077C39.7309 55.0077 39.2272 55.0077 38.2656 55.0535C38.174 55.0077 38.1435 54.7636 38.2656 54.7026L38.7998 54.6568C39.6546 54.5805 39.7309 54.3669 39.7309 52.8563V46.4171C39.7309 45.9746 39.7309 45.9593 39.2883 45.9593H38.464C37.823 45.9593 36.9987 45.9898 36.6171 46.3255C36.2508 46.646 36.1135 46.9511 35.9456 47.3173C35.8234 47.4089 35.6098 47.3173 35.564 47.2258C35.8082 46.5697 36.0219 45.6541 36.1287 45.0743C36.1745 45.0438 36.3729 45.0285 36.4187 45.0743C36.5103 45.5321 36.9987 45.5168 37.6856 45.5168H43.7452C44.5542 45.5168 44.6915 45.4863 44.9052 45.1201C44.9816 45.0896 45.1495 45.1201 45.18 45.1659C45.0121 45.7609 44.9052 46.9206 44.951 47.3479C44.89 47.4699 44.6305 47.4699 44.5694 47.3784C44.5237 47.0274 44.4168 46.4934 44.1879 46.3255C43.8521 46.0814 43.272 45.9593 42.4478 45.9593H41.3794C40.9367 45.9593 40.952 45.9593 40.952 46.4476V52.8563H40.9673Z" fill="white"/>
<path d="M47.378 47.6988C47.378 46.1729 47.3475 45.9288 46.4011 45.8525L46.0043 45.822C45.9127 45.761 45.9432 45.5016 46.0348 45.471C46.8285 45.5016 47.378 45.5168 48.0496 45.5168C48.7212 45.5168 49.2401 45.5016 50.0338 45.471C50.1254 45.5168 50.1559 45.7762 50.0644 45.822L49.6675 45.8525C48.7212 45.9288 48.6906 46.1729 48.6906 47.6988V52.8257C48.6906 54.3516 48.7212 54.55 49.6675 54.6568L50.0644 54.7026C50.1559 54.7636 50.1254 55.023 50.0338 55.0535C49.2401 55.023 48.6906 55.0077 48.0496 55.0077C47.4085 55.0077 46.8438 55.0078 46.0348 55.0535C45.9432 55.0078 45.9127 54.7789 46.0043 54.7026L46.4011 54.6568C47.3475 54.55 47.378 54.3516 47.378 52.8257V47.6988Z" fill="white"/>
<path d="M54.5366 55.2061C53.1171 55.2061 52.2165 54.8399 51.896 54.6721C51.6976 54.3516 51.4686 53.3293 51.4381 52.6579C51.5144 52.5663 51.7739 52.5358 51.8502 52.6121C52.1097 53.3445 52.7966 54.7484 54.7656 54.7484C56.2003 54.7484 56.8872 53.9549 56.8872 53.1004C56.8872 52.4595 56.7346 51.7576 55.4982 51.0863L53.8803 50.2012C53.0255 49.7282 52.0486 48.9043 52.0486 47.7293C52.0486 46.3713 53.3003 45.2574 55.5135 45.2574C56.0324 45.2574 56.6582 45.349 57.0856 45.4405C57.2993 45.5016 57.5435 45.5168 57.6809 45.5168C57.8335 45.8678 57.9862 46.6612 57.9862 47.2716C57.9098 47.3631 57.6504 47.4089 57.5588 47.3173C57.3451 46.6307 56.8872 45.6847 55.254 45.6847C53.6208 45.6847 53.2392 46.6154 53.2392 47.2868C53.2392 48.1261 54.0634 48.7212 54.6892 49.0568L56.0477 49.774C57.1161 50.3386 58.1693 51.1625 58.1693 52.5358C58.1693 54.1227 56.7651 55.2061 54.5519 55.2061H54.5366Z" fill="white"/>
<path d="M63.0842 50.3691C62.3363 50.3691 62.3057 50.3996 62.3057 50.8269V52.8563C62.3057 54.3669 62.3821 54.5652 63.2521 54.6568L63.6947 54.7026C63.7863 54.7636 63.7558 55.023 63.6642 55.0535C62.8247 55.023 62.3057 55.0077 61.6952 55.0077C61.0236 55.0077 60.5046 55.0383 59.8941 55.0535C59.8025 55.0078 59.772 54.7789 59.8636 54.7026L60.1231 54.6568C60.9931 54.5042 61.0236 54.3669 61.0236 52.8563V47.6683C61.0236 46.1577 60.9168 45.9135 60.1078 45.8525L59.7109 45.822C59.6194 45.761 59.6499 45.5016 59.7415 45.471C60.5046 45.471 61.0236 45.5168 61.6952 45.5168C62.3057 45.5168 62.8247 45.5016 63.4963 45.471C63.5879 45.5168 63.6184 45.7762 63.5268 45.822L63.2368 45.8525C62.3363 45.9441 62.3057 46.1577 62.3057 47.6683V49.3315C62.3057 49.774 62.3363 49.7893 63.0842 49.7893H67.5106C68.2585 49.7893 68.289 49.774 68.289 49.3315V47.6683C68.289 46.1577 68.2585 45.9441 67.3427 45.8525L67.0527 45.822C66.9611 45.761 66.9916 45.5016 67.0832 45.471C67.8006 45.5016 68.3196 45.5168 68.9606 45.5168C69.6017 45.5168 70.0901 45.5016 70.7923 45.471C70.8838 45.5168 70.9144 45.7762 70.8228 45.822L70.5022 45.8525C69.6017 45.9441 69.5712 46.1577 69.5712 47.6683V52.8563C69.5712 54.3669 69.6017 54.55 70.5022 54.6568L70.8686 54.7026C70.9602 54.7636 70.9296 55.023 70.838 55.0535C70.0901 55.023 69.5712 55.0077 68.9606 55.0077C68.3196 55.0077 67.7701 55.0078 67.0832 55.0535C66.9916 55.0078 66.9611 54.7789 67.0527 54.7026L67.3427 54.6568C68.289 54.5042 68.289 54.3669 68.289 52.8563V50.8269C68.289 50.3996 68.2585 50.3691 67.5106 50.3691H63.0842Z" fill="white"/>
<path d="M2.19795 58.2121C3.46482 57.2202 5.09801 56.732 6.89911 56.732C7.84545 56.732 9.15811 56.9303 9.98234 57.144C10.196 57.1897 10.3181 57.2355 10.4708 57.2202C10.486 57.617 10.5776 58.7156 10.715 59.7684C10.6234 59.8905 10.3639 59.9058 10.2418 59.799C9.98234 58.6088 9.18864 57.266 6.67016 57.266C3.99904 57.266 1.74004 58.9445 1.74004 62.5455C1.74004 66.1466 4.0601 68.2065 6.91437 68.2065C9.15811 68.2065 10.1502 66.7417 10.5624 65.7194C10.6845 65.6278 10.9439 65.6583 11.0203 65.7957C10.8982 66.6959 10.4402 67.8403 10.1808 68.176C9.96708 68.2065 9.76865 68.2828 9.57022 68.3591C9.18864 68.4964 7.93703 68.7558 6.80753 68.7558C5.23539 68.7558 3.73956 68.4354 2.47269 67.5962C1.08371 66.6349 0 65.0632 0 62.8202C0 60.8976 0.870021 59.2497 2.19795 58.2121Z" fill="white"/>
<path d="M11.7377 63.8273C11.7377 60.9586 14.0119 58.7461 17.1257 58.7461C20.621 58.7461 22.3763 61.1417 22.3763 63.6747C22.3763 66.5891 20.041 68.6948 17.1257 68.6948C13.7677 68.6948 11.7377 66.406 11.7377 63.812V63.8273ZM20.85 64.1325C20.85 61.7674 19.751 59.2039 16.8662 59.2039C15.2941 59.2039 13.2488 60.2262 13.2488 63.3848C13.2488 65.5057 14.3325 68.2828 17.3089 68.2828C19.1252 68.2828 20.85 66.9858 20.85 64.1477V64.1325Z" fill="white"/>
<path d="M39.4104 62.5913C39.4104 61.7063 39.3799 60.0431 39.1204 59.6159C39.0136 59.4328 38.7388 59.3412 38.3572 59.3107L37.9756 59.2802C37.8841 59.1734 37.9146 58.9903 38.0062 58.9292C38.5862 58.9597 39.1509 58.975 39.7462 58.975C40.3873 58.975 40.7994 58.975 41.3489 58.9292C41.471 59.0055 41.4557 59.1886 41.3794 59.2802L41.0131 59.3107C40.6315 59.3412 40.3415 59.4633 40.2499 59.6464C40.0362 60.1194 40.0362 61.7826 40.0362 62.5761V64.2088C40.0362 65.46 39.8225 66.7875 38.9678 67.642C38.3114 68.3134 37.1819 68.6948 36.0524 68.6948C34.9993 68.6948 33.9461 68.5117 33.1982 67.9014C32.3892 67.2758 32.0076 66.2229 32.0076 64.5139V61.1112C32.0076 59.6159 31.9771 59.3717 31.0918 59.2954L30.7102 59.2649C30.6186 59.2039 30.6491 58.9597 30.7407 58.914C31.5039 58.9445 32.0229 58.9597 32.6334 58.9597C33.2439 58.9597 33.7629 58.9597 34.5108 58.914C34.6024 58.9597 34.6329 59.2039 34.5413 59.2649L34.175 59.2954C33.2897 59.3717 33.2592 59.6159 33.2592 61.1112V64.224C33.2592 66.5433 34.0224 68.0692 36.3577 68.0692C38.693 68.0692 39.4104 66.4365 39.4104 64.2393V62.5761V62.5913Z" fill="white"/>
<path d="M57.1313 60.8518C57.1313 59.7837 57.0702 59.5091 56.3071 59.4633L55.7728 59.4175C55.6355 59.3412 55.6507 59.1123 55.7881 59.0513C56.6886 58.975 57.8182 58.9292 59.375 58.9292C60.4282 58.9292 61.4356 59.0055 62.1835 59.326C62.9009 59.6311 63.4504 60.211 63.4504 61.1265C63.4504 62.1641 62.7483 62.6981 61.7409 63.0949C61.7409 63.2475 61.8782 63.278 62.0614 63.3085C62.962 63.4611 64.3051 64.163 64.3051 65.7041C64.3051 67.3673 62.8704 68.4965 59.8635 68.4965C59.375 68.4965 58.5661 68.4507 57.8639 68.4507C57.1618 68.4507 56.5665 68.4812 55.9407 68.4965C55.8339 68.4507 55.8034 68.2218 55.9102 68.1455L56.2155 68.0997C57.1008 67.9777 57.1313 67.8098 57.1313 66.2992V60.8366V60.8518ZM58.505 62.7744C58.505 63.1712 58.5203 63.2017 59.375 63.1712C61.0845 63.1101 62.0004 62.6829 62.0004 61.3249C62.0004 59.9668 60.7793 59.387 59.5124 59.387C59.1461 59.387 58.9019 59.4175 58.7492 59.4785C58.5813 59.5243 58.5203 59.5854 58.5203 59.8448V62.7744H58.505ZM58.505 66.1161C58.505 66.6349 58.5355 67.3673 58.8561 67.6877C59.1766 68.0234 59.6803 68.0845 60.1687 68.0845C61.6493 68.0845 62.7941 67.5046 62.7941 66.0703C62.7941 64.9412 62.1225 63.6137 59.4666 63.6137C58.5661 63.6137 58.505 63.7052 58.505 63.9951V66.1161Z" fill="white"/>
<path d="M29.657 54.7026L29.2601 54.6568C29.1838 54.6568 29.1075 54.6415 29.0465 54.6263C28.4664 54.5195 28.2222 54.0007 27.9475 53.5124L26.5585 51.1015C26.3143 50.7048 26.0701 50.1555 25.5206 50.0792C26.9401 49.9113 28.2222 49.0874 28.2222 47.6836C28.2222 46.0661 26.6196 45.3337 25.0016 45.3337C24.0248 45.3337 23.0784 45.3947 22.0863 45.3947C21.5368 45.3947 20.9568 45.3337 20.4226 45.3337C20.1173 45.3337 20.1173 45.3947 20.1173 45.5626C20.1173 45.8067 20.2241 45.7457 20.5447 45.7457C21.7352 45.7457 21.6589 46.0356 21.6589 47.0274V53.3293C21.6589 54.2296 21.7352 54.5042 20.7889 54.5805C20.7889 54.5805 20.6363 54.5805 20.5599 54.611L20.1631 54.6568C20.0715 54.7484 20.102 54.9772 20.1936 55.023C20.4073 55.023 20.7889 55.0077 20.7889 55.0077C21.3078 54.9925 21.8421 54.9467 22.361 54.9467C22.88 54.9467 23.399 54.9925 23.9179 55.0077C24.1011 55.0077 24.2995 55.0078 24.5132 55.023C24.6048 54.9772 24.6353 54.7484 24.5437 54.6721L24.1316 54.6263C24.0553 54.6263 23.9026 54.611 23.9026 54.611C22.941 54.55 23.0021 54.2753 23.0021 53.3445V50.9642C23.0021 50.8269 22.9868 50.4606 23.0784 50.3538C23.17 50.2623 23.3226 50.2775 23.46 50.2775C24.7574 50.2775 24.7421 50.3996 25.3527 51.483L27.0164 54.489C27.1538 54.7178 27.2606 55.0077 27.5964 55.0077H29.0465C29.2296 55.0077 29.428 55.0078 29.6417 55.023C29.7333 54.9772 29.7638 54.7484 29.6723 54.6721L29.657 54.7026ZM23.8263 49.9724C23.5363 49.9724 22.9563 50.0792 22.9563 49.6977V46.9359C22.9563 45.8525 22.9868 45.6999 24.2842 45.6999C25.7953 45.6999 26.7417 46.4629 26.7417 47.8819C26.7417 48.5075 26.5127 49.0721 25.9632 49.4536C25.3069 49.8961 24.62 49.9571 23.8263 49.9571V49.9724Z" fill="white"/>
<path d="M24.1469 61.1724C24.1469 59.6618 24.1164 59.433 23.109 59.3567L22.7122 59.3261C22.6206 59.2651 22.6511 59.0057 22.7427 58.9599C23.628 58.9904 24.1622 59.0057 24.8033 59.0057C25.4443 59.0057 25.9633 58.9904 26.757 58.9599C26.8486 59.0057 26.8791 59.2651 26.7875 59.3261L26.4059 59.3567C25.4749 59.4177 25.4443 59.6618 25.4443 61.1724V66.1773C25.4443 67.0928 25.4901 67.459 25.7801 67.7337C25.948 67.8863 26.2533 68.0694 27.5049 68.0694C28.8481 68.0694 29.1839 68.0084 29.4434 67.8863C29.7639 67.7184 30.176 67.1844 30.4966 66.452C30.5881 66.3757 30.8934 66.452 30.8934 66.5435C30.8934 66.7114 30.4508 68.1762 30.2218 68.5577C29.4128 68.5272 27.917 68.5119 26.2838 68.5119H24.8185C24.1622 68.5119 23.6432 68.5119 22.7579 68.5577C22.6664 68.5119 22.6358 68.283 22.7274 68.1915L23.2006 68.1457C24.1164 68.0541 24.1469 67.8558 24.1469 66.3452V61.1572V61.1724Z" fill="white"/>
<path d="M66.5643 61.203C66.5643 59.6771 66.5337 59.433 65.6179 59.3567L65.2211 59.3261C65.1295 59.2651 65.16 59.0057 65.2516 58.9599C66.03 58.9904 66.549 59.0057 67.2053 59.0057C67.8617 59.0057 68.3501 58.9904 69.1285 58.9599C69.2201 59.0057 69.2506 59.2651 69.1591 59.3261L68.7622 59.3567C67.8464 59.4177 67.8159 59.6771 67.8159 61.203V66.3299C67.8159 67.8558 67.8464 68.0541 68.7622 68.1609L69.1591 68.2067C69.2506 68.2678 69.2201 68.5272 69.1285 68.5729C68.3501 68.5424 67.8159 68.5272 67.2053 68.5272C66.549 68.5272 66.03 68.5272 65.2516 68.5729C65.16 68.5272 65.1295 68.2983 65.2211 68.2067L65.6179 68.1609C66.5337 68.0541 66.5643 67.8558 66.5643 66.3299V61.203Z" fill="white"/>
<path d="M54.1397 68.161C54.0634 68.161 53.9108 68.1457 53.9108 68.1457C53.7429 68.1305 53.6055 68.0999 53.4834 67.9779C53.2849 67.7643 53.3002 67.1539 53.3002 66.9098V60.6079C53.3002 60.3332 53.2392 59.7382 53.4376 59.5245C53.5444 59.4177 53.7581 59.3872 53.9413 59.3872C54.0125 59.3872 54.0837 59.3872 54.155 59.3872L54.5518 59.3567C54.6434 59.2957 54.6129 59.0363 54.5213 58.9905C54.3076 58.9905 54.1092 58.9905 53.926 58.9905H52.2318C52.0486 58.9905 51.8807 58.9905 51.7739 59.1888L48.309 66.391L45.2563 59.433C45.1495 59.1888 45.1342 58.9905 44.8137 58.9905H43.0431C42.86 58.9905 42.6615 58.9905 42.4478 58.9905C42.3563 59.0363 42.3257 59.2957 42.4173 59.3567L42.8142 59.3872C42.8905 59.3872 43.0431 59.4025 43.0431 59.4025C43.6995 59.4482 43.7452 59.5856 43.6842 60.2875L43.1652 67.0471C43.1194 67.7185 43.0889 68.0847 42.3715 68.1457C42.3715 68.1457 42.2189 68.161 42.1426 68.1762L41.7457 68.222C41.6541 68.3136 41.6847 68.5425 41.7763 68.5882C41.9899 68.5882 42.3563 68.573 42.3563 68.573C42.7226 68.5577 43.0889 68.5272 43.4552 68.5272C43.8521 68.5272 44.2489 68.5577 44.6458 68.573C44.829 68.573 45.0274 68.573 45.2411 68.5882C45.3327 68.5425 45.3632 68.3136 45.2716 68.222L44.8747 68.1762C44.7679 68.1762 44.6458 68.161 44.6458 68.161C43.6231 68.0999 43.6384 67.3675 43.7147 66.4825L44.2032 60.1959H44.3253L47.6374 67.9321C47.668 68.0389 47.7138 68.222 47.8817 68.222C48.0343 68.222 48.0801 68.0542 48.1411 67.9474L51.8654 60.0128H51.9876V66.925C51.9876 67.1997 52.0181 67.7643 51.7281 67.9779C51.5754 68.0847 51.1023 68.161 51.1023 68.161C51.0412 68.161 50.9649 68.1762 50.8886 68.1915L50.4917 68.2373C50.4001 68.3288 50.4307 68.5577 50.5222 68.6035C50.7359 68.6035 51.1023 68.5882 51.1023 68.5882C51.6365 68.573 52.186 68.5272 52.7507 68.5272C53.1476 68.5272 53.926 68.5577 53.926 68.5577C54.1092 68.5577 54.3229 68.5882 54.5366 68.5882C54.6281 68.5425 54.6587 68.3136 54.5671 68.222L54.1702 68.1762L54.1397 68.161Z" fill="white"/>
<path d="M80.1029 68.1913L80.0571 68.1455C79.9808 68.1455 79.9045 68.1302 79.8435 68.115C79.2176 67.9777 78.9734 67.23 78.7445 66.6959L75.5391 59.1123C75.5086 59.0208 75.4476 58.8224 75.3102 58.8224C75.1423 58.8224 75.0812 59.036 75.0354 59.1581L71.9827 66.7264C71.8759 67.0164 71.5859 67.703 71.3875 67.9166C71.2348 68.0845 71.0211 68.115 70.8074 68.1302C70.8074 68.1302 70.6395 68.1455 70.548 68.1608L70.1664 68.2065C70.0748 68.2981 70.1053 68.527 70.1969 68.5727C70.4106 68.5727 70.7922 68.5575 70.7922 68.5575C71.2043 68.5575 71.6317 68.4965 72.0438 68.4965C72.3949 68.4965 72.7459 68.527 73.097 68.5422C73.097 68.5422 73.4786 68.5422 73.6922 68.5575C73.7838 68.5117 73.8144 68.2828 73.7228 68.1913L73.3259 68.1455C73.2496 68.1455 73.1122 68.1302 73.1122 68.1302C72.7459 68.0845 72.288 68.0234 72.288 67.6115C72.288 67.3368 72.4101 67.0164 72.517 66.7875L72.9901 65.6583C73.2343 65.109 73.1275 65.048 73.7686 65.048H75.9207C76.6839 65.048 76.5618 65.048 76.8976 65.8109L77.4013 66.9553C77.4776 67.1537 77.6302 67.4894 77.6302 67.6877C77.6302 68.0692 77.2181 68.0997 76.8213 68.1302C76.8213 68.1302 76.6992 68.1302 76.5771 68.1455L76.1955 68.176C76.1039 68.2676 76.1344 68.4965 76.226 68.5422C76.4397 68.5422 76.8213 68.527 76.8213 68.527C77.2792 68.5117 77.7218 68.4812 78.1645 68.4812C78.7139 68.4812 79.2787 68.5117 79.8282 68.527C80.0113 68.527 79.8587 68.527 80.0724 68.5422C80.164 68.4965 80.1945 68.2676 80.1029 68.1913ZM75.9055 64.6207H74.0433C74.0433 64.6207 73.4633 64.6818 73.4633 64.5292C73.4633 64.4834 73.4938 64.3919 73.5091 64.3461L74.6386 61.569C74.6386 61.569 74.776 61.1112 74.9133 61.1112C75.0049 61.1112 75.1423 61.508 75.1728 61.569L76.287 64.163C76.287 64.163 76.3939 64.4376 76.3939 64.4987C76.3939 64.6665 76.0123 64.6207 75.9207 64.6207H75.9055Z" fill="white"/>
<path d="M65.4957 21.6521L59.1919 23.9867L61.1762 24.6734L65.4957 21.6521Z" fill="#FDB913"/>
<path d="M15.1414 21.7439L11.6002 20.4317C11.646 20.3249 11.6765 20.2181 11.7223 20.1113L15.6145 21.4693L15.9961 21.2404L17.8583 22.2475L20.1783 23.0867L20.3157 23.0257L12.0581 19.3178C12.1039 19.211 12.1497 19.1042 12.1955 18.9974L21.2925 22.6289L21.4147 22.5679L12.5466 18.2192C12.5923 18.1124 12.6381 18.0056 12.6992 17.8987L22.3305 22.0949L13.096 17.1205C13.1418 17.029 13.1876 16.9374 13.2487 16.8306L26.2227 23.6971C26.4058 23.3461 26.6043 23.0104 26.8179 22.69L16.2556 14.435L27.5353 21.6676C27.8101 21.3014 28.1153 20.9505 28.4206 20.5995L17.5682 10.7729C17.6446 10.6966 17.7209 10.6051 17.8125 10.5135L25.6884 17.4715L18.3925 9.8879C18.4688 9.79635 18.5604 9.72006 18.6367 9.62851L26.8637 17.5173L19.2625 9.01816C19.3541 8.94186 19.4304 8.86557 19.522 8.78928L26.879 16.2966L20.163 8.20944C20.2394 8.14841 20.3309 8.07211 20.4073 7.99582L29.8249 19.1805C30.1912 18.86 30.5728 18.5701 30.9544 18.2955L24.2384 6.65305L32.0075 17.6088C32.4349 17.3494 32.8623 17.1205 33.3049 16.9069L26.9553 3.76915C27.0622 3.70812 27.169 3.66234 27.2911 3.61656L31.9923 13.0465L28.0695 3.26561C28.1764 3.21984 28.2832 3.17406 28.3901 3.12829L33.0607 13.5347L29.199 2.80785C29.3059 2.76208 29.4127 2.73156 29.5196 2.68578L33.5339 12.4209L30.3438 2.39587C30.4354 2.36535 30.527 2.33483 30.6338 2.30431L35.1671 16.1592C35.5945 16.0219 36.0218 15.8998 36.4492 15.7778L34.5718 2.47216L37.6703 15.5336C38.1893 15.4573 38.7082 15.3963 39.2424 15.3658L38.2808 0.854734C38.3877 0.854734 38.4945 0.854734 38.6166 0.839475L39.6088 11.2764L39.4561 0.808958C39.5782 0.808958 39.7003 0.808958 39.8225 0.808958L40.2498 11.7952L40.6772 0.808958C40.7993 0.808958 40.9062 0.808958 41.0283 0.808958L40.9367 11.2612L41.8983 0.839475C42.0051 0.839475 42.112 0.839475 42.2188 0.854734L41.2267 15.3505C41.7304 15.3811 42.2341 15.4421 42.7225 15.5184L45.8058 2.50268L43.9436 15.7625C44.4015 15.8693 44.8594 16.0067 45.2868 16.1592L49.8048 2.36535C49.9116 2.41112 50.0185 2.44164 50.1253 2.48742L46.9658 12.4056L50.9496 2.77733C51.0564 2.82311 51.1632 2.85363 51.2701 2.8994L47.439 13.5195L52.0638 3.21984C52.1706 3.26561 52.2775 3.31139 52.3996 3.37243L48.5227 13.0312L53.1628 3.72338C53.2696 3.76915 53.3612 3.81493 53.4528 3.8607L47.1337 16.9222C47.5611 17.1358 47.9884 17.3647 48.3853 17.6088L56.1239 6.68357L49.4232 18.2955C49.8201 18.5854 50.2169 18.8906 50.5832 19.211L59.9245 8.11789C60.0161 8.19419 60.0924 8.27048 60.184 8.34677L53.5444 16.3576L60.8251 8.9266C60.9166 9.0029 60.993 9.07919 61.0845 9.17074L53.5596 17.5783L61.6951 9.76583C61.7714 9.84213 61.863 9.93368 61.9393 10.0252L54.7349 17.5173L62.5193 10.6356C62.5956 10.7119 62.6719 10.7882 62.733 10.8797L51.9875 20.6148C52.2928 20.9505 52.5828 21.3014 52.8575 21.6676L64.1067 14.4503L53.5596 22.69C53.7733 23.0104 53.9717 23.3614 54.1549 23.7123L66.9763 16.9374C67.0373 17.029 67.0831 17.1358 67.1289 17.2426L58.0471 22.1254L67.5105 18.0056C67.5563 18.1124 67.6173 18.2192 67.6631 18.326L57.6045 23.2698L68.0142 19.1042C68.06 19.211 68.1058 19.3178 68.1668 19.4399L58.734 23.6665L68.4721 20.2181C68.5179 20.3096 68.5484 20.4164 68.5942 20.5232L66.5031 21.2862L69.6016 23.636L70.4563 24.109C70.1358 22.7968 69.6321 21.2099 69.1437 19.9739C64.5036 8.20944 52.7812 0.168091 40.0819 0.168091C25.1847 0.168091 12.745 10.6203 9.67701 24.5973C9.67701 24.5973 9.66175 24.6889 9.64648 24.7652L10.257 24.4753L15.1414 21.7439Z" fill="#FDB913"/>
</g>
<defs>
<clipPath id="clip0_4598_18208">
<rect width="223" height="69" fill="white"/>
</clipPath>
</defs>
</svg>
