<svg width="132" height="41" viewBox="0 0 132 41" fill="none" xmlns="http://www.w3.org/2000/svg">
<mask id="mask0_20392_10317" style="mask-type:luminance" maskUnits="userSpaceOnUse" x="0" y="0" width="132" height="41">
<path d="M132 0H0V41H132V0Z" fill="white"/>
</mask>
<g mask="url(#mask0_20392_10317)">
<path d="M54.2724 0H53.7915V40.7636H54.2724V0Z" fill="#FDB913"/>
<path d="M62.9944 29.4611C62.9944 27.9835 62.8913 27.5354 62.0031 27.4123L61.5368 27.3483C61.3699 27.2399 61.3454 26.905 61.5564 26.8214C63.3479 26.7179 65.0509 26.6538 66.8423 26.6538C68.6338 26.6538 70.1061 26.7819 71.4754 27.2892C74.3172 28.3234 75.7504 30.7366 75.7504 33.5241C75.7504 36.3116 74.4644 38.5131 72.0644 39.8231C70.6951 40.5619 68.9675 40.8376 67.3479 40.8376C65.9982 40.8376 64.6533 40.6653 63.9123 40.6653C63.0289 40.6653 62.2681 40.6899 61.2816 40.7293C61.154 40.6653 61.1147 40.3304 61.2374 40.2023L61.7233 40.1383C62.9454 39.9708 62.9896 39.7147 62.9896 37.4937V29.4611H62.9944ZM64.7221 37.0061C64.7221 38.1289 64.7859 38.8037 65.1442 39.311C65.6055 39.966 66.4055 40.1777 67.7355 40.1777C71.8191 40.1777 73.6497 37.4937 73.6497 33.5635C73.6497 31.2389 72.5356 27.3089 67.019 27.3089C65.7773 27.3089 65.1049 27.4812 64.9332 27.6043C64.7613 27.7324 64.7221 28.2593 64.7221 29.2099V37.0061Z" fill="#004B8D"/>
<path d="M78.1452 34.5977C78.1452 33.7752 78.1452 33.6669 77.5758 33.2876L77.3844 33.1645C77.301 33.0808 77.301 32.8443 77.4041 32.7804C77.8899 32.6129 79.004 32.0614 79.5341 31.7461C79.6372 31.7658 79.701 31.8101 79.701 31.8939V33.1201C79.701 33.2285 79.7207 33.2876 79.7648 33.3073C80.501 32.6966 81.3009 32.0366 82.0814 32.0366C82.6065 32.0366 83.0286 32.3765 83.0286 32.8838C83.0286 33.5782 82.4592 33.8539 82.1207 33.8539C81.9145 33.8539 81.8065 33.79 81.6593 33.7062C81.3452 33.4945 81.0262 33.3664 80.7365 33.3664C80.398 33.3664 80.1476 33.5585 79.9807 33.79C79.7697 34.0854 79.7059 34.7011 79.7059 35.4201V38.2914C79.7059 39.8131 79.75 40.0692 80.5501 40.1333L81.3059 40.1973C81.4532 40.3007 81.409 40.6603 81.2666 40.7242C80.2752 40.6849 79.6667 40.6603 78.9255 40.6603C78.1844 40.6603 77.5366 40.6849 76.9869 40.7242C76.8397 40.6603 76.8004 40.3007 76.9427 40.1973L77.3451 40.1333C78.1256 40.0053 78.1452 39.8131 78.1452 38.2914V34.5927V34.5977Z" fill="#004B8D"/>
<path d="M85.1387 34.5979C85.1387 33.7755 85.1387 33.6671 84.5693 33.2879L84.3779 33.1648C84.2944 33.081 84.2944 32.8447 84.3975 32.7806C84.8833 32.6132 86.0809 32.0616 86.5668 31.7464C86.6699 31.7464 86.7533 31.7858 86.7779 31.8744C86.7386 32.6132 86.6944 33.6278 86.6944 34.4945V38.2966C86.6944 39.8183 86.7386 40.0301 87.4944 40.1385L87.9362 40.2025C88.0834 40.3059 88.0392 40.6655 87.892 40.7295C87.2588 40.6901 86.6503 40.6655 85.914 40.6655C85.1778 40.6655 84.5251 40.6901 83.9312 40.7295C83.784 40.6655 83.7447 40.3059 83.8871 40.2025L84.3288 40.1385C85.1092 40.0301 85.1288 39.8183 85.1288 38.2966V34.5979H85.1387ZM86.8859 28.5748C86.8859 29.3382 86.3606 29.6731 85.7717 29.6731C85.119 29.6731 84.6969 29.1855 84.6969 28.6191C84.6969 27.9198 85.2025 27.4766 85.8355 27.4766C86.4687 27.4766 86.8859 27.9837 86.8859 28.5748Z" fill="#004B8D"/>
<path d="M90.2137 34.43C89.8947 33.647 89.7083 32.9723 88.9475 32.8688L88.5254 32.8048C88.3978 32.6374 88.4174 32.3419 88.5892 32.2778C89.1144 32.3173 89.8506 32.3419 90.5671 32.3419C91.1365 32.3419 91.5586 32.3173 92.2751 32.2778C92.4224 32.3616 92.442 32.7014 92.2947 32.8048L92.0444 32.8492C91.3917 32.9526 91.372 33.0609 91.5831 33.6962C92.069 35.154 92.6776 36.6364 93.1635 37.7347C93.3549 38.1582 93.4383 38.3503 93.5021 38.4093C93.5855 38.3454 93.7328 38.0499 93.9045 37.6066C94.1794 36.8876 94.896 35.0505 95.1071 34.499C95.4015 33.7603 95.4849 33.312 95.4849 33.1889C95.4849 32.9969 95.3623 32.9131 95.1071 32.8738L94.6211 32.8097C94.4935 32.662 94.518 32.3665 94.6604 32.2828C95.3132 32.3222 95.8383 32.3468 96.2407 32.3468C96.7659 32.3468 97.1242 32.3222 97.7132 32.2828C97.8604 32.3665 97.8801 32.6866 97.7573 32.8097L97.4432 32.854C96.707 32.9574 96.5156 33.5091 95.907 34.6911C95.6125 35.2623 94.307 38.3257 93.9683 39.1924C93.7574 39.7194 93.5463 40.207 93.2714 40.9261C93.2273 40.99 93.1438 41.0097 93.0604 41.0097C92.9524 41.0097 92.8493 40.99 92.7855 40.9261C92.6186 40.335 92.2996 39.5077 91.9856 38.7246L90.2137 34.435V34.43Z" fill="#004B8D"/>
<path d="M99.8086 35.2527C99.2589 35.2527 99.2392 35.297 99.2392 35.8239C99.2392 37.9613 100.481 39.7738 102.734 39.7738C103.431 39.7738 104.02 39.5619 104.672 38.7395C104.883 38.6754 105.031 38.8035 105.05 38.9907C104.358 40.4288 102.842 40.9557 101.742 40.9557C100.373 40.9557 99.2981 40.3647 98.6896 39.5619C98.0564 38.7395 97.8062 37.7446 97.8062 36.8138C97.8062 34.2135 99.5092 32.0366 102.037 32.0366C103.848 32.0366 105.026 33.2827 105.026 34.5532C105.026 34.8488 104.987 35.0162 104.942 35.1C104.878 35.228 104.584 35.2477 103.701 35.2477H99.8036L99.8086 35.2527ZM101.114 34.6173C102.67 34.6173 103.136 34.5336 103.303 34.4055C103.367 34.3662 103.431 34.2824 103.431 34.0017C103.431 33.4107 103.028 32.672 101.811 32.672C100.594 32.672 99.4944 33.8146 99.4749 34.5139C99.4749 34.5532 99.4748 34.6173 99.622 34.6173H101.119H101.114Z" fill="#004B8D"/>
<path d="M108.104 29.4611C108.104 27.8949 108.02 27.496 107.073 27.4123L106.396 27.3483C106.229 27.2203 106.248 26.905 106.415 26.8214C107.554 26.7179 108.987 26.6538 110.94 26.6538C112.265 26.6538 113.531 26.7622 114.479 27.2449C115.387 27.6881 116.079 28.5352 116.079 29.8895C116.079 31.4114 115.196 32.1943 113.93 32.7854C113.93 32.9972 114.096 33.0612 114.327 33.1006C115.465 33.3123 117.149 34.3712 117.149 36.6318C117.149 39.0843 115.338 40.7293 111.544 40.7293C110.93 40.7293 109.9 40.6653 109.016 40.6653C108.133 40.6653 107.372 40.7096 106.597 40.7293C106.469 40.6653 106.43 40.3304 106.553 40.2023L106.931 40.1383C108.045 39.9462 108.089 39.7147 108.089 37.4937V29.4611H108.104ZM109.831 32.2732C109.831 32.8642 109.856 32.9085 110.926 32.8642C113.075 32.7804 114.233 32.1451 114.233 30.1554C114.233 28.1658 112.698 27.3039 111.097 27.3039C110.631 27.3039 110.317 27.3483 110.13 27.432C109.92 27.496 109.836 27.5995 109.836 27.9835V32.2732H109.831ZM109.831 37.1735C109.831 37.9369 109.875 39.0105 110.273 39.4784C110.675 39.966 111.304 40.0693 111.936 40.0693C113.812 40.0693 115.24 39.2272 115.24 37.1095C115.24 35.4399 114.396 33.4946 111.049 33.4946C109.91 33.4946 109.826 33.6226 109.826 34.0462V37.1735H109.831Z" fill="#FDB913"/>
<path d="M121.34 28.1702C122.877 26.9636 124.835 26.3726 127.024 26.3726C128.162 26.3726 129.762 26.604 130.754 26.8799C131.003 26.9439 131.156 26.9882 131.342 26.9636C131.362 27.4512 131.47 28.7809 131.637 30.0712C131.534 30.219 131.215 30.2436 131.067 30.1107C130.754 28.6725 129.801 27.0227 126.749 27.0227C123.523 27.0227 120.79 29.0763 120.79 33.4497C120.79 37.8231 123.593 40.3397 127.043 40.3397C129.762 40.3397 130.959 38.5617 131.446 37.3158C131.593 37.2074 131.912 37.2517 131.996 37.3996C131.848 38.4978 131.298 39.8965 130.984 40.2954C130.728 40.3397 130.479 40.4235 130.248 40.5071C129.787 40.6796 128.27 40.9947 126.92 40.9947C125.021 40.9947 123.21 40.6155 121.673 39.5763C119.99 38.414 118.685 36.4884 118.685 33.765C118.685 31.4207 119.739 29.4113 121.34 28.1653V28.1702Z" fill="#FDB913"/>
<path d="M41.6641 14.1444C39.4261 5.49126 31.6273 0.118164 23.7843 0.118164C15.9414 0.118164 7.85796 5.62423 5.72299 14.6614C5.4236 15.9222 5.27637 17.3307 5.27637 18.6753C5.27637 19.8671 5.39906 20.8767 5.61501 22.0094C5.77698 21.9749 5.84569 21.9602 6.02728 21.9208C7.70582 21.6302 10.361 21.2855 12.6285 21.5711C16.2359 22.0291 18.4887 22.6398 22.2924 23.5017C26.096 24.3636 28.9034 25.1762 33.0065 24.7231C36.604 24.3241 39.0628 23.7628 41.458 22.1769L41.6494 22.0489C41.6887 22.0193 41.8506 21.9011 41.9046 21.8617C42.0812 20.8324 42.2138 19.8031 42.2138 18.7245C42.2138 17.2076 42.0027 15.5628 41.6641 14.1542" fill="white"/>
<path d="M5.71318 14.7107C5.56103 15.4446 5.27637 16.8285 5.27637 18.6752C5.27637 19.8671 5.39906 20.8767 5.61501 22.0094C5.77698 21.975 5.84569 21.9602 6.02728 21.9208C7.70582 21.6302 10.361 21.2855 12.6285 21.5712C16.2309 22.0292 18.4887 22.635 22.2924 23.5017C26.096 24.3636 28.9034 25.1762 33.0065 24.7231C36.5991 24.3242 39.0628 23.7627 41.458 22.1769L41.6494 22.0489C41.6887 22.0242 41.8555 21.9011 41.9046 21.8617C42.0812 20.8324 42.2138 19.8031 42.2138 18.7246C42.2138 17.2717 42.0174 15.7055 41.7034 14.3365L39.1611 12.9131L36.2211 14.9816L34.2432 14.2084C33.5709 14.5482 29.4383 17.3258 29.4383 17.3258L27.8531 16.1734L26.1499 15.8336L23.8825 14.1739L21.2764 15.9666C21.2764 15.9666 18.3709 17.6608 18.2727 17.6608C18.1745 17.6608 14.7684 14.952 14.7684 14.952L13.1979 13.2923C12.9328 13.4598 11.8628 13.9523 11.8628 13.9523L11.8089 13.967L10.7782 13.642L9.52667 12.9771L5.71808 14.7107H5.71318Z" fill="#004B8D"/>
<path d="M6.54761 27.3581C6.54761 26.6144 6.50343 26.4272 6.00282 26.3878L5.64944 26.3583C5.5611 26.2991 5.57092 26.1466 5.65926 26.1071C6.25803 26.0579 7.00895 26.0283 8.03962 26.0283C8.73656 26.0283 9.40404 26.0775 9.89974 26.309C10.3758 26.5159 10.7439 26.9197 10.7439 27.5599C10.7439 28.2839 10.2777 28.6483 9.61509 28.9291C9.61509 29.0325 9.70343 29.0571 9.82613 29.0768C10.4249 29.1753 11.3084 29.6777 11.3084 30.7464C11.3084 31.9087 10.3562 32.6917 8.36355 32.6917C8.04453 32.6917 7.49974 32.6622 7.03349 32.6622C6.56723 32.6622 6.16969 32.6818 5.76233 32.6917C5.69853 32.6622 5.67399 32.4997 5.74269 32.4406L5.94391 32.411C6.53288 32.3224 6.55251 32.2091 6.55251 31.1601V27.3581H6.54761ZM7.45558 28.6878C7.45558 28.9685 7.46539 28.9882 8.02981 28.9685C9.15864 28.9291 9.76723 28.6287 9.76723 27.688C9.76723 26.7474 8.95742 26.3336 8.11815 26.3336C7.87275 26.3336 7.71079 26.3533 7.60772 26.3928C7.49484 26.4223 7.45067 26.4764 7.45067 26.6537V28.6828L7.45558 28.6878ZM7.45558 31.0124C7.45558 31.3718 7.47521 31.884 7.68625 32.1056C7.89729 32.3371 8.23103 32.3864 8.55987 32.3864C9.54637 32.3864 10.2973 31.9875 10.2973 30.9877C10.2973 30.1948 9.85558 29.2787 8.09361 29.2787C7.49484 29.2787 7.45067 29.3379 7.45067 29.5398V31.0222L7.45558 31.0124Z" fill="#004B8D"/>
<path d="M19.0041 28.3428C19.0041 27.4367 18.9844 27.2889 18.4298 27.2496L18.1943 27.2347C18.1353 27.2002 18.155 27.0475 18.2139 27.0229C18.685 27.0378 19.0089 27.0475 19.4065 27.0475C19.804 27.0475 20.1034 27.0378 20.5795 27.0229C20.6384 27.0475 20.6531 27.2002 20.5991 27.2347L20.3636 27.2496C19.804 27.2939 19.7844 27.4367 19.7844 28.3428V31.3865C19.7844 32.2927 19.804 32.4158 20.3636 32.4748L20.5991 32.4994C20.6581 32.534 20.6384 32.6866 20.5795 32.7113C20.1084 32.6916 19.7844 32.6866 19.4065 32.6866C19.0089 32.6866 18.6899 32.6965 18.2139 32.7113C18.155 32.6866 18.1353 32.5488 18.1943 32.4994L18.4298 32.4748C18.9894 32.4158 19.0041 32.2975 19.0041 31.3865V28.3428Z" fill="#004B8D"/>
<path d="M24.2508 31.4015C24.2508 32.3028 24.2705 32.4259 24.7809 32.4702L25.0656 32.4948C25.1196 32.5293 25.0999 32.682 25.0459 32.7066C24.5404 32.6869 24.241 32.682 23.8827 32.682C23.5245 32.682 23.2201 32.6918 22.6508 32.7066C22.5968 32.682 22.5821 32.5342 22.6508 32.4948L22.9698 32.4702C23.4754 32.4259 23.5195 32.3028 23.5195 31.4015V27.5797C23.5195 27.3138 23.5195 27.3039 23.2545 27.3039H22.7687C22.3857 27.3039 21.8999 27.3187 21.679 27.5158C21.468 27.7028 21.3797 27.89 21.2815 28.1067C21.2128 28.1559 21.0852 28.1116 21.0508 28.0477C21.1931 27.6635 21.3257 27.1168 21.3895 26.772C21.414 26.7524 21.5318 26.7474 21.5563 26.772C21.6104 27.0478 21.9048 27.0331 22.3122 27.0331H25.8999C26.3808 27.0331 26.4594 27.0183 26.5919 26.7917C26.6361 26.777 26.7343 26.7819 26.7538 26.8163C26.6557 27.166 26.5919 27.8605 26.6214 28.1166C26.587 28.1855 26.4348 28.1855 26.3907 28.1313C26.3662 27.9196 26.3023 27.5994 26.1699 27.5108C25.9686 27.3679 25.63 27.299 25.1441 27.299H24.5159C24.2508 27.299 24.2606 27.3089 24.2606 27.5896V31.3966L24.2508 31.4015Z" fill="#004B8D"/>
<path d="M28.0442 28.3428C28.0442 27.4367 28.0245 27.2889 27.465 27.2496L27.2294 27.2347C27.1705 27.2002 27.1901 27.0475 27.2491 27.0229C27.7202 27.0378 28.0442 27.0475 28.4417 27.0475C28.8392 27.0475 29.1435 27.0378 29.6147 27.0229C29.6736 27.0475 29.6883 27.2002 29.6343 27.2347L29.3988 27.2496C28.8392 27.2939 28.8197 27.4367 28.8197 28.3428V31.3865C28.8197 32.2927 28.8392 32.4158 29.3988 32.4748L29.6343 32.4994C29.6933 32.534 29.6736 32.6866 29.6147 32.7113C29.1435 32.6916 28.8197 32.6866 28.4417 32.6866C28.0637 32.6866 27.7252 32.6965 27.2491 32.7113C27.1901 32.6866 27.1755 32.5488 27.2294 32.4994L27.465 32.4748C28.0245 32.4158 28.0442 32.2975 28.0442 31.3865V28.3428Z" fill="#004B8D"/>
<path d="M32.2848 32.8001C31.4406 32.8001 30.9106 32.5785 30.7192 32.4849C30.5964 32.2977 30.4688 31.687 30.4492 31.2881C30.4983 31.229 30.6504 31.2093 30.6897 31.2635C30.8418 31.7018 31.2541 32.5342 32.4173 32.5342C33.2615 32.5342 33.6738 32.0662 33.6738 31.5541C33.6738 31.1749 33.5805 30.7562 32.8492 30.3573L31.897 29.8304C31.3964 29.5496 30.8123 29.062 30.8123 28.3627C30.8123 27.5501 31.5535 26.8901 32.8639 26.8901C33.1731 26.8901 33.5363 26.9394 33.7964 26.9985C33.929 27.033 34.0663 27.0477 34.1498 27.0477C34.2382 27.2546 34.3313 27.7323 34.3313 28.0919C34.2922 28.1461 34.1301 28.1707 34.0811 28.1165C33.9485 27.7077 33.6786 27.1512 32.7118 27.1512C31.7449 27.1512 31.5142 27.7077 31.5142 28.1017C31.5142 28.5991 31.9952 28.9586 32.3682 29.1507L33.1731 29.5792C33.8062 29.9141 34.4296 30.4066 34.4296 31.2192C34.4296 32.1599 33.5952 32.8001 32.2848 32.8001Z" fill="#004B8D"/>
<path d="M37.345 29.9237C36.9032 29.9237 36.8886 29.9386 36.8886 30.1947V31.4013C36.8886 32.3025 36.9327 32.4208 37.4481 32.47L37.713 32.4946C37.7671 32.529 37.7523 32.6817 37.6935 32.7063C37.1978 32.6867 36.8886 32.6817 36.5303 32.6817C36.1376 32.6817 35.8236 32.7014 35.4652 32.7063C35.4113 32.6817 35.3916 32.5439 35.4456 32.4946L35.6027 32.47C36.118 32.3813 36.1327 32.3025 36.1327 31.4013V28.3232C36.1327 27.4268 36.0689 27.2791 35.5928 27.2446L35.3523 27.2298C35.2983 27.1954 35.3131 27.0427 35.372 27.0181C35.8236 27.0229 36.1327 27.0427 36.5254 27.0427C36.8836 27.0427 37.1929 27.0328 37.5904 27.0181C37.6444 27.0427 37.664 27.1954 37.61 27.2298L37.4333 27.2446C36.9032 27.2939 36.8836 27.4268 36.8836 28.3232V29.3082C36.8836 29.5741 36.9032 29.584 37.34 29.584H39.9609C40.4027 29.584 40.4174 29.5741 40.4174 29.3082V28.3232C40.4174 27.4268 40.3977 27.2987 39.8578 27.2446L39.6861 27.2298C39.6321 27.1954 39.6468 27.0427 39.7057 27.0181C40.1278 27.0328 40.437 27.0427 40.8149 27.0427C41.1929 27.0427 41.4824 27.0328 41.8947 27.0181C41.9487 27.0427 41.9683 27.1954 41.9143 27.2298L41.7229 27.2446C41.1929 27.2939 41.1732 27.4268 41.1732 28.3232V31.4013C41.1732 32.3025 41.1929 32.4109 41.7229 32.47L41.9438 32.4946C41.9978 32.529 41.983 32.6817 41.9242 32.7063C41.4824 32.6867 41.1732 32.6817 40.8149 32.6817C40.437 32.6817 40.1082 32.6916 39.7057 32.7063C39.6518 32.6817 39.6321 32.5439 39.6861 32.4946L39.8578 32.47C40.4174 32.3813 40.4174 32.3025 40.4174 31.4013V30.1947C40.4174 29.9386 40.3977 29.9237 39.9609 29.9237H37.34H37.345Z" fill="#004B8D"/>
<path d="M1.30064 34.5882C2.05647 34.0021 3.01352 33.7114 4.08837 33.7114C4.64788 33.7114 5.42824 33.8248 5.91414 33.9578C6.03683 33.9872 6.11045 34.0119 6.20371 33.9971C6.21352 34.2336 6.26751 34.8836 6.34604 35.514C6.29205 35.5829 6.1399 35.5978 6.06629 35.5337C5.90923 34.8294 5.44788 34.0267 3.95094 34.0267C2.37057 34.0267 1.0307 35.0264 1.0307 37.1638C1.0307 39.3013 2.40494 40.5276 4.09819 40.5276C5.42824 40.5276 6.01721 39.6608 6.25278 39.0501C6.3264 39.0009 6.47856 39.0206 6.52272 39.0895C6.44911 39.6263 6.18408 40.306 6.02702 40.5029C5.90432 40.5226 5.78162 40.567 5.66383 40.6064C5.43807 40.6901 4.69205 40.8428 4.03438 40.8428C3.10677 40.8428 2.21843 40.6556 1.4626 40.1483C0.638062 39.582 -0.00488281 38.6413 -0.00488281 37.3116C-0.00488281 36.1641 0.510455 35.189 1.29573 34.5733L1.30064 34.5882Z" fill="#004B8D"/>
<path d="M6.94482 37.9271C6.94482 36.2182 8.28961 34.9082 10.1301 34.9082C12.1964 34.9082 13.2319 36.3364 13.2319 37.8385C13.2319 39.5671 11.8527 40.8231 10.1301 40.8231C8.14236 40.8231 6.94482 39.4637 6.94482 37.9271ZM12.3387 38.1094C12.3387 36.7009 11.6859 35.1742 9.97795 35.1742C9.04543 35.1742 7.83807 35.78 7.83807 37.6563C7.83807 38.922 8.48102 40.562 10.243 40.562C11.3178 40.562 12.3338 39.7888 12.3338 38.1094H12.3387Z" fill="#004B8D"/>
<path d="M23.3279 37.1929C23.3279 36.6659 23.3083 35.6809 23.1561 35.4248C23.0923 35.3214 22.9303 35.2623 22.7046 35.2475L22.4788 35.2328C22.4249 35.1737 22.4444 35.0603 22.4985 35.0259C22.842 35.0456 23.1757 35.0506 23.5292 35.0506C23.907 35.0506 24.1524 35.0456 24.4764 35.0259C24.55 35.0702 24.5402 35.1786 24.4959 35.2328L24.28 35.2475C24.0543 35.2623 23.8825 35.3411 23.8285 35.4495C23.7009 35.7351 23.7009 36.7152 23.7009 37.1929V38.1582C23.7009 38.9018 23.5733 39.6898 23.0678 40.202C22.6801 40.6059 22.0126 40.8275 21.3451 40.8275C20.7217 40.8275 20.0985 40.7191 19.6567 40.3547C19.1806 39.9803 18.9549 39.3549 18.9549 38.3403V36.3211C18.9549 35.4298 18.9352 35.2869 18.415 35.2426L18.1892 35.2279C18.1352 35.1884 18.1549 35.0456 18.2089 35.021C18.6604 35.0407 18.9647 35.0456 19.3279 35.0456C19.691 35.0456 19.9954 35.0407 20.4371 35.021C20.4911 35.0456 20.5108 35.1884 20.4567 35.2279L20.2408 35.2426C19.7156 35.2869 19.7009 35.4298 19.7009 36.3211V38.168C19.7009 39.5421 20.1524 40.4483 21.5365 40.4483C22.8469 40.4483 23.3426 39.4732 23.3426 38.1729V37.1879L23.3279 37.1929Z" fill="#004B8D"/>
<path d="M33.8162 36.1586C33.8162 35.5282 33.7769 35.3657 33.3303 35.3312L33.0112 35.3066C32.9327 35.2574 32.9425 35.1293 33.0211 35.0948C33.556 35.0505 34.2284 35.0259 35.1462 35.0259C35.7695 35.0259 36.3633 35.0702 36.8051 35.2672C37.2321 35.4494 37.556 35.7893 37.556 36.3359C37.556 36.9515 37.1438 37.2667 36.5499 37.508C36.5499 37.5917 36.6284 37.6213 36.7363 37.636C37.2714 37.7198 38.0615 38.1483 38.0615 39.0643C38.0615 40.0543 37.2124 40.724 35.4308 40.724C35.1462 40.724 34.6603 40.6994 34.2432 40.6994C33.8259 40.6994 33.4726 40.7191 33.1094 40.724C33.0504 40.6994 33.0309 40.5614 33.0897 40.5122L33.2665 40.4876C33.7916 40.4088 33.8112 40.3152 33.8112 39.4189V36.1684L33.8162 36.1586ZM34.626 37.2963C34.626 37.5376 34.6358 37.5524 35.1413 37.5376C36.1474 37.5031 36.6922 37.247 36.6922 36.4443C36.6922 35.6414 35.9707 35.2918 35.2199 35.2918C35.0038 35.2918 34.8566 35.3066 34.7683 35.341C34.6701 35.3657 34.6308 35.4101 34.6308 35.5626V37.3012L34.626 37.2963ZM34.626 39.281C34.626 39.5863 34.6456 40.0247 34.8321 40.2118C35.0186 40.4088 35.318 40.4532 35.6125 40.4532C36.491 40.4532 37.1633 40.1133 37.1633 39.2564C37.1633 38.5817 36.7658 37.7937 35.1952 37.7937C34.6603 37.7937 34.621 37.8479 34.621 38.0153V39.281H34.626Z" fill="#004B8D"/>
<path d="M17.5557 32.5L17.3201 32.4754C17.2711 32.4754 17.2318 32.4655 17.1876 32.4607C16.8391 32.3966 16.7017 32.0864 16.5397 31.8007L15.7201 30.3724C15.5777 30.1311 15.4256 29.8159 15.1066 29.7666C15.9459 29.6682 16.7017 29.1807 16.7017 28.3483C16.7017 27.388 15.7545 26.9546 14.7925 26.9546C14.2183 26.9546 13.6489 26.9939 13.0649 26.9939C12.741 26.9939 12.3974 26.9546 12.0735 26.9546C11.8919 26.9546 11.8919 26.9939 11.8919 27.0924C11.8919 27.2402 11.9557 27.2008 12.1422 27.2008C12.849 27.2008 12.7999 27.3781 12.7999 27.9642V31.712C12.7999 32.2488 12.844 32.4065 12.2846 32.4557C12.2846 32.4557 12.1962 32.4655 12.152 32.4704L11.9164 32.4951C11.8575 32.5443 11.8771 32.6823 11.9361 32.7069C12.0637 32.7069 12.2846 32.697 12.2846 32.697C12.5938 32.6872 12.9078 32.6626 13.217 32.6626C13.5262 32.6626 13.8305 32.6872 14.1349 32.697C14.2428 32.697 14.3556 32.7019 14.4834 32.7069C14.5422 32.6823 14.5569 32.5443 14.5029 32.4951L14.2625 32.4704C14.2134 32.4655 14.1299 32.4557 14.1299 32.4557C13.5655 32.4163 13.5998 32.2538 13.5998 31.7072V30.2937C13.5998 30.2099 13.59 29.9883 13.6489 29.9292C13.6981 29.875 13.7912 29.8849 13.8698 29.8849C14.6355 29.8849 14.6256 29.9588 14.9888 30.599L15.9753 32.3868C16.0538 32.5246 16.1176 32.697 16.3189 32.697H17.1778C17.2857 32.697 17.3987 32.7019 17.5263 32.7069C17.5851 32.6823 17.5999 32.5443 17.5459 32.4951L17.5557 32.5ZM14.1103 29.6878C13.9385 29.6878 13.595 29.7519 13.595 29.5254V27.8854C13.595 27.2451 13.6146 27.1515 14.3851 27.1515C15.2833 27.1515 15.8379 27.6096 15.8379 28.4518C15.8379 28.8211 15.7053 29.156 15.3716 29.3874C14.9888 29.6534 14.5765 29.6878 14.1103 29.6878Z" fill="#004B8D"/>
<path d="M14.2967 36.3505C14.2967 35.4542 14.2771 35.3162 13.6881 35.2719L13.4526 35.2572C13.3936 35.2227 13.4133 35.07 13.4722 35.0454C13.9973 35.0601 14.3164 35.07 14.6893 35.07C15.0623 35.07 15.3765 35.0601 15.8428 35.0454C15.9016 35.07 15.9164 35.2276 15.8624 35.2572L15.6366 35.2719C15.082 35.3114 15.0623 35.4542 15.0623 36.3505V39.3251C15.0623 39.8669 15.0918 40.0885 15.2587 40.2511C15.3617 40.3446 15.5384 40.448 16.2796 40.448C17.0747 40.448 17.2759 40.4135 17.4231 40.3397C17.6096 40.2362 17.855 39.926 18.0416 39.4926C18.0955 39.4483 18.2771 39.4827 18.2771 39.5468C18.2771 39.6404 18.0121 40.512 17.8845 40.7435C17.4084 40.7288 16.5151 40.7189 15.5531 40.7189H14.6893C14.2967 40.7189 13.9973 40.7288 13.4722 40.7435C13.4182 40.7189 13.3986 40.581 13.4526 40.5318L13.7323 40.5072C14.2771 40.4579 14.2967 40.3397 14.2967 39.4384V36.3604V36.3505Z" fill="#004B8D"/>
<path d="M39.4013 36.3653C39.4013 35.4591 39.3816 35.3114 38.8418 35.2719L38.611 35.2572C38.5571 35.2227 38.5767 35.07 38.6307 35.0454C39.0921 35.0601 39.4013 35.07 39.789 35.07C40.1571 35.07 40.4712 35.0601 40.9276 35.0454C40.9816 35.07 41.0012 35.2276 40.9473 35.2572L40.7167 35.2719C40.1768 35.3114 40.1571 35.4591 40.1571 36.3653V39.4089C40.1571 40.315 40.1768 40.4333 40.7167 40.4923L40.9473 40.517C41.0012 40.5515 40.9816 40.7041 40.9276 40.7288C40.4663 40.7139 40.1521 40.7042 39.789 40.7042C39.4013 40.7042 39.0921 40.7139 38.6307 40.7288C38.5767 40.7041 38.5571 40.5662 38.611 40.517L38.8418 40.4923C39.3816 40.4333 39.4013 40.3101 39.4013 39.4089V36.3653Z" fill="#004B8D"/>
<path d="M32.0493 40.4925C32.0052 40.4925 31.9119 40.4827 31.9119 40.4827C31.8137 40.4728 31.7303 40.4581 31.6615 40.3841C31.5438 40.261 31.5536 39.8966 31.5536 39.7489V36.0009C31.5536 35.8385 31.5143 35.4839 31.6321 35.3608C31.691 35.2917 31.8138 35.2819 31.9266 35.277C31.9953 35.2721 31.9952 35.2721 32.0542 35.2721L32.2897 35.2524C32.3487 35.2179 32.329 35.0652 32.2701 35.0356C32.1425 35.0406 32.0297 35.0356 31.9217 35.0406H30.9155C30.8076 35.0406 30.7094 35.0406 30.6456 35.1587L28.599 39.4386L26.788 35.3016C26.729 35.1587 26.7192 35.0406 26.5278 35.0406H25.4824C25.3745 35.0406 25.2517 35.0406 25.1241 35.0308C25.0701 35.0554 25.0505 35.2129 25.1045 35.2474L25.34 35.2671C25.3892 35.2671 25.4775 35.277 25.4775 35.277C25.8701 35.3016 25.8947 35.3902 25.8603 35.804L25.5511 39.8227C25.5266 40.2266 25.5021 40.4383 25.08 40.4777C25.08 40.4777 24.9917 40.4875 24.9425 40.4925L24.707 40.5171C24.648 40.5713 24.6677 40.7043 24.7266 40.7289C24.8493 40.724 25.0701 40.719 25.0701 40.719C25.2861 40.7092 25.5021 40.6895 25.718 40.6895C25.9536 40.6895 26.1891 40.7092 26.4247 40.719C26.5328 40.719 26.6505 40.724 26.7732 40.7337C26.8321 40.7091 26.8468 40.5713 26.7928 40.522L26.5573 40.4974C26.4935 40.4925 26.4247 40.4827 26.4247 40.4827C25.8161 40.4432 25.8309 40.0098 25.8701 39.4829L26.1598 35.7498H26.2284L28.1867 40.3497C28.2063 40.4137 28.2358 40.522 28.3339 40.522C28.4223 40.522 28.4517 40.4235 28.4812 40.3595L30.6898 35.6463H30.7585V39.7537C30.7585 39.9163 30.7781 40.2512 30.6112 40.3792C30.5229 40.4432 30.2382 40.4875 30.2382 40.4875C30.199 40.4925 30.1597 40.4974 30.1106 40.5024L29.875 40.527C29.8161 40.5762 29.8357 40.7141 29.8947 40.7387C30.0173 40.7339 30.2432 40.7289 30.2432 40.7289C30.5622 40.719 30.891 40.6944 31.2149 40.6944C31.4505 40.6944 31.9069 40.7141 31.9069 40.7141C32.0149 40.7141 32.1425 40.7289 32.2652 40.7337C32.3242 40.7091 32.3389 40.5713 32.2849 40.522L32.0493 40.4974V40.4925Z" fill="#004B8D"/>
<path d="M47.4113 40.5173L47.382 40.4927C47.3329 40.4877 47.2936 40.4828 47.2544 40.473C46.8862 40.3893 46.7439 39.9461 46.6065 39.6308L44.712 35.1295C44.6924 35.0753 44.6531 34.957 44.5795 34.957C44.4764 34.957 44.447 35.0801 44.4224 35.1541L42.6114 39.6455C42.5476 39.818 42.3758 40.2267 42.2531 40.3499C42.1598 40.4484 42.0372 40.4681 41.9096 40.478C41.9096 40.478 41.8065 40.4877 41.7574 40.4927L41.5366 40.5173C41.4776 40.5665 41.4973 40.7045 41.5562 40.7291C41.6838 40.7242 41.9046 40.7143 41.9046 40.7143C42.155 40.7143 42.4004 40.6799 42.6506 40.6799C42.8617 40.6799 43.0679 40.7045 43.2789 40.7093C43.2789 40.7093 43.5047 40.7143 43.6273 40.7242C43.6862 40.6996 43.7009 40.5616 43.6469 40.5124L43.4114 40.4877C43.3623 40.4877 43.2838 40.473 43.2838 40.473C43.0679 40.4484 42.793 40.4089 42.793 40.1676C42.793 40.0051 42.8666 39.818 42.9255 39.6751L43.2053 39.0054C43.3476 38.6803 43.2887 38.6458 43.6666 38.6458H44.9427C45.3942 38.6458 45.3255 38.6458 45.5267 39.1039L45.8261 39.7884C45.8752 39.9017 45.9587 40.1036 45.9587 40.2268C45.9587 40.4532 45.7133 40.4681 45.4826 40.4877C45.4826 40.4877 45.4041 40.4927 45.3403 40.4976L45.1144 40.5124C45.0556 40.5666 45.0752 40.6996 45.1341 40.7242C45.2617 40.7192 45.4826 40.7093 45.4826 40.7093C45.7476 40.6996 46.0175 40.6799 46.2777 40.6799C46.6065 40.6799 46.9354 40.7045 47.2642 40.7093C47.3722 40.7093 47.2837 40.7143 47.4065 40.7192C47.4654 40.6946 47.485 40.5567 47.4261 40.5074L47.4113 40.5173ZM44.928 38.3996H43.8237C43.7844 38.3996 43.4752 38.4341 43.4752 38.3454C43.4752 38.3208 43.4948 38.2666 43.5047 38.237L44.1672 36.5872C44.1868 36.5428 44.2506 36.3163 44.3291 36.3163C44.3881 36.3163 44.4617 36.5527 44.4814 36.5872L45.1341 38.1288C45.1341 38.1288 45.2028 38.2912 45.2028 38.3307C45.2028 38.4292 44.982 38.3996 44.923 38.3996H44.928Z" fill="#004B8D"/>
<path d="M38.7681 12.8687L35.0332 14.2574L36.2111 14.6613L38.7681 12.8687Z" fill="#FDB913"/>
<path d="M8.96197 12.9183L6.86626 12.145C6.8908 12.081 6.91534 12.0169 6.93989 11.9529L9.24664 12.7606L9.4675 12.6227L10.5718 13.2235L11.9412 13.7259L12.0245 13.6865L7.1362 11.4802C7.16565 11.4161 7.19019 11.3521 7.21964 11.288L12.6037 13.4452L12.6822 13.4058L7.43559 10.8202C7.46504 10.7562 7.49448 10.6971 7.52393 10.633L13.2221 13.13L7.75461 10.175C7.78406 10.1159 7.81351 10.0618 7.84295 10.0076L15.519 14.0854C15.627 13.8785 15.7448 13.6767 15.8675 13.4846L9.60983 8.57935L16.2847 12.8788C16.4466 12.6572 16.6233 12.4454 16.8049 12.2435L10.3804 6.40254C10.4246 6.35329 10.4736 6.30404 10.5227 6.24987L15.1902 10.3868L10.8761 5.88049C10.9252 5.83125 10.9742 5.782 11.0233 5.72783L15.892 10.4164L11.3914 5.3683C11.4405 5.32398 11.4896 5.27473 11.5436 5.23041L15.9018 9.69238L11.9264 4.88566C11.9755 4.84626 12.0245 4.80193 12.0736 4.76254L17.654 11.4062C17.8699 11.2191 18.0908 11.0418 18.3264 10.8744L14.346 3.95977L18.9399 10.4705C19.1902 10.3179 19.4454 10.1799 19.7105 10.0519L15.946 2.24589C16.0098 2.21142 16.0786 2.18188 16.1424 2.15233L18.9301 7.75196L16.6086 1.94056C16.6724 1.911 16.7362 1.88638 16.8 1.85683L19.5681 8.04254L17.281 1.66476C17.3448 1.64014 17.4086 1.61551 17.4724 1.59088L19.8528 7.37275L17.9632 1.41851C18.0172 1.39881 18.0761 1.38404 18.1301 1.35941L20.8147 9.59389C21.065 9.51016 21.3154 9.43629 21.5755 9.37227L20.4663 1.46776L22.297 9.22945C22.6013 9.18019 22.9105 9.15065 23.2245 9.13095L22.6503 0.507401C22.7141 0.507401 22.7779 0.497552 22.8467 0.497552L23.4404 6.69803L23.3521 0.482777C23.4258 0.482777 23.4945 0.482777 23.5632 0.482777L23.8184 7.0083L24.0736 0.482777C24.1424 0.482777 24.2111 0.482777 24.2797 0.482777L24.2257 6.69803L24.7951 0.507401C24.8589 0.507401 24.9227 0.517251 24.9865 0.517251L24.4025 9.13587C24.7018 9.15557 24.9963 9.19004 25.2859 9.22945L27.1117 1.49238L26.0074 9.37227C26.2773 9.43629 26.5473 9.52002 26.8073 9.60866L29.4822 1.40866C29.546 1.43329 29.6098 1.45299 29.6688 1.47761L27.7939 7.37275L30.1497 1.64999C30.2135 1.67461 30.2773 1.69923 30.346 1.72385L28.0785 8.03761L30.8172 1.91593C30.881 1.94548 30.9497 1.97503 31.0135 2.00458L28.7214 7.74211L31.4748 2.21142C31.5337 2.24097 31.5927 2.27053 31.6515 2.30007L27.9116 10.0568C28.1669 10.1799 28.4172 10.3179 28.6576 10.4656L33.2418 3.97454L29.2712 10.8694C29.5067 11.0418 29.7374 11.2241 29.9583 11.4161L35.4896 4.82656C35.5387 4.87088 35.5927 4.91521 35.6418 4.95953L31.7105 9.71702L36.0246 5.30427C36.0786 5.3486 36.1276 5.39785 36.1767 5.4471L31.7203 10.441L36.535 5.80169C36.584 5.85095 36.6332 5.90512 36.6822 5.95437L32.4172 10.4065L37.0258 6.31881C37.07 6.36806 37.1141 6.41238 37.1534 6.46164L30.7926 12.2435C30.9742 12.4454 31.1461 12.6523 31.308 12.869L37.973 8.57935L31.73 13.4748C31.8528 13.6718 31.9706 13.8737 32.0835 14.0804L39.6712 10.0519C39.7006 10.111 39.735 10.1701 39.7644 10.2292L34.3902 13.1349L39.9902 10.6823C40.0196 10.7463 40.0491 10.8103 40.0785 10.8744L34.13 13.8096L40.2896 11.3373C40.3191 11.4014 40.3484 11.4653 40.373 11.5343L34.7927 14.046L40.5595 12.0022C40.5841 12.0613 40.6036 12.1204 40.6283 12.1795L39.3963 12.6375L41.227 14.0361L41.7326 14.3218C41.5412 13.5437 41.2417 12.5981 40.9571 11.8642C38.1791 4.87581 31.2442 0.0986328 23.7251 0.0986328C14.9104 0.0986328 7.54357 6.31389 5.73253 14.6123C5.73253 14.6123 5.72271 14.6715 5.71289 14.7158L6.07117 14.5484L8.96197 12.9183Z" fill="#FDB913"/>
</g>
</svg>
