<svg xmlns="http://www.w3.org/2000/svg" width="132" height="41" fill="none" viewBox="0 0 132 41"><mask id="a" width="132" height="41" x="0" y="0" maskUnits="userSpaceOnUse" style="mask-type:luminance"><path fill="#fff" d="M132 0H0v41h132z"/></mask><g mask="url(#a)"><path fill="#fdb913" d="M54.27 0h-.48v40.76h.48z"/><path fill="#004b8d" d="M63 29.46c0-1.48-.1-1.92-1-2.05l-.46-.06c-.17-.11-.2-.45.02-.53 1.79-.1 3.5-.17 5.28-.17 1.8 0 3.27.13 4.64.64a6.3 6.3 0 0 1 4.27 6.23 6.8 6.8 0 0 1-3.69 6.3c-1.36.74-3.1 1.02-4.71 1.02-1.35 0-2.7-.17-3.44-.17-.88 0-1.64.02-2.63.06-.13-.06-.17-.4-.04-.53l.48-.06c1.23-.17 1.27-.43 1.27-2.65v-8.03m1.72 7.55c0 1.12.07 1.8.42 2.3.47.66 1.27.87 2.6.87 4.08 0 5.91-2.69 5.91-6.62 0-2.32-1.11-6.25-6.63-6.25-1.24 0-1.92.17-2.09.3s-.2.65-.2 1.6zM78.15 34.6c0-.82 0-.93-.57-1.31l-.2-.13c-.08-.08-.08-.32.02-.38.49-.17 1.6-.72 2.13-1.03q.16.02.17.14v1.23q0 .16.06.19c.74-.61 1.54-1.27 2.32-1.27.53 0 .95.34.95.84 0 .7-.57.97-.9.97-.22 0-.32-.06-.47-.14a1.7 1.7 0 0 0-.92-.34c-.34 0-.6.19-.76.42-.21.3-.27.91-.27 1.63v2.87c0 1.52.04 1.78.84 1.84l.76.07c.14.1.1.46-.04.52-1-.04-1.6-.06-2.34-.06q-1.13 0-1.94.06c-.15-.06-.19-.42-.05-.52l.4-.07c.79-.12.8-.32.8-1.84zM85.14 34.6c0-.82 0-.93-.57-1.31l-.2-.13c-.08-.08-.08-.32.03-.38.48-.17 1.68-.72 2.17-1.03q.16 0 .2.12c-.03.74-.08 1.76-.08 2.62v3.8c0 1.53.05 1.74.8 1.85l.45.06c.14.1.1.47-.05.53a31 31 0 0 0-3.96 0c-.15-.06-.19-.42-.04-.53l.44-.06c.78-.11.8-.32.8-1.84v-3.7m1.75-6.03c0 .77-.53 1.1-1.12 1.1-.65 0-1.07-.48-1.07-1.05 0-.7.5-1.14 1.14-1.14s1.05.5 1.05 1.1M90.21 34.43c-.32-.78-.5-1.46-1.26-1.56l-.42-.07c-.13-.16-.11-.46.06-.52.52.04 1.26.06 1.98.06.57 0 .99-.02 1.7-.06.15.08.17.42.02.52l-.25.05c-.65.1-.67.21-.46.85.49 1.45 1.1 2.94 1.58 4.03.2.43.28.62.34.68.09-.06.23-.36.4-.8.28-.72 1-2.56 1.2-3.11.3-.74.38-1.19.38-1.31 0-.2-.12-.28-.37-.32l-.49-.06c-.13-.15-.1-.44.04-.53q.98.06 1.58.07c.53 0 .88-.03 1.47-.07.15.09.17.4.05.53l-.32.04c-.73.1-.92.66-1.53 1.84-.3.57-1.6 3.64-1.94 4.5l-.7 1.74q-.07.09-.21.08-.17 0-.27-.08c-.17-.6-.49-1.42-.8-2.2zM99.8 35.25c-.54 0-.56.05-.56.57 0 2.14 1.24 3.95 3.5 3.95.7 0 1.28-.2 1.93-1.03.21-.06.36.06.38.25a3.7 3.7 0 0 1-3.3 1.97c-1.38 0-2.45-.6-3.06-1.4a4.5 4.5 0 0 1-.88-2.75c0-2.6 1.7-4.77 4.23-4.77 1.8 0 2.99 1.24 2.99 2.51q0 .44-.09.55c-.06.13-.36.15-1.24.15zm1.31-.63c1.56 0 2.03-.09 2.2-.21.06-.04.12-.13.12-.4 0-.6-.4-1.34-1.62-1.34s-2.32 1.14-2.34 1.84c0 .04 0 .1.15.1z"/><path fill="#fdb913" d="M108.1 29.46c0-1.57-.08-1.96-1.03-2.05l-.67-.06c-.17-.13-.15-.45.02-.53 1.13-.1 2.57-.17 4.52-.17 1.33 0 2.6.11 3.54.6.9.44 1.6 1.29 1.6 2.64 0 1.52-.88 2.3-2.15 2.9 0 .2.17.27.4.31a3.5 3.5 0 0 1 2.82 3.53c0 2.45-1.81 4.1-5.6 4.1-.62 0-1.65-.06-2.53-.06-.89 0-1.65.04-2.42.06-.13-.06-.17-.4-.05-.53l.38-.06c1.11-.2 1.16-.43 1.16-2.65v-8.03zm1.73 2.81c0 .6.03.64 1.1.6 2.14-.09 3.3-.72 3.3-2.71 0-2-1.53-2.86-3.13-2.86q-.7 0-.97.13c-.21.07-.3.17-.3.55zm0 4.9c0 .77.05 1.84.44 2.3.4.5 1.03.6 1.67.6 1.87 0 3.3-.84 3.3-2.96 0-1.67-.84-3.62-4.2-3.62-1.13 0-1.21.13-1.21.56zM121.34 28.17a9 9 0 0 1 5.68-1.8c1.14 0 2.74.23 3.73.51.25.06.4.1.6.08.01.5.12 1.82.29 3.11-.1.15-.42.17-.57.04-.32-1.44-1.27-3.09-4.32-3.09-3.23 0-5.96 2.06-5.96 6.43s2.8 6.89 6.25 6.89a4.5 4.5 0 0 0 4.4-3.02c.15-.11.47-.07.56.08a8 8 0 0 1-1.02 2.9q-.38.07-.73.2c-.46.18-1.98.5-3.33.5-1.9 0-3.71-.38-5.25-1.42a6.8 6.8 0 0 1-2.98-5.81 7 7 0 0 1 2.65-5.6"/><path fill="#fff" d="M41.66 14.14A18.7 18.7 0 0 0 23.78.12c-7.84 0-15.92 5.5-18.06 14.54a18 18 0 0 0-.1 7.35l.4-.09c1.69-.29 4.34-.63 6.6-.35 3.62.46 5.87 1.07 9.67 1.93s6.61 1.68 10.72 1.22c3.6-.4 6.05-.96 8.45-2.54l.19-.13.25-.19q.29-1.53.31-3.14c0-1.51-.2-3.16-.55-4.57"/><path fill="#004b8d" d="M5.71 14.71c-.15.73-.43 2.12-.43 3.97 0 1.19.12 2.2.34 3.33l.4-.09c1.69-.29 4.34-.63 6.6-.35 3.61.46 5.87 1.07 9.67 1.93s6.61 1.68 10.72 1.22c3.59-.4 6.05-.96 8.45-2.54l.19-.13.25-.19q.29-1.53.31-3.14c0-1.45-.2-3.01-.5-4.38l-2.55-1.43-2.94 2.07-1.98-.77c-.67.34-4.8 3.12-4.8 3.12l-1.59-1.16-1.7-.34-2.27-1.66-2.6 1.8s-2.9 1.7-3 1.7-3.51-2.72-3.51-2.72L13.2 13.3c-.27.17-1.34.66-1.34.66l-.05.02-1.03-.33-1.25-.66zM6.55 27.36c0-.75-.05-.93-.55-.97l-.35-.03c-.09-.06-.08-.21 0-.25.6-.05 1.36-.08 2.39-.08.7 0 1.36.05 1.86.28.48.2.84.61.84 1.25 0 .72-.46 1.09-1.12 1.37q.01.13.2.15c.6.1 1.49.6 1.49 1.67 0 1.16-.95 1.94-2.95 1.94-.32 0-.86-.03-1.33-.03q-.67 0-1.27.03c-.06-.03-.09-.19-.02-.25l.2-.03c.6-.09.61-.2.61-1.25zm.9 1.33c0 .28.02.3.58.28 1.13-.04 1.74-.34 1.74-1.28s-.81-1.36-1.65-1.36q-.36 0-.51.06c-.12.03-.16.09-.16.26zm0 2.32c0 .36.03.87.24 1.1s.54.28.87.28c.99 0 1.74-.4 1.74-1.4 0-.8-.44-1.71-2.2-1.71-.6 0-.65.06-.65.26v1.48M19 28.34c0-.9-.02-1.05-.57-1.09l-.24-.02c-.05-.03-.04-.18.02-.2l1.2.02c.4 0 .7-.01 1.17-.03.06.03.07.18.02.21l-.24.02c-.56.04-.58.19-.58 1.1v3.04c0 .9.02 1.03.58 1.08l.24.03c.06.03.04.19-.02.21a26 26 0 0 0-2.37 0c-.05-.02-.07-.16-.02-.21l.24-.03c.56-.05.57-.17.57-1.08zM24.25 31.4c0 .9.02 1.03.53 1.07l.29.02c.05.04.03.2-.02.22l-1.17-.03-1.23.03c-.05-.03-.07-.18 0-.22l.32-.02c.5-.04.55-.17.55-1.07v-3.82c0-.27 0-.28-.27-.28h-.48c-.38 0-.87.02-1.1.22-.2.18-.29.37-.39.59-.07.05-.2 0-.23-.06.14-.39.28-.93.34-1.28.02-.02.14-.02.17 0 .05.28.34.26.75.26h3.59c.48 0 .56-.01.7-.24.04-.01.13 0 .15.03-.1.35-.16 1.04-.13 1.3-.03.07-.19.07-.23.01-.02-.21-.09-.53-.22-.62q-.3-.21-1.03-.21h-.62c-.27 0-.26 0-.26.29v3.81M28.04 28.34c0-.9-.02-1.05-.57-1.09l-.24-.02c-.06-.03-.04-.18.02-.2l1.2.02c.39 0 .7-.01 1.16-.03.06.03.08.18.02.21l-.23.02c-.56.04-.58.19-.58 1.1v3.04c0 .9.02 1.03.58 1.08l.23.03c.06.03.04.19-.02.21a26 26 0 0 0-2.36 0c-.06-.02-.07-.16-.02-.21l.23-.03c.56-.05.58-.17.58-1.08zM32.28 32.8c-.84 0-1.37-.22-1.56-.32a3 3 0 0 1-.27-1.2c.05-.05.2-.07.24-.02.15.44.56 1.27 1.73 1.27.84 0 1.25-.46 1.25-.98 0-.38-.09-.8-.82-1.2l-.95-.52c-.5-.28-1.09-.77-1.09-1.47 0-.81.74-1.47 2.05-1.47.31 0 .68.05.94.1q.21.06.35.06c.09.2.18.68.18 1.04-.04.06-.2.08-.25.03-.13-.41-.4-.97-1.37-.97s-1.2.56-1.2.95c0 .5.49.86.86 1.05l.8.43c.64.33 1.26.83 1.26 1.64 0 .94-.83 1.58-2.15 1.58M37.35 29.92c-.45 0-.46.02-.46.27v1.21c0 .9.04 1.02.56 1.07l.26.02c.06.04.04.2-.02.22l-1.16-.03c-.4 0-.7.02-1.06.03-.06-.03-.08-.17-.02-.22l.15-.02c.52-.09.53-.17.53-1.07v-3.08c0-.9-.06-1.04-.54-1.08l-.24-.01c-.05-.03-.04-.19.02-.21l1.16.02c.35 0 .66 0 1.06-.02.05.02.07.18.02.21l-.18.01c-.53.05-.55.19-.55 1.08v.99c0 .26.02.27.46.27h2.62c.44 0 .46 0 .46-.27v-.99c0-.9-.02-1.02-.56-1.08l-.17-.01c-.06-.03-.04-.19.02-.21a30 30 0 0 0 2.18 0c.06.02.08.18.02.21l-.19.01c-.53.05-.55.19-.55 1.08v3.08c0 .9.02 1.01.55 1.07l.22.02c.06.04.04.2-.02.22a23 23 0 0 0-2.21 0c-.06-.03-.08-.17-.02-.22l.17-.02c.56-.09.56-.17.56-1.07v-1.2c0-.26-.02-.28-.46-.28zM1.3 34.59a4.5 4.5 0 0 1 2.79-.88c.56 0 1.34.11 1.82.25.13.03.2.05.3.04 0 .23.06.88.14 1.51-.06.07-.21.09-.28.02-.16-.7-.62-1.5-2.12-1.5-1.58 0-2.92 1-2.92 3.13 0 2.14 1.37 3.37 3.07 3.37a2.2 2.2 0 0 0 2.15-1.48c.08-.05.23-.03.27.04a4 4 0 0 1-.5 1.41q-.18.04-.36.1c-.22.09-.97.24-1.63.24-.92 0-1.81-.18-2.57-.7A3.3 3.3 0 0 1 0 37.32c0-1.15.51-2.12 1.3-2.74zM6.94 37.93c0-1.71 1.35-3.02 3.19-3.02 2.07 0 3.1 1.43 3.1 2.93 0 1.73-1.38 2.98-3.1 2.98-1.99 0-3.19-1.36-3.19-2.9m5.4.18c0-1.4-.65-2.94-2.36-2.94-.93 0-2.14.61-2.14 2.49 0 1.26.64 2.9 2.4 2.9 1.08 0 2.1-.77 2.1-2.45M23.33 37.2c0-.53-.02-1.52-.17-1.78q-.11-.15-.46-.17l-.22-.02c-.06-.06-.04-.17.02-.2a18 18 0 0 0 1.98 0c.07.04.06.15.02.2l-.22.02q-.36.03-.45.2c-.13.29-.13 1.27-.13 1.74v.97c0 .74-.13 1.53-.63 2.04-.39.4-1.06.63-1.72.63-.63 0-1.25-.11-1.7-.48-.47-.37-.7-1-.7-2.01v-2.02c0-.89-.01-1.03-.54-1.08l-.22-.01c-.05-.04-.04-.18.02-.2a23 23 0 0 0 2.23 0c.05.02.07.16.02.2l-.22.01c-.52.05-.54.19-.54 1.08v1.85c0 1.37.45 2.28 1.84 2.28 1.3 0 1.8-.98 1.8-2.28v-.98zM33.82 36.16c0-.63-.04-.8-.49-.83l-.32-.02c-.08-.05-.07-.18.01-.22.54-.04 1.2-.06 2.13-.06.62 0 1.21.04 1.66.24.42.18.75.52.75 1.07 0 .61-.42.93-1.01 1.17q.01.11.19.13c.53.08 1.32.5 1.32 1.42 0 1-.85 1.66-2.63 1.66l-1.19-.02-1.13.02c-.06-.02-.08-.16-.02-.2l.18-.03c.52-.08.54-.17.54-1.07zm.8 1.14c0 .24.02.25.52.24 1-.04 1.55-.3 1.55-1.1s-.72-1.15-1.47-1.15q-.32 0-.45.05c-.1.03-.14.07-.14.22v1.74m0 1.98c0 .3.03.74.21.93.19.2.49.24.78.24.88 0 1.55-.34 1.55-1.2 0-.67-.4-1.46-1.96-1.46-.54 0-.58.06-.58.23zM17.56 32.5l-.24-.02-.13-.02c-.35-.06-.49-.37-.65-.66l-.82-1.43c-.14-.24-.3-.55-.61-.6.84-.1 1.6-.59 1.6-1.42 0-.96-.96-1.4-1.92-1.4-.57 0-1.14.04-1.73.04-.32 0-.66-.04-.99-.04-.18 0-.18.04-.18.14 0 .15.07.11.25.11.7 0 .66.18.66.76v3.75c0 .54.04.7-.52.75l-.13.01-.23.03c-.06.04-.04.18.02.2h.34q.47-.03.94-.04.46.01.91.04h.35c.06-.02.08-.16.02-.2l-.24-.03-.13-.01c-.56-.04-.53-.2-.53-.75v-1.42c0-.08-.01-.3.05-.36q.09-.06.22-.05c.77 0 .76.08 1.12.72l.99 1.79c.07.13.14.3.34.3h.86l.35.02c.06-.03.07-.17.02-.21m-3.45-2.81c-.17 0-.51.06-.51-.16v-1.64c0-.64.01-.74.79-.74.9 0 1.45.46 1.45 1.3q.02.57-.47.94c-.38.26-.8.3-1.26.3M14.3 36.35c0-.9-.02-1.03-.61-1.08l-.24-.01c-.06-.04-.04-.19.02-.21l1.22.02 1.15-.02c.06.02.08.18.02.2l-.22.02c-.56.04-.58.18-.58 1.08v2.98c0 .54.03.76.2.92.1.1.28.2 1.02.2.8 0 1-.04 1.14-.11.19-.1.43-.41.62-.85.06-.04.24 0 .24.06 0 .09-.27.96-.4 1.2-.47-.02-1.36-.03-2.33-.03h-.86c-.4 0-.7 0-1.22.02-.05-.02-.07-.16-.02-.2l.28-.03c.55-.05.57-.17.57-1.07v-3.09M39.4 36.37c0-.91-.02-1.06-.56-1.1l-.23-.01c-.05-.04-.03-.19.02-.21l1.16.02 1.14-.02c.05.02.07.18.02.2l-.23.02c-.54.04-.56.19-.56 1.1v3.04c0 .9.02 1.02.56 1.08l.23.03c.05.03.03.18-.02.2a34 34 0 0 0-2.3 0c-.05-.02-.07-.15-.02-.2l.23-.03c.54-.06.56-.18.56-1.08zM32.05 40.5l-.14-.02q-.15.01-.25-.1c-.12-.12-.1-.48-.1-.63V36c0-.16-.05-.52.07-.64q.1-.1.3-.08h.12l.24-.03c.06-.03.04-.18-.02-.21h-1.35c-.11 0-.21 0-.27.12l-2.05 4.28-1.81-4.14c-.06-.14-.07-.26-.26-.26h-1.41c-.05.02-.07.17-.02.2l.24.03h.14c.39.03.41.12.38.53l-.3 4.02c-.03.4-.06.62-.48.66l-.14.01-.23.03c-.06.05-.04.18.02.2h.34q.32-.02.65-.03l.7.03.35.01c.06-.02.08-.16.02-.2l-.23-.03-.14-.02c-.6-.04-.59-.47-.55-1l.29-3.73h.07l1.96 4.6c.02.06.05.17.14.17s.12-.1.15-.16l2.21-4.71h.07v4.1c0 .17.02.5-.15.63-.09.06-.37.1-.37.1l-.13.02-.23.03c-.06.05-.04.18.01.2h.35q.48-.03.97-.04l.7.02.36.02c.05-.02.07-.16.01-.2zM47.41 40.52l-.03-.03-.13-.02c-.36-.08-.5-.52-.64-.84l-1.9-4.5c-.02-.05-.06-.17-.13-.17-.1 0-.13.12-.16.2l-1.8 4.49a3 3 0 0 1-.37.7q-.14.13-.34.13l-.15.01-.22.03c-.06.05-.04.18.02.2h.34q.38-.02.75-.04l.63.03.35.01c.06-.02.07-.16.02-.2l-.24-.03-.13-.02c-.21-.02-.49-.06-.49-.3 0-.16.08-.35.14-.5l.28-.66c.14-.33.08-.36.46-.36h1.27c.45 0 .39 0 .59.45l.3.69c.05.11.13.31.13.44 0 .22-.25.24-.48.26h-.14l-.23.02c-.05.06-.03.19.02.21l.35-.01.8-.03q.5 0 .98.03h.15c.06-.02.08-.15.02-.2zm-2.48-2.12h-1.1c-.05 0-.35.03-.35-.05l.02-.11.67-1.65c.02-.05.08-.27.16-.27.06 0 .13.23.15.27l.65 1.54s.07.16.07.2c0 .1-.22.07-.28.07"/><path fill="#fdb913" d="m38.77 12.87-3.74 1.39 1.18.4z"/><path fill="#fdb913" d="m8.96 12.92-2.1-.78.08-.19 2.3.81.23-.14 1.1.6 1.37.5.08-.03-4.88-2.21.08-.2 5.38 2.17.08-.04-5.24-2.59.08-.19 5.7 2.5-5.47-2.95.1-.17 7.67 4.08q.15-.31.35-.6L9.6 8.57l6.67 4.3.52-.64-6.42-5.84.14-.15 4.67 4.14-4.31-4.51.14-.15 4.87 4.69-4.5-5.05.15-.14 4.36 4.46-3.97-4.8.14-.13 5.58 6.65q.33-.3.68-.54l-3.98-6.91 4.59 6.51q.37-.22.77-.42l-3.76-7.8.2-.1 2.78 5.6-2.32-5.8.19-.1 2.77 6.2-2.29-6.39.2-.07 2.37 5.78-1.89-5.95.17-.06 2.68 8.23.77-.22-1.11-7.9 1.83 7.76q.45-.07.92-.1L22.65.51l.2-.01.59 6.2-.09-6.22h.21l.26 6.53.25-6.53h.21l-.05 6.22.57-6.2.19.02-.59 8.62q.45.03.89.09l1.82-7.74-1.1 7.88q.4.1.8.24l2.67-8.2.19.07-1.88 5.9 2.36-5.73.2.07-2.27 6.32 2.74-6.12.2.08-2.3 5.74 2.75-5.53.18.09-3.74 7.76q.38.18.75.4l4.58-6.49-3.97 6.9q.36.25.69.55l5.53-6.6.15.14-3.93 4.76 4.31-4.42.16.15-4.46 5 4.81-4.65.15.15-4.26 4.46 4.6-4.1q.08.08.13.15l-6.36 5.78q.27.3.52.63l6.66-4.3-6.24 4.9.35.61 7.6-4.03.08.18-5.37 2.9 5.6-2.45.09.2-5.95 2.93 6.16-2.47.08.2-5.58 2.5L40.56 12l.07.18-1.23.46 1.83 1.4.5.28c-.19-.78-.49-1.72-.77-2.46A18.8 18.8 0 0 0 23.73.1a18.44 18.44 0 0 0-18 14.51q0 .02-.02.1l.36-.16z"/></g></svg>