<svg xmlns="http://www.w3.org/2000/svg" width="16" height="16" fill="none" viewBox="0 0 16 16"><path fill="#3b3a39" d="M8 .63c2.08 0 2.33 0 3.15.04s1.37.17 1.85.36c.5.2.93.45 1.36.88q.59.58.88 1.35c.19.49.31 1.04.35 1.86.04.81.05 1.07.05 3.15 0 2.07 0 2.33-.05 3.14a6 6 0 0 1-.35 1.86q-.3.77-.88 1.35-.58.6-1.36.88c-.48.2-1.04.32-1.85.36s-1.07.04-3.15.04-2.33 0-3.15-.04A6 6 0 0 1 3 15.5q-.78-.29-1.36-.88a4 4 0 0 1-.88-1.35 6 6 0 0 1-.35-1.86C.37 10.6.36 10.34.36 8.27s0-2.34.05-3.15c.04-.82.16-1.37.35-1.86q.3-.77.88-1.35.58-.6 1.36-.88A6 6 0 0 1 4.85.67C5.67.64 5.92.63 8 .63m0 3.82a3.82 3.82 0 1 0 0 7.63 3.82 3.82 0 0 0 0-7.63m4.97-.2a.95.95 0 1 0-1.91 0 .95.95 0 0 0 1.9 0M8 5.97a2.3 2.3 0 1 1 0 4.59 2.3 2.3 0 0 1 0-4.59"/></svg>