<svg xmlns="http://www.w3.org/2000/svg" width="48" height="48" fill="none" viewBox="0 0 48 48"><rect width="48" height="48" fill="#474543" rx="8"/><path fill="#e0dedc" d="M24 11.75c.77 0 1.48.44 1.86 1.1l11.81 20.12c.38.71.38 1.53 0 2.19-.38.7-1.1 1.09-1.86 1.09H12.2a2.1 2.1 0 0 1-1.92-1.1 2.2 2.2 0 0 1 0-2.18L22.1 12.84A2.2 2.2 0 0 1 24 11.75m0 7c-.77 0-1.31.6-1.31 1.31v6.13c0 .76.54 1.31 1.31 1.31a1.3 1.3 0 0 0 1.31-1.31v-6.13c0-.7-.6-1.31-1.31-1.31M25.75 31A1.8 1.8 0 0 0 24 29.25c-.98 0-1.75.82-1.75 1.75 0 .98.77 1.75 1.75 1.75.93 0 1.75-.77 1.75-1.75"/></svg>