<svg width="34" height="38" viewBox="0 0 34 38" fill="none" xmlns="http://www.w3.org/2000/svg">
<g filter="url(#filter0_d_2931_21380)">
<rect x="5" y="4" width="24" height="24" rx="12" fill="white" shape-rendering="crispEdges"/>
<path d="M17 11.375C17.2734 11.375 17.5273 11.5312 17.6641 11.7656L21.8828 18.9531C22.0195 19.207 22.0195 19.5 21.8828 19.7344C21.7461 19.9883 21.4922 20.125 21.2188 20.125H12.7812C12.4883 20.125 12.2344 19.9883 12.0977 19.7344C11.9609 19.5 11.9609 19.207 12.0977 18.9531L16.3164 11.7656C16.4531 11.5312 16.707 11.375 17 11.375ZM17 13.875C16.7266 13.875 16.5312 14.0898 16.5312 14.3438V16.5312C16.5312 16.8047 16.7266 17 17 17C17.2539 17 17.4688 16.8047 17.4688 16.5312V14.3438C17.4688 14.0898 17.2539 13.875 17 13.875ZM17.625 18.25C17.625 17.918 17.332 17.625 17 17.625C16.6484 17.625 16.375 17.918 16.375 18.25C16.375 18.6016 16.6484 18.875 17 18.875C17.332 18.875 17.625 18.6016 17.625 18.25Z" fill="#644A0A"/>
<rect x="5.5" y="4.5" width="23" height="23" rx="11.5" stroke="#644A0A" shape-rendering="crispEdges"/>
</g>
<defs>
<filter id="filter0_d_2931_21380" x="0.157895" y="4" width="33.6842" height="33.6842" filterUnits="userSpaceOnUse" color-interpolation-filters="sRGB">
<feFlood flood-opacity="0" result="BackgroundImageFix"/>
<feColorMatrix in="SourceAlpha" type="matrix" values="0 0 0 0 0 0 0 0 0 0 0 0 0 0 0 0 0 0 127 0" result="hardAlpha"/>
<feOffset dy="4.84211"/>
<feGaussianBlur stdDeviation="2.42105"/>
<feComposite in2="hardAlpha" operator="out"/>
<feColorMatrix type="matrix" values="0 0 0 0 0 0 0 0 0 0 0 0 0 0 0 0 0 0 0.25 0"/>
<feBlend mode="normal" in2="BackgroundImageFix" result="effect1_dropShadow_2931_21380"/>
<feBlend mode="normal" in="SourceGraphic" in2="effect1_dropShadow_2931_21380" result="shape"/>
</filter>
</defs>
</svg>
