<svg width="42" height="42" viewBox="0 0 42 42" fill="none" xmlns="http://www.w3.org/2000/svg">
<g filter="url(#filter0_d_2931_21379)">
<rect x="5" width="32" height="32" rx="16" fill="#D8292F" shape-rendering="crispEdges"/>
<path d="M21 9C21.4375 9 21.8438 9.25 22.0625 9.625L28.8125 21.125C29.0312 21.5312 29.0312 22 28.8125 22.375C28.5938 22.7812 28.1875 23 27.75 23H14.25C13.7812 23 13.375 22.7812 13.1562 22.375C12.9375 22 12.9375 21.5312 13.1562 21.125L19.9062 9.625C20.125 9.25 20.5312 9 21 9ZM21 13C20.5625 13 20.25 13.3438 20.25 13.75V17.25C20.25 17.6875 20.5625 18 21 18C21.4062 18 21.75 17.6875 21.75 17.25V13.75C21.75 13.3438 21.4062 13 21 13ZM22 20C22 19.4688 21.5312 19 21 19C20.4375 19 20 19.4688 20 20C20 20.5625 20.4375 21 21 21C21.5312 21 22 20.5625 22 20Z" fill="white"/>
</g>
<defs>
<filter id="filter0_d_2931_21379" x="0.157895" y="0" width="41.6842" height="41.6842" filterUnits="userSpaceOnUse" color-interpolation-filters="sRGB">
<feFlood flood-opacity="0" result="BackgroundImageFix"/>
<feColorMatrix in="SourceAlpha" type="matrix" values="0 0 0 0 0 0 0 0 0 0 0 0 0 0 0 0 0 0 127 0" result="hardAlpha"/>
<feOffset dy="4.84211"/>
<feGaussianBlur stdDeviation="2.42105"/>
<feComposite in2="hardAlpha" operator="out"/>
<feColorMatrix type="matrix" values="0 0 0 0 0 0 0 0 0 0 0 0 0 0 0 0 0 0 0.25 0"/>
<feBlend mode="normal" in2="BackgroundImageFix" result="effect1_dropShadow_2931_21379"/>
<feBlend mode="normal" in="SourceGraphic" in2="effect1_dropShadow_2931_21379" result="shape"/>
</filter>
</defs>
</svg>
