<svg width="34" height="38" viewBox="0 0 34 38" fill="none" xmlns="http://www.w3.org/2000/svg">
<g filter="url(#filter0_d_2931_21381)">
<rect x="5" y="4" width="24" height="24" rx="12" fill="white" shape-rendering="crispEdges"/>
<path d="M17 11.0625C17.3008 11.0625 17.5801 11.2344 17.7305 11.4922L22.3711 19.3984C22.5215 19.6777 22.5215 20 22.3711 20.2578C22.2207 20.5371 21.9414 20.6875 21.6406 20.6875H12.3594C12.0371 20.6875 11.7578 20.5371 11.6074 20.2578C11.457 20 11.457 19.6777 11.6074 19.3984L16.248 11.4922C16.3984 11.2344 16.6777 11.0625 17 11.0625ZM17 13.8125C16.6992 13.8125 16.4844 14.0488 16.4844 14.3281V16.7344C16.4844 17.0352 16.6992 17.25 17 17.25C17.2793 17.25 17.5156 17.0352 17.5156 16.7344V14.3281C17.5156 14.0488 17.2793 13.8125 17 13.8125ZM17.6875 18.625C17.6875 18.2598 17.3652 17.9375 17 17.9375C16.6133 17.9375 16.3125 18.2598 16.3125 18.625C16.3125 19.0117 16.6133 19.3125 17 19.3125C17.3652 19.3125 17.6875 19.0117 17.6875 18.625Z" fill="#D8292F"/>
<rect x="5.5" y="4.5" width="23" height="23" rx="11.5" stroke="#D8292F" shape-rendering="crispEdges"/>
</g>
<defs>
<filter id="filter0_d_2931_21381" x="0.157895" y="4" width="33.6842" height="33.6842" filterUnits="userSpaceOnUse" color-interpolation-filters="sRGB">
<feFlood flood-opacity="0" result="BackgroundImageFix"/>
<feColorMatrix in="SourceAlpha" type="matrix" values="0 0 0 0 0 0 0 0 0 0 0 0 0 0 0 0 0 0 127 0" result="hardAlpha"/>
<feOffset dy="4.84211"/>
<feGaussianBlur stdDeviation="2.42105"/>
<feComposite in2="hardAlpha" operator="out"/>
<feColorMatrix type="matrix" values="0 0 0 0 0 0 0 0 0 0 0 0 0 0 0 0 0 0 0.25 0"/>
<feBlend mode="normal" in2="BackgroundImageFix" result="effect1_dropShadow_2931_21381"/>
<feBlend mode="normal" in="SourceGraphic" in2="effect1_dropShadow_2931_21381" result="shape"/>
</filter>
</defs>
</svg>
