<svg width="34" height="38" viewBox="0 0 34 38" fill="none" xmlns="http://www.w3.org/2000/svg">
<g filter="url(#filter0_d_2931_21579)">
<rect x="5" y="4" width="24" height="24" rx="12" fill="white" shape-rendering="crispEdges"/>
<path d="M14.9688 11.75C14.9688 11.3848 15.1621 11.0625 15.4844 10.8691C15.7852 10.6758 16.1934 10.6758 16.5156 10.8691C16.8164 11.0625 17.0312 11.3848 17.0312 11.75C17.0312 12.1367 16.8164 12.459 16.5156 12.6523C16.1934 12.8457 15.7852 12.8457 15.4844 12.6523C15.1621 12.459 14.9688 12.1367 14.9688 11.75ZM10.6934 14.9941C10.8008 14.7363 11.1016 14.6074 11.3809 14.7148L11.7891 14.8867L12.2832 14.0703C12.627 13.4902 13.2715 13.125 13.959 13.125C15.0547 13.125 16.043 13.834 16.3867 14.8867L17.1172 17.1211L18.8359 17.8301L19.5664 16.8418C19.6953 16.6699 19.9316 16.5625 20.1465 16.584C20.3828 16.584 20.5762 16.7129 20.7051 16.9062L22.7676 20.3438C22.8965 20.5586 22.8965 20.8164 22.7676 21.0312C22.6602 21.2461 22.4238 21.375 22.1875 21.375H16.6875C16.4297 21.375 16.2148 21.2676 16.0859 21.0527C15.9785 20.8594 15.957 20.6016 16.0645 20.3867L16.4082 19.6992C16.5156 19.4629 16.752 19.3125 17.0312 19.3125H17.7188L18.1914 18.668L10.9727 15.6816C10.7148 15.5742 10.5859 15.2734 10.6934 14.9941ZM12.4766 16.9707L14.8828 18.002C15.1406 18.1094 15.3125 18.3672 15.3125 18.625V20.6875C15.3125 21.0742 14.9902 21.375 14.625 21.375C14.2383 21.375 13.9375 21.0742 13.9375 20.6875V19.0977L12.627 18.5391L11.832 20.9238C11.7031 21.2676 11.3164 21.4609 10.9512 21.3535C10.6074 21.2246 10.4141 20.8379 10.5215 20.4727L11.5527 17.3789L11.7891 16.6699L12.4766 16.9707Z" fill="#D8292F"/>
<rect x="5.5" y="4.5" width="23" height="23" rx="11.5" stroke="#D8292F" shape-rendering="crispEdges"/>
</g>
<defs>
<filter id="filter0_d_2931_21579" x="0.157895" y="4" width="33.6842" height="33.6842" filterUnits="userSpaceOnUse" color-interpolation-filters="sRGB">
<feFlood flood-opacity="0" result="BackgroundImageFix"/>
<feColorMatrix in="SourceAlpha" type="matrix" values="0 0 0 0 0 0 0 0 0 0 0 0 0 0 0 0 0 0 127 0" result="hardAlpha"/>
<feOffset dy="4.84211"/>
<feGaussianBlur stdDeviation="2.42105"/>
<feComposite in2="hardAlpha" operator="out"/>
<feColorMatrix type="matrix" values="0 0 0 0 0 0 0 0 0 0 0 0 0 0 0 0 0 0 0.25 0"/>
<feBlend mode="normal" in2="BackgroundImageFix" result="effect1_dropShadow_2931_21579"/>
<feBlend mode="normal" in="SourceGraphic" in2="effect1_dropShadow_2931_21579" result="shape"/>
</filter>
</defs>
</svg>
