<svg width="42" height="42" viewBox="0 0 42 42" fill="none" xmlns="http://www.w3.org/2000/svg">
<g filter="url(#filter0_d_2931_21595)">
<rect x="5" width="32" height="32" rx="16" fill="#D8292F" shape-rendering="crispEdges"/>
<path d="M18.5 10C18.5 9.46875 18.7812 9 19.25 8.71875C19.6875 8.4375 20.2812 8.4375 20.75 8.71875C21.1875 9 21.5 9.46875 21.5 10C21.5 10.5625 21.1875 11.0312 20.75 11.3125C20.2812 11.5938 19.6875 11.5938 19.25 11.3125C18.7812 11.0312 18.5 10.5625 18.5 10ZM12.2812 14.7188C12.4375 14.3438 12.875 14.1562 13.2812 14.3125L13.875 14.5625L14.5938 13.375C15.0938 12.5312 16.0312 12 17.0312 12C18.625 12 20.0625 13.0312 20.5625 14.5625L21.625 17.8125L24.125 18.8438L25.1875 17.4062C25.375 17.1562 25.7188 17 26.0312 17.0312C26.375 17.0312 26.6562 17.2188 26.8438 17.5L29.8438 22.5C30.0312 22.8125 30.0312 23.1875 29.8438 23.5C29.6875 23.8125 29.3438 24 29 24H21C20.625 24 20.3125 23.8438 20.125 23.5312C19.9688 23.25 19.9375 22.875 20.0938 22.5625L20.5938 21.5625C20.75 21.2188 21.0938 21 21.5 21H22.5L23.1875 20.0625L12.6875 15.7188C12.3125 15.5625 12.125 15.125 12.2812 14.7188ZM14.875 17.5938L18.375 19.0938C18.75 19.25 19 19.625 19 20V23C19 23.5625 18.5312 24 18 24C17.4375 24 17 23.5625 17 23V20.6875L15.0938 19.875L13.9375 23.3438C13.75 23.8438 13.1875 24.125 12.6562 23.9688C12.1562 23.7812 11.875 23.2188 12.0312 22.6875L13.5312 18.1875L13.875 17.1562L14.875 17.5938Z" fill="white"/>
</g>
<defs>
<filter id="filter0_d_2931_21595" x="0.157895" y="0" width="41.6842" height="41.6842" filterUnits="userSpaceOnUse" color-interpolation-filters="sRGB">
<feFlood flood-opacity="0" result="BackgroundImageFix"/>
<feColorMatrix in="SourceAlpha" type="matrix" values="0 0 0 0 0 0 0 0 0 0 0 0 0 0 0 0 0 0 127 0" result="hardAlpha"/>
<feOffset dy="4.84211"/>
<feGaussianBlur stdDeviation="2.42105"/>
<feComposite in2="hardAlpha" operator="out"/>
<feColorMatrix type="matrix" values="0 0 0 0 0 0 0 0 0 0 0 0 0 0 0 0 0 0 0.25 0"/>
<feBlend mode="normal" in2="BackgroundImageFix" result="effect1_dropShadow_2931_21595"/>
<feBlend mode="normal" in="SourceGraphic" in2="effect1_dropShadow_2931_21595" result="shape"/>
</filter>
</defs>
</svg>
