<svg width="34" height="38" viewBox="0 0 34 38" fill="none" xmlns="http://www.w3.org/2000/svg">
<g filter="url(#filter0_d_2931_21593)">
<rect x="5" y="4" width="24" height="24" rx="12" fill="#E8C061" shape-rendering="crispEdges"/>
<path d="M14.75 10.375C15.1152 10.375 15.4375 10.6973 15.4375 11.0625V11.75H18.1875V11.0625C18.1875 10.6973 18.4883 10.375 18.875 10.375C19.2402 10.375 19.5625 10.6973 19.5625 11.0625V11.75H20.5938C21.1523 11.75 21.625 12.2227 21.625 12.7812V13.8125H12V12.7812C12 12.2227 12.4512 11.75 13.0312 11.75H14.0625V11.0625C14.0625 10.6973 14.3633 10.375 14.75 10.375ZM12 14.5H21.625V20.3438C21.625 20.9238 21.1523 21.375 20.5938 21.375H13.0312C12.4512 21.375 12 20.9238 12 20.3438V14.5ZM13.375 16.2188V16.9062C13.375 17.0996 13.5254 17.25 13.7188 17.25H14.4062C14.5781 17.25 14.75 17.0996 14.75 16.9062V16.2188C14.75 16.0469 14.5781 15.875 14.4062 15.875H13.7188C13.5254 15.875 13.375 16.0469 13.375 16.2188ZM16.125 16.2188V16.9062C16.125 17.0996 16.2754 17.25 16.4688 17.25H17.1562C17.3281 17.25 17.5 17.0996 17.5 16.9062V16.2188C17.5 16.0469 17.3281 15.875 17.1562 15.875H16.4688C16.2754 15.875 16.125 16.0469 16.125 16.2188ZM19.2188 15.875C19.0254 15.875 18.875 16.0469 18.875 16.2188V16.9062C18.875 17.0996 19.0254 17.25 19.2188 17.25H19.9062C20.0781 17.25 20.25 17.0996 20.25 16.9062V16.2188C20.25 16.0469 20.0781 15.875 19.9062 15.875H19.2188ZM13.375 18.9688V19.6562C13.375 19.8496 13.5254 20 13.7188 20H14.4062C14.5781 20 14.75 19.8496 14.75 19.6562V18.9688C14.75 18.7969 14.5781 18.625 14.4062 18.625H13.7188C13.5254 18.625 13.375 18.7969 13.375 18.9688ZM16.4688 18.625C16.2754 18.625 16.125 18.7969 16.125 18.9688V19.6562C16.125 19.8496 16.2754 20 16.4688 20H17.1562C17.3281 20 17.5 19.8496 17.5 19.6562V18.9688C17.5 18.7969 17.3281 18.625 17.1562 18.625H16.4688ZM18.875 18.9688V19.6562C18.875 19.8496 19.0254 20 19.2188 20H19.9062C20.0781 20 20.25 19.8496 20.25 19.6562V18.9688C20.25 18.7969 20.0781 18.625 19.9062 18.625H19.2188C19.0254 18.625 18.875 18.7969 18.875 18.9688Z" fill="#644A0A"/>
</g>
<defs>
<filter id="filter0_d_2931_21593" x="0.157895" y="4" width="33.6842" height="33.6842" filterUnits="userSpaceOnUse" color-interpolation-filters="sRGB">
<feFlood flood-opacity="0" result="BackgroundImageFix"/>
<feColorMatrix in="SourceAlpha" type="matrix" values="0 0 0 0 0 0 0 0 0 0 0 0 0 0 0 0 0 0 127 0" result="hardAlpha"/>
<feOffset dy="4.84211"/>
<feGaussianBlur stdDeviation="2.42105"/>
<feComposite in2="hardAlpha" operator="out"/>
<feColorMatrix type="matrix" values="0 0 0 0 0 0 0 0 0 0 0 0 0 0 0 0 0 0 0.25 0"/>
<feBlend mode="normal" in2="BackgroundImageFix" result="effect1_dropShadow_2931_21593"/>
<feBlend mode="normal" in="SourceGraphic" in2="effect1_dropShadow_2931_21593" result="shape"/>
</filter>
</defs>
</svg>
