<svg width="42" height="42" viewBox="0 0 42 42" fill="none" xmlns="http://www.w3.org/2000/svg">
<g filter="url(#filter0_d_2931_21458)">
<rect x="5" width="32" height="32" rx="16" fill="#FCBA19" shape-rendering="crispEdges"/>
<path d="M21 8C21.5312 8 22 8.46875 22 9V9.96875L22.4688 9.5C22.75 9.1875 23.2188 9.1875 23.5 9.5C23.8125 9.78125 23.8125 10.25 23.5 10.5312L21.9688 12.0625V14.2812L23.9062 13.1562L24.4688 11.0938C24.5625 10.6875 24.9688 10.4375 25.375 10.5625C25.7812 10.6562 26 11.0625 25.9062 11.4688L25.75 12.0938L26.4688 11.6562C26.9688 11.375 27.5625 11.5312 27.8438 12C28.125 12.4688 27.9688 13.0938 27.5 13.375L26.6875 13.8438L27.375 14.0312C27.7812 14.125 28 14.5312 27.9062 14.9375C27.8125 15.3438 27.375 15.5625 27 15.4688L24.875 14.9062L22.9688 16L24.875 17.125L27 16.5625C27.375 16.4375 27.8125 16.6875 27.9062 17.0938C28 17.5 27.7812 17.9062 27.375 18L26.6875 18.1875L27.5 18.6562C27.9688 18.9375 28.125 19.5312 27.8438 20.0312C27.5625 20.5 26.9688 20.6562 26.4688 20.375L25.75 19.9375L25.9062 20.5625C26 20.9375 25.7812 21.375 25.375 21.4688C24.9688 21.5625 24.5625 21.3438 24.4688 20.9375L23.9062 18.875L22 17.75V19.9375L23.5312 21.4688C23.8125 21.7812 23.8125 22.25 23.5312 22.5312C23.2188 22.8438 22.75 22.8438 22.4688 22.5312L22 22.0625V23C22 23.5625 21.5312 24 21 24C20.4375 24 20 23.5625 20 23V22.0625L19.5312 22.5312C19.2188 22.8438 18.75 22.8438 18.4688 22.5312C18.1562 22.25 18.1562 21.7812 18.4688 21.4688L20 19.9375V17.75L18.0625 18.875L17.5312 20.9375C17.4062 21.3438 17 21.5625 16.5938 21.4688C16.1875 21.375 15.9688 20.9375 16.0625 20.5625L16.2188 19.9375L15.5 20.375C15 20.6562 14.4062 20.5 14.125 20.0312C13.8438 19.5312 14 18.9375 14.4688 18.6562L15.2812 18.1875L14.5938 18C14.1875 17.9062 13.9688 17.5 14.0625 17.0938C14.1562 16.6875 14.5938 16.4375 14.9688 16.5625L17.0938 17.125L19 16L17.0938 14.9062L14.9688 15.4688C14.5938 15.5625 14.1562 15.3438 14.0625 14.9375C13.9688 14.5312 14.1875 14.125 14.5938 14.0312L15.2812 13.8438L14.4688 13.375C14 13.0938 13.8438 12.5 14.125 12C14.4062 11.5312 15 11.375 15.5 11.6562L16.2188 12.0938L16.0625 11.4688C15.9688 11.0938 16.1875 10.6562 16.5938 10.5625C17 10.4688 17.4062 10.6875 17.5312 11.0938L18.0625 13.1562L20 14.2812V12.0625L18.4688 10.5312C18.1562 10.25 18.1562 9.78125 18.4688 9.5C18.75 9.1875 19.2188 9.1875 19.5 9.5L19.9688 9.96875V9C19.9688 8.46875 20.4375 8 20.9688 8H21Z" fill="#644A0A"/>
</g>
<defs>
<filter id="filter0_d_2931_21458" x="0.157895" y="0" width="41.6842" height="41.6842" filterUnits="userSpaceOnUse" color-interpolation-filters="sRGB">
<feFlood flood-opacity="0" result="BackgroundImageFix"/>
<feColorMatrix in="SourceAlpha" type="matrix" values="0 0 0 0 0 0 0 0 0 0 0 0 0 0 0 0 0 0 127 0" result="hardAlpha"/>
<feOffset dy="4.84211"/>
<feGaussianBlur stdDeviation="2.42105"/>
<feComposite in2="hardAlpha" operator="out"/>
<feColorMatrix type="matrix" values="0 0 0 0 0 0 0 0 0 0 0 0 0 0 0 0 0 0 0.25 0"/>
<feBlend mode="normal" in2="BackgroundImageFix" result="effect1_dropShadow_2931_21458"/>
<feBlend mode="normal" in="SourceGraphic" in2="effect1_dropShadow_2931_21458" result="shape"/>
</filter>
</defs>
</svg>
