<svg width="34" height="38" viewBox="0 0 34 38" fill="none" xmlns="http://www.w3.org/2000/svg">
<g filter="url(#filter0_d_2931_21450)">
<rect x="5" y="4" width="24" height="24" rx="12" fill="white" shape-rendering="crispEdges"/>
<path d="M16.8125 10.375C17.1777 10.375 17.5 10.6973 17.5 11.0625V11.7285L17.8223 11.4062C18.0156 11.1914 18.3379 11.1914 18.5312 11.4062C18.7461 11.5996 18.7461 11.9219 18.5312 12.1152L17.4785 13.168V14.6934L18.8105 13.9199L19.1973 12.502C19.2617 12.2227 19.541 12.0508 19.8203 12.1367C20.0996 12.2012 20.25 12.4805 20.1855 12.7598L20.0781 13.1895L20.5723 12.8887C20.916 12.6953 21.3242 12.8027 21.5176 13.125C21.7109 13.4473 21.6035 13.877 21.2812 14.0703L20.7227 14.3926L21.1953 14.5215C21.4746 14.5859 21.625 14.8652 21.5605 15.1445C21.4961 15.4238 21.1953 15.5742 20.9375 15.5098L19.4766 15.123L18.166 15.875L19.4766 16.6484L20.9375 16.2617C21.1953 16.1758 21.4961 16.3477 21.5605 16.627C21.625 16.9062 21.4746 17.1855 21.1953 17.25L20.7227 17.3789L21.2812 17.7012C21.6035 17.8945 21.7109 18.3027 21.5176 18.6465C21.3242 18.9688 20.916 19.0762 20.5723 18.8828L20.0781 18.582L20.1855 19.0117C20.25 19.2695 20.0996 19.5703 19.8203 19.6348C19.541 19.6992 19.2617 19.5488 19.1973 19.2695L18.8105 17.8516L17.5 17.0781V18.582L18.5527 19.6348C18.7461 19.8496 18.7461 20.1719 18.5527 20.3652C18.3379 20.5801 18.0156 20.5801 17.8223 20.3652L17.5 20.043V20.6875C17.5 21.0742 17.1777 21.375 16.8125 21.375C16.4258 21.375 16.125 21.0742 16.125 20.6875V20.043L15.8027 20.3652C15.5879 20.5801 15.2656 20.5801 15.0723 20.3652C14.8574 20.1719 14.8574 19.8496 15.0723 19.6348L16.125 18.582V17.0781L14.793 17.8516L14.4277 19.2695C14.3418 19.5488 14.0625 19.6992 13.7832 19.6348C13.5039 19.5703 13.3535 19.2695 13.418 19.0117L13.5254 18.582L13.0312 18.8828C12.6875 19.0762 12.2793 18.9688 12.0859 18.6465C11.8926 18.3027 12 17.8945 12.3223 17.7012L12.8809 17.3789L12.4082 17.25C12.1289 17.1855 11.9785 16.9062 12.043 16.627C12.1074 16.3477 12.4082 16.1758 12.666 16.2617L14.127 16.6484L15.4375 15.875L14.127 15.123L12.666 15.5098C12.4082 15.5742 12.1074 15.4238 12.043 15.1445C11.9785 14.8652 12.1289 14.5859 12.4082 14.5215L12.8809 14.3926L12.3223 14.0703C12 13.877 11.8926 13.4688 12.0859 13.125C12.2793 12.8027 12.6875 12.6953 13.0312 12.8887L13.5254 13.1895L13.418 12.7598C13.3535 12.502 13.5039 12.2012 13.7832 12.1367C14.0625 12.0723 14.3418 12.2227 14.4277 12.502L14.793 13.9199L16.125 14.6934V13.168L15.0723 12.1152C14.8574 11.9219 14.8574 11.5996 15.0723 11.4062C15.2656 11.1914 15.5879 11.1914 15.7812 11.4062L16.1035 11.7285V11.0625C16.1035 10.6973 16.4258 10.375 16.791 10.375H16.8125Z" fill="#644A0A"/>
<rect x="5.5" y="4.5" width="23" height="23" rx="11.5" stroke="#644A0A" shape-rendering="crispEdges"/>
</g>
<defs>
<filter id="filter0_d_2931_21450" x="0.157895" y="4" width="33.6842" height="33.6842" filterUnits="userSpaceOnUse" color-interpolation-filters="sRGB">
<feFlood flood-opacity="0" result="BackgroundImageFix"/>
<feColorMatrix in="SourceAlpha" type="matrix" values="0 0 0 0 0 0 0 0 0 0 0 0 0 0 0 0 0 0 127 0" result="hardAlpha"/>
<feOffset dy="4.84211"/>
<feGaussianBlur stdDeviation="2.42105"/>
<feComposite in2="hardAlpha" operator="out"/>
<feColorMatrix type="matrix" values="0 0 0 0 0 0 0 0 0 0 0 0 0 0 0 0 0 0 0.25 0"/>
<feBlend mode="normal" in2="BackgroundImageFix" result="effect1_dropShadow_2931_21450"/>
<feBlend mode="normal" in="SourceGraphic" in2="effect1_dropShadow_2931_21450" result="shape"/>
</filter>
</defs>
</svg>
